<svg width="67" height="67" viewBox="0 0 67 67" fill="none" xmlns="http://www.w3.org/2000/svg">
<path d="M36.2856 18H40.5713L45.7141 39L47.7141 40.8571" stroke="#272727" stroke-width="2" stroke-miterlimit="10" stroke-linecap="round" stroke-linejoin="round"/>
<path d="M47.7143 48C51.6591 48 54.8571 44.8021 54.8571 40.8572C54.8571 36.9123 51.6591 33.7144 47.7143 33.7144C43.7694 33.7144 40.5714 36.9123 40.5714 40.8572C40.5714 44.8021 43.7694 48 47.7143 48Z" stroke="#272727" stroke-width="2" stroke-miterlimit="10" stroke-linecap="round" stroke-linejoin="round"/>
<path d="M19.1428 48C23.0877 48 26.2857 44.8021 26.2857 40.8572C26.2857 36.9123 23.0877 33.7144 19.1428 33.7144C15.198 33.7144 12 36.9123 12 40.8572C12 44.8021 15.198 48 19.1428 48Z" stroke="#272727" stroke-width="2" stroke-miterlimit="10" stroke-linecap="round" stroke-linejoin="round"/>
<path d="M19.1429 40.8576C20.5715 40.8576 32.0001 40.8576 32.0001 40.8576L42 28.0005L24.8572 28.0005L19.1429 40.8576Z" stroke="#272727" stroke-width="2" stroke-miterlimit="10" stroke-linecap="round" stroke-linejoin="round"/>
<path d="M32.0001 40.8565L25.4287 28.7137C24.2858 26.5709 24.5715 23.9994 26.2858 22.2852H20.5715" stroke="#272727" stroke-width="2" stroke-miterlimit="10" stroke-linecap="round" stroke-linejoin="round"/>
</svg>
