<svg width="67" height="67" viewBox="0 0 67 67" fill="none" xmlns="http://www.w3.org/2000/svg">
<path d="M6.29414 28.8394L10.0652 23.7589C11.3408 22.0416 13.5688 21 15.9635 21L33.5245 21C36.4788 21 39.3096 22.0058 41.3772 23.7911L46.3888 28.1176L58.3416 30.4602C60.3373 30.8521 61.7485 32.3569 61.7485 34.0899V38.0636C61.7485 38.9196 60.9277 39.6155 59.9155 39.6155H53.5606C53.5688 39.7225 53.5811 39.8288 53.5811 39.9368C53.5811 42.7331 50.9025 45 47.5985 45C44.2964 45 41.6179 42.7331 41.6179 39.9368C41.6179 39.8288 41.6302 39.7225 41.6384 39.6155L22.8328 39.6155C22.841 39.7225 22.8533 39.8288 22.8533 39.9368C22.8533 42.7331 20.1748 45 16.8727 45C13.5687 45 10.8922 42.7331 10.8922 39.9368C10.8922 39.8288 10.9024 39.7225 10.9106 39.6155H6.83302C5.82086 39.6155 5.00001 38.9196 5.00001 38.0636V32.639C5.00012 31.2945 5.44856 29.9786 6.29414 28.8394ZM47.5985 41.9547C48.9151 41.9547 49.9808 41.0498 49.9808 39.9368C49.9808 38.8229 48.9151 37.9199 47.5985 37.9199C46.2839 37.9199 45.2161 38.8229 45.2161 39.9368C45.2161 41.0497 46.2839 41.9547 47.5985 41.9547ZM32.4732 29.2235L43.2452 29.2235L39.1223 25.6644C37.6575 24.3998 35.6168 23.6752 33.5245 23.6752H32.4731V29.2235H32.4732ZM20.185 29.2235H29.7103V23.6752H20.185V29.2235ZM16.8727 41.9547C18.1873 41.9547 19.2551 41.0498 19.2551 39.9368C19.2551 38.8229 18.1873 37.9199 16.8727 37.9199C15.5561 37.9199 14.4904 38.8229 14.4904 39.9368C14.4904 41.0497 15.5561 41.9547 16.8727 41.9547ZM17.42 29.2235V23.6752H15.9634C14.6468 23.6752 13.4412 24.2386 12.7417 25.1827L9.74227 29.2235H17.42Z" fill="#272727"/>
</svg>
