<svg width="145" height="62" viewBox="0 0 145 62" fill="none" xmlns="http://www.w3.org/2000/svg">
<path d="M28.4722 61.9834C34.8644 61.9834 40.0463 56.8444 40.0463 50.505C40.0463 44.1657 34.8644 39.0266 28.4722 39.0266C22.08 39.0266 16.8981 44.1657 16.8981 50.505C16.8981 56.8444 22.08 61.9834 28.4722 61.9834Z" fill="#272727"/>
<path d="M116.343 61.9834C122.735 61.9834 127.917 56.8444 127.917 50.505C127.917 44.1657 122.735 39.0266 116.343 39.0266C109.95 39.0266 104.769 44.1657 104.769 50.505C104.769 56.8444 109.95 61.9834 116.343 61.9834Z" fill="#272727"/>
<path d="M143.624 29.0174L135.344 21.5138C134.669 20.9038 133.79 20.5627 132.877 20.5627H100.866C99.8412 20.5627 98.8623 20.1364 98.1679 19.3821L81.3425 1.18064C80.6481 0.4329 79.6692 0 78.6441 0H31.0978C30.1719 0 29.2725 0.347632 28.5979 0.977305L1.15741 26.4397C0.416666 27.1284 0 28.086 0 29.0896V47.7371C0 49.7441 1.64021 51.3642 3.6574 51.3642H13.8161C13.7963 51.0756 13.7897 50.787 13.7897 50.4984V50.4591C13.7897 48.4323 12.123 46.7729 10.0794 46.7729H5.60846C5.06613 46.7729 4.62962 46.34 4.62962 45.8021V31.077C4.62962 30.0734 5.0529 29.1092 5.78703 28.4271L30.4299 5.56867C31.1111 4.93899 32.0039 4.59136 32.9299 4.59136H76.6071C77.6322 4.59136 78.611 5.0177 79.3055 5.772L95.8332 23.6718L96.1242 23.9866C96.8187 24.7343 97.7975 25.1672 98.8226 25.1672H131.078C131.991 25.1672 132.87 25.5083 133.545 26.1183L138.988 31.0507C139.749 31.7394 140.178 32.7102 140.178 33.7334V46.1694C140.178 46.5171 139.894 46.7925 139.55 46.7925H134.504C132.46 46.7925 130.787 48.452 130.794 50.4788V50.5181C130.794 50.8067 130.78 51.0953 130.767 51.3839H141.151C143.174 51.3839 144.808 49.7573 144.808 47.7567V31.7132C144.808 30.6965 144.378 29.7192 143.618 29.0305L143.624 29.0174Z" fill="#272727"/>
<path d="M42.9232 50.4658V50.5051C42.9232 50.7937 42.91 51.0823 42.8968 51.3709H101.7C101.68 51.0823 101.673 50.7937 101.673 50.5051C101.673 50.492 101.673 50.4789 101.673 50.4658C101.673 48.4456 100.092 46.7795 98.0555 46.7795H46.5542C44.5172 46.7795 42.9299 48.4456 42.9365 50.4658H42.9232Z" fill="#272727"/>
<path d="M63.6242 22.8191C63.6242 24.085 64.6626 25.1148 65.939 25.1148H87.5197C88.4456 25.1148 89.2856 24.5704 89.6493 23.7243C90.0131 22.8782 89.8345 21.9009 89.193 21.2384L76.9906 8.55311C76.5541 8.10053 75.9456 7.84473 75.3173 7.84473H58.4126C57.1361 7.84473 56.0978 8.8745 56.0978 10.1404V41.5257C56.0978 42.7916 57.1361 43.8213 58.4126 43.8213C59.689 43.8213 60.7274 42.7916 60.7274 41.5257V12.4361H74.3253L82.1097 20.53H65.939C64.6626 20.53 63.6242 21.5598 63.6242 22.8257V22.8191Z" fill="#272727"/>
</svg>
