<svg width="67" height="67" viewBox="0 0 67 67" fill="none" xmlns="http://www.w3.org/2000/svg">
<path d="M57.2988 22.8212L61.3367 34.1748C61.7388 35.1316 62 36.6824 62 37.4203C62 38.1582 62 41.8975 62 41.8975C62 43.1123 61.0058 44.1099 59.7877 44.1099H57.1392C56.8729 46.855 54.5604 48.9995 51.7458 48.9995C48.9311 48.9995 46.6171 46.855 46.3506 44.11H41.4526V20.877H54.0311C55.2475 20.877 56.7185 21.7524 57.2988 22.8212ZM51.7458 46.2884C53.2422 46.2884 54.457 45.0735 54.457 43.5772C54.457 42.0808 53.2422 40.8694 51.7458 40.8694C50.2477 40.8694 49.0346 42.0807 49.0346 43.5772C49.0346 45.0737 50.2478 46.2884 51.7458 46.2884ZM43.9975 23.7612V32.3952H56.9102L54.3722 24.6198C54.1499 24.2092 53.3949 23.7613 52.9301 23.7613L43.9975 23.7612Z" fill="#272727"/>
<path d="M38.3513 18V44.1104H22.378C22.115 46.8555 19.801 49 16.9863 49C14.1699 49 11.8592 46.8555 11.5895 44.1104H6.40636V18H38.3513ZM16.9862 46.2888C18.4826 46.2888 19.6974 45.074 19.6974 43.5776C19.6974 42.0813 18.4826 40.8698 16.9862 40.8698C15.4881 40.8698 14.275 42.0812 14.275 43.5776C14.275 45.0741 15.4882 46.2888 16.9862 46.2888Z" fill="#272727"/>
</svg>
