<svg width="67" height="67" viewBox="0 0 67 67" fill="none" xmlns="http://www.w3.org/2000/svg">
<path d="M53 44.3152C53.0004 44.5112 52.9609 44.7054 52.8839 44.8866C52.8069 45.0678 52.6938 45.2325 52.5511 45.3712C52.4085 45.5099 52.2391 45.62 52.0525 45.6951C51.866 45.7702 51.6661 45.8088 51.4642 45.8088H48.9026C48.6805 46.6045 48.2825 47.3436 47.7363 47.9748C47.1901 48.6061 46.5088 49.1142 45.7399 49.4639C44.9709 49.8136 44.1327 49.9966 43.2835 50C42.4344 50.0033 41.5947 49.8271 40.8228 49.4836C40.0509 49.14 39.3653 48.6373 38.8138 48.0105C38.2623 47.3836 37.858 46.6477 37.6292 45.8539C37.4003 45.06 37.3523 44.2273 37.4885 43.4136C37.6247 42.5999 37.9419 41.8248 38.4179 41.1421H35.7122C35.2951 43.0598 34.3644 44.8368 33.014 46.2938C31.6636 47.7508 29.9413 48.8363 28.0209 49.4409C26.1004 50.0454 24.0496 50.1476 22.0755 49.7371C20.1013 49.3266 18.2736 48.4179 16.7767 47.1027C15.2798 45.7876 14.1666 44.1124 13.5495 42.2463C12.9323 40.3801 12.8331 38.389 13.2617 36.4737C13.6903 34.5584 14.6316 32.7867 15.9906 31.3374C17.3497 29.888 19.0785 28.8122 21.0026 28.2185V18.982H18.2358C17.8285 18.982 17.4379 18.8249 17.1499 18.5453C16.8618 18.2656 16.7 17.8864 16.7 17.491C16.7 17.0955 16.8618 16.7163 17.1499 16.4367C17.4379 16.1571 17.8285 16 18.2358 16H22.5384C22.9457 16 23.3364 16.1571 23.6244 16.4367C23.9124 16.7163 24.0742 17.0955 24.0742 17.491V22.3111L35.5403 22.3111C35.948 22.3111 36.339 22.4683 36.6273 22.7482C36.9156 23.0281 37.0775 23.4076 37.0775 23.8034C37.0775 24.1992 36.9156 24.5788 36.6273 24.8587C36.339 25.1385 35.948 25.2957 35.5403 25.2957L24.0715 25.2957V27.7045C24.2054 27.7002 24.3394 27.6984 24.4734 27.6991C26.7709 27.6953 29.0162 28.364 30.9162 29.618L41.1015 29.618C41.9152 29.6208 42.6948 29.9359 43.2702 30.4945C43.8456 31.0531 44.1702 31.8099 44.1731 32.5999V38.1575C44.1732 38.3399 44.1555 38.5219 44.1204 38.7011C45.2438 38.8635 46.2942 39.3398 47.1434 40.072C47.9926 40.8041 48.6039 41.7604 48.9026 42.8242H51.4614C51.6633 42.8242 51.8633 42.8628 52.0498 42.9379C52.2363 43.013 52.4057 43.1231 52.5484 43.2618C52.691 43.4006 52.8041 43.5653 52.8811 43.7465C52.9581 43.9277 52.9976 44.1218 52.9972 44.3179L53 44.3152ZM32.8845 38.8438C32.886 36.9551 32.2128 35.1244 30.9796 33.6636C29.7465 32.2028 28.0298 31.2024 26.1219 30.8327C24.2141 30.463 22.2332 30.7471 20.517 31.6364C18.8007 32.5257 17.4552 33.9653 16.7097 35.7098C15.9642 37.4543 15.865 39.3957 16.4288 41.2033C16.9927 43.0109 18.1848 44.5727 19.8019 45.6227C21.419 46.6726 23.3612 47.1457 25.2973 46.9612C27.2335 46.7768 29.0439 45.9463 30.4199 44.6112C31.2034 43.8555 31.8247 42.9563 32.2477 41.9659C32.6708 40.9754 32.8872 39.9133 32.8845 38.8411V38.8438ZM46.0361 44.3125C46.0361 43.7802 45.8735 43.2599 45.5689 42.8173C45.2642 42.3747 44.8313 42.0297 44.3247 41.826C43.8182 41.6223 43.2607 41.569 42.723 41.6729C42.1852 41.7767 41.6912 42.0331 41.3035 42.4094C40.9158 42.7858 40.6518 43.2654 40.5448 43.7874C40.4379 44.3095 40.4928 44.8506 40.7026 45.3424C40.9124 45.8342 41.2677 46.2545 41.7236 46.5502C42.1795 46.8459 42.7155 47.0038 43.2638 47.0038C43.9988 47.0031 44.7036 46.7193 45.2233 46.2147C45.743 45.7102 46.0353 45.026 46.0361 44.3125Z" fill="#272727"/>
</svg>
