<svg width="1920" height="1080" viewBox="0 0 1920 1080" fill="none" xmlns="http://www.w3.org/2000/svg">
<mask id="mask0_303_9117" style="mask-type:alpha" maskUnits="userSpaceOnUse" x="0" y="0" width="1920" height="1080">
<rect width="1920" height="1080" fill="#D9D9D9"/>
</mask>
<g mask="url(#mask0_303_9117)">
<path fill-rule="evenodd" clip-rule="evenodd" d="M-20 1062.12C-68.7959 1041.31 -103 992.898 -103 936.5C-103 861.113 -41.8869 800 33.5 800C75.5905 800 113.232 819.051 138.271 849H423C464.664 849 500.713 873.037 518.037 908H631.006C662.276 884.652 719.761 869 785.5 869C828.943 869 868.781 875.835 899.832 887.21C921.253 883.211 944.794 881 969.5 881C1022.73 881 1070.54 891.261 1103.42 907.561C1128.51 903.467 1157.33 901 1192 901C1236.13 901 1270.02 903.728 1297.96 908H1417V939.496C1453.68 950.222 1496.27 959 1569.5 959C1624.77 959 1657.41 936.962 1695.96 910.93C1751.59 873.372 1819.54 827.5 1985.5 827.5V1097.5H-20V1062.12Z" fill="#4B51DC"/>
<rect width="49.3949" height="71" rx="16" transform="matrix(-0.99983 0.0184351 0.0184351 0.99983 582.844 889.963)" fill="#4B51DC"/>
<rect width="49.3949" height="82" rx="16" transform="matrix(-0.99983 0.0184351 0.0184351 0.99983 611.686 878.09)" fill="#4B51DC"/>
<rect width="48.5058" height="64.6448" rx="16" transform="matrix(-0.99983 0.0184351 0.0184351 0.99983 540.499 878.741)" fill="#4B51DC"/>
<rect width="48.5058" height="64.6448" rx="16" transform="matrix(-0.99983 0.0184351 0.0184351 0.99983 635.229 894.041)" fill="#4B51DC"/>
<rect width="48.5058" height="39.7814" rx="16" transform="matrix(-0.99983 0.0184351 0.0184351 0.99983 577.994 924.938)" fill="#4B51DC"/>
<path d="M626.885 945.352L626.243 910.549" stroke="#4B51DC" stroke-width="8" stroke-linecap="round"/>
<path d="M570.184 949.239L569.948 936.454" stroke="#4B51DC" stroke-width="8" stroke-linecap="round"/>
<path d="M609.928 947.327C605.372 942.191 632.558 937.335 646.721 935.548C669.053 934.14 686.686 946.112 647.691 950.935C608.696 955.759 615.623 953.746 609.928 947.327Z" fill="#2F259F"/>
<path d="M680.241 971.74C699.668 976.19 701.596 974.807 718.415 965.865C734.648 967.615 752.111 964.896 758.813 963.317C760.482 956.486 764.534 939.784 767.395 927.623C770.971 912.422 800.797 908.032 805.876 878.694C810.677 850.963 761.691 873.126 754.305 859.877C746.92 846.629 726.473 849.967 720.084 856.518C713.696 863.069 699.096 871.241 688.917 873.616C678.738 875.992 665.04 874.492 641.377 870.782C617.715 867.072 614.829 873.244 608.599 882.307C602.369 891.37 622.584 888.361 633.73 893.333C644.876 898.305 633.492 901.545 624.069 911.913C614.646 922.28 634.611 931.268 644.175 943.118C651.827 952.598 651.858 965.07 650.917 970.121C654.216 969.177 664.7 968.18 680.241 971.74Z" fill="#3B38BE"/>
<path d="M634.277 969.909C629.866 963.882 631.613 963.614 613.956 955.27C624.343 956.191 621.484 954.795 639.632 950.971C657.781 947.146 658.62 952.453 668.756 953.39C676.865 954.14 678.808 966.313 678.766 972.306C665.327 970.127 646.56 975.598 638.856 978.606C638.8 977.716 637.806 974.731 634.277 969.909Z" fill="#3B38BE"/>
<path opacity="0.5" d="M678.234 873.472C678.258 873.33 678.283 873.233 678.309 873.182C678.282 873.281 678.257 873.378 678.234 873.472C678.175 873.814 678.124 874.414 678.081 875.233C678.206 875.231 678.325 875.228 678.438 875.223C682.641 875.064 678.531 878.081 678.07 875.447C677.778 881.426 677.898 897.913 678.969 911.604C678.041 912.871 684.871 912.524 663.197 917.17C636.104 922.977 617.314 924.634 623.353 916.53C629.392 908.425 644.213 899.766 635.936 896.347C627.659 892.928 597.974 889.598 607.364 882.7C616.754 875.803 616.662 866.351 631.212 869.374C645.474 872.337 671.116 875.341 678.042 875.234C678.002 874.791 678.052 874.214 678.234 873.472Z" fill="#2F259F"/>
<path opacity="0.5" fill-rule="evenodd" clip-rule="evenodd" d="M718.898 965.917C720.509 961.776 721.298 957.921 721.594 956.365L757.929 917.345L756.176 901.533C755.343 901.401 747.43 902.463 737.724 903.766L737.724 903.766C726.453 905.279 712.762 907.118 704.927 907.787L704.926 907.765C709.1 905.644 690.809 908.115 700.454 908.047C701.543 908.039 703.071 907.946 704.927 907.787L708.901 970.8C711.283 969.662 713.976 968.229 717.251 966.485C717.631 966.283 718.019 966.077 718.415 965.866C718.576 965.884 718.737 965.901 718.898 965.917Z" fill="#2F259F"/>
<path d="M679.178 970.862C679.617 965.842 676.4 954.769 660.016 950.632C639.536 945.46 616.26 959.854 609.683 951.441C604.892 945.312 618.102 941.137 638.46 936.385" stroke="#A0A4FA" stroke-width="10.0568" stroke-linecap="round"/>
<path d="M719.532 965.479C722.425 958.098 730.966 941.46 741.98 933.956C755.748 924.575 770.146 905.224 752.506 901.134C734.866 897.045 724.839 909.815 706.805 907.484C688.772 905.153 680.135 912.003 657.687 919.567C635.24 927.13 614.489 921.66 628.551 908.951C642.613 896.242 640.407 893.228 616.101 891.293C591.795 889.358 616.498 861.632 646.469 869.516C676.441 877.399 688.519 873.17 698.859 869.365C709.2 865.56 712.865 851.772 736.702 850.269C760.54 848.766 752.89 863.278 765.353 865.172C777.817 867.065 794.824 861.106 800.327 868.483C805.831 875.86 800.274 895.6 766.551 884.17C732.829 872.74 728.609 889.715 709.638 892.488" stroke="#A0A4FA" stroke-width="10.0568" stroke-linecap="round"/>
<path d="M886.649 1027C890.5 1011.84 895.05 977.513 882.449 961.44C868.973 944.252 883.551 935.19 876.866 911.742M858.822 850.94C857.072 855.522 857.142 871.454 871.423 898.524C874.002 903.412 875.737 907.782 876.866 911.742M876.866 911.742C883.803 909.451 897.045 900.745 894.525 884.249C892.005 867.753 888.225 844.243 886.649 834.55M894.525 1027C904.151 1013.61 921.407 978.676 913.427 946.108C903.451 905.397 911.851 910.156 921.827 889.536C931.803 868.916 921.827 849.354 913.427 834.55C906.706 822.707 916.227 810.582 921.827 806M882.449 1027C871.416 1025.56 852.829 1017.05 851.292 994.749M846.746 884.249C845.171 889.007 842.966 902.013 846.746 915.971C851.472 933.419 864.073 933.947 853.047 977.83C851.447 984.195 850.952 989.81 851.292 994.749M851.292 994.749C834.025 992.81 801.173 981.214 807.893 950.337C816.294 911.742 832.045 910.684 819.969 875.261C807.893 839.837 832.045 834.022 819.969 809.701" stroke="#5D5AF4" stroke-width="13" stroke-linecap="round"/>
<path d="M1062.23 1037.56C1070.7 1024.71 1080.85 984.707 1053.77 927.528C1019.91 856.054 1024.62 861.697 1043.42 796.806C1062.23 731.916 1019.91 754.486 1036.84 699" stroke="#5D5AF4" stroke-width="13" stroke-linecap="round"/>
<path d="M1051.89 921.885C1048.44 900.881 1047.56 853.797 1071.64 833.483C1075.44 830.27 1078.88 827.373 1081.98 824.706M1115.84 774.235C1109.27 798.878 1103.41 806.301 1081.98 824.706M1081.98 824.706C1078.85 811.331 1074.46 779.502 1081.98 759.188C1089.51 738.874 1089.51 725.019 1088.56 720.63M1071.64 960.443C1091.07 954.8 1129.19 935.427 1126.18 903.076C1122.42 862.637 1126.18 845.083 1144.05 824.706C1158.35 808.405 1156.28 777.37 1153.46 763.89M1131.83 888.029C1140.6 872.982 1161.17 841.947 1173.2 838.185C1185.24 834.424 1185.74 810.285 1184.49 798.687M1062.23 942.574C1073.2 932.543 1093.83 904.581 1088.56 872.982C1083.3 841.383 1099.54 833.483 1108.31 833.483M1041.54 749.784C1025.87 751.978 993.768 752.793 990.759 738.498M1031.2 845.709C1030.88 830.975 1024.61 797.746 1002.04 782.699M1062.23 1028.15C1065.37 1008.09 1055.46 966.462 990.759 960.443C975.825 959.054 965.06 954.661 957.438 948.217M908 774.235C923.047 780.191 952.953 798.624 952.201 824.706C951.434 851.289 923.783 919.76 957.438 948.217M957.438 948.217C957.887 925.333 961.982 876.179 974.771 862.637C987.561 849.094 986.37 824.392 984.176 813.734M1031.2 895.552C1018.66 890.537 991.699 883.515 984.176 895.552M1062.23 960.443C1045.93 946.963 1007.5 920.944 984.176 924.706" stroke="#5D5AF4" stroke-width="13" stroke-linecap="round"/>
<rect x="-69" y="946" width="438" height="108" rx="54" fill="#5E64F4"/>
<rect x="430" y="926" width="126" height="31" rx="15.5" fill="#5E64F4"/>
<rect x="366" y="910" width="43" height="31" rx="15.5" fill="#5E64F4"/>
<rect x="416" y="1000" width="97" height="31" rx="15.5" fill="#5E64F4"/>
<rect width="49.3949" height="71" rx="16" transform="matrix(-0.99983 0.0184351 0.0184351 0.99983 376.301 817.963)" fill="#4B51DC"/>
<rect width="49.3949" height="82" rx="16" transform="matrix(-0.99983 0.0184351 0.0184351 0.99983 405.143 806.09)" fill="#4B51DC"/>
<rect width="48.5058" height="64.6448" rx="16" transform="matrix(-0.99983 0.0184351 0.0184351 0.99983 333.956 806.741)" fill="#4B51DC"/>
<rect width="48.5058" height="64.6448" rx="16" transform="matrix(-0.99983 0.0184351 0.0184351 0.99983 428.686 822.041)" fill="#4B51DC"/>
<rect width="48.5058" height="39.7814" rx="16" transform="matrix(-0.99983 0.0184351 0.0184351 0.99983 371.451 852.938)" fill="#4B51DC"/>
<path d="M420.342 873.352L419.7 838.549" stroke="#4B51DC" stroke-width="8" stroke-linecap="round"/>
<path d="M363.641 877.239L363.405 864.454" stroke="#4B51DC" stroke-width="8" stroke-linecap="round"/>
<rect width="49.3949" height="71" rx="16" transform="matrix(-0.99983 0.0184351 0.0184351 0.99983 182.844 833.963)" fill="#4B51DC"/>
<rect width="49.3949" height="82" rx="16" transform="matrix(-0.99983 0.0184351 0.0184351 0.99983 211.686 822.09)" fill="#4B51DC"/>
<rect width="48.5058" height="64.6448" rx="16" transform="matrix(-0.99983 0.0184351 0.0184351 0.99983 140.499 822.741)" fill="#4B51DC"/>
<rect width="48.5058" height="64.6448" rx="16" transform="matrix(-0.99983 0.0184351 0.0184351 0.99983 235.229 838.041)" fill="#4B51DC"/>
<rect width="48.5058" height="39.7814" rx="16" transform="matrix(-0.99983 0.0184351 0.0184351 0.99983 177.994 868.938)" fill="#4B51DC"/>
<path d="M226.885 889.352L226.243 854.549" stroke="#4B51DC" stroke-width="8" stroke-linecap="round"/>
<path d="M170.184 893.239L169.948 880.454" stroke="#4B51DC" stroke-width="8" stroke-linecap="round"/>
<rect opacity="0.5" x="163" y="865" width="280" height="22" rx="11" fill="#5D5AF4"/>
<path d="M100 740.347V806.186H141.331V848.347" stroke="#4B51DC" stroke-width="10.8001" stroke-linecap="round" stroke-linejoin="round"/>
<path d="M141.746 806.185H162.931L162.723 724.146" stroke="#4B51DC" stroke-width="10.8001" stroke-linecap="round" stroke-linejoin="round"/>
<path d="M119.107 805.354V761.946M119.107 761.946H144.446V713.346M119.107 761.946V704" stroke="#4B51DC" stroke-width="10.8001" stroke-linecap="round" stroke-linejoin="round"/>
<path d="M80.9316 710.847V776.686H39.6006V818.847" stroke="#4B51DC" stroke-width="10.8001" stroke-linecap="round" stroke-linejoin="round"/>
<path d="M39.1855 776.685H18.0008V657" stroke="#4B51DC" stroke-width="10.8001" stroke-linecap="round" stroke-linejoin="round"/>
<path d="M61.8242 775.854V739M61.8242 739H36.4856V705M61.8242 739V674.5" stroke="#4B51DC" stroke-width="10.8001" stroke-linecap="round" stroke-linejoin="round"/>
<ellipse opacity="0.5" cx="279.5" cy="908.5" rx="74.5" ry="31.5" fill="#363BBC"/>
<rect x="285" y="799" width="47" height="113" rx="16" fill="#7E7BFB"/>
<rect x="252" y="840" width="47" height="76" rx="16" fill="#8D84F3"/>
<rect x="224" y="780" width="47" height="135" rx="16" fill="#7E7BFB"/>
<rect x="170" y="806" width="47" height="91" rx="16" fill="#8D84F3"/>
<rect x="201" y="823" width="47" height="91" rx="16" fill="#A0A4FA"/>
<rect x="257" y="865" width="47" height="56" rx="16" fill="#A0A4FA"/>
<path d="M210 880V846" stroke="#E7D6FF" stroke-width="8" stroke-linecap="round"/>
<path d="M233 817L233 798" stroke="#A0A4FA" stroke-width="8" stroke-linecap="round"/>
<path d="M179 866L179 825" stroke="#A0A4FA" stroke-width="8" stroke-linecap="round"/>
<path d="M265 899L265 881" stroke="#E7D6FF" stroke-width="8" stroke-linecap="round"/>
</g>
</svg>
