<svg width="1920" height="1080" viewBox="0 0 1920 1080" fill="none" xmlns="http://www.w3.org/2000/svg">
<mask id="mask0_303_10953" style="mask-type:alpha" maskUnits="userSpaceOnUse" x="0" y="0" width="1920" height="1080">
<rect width="1920" height="1080" fill="#D9D9D9"/>
</mask>
<g mask="url(#mask0_303_10953)">
<path d="M1436 866.5C1436 748.587 1531.59 653 1649.5 653H1920V1080H1436V866.5Z" fill="#5D5AF4"/>
<path d="M1112 1052.5C1112 934.587 1207.59 839 1325.5 839H1382.5C1500.41 839 1596 934.587 1596 1052.5V1080H1112V1052.5Z" fill="#5D5AF4"/>
<path d="M561 1066C561 1012.98 603.981 970 657 970H1259V1100H561V1066Z" fill="#5D5AF4"/>
<path d="M934 961C934 907.981 976.981 865 1030 865H1213C1263.81 865 1305 906.19 1305 957V1026H934V961Z" fill="#5D5AF4"/>
<rect opacity="0.5" x="1640" y="672" width="338" height="49" rx="24.5" fill="#A596FF"/>
<rect opacity="0.5" x="978" y="883" width="132" height="49" rx="24.5" fill="#A596FF"/>
<ellipse opacity="0.5" cx="1424" cy="1073" rx="197" ry="102" fill="#363BBC"/>
<ellipse opacity="0.5" cx="1496" cy="859.5" rx="60" ry="29.5" fill="#363BBC"/>
<ellipse opacity="0.5" cx="1706" cy="753.5" rx="85" ry="36.5" fill="#363BBC"/>
<path d="M1385 973.494V1066.77H1443.56V1126.51" stroke="#DA81E6" stroke-width="16.4283" stroke-linecap="round" stroke-linejoin="round"/>
<path d="M1444.14 1066.77H1474.16L1473.86 950.543" stroke="#DA81E6" stroke-width="16.4283" stroke-linecap="round" stroke-linejoin="round"/>
<path d="M1412.07 1065.6V1004.1M1412.07 1004.1H1447.97V935.241M1412.07 1004.1V922" stroke="#DA81E6" stroke-width="16.4283" stroke-linecap="round" stroke-linejoin="round"/>
<path d="M1596 1003.25V1096.52H1537.44V1156.26" stroke="#DA81E6" stroke-width="16.4283" stroke-linecap="round" stroke-linejoin="round"/>
<path d="M1536.86 1096.52H1506.84V926.958" stroke="#DA81E6" stroke-width="16.4283" stroke-linecap="round" stroke-linejoin="round"/>
<path d="M1568.93 1095.35V1043.13M1568.93 1043.13H1533.03V994.962M1568.93 1043.13V951.751" stroke="#DA81E6" stroke-width="16.4283" stroke-linecap="round" stroke-linejoin="round"/>
<path d="M1576.28 1018.86C1569.06 1004.07 1615.97 995.501 1640.33 993.065C1678.58 993.065 1707.38 1028.74 1640.33 1035.19C1573.28 1041.64 1585.31 1037.34 1576.28 1018.86Z" fill="#5D5AF4"/>
<path d="M1693.63 1097.51C1726.3 1112.99 1729.73 1109.55 1759.39 1088.06C1786.9 1095.62 1816.99 1091.21 1828.6 1088.06C1832.18 1069.72 1840.89 1024.87 1847.08 992.205C1854.82 951.371 1906.18 944.528 1918 865.405C1929.18 790.614 1843.21 842.624 1832.03 805.228C1820.86 767.833 1785.61 773.421 1774.01 790.184C1762.4 806.948 1736.61 826.72 1718.99 831.448C1701.37 836.176 1678.15 829.729 1638.18 815.544C1598.21 801.36 1592.62 817.694 1581.01 841.334C1569.41 864.975 1604.22 860.247 1622.71 875.721C1641.19 891.195 1621.42 898.072 1604.22 924.722C1587.03 951.371 1620.13 979.31 1635.17 1013.27C1647.21 1040.43 1645.92 1074.45 1643.77 1088.06C1649.5 1086.05 1667.49 1085.13 1693.63 1097.51Z" fill="#A596FF"/>
<path d="M1615.4 1084.62C1608.52 1067.42 1611.53 1066.99 1582.3 1041.2C1599.92 1045.5 1595.2 1041.2 1626.57 1033.9C1657.95 1026.59 1658.81 1041.2 1676 1045.5C1689.76 1048.94 1691.77 1082.47 1691.05 1098.8C1668.35 1090.55 1635.74 1102.24 1622.28 1109.12C1622.28 1106.68 1620.9 1098.37 1615.4 1084.62Z" fill="#A596FF"/>
<path opacity="0.5" d="M1700.78 829.215C1700.83 828.834 1700.89 828.572 1700.94 828.438C1700.88 828.704 1700.83 828.963 1700.78 829.215C1700.64 830.139 1700.49 831.766 1700.33 833.991C1700.54 834.007 1700.74 834.019 1700.94 834.027C1708.12 834.314 1700.79 841.834 1700.28 834.574C1699.14 850.826 1697.57 895.802 1697.93 933.317C1696.21 936.613 1707.9 936.842 1670.42 945.783C1623.57 956.958 1591.33 958.248 1602.5 937.186C1613.68 916.124 1639.9 895.063 1626.15 884.317C1612.39 873.571 1562.1 859.387 1578.86 842.193C1595.63 825 1596.49 799.21 1620.99 809.956C1645 820.489 1688.43 833.088 1700.26 833.987C1700.24 832.772 1700.39 831.207 1700.78 829.215Z" fill="#5D5AF4"/>
<path opacity="0.5" fill-rule="evenodd" clip-rule="evenodd" d="M1760.21 1088.28C1763.41 1077.27 1765.17 1066.89 1765.84 1062.7L1832.03 962.551L1830.75 919.134C1829.34 918.63 1815.72 920.166 1799.02 922.051C1779.63 924.239 1756.07 926.897 1742.63 927.376V927.314C1749.98 922.25 1718.51 925.841 1734.97 927.314C1736.83 927.481 1739.45 927.489 1742.63 927.376V1099.88C1746.82 1097.19 1751.57 1093.74 1757.34 1089.55C1758.01 1089.06 1758.69 1088.57 1759.39 1088.06C1759.67 1088.14 1759.94 1088.21 1760.21 1088.28Z" fill="#5D5AF4"/>
<path d="M1691.91 1094.94C1693.2 1081.32 1688.9 1050.58 1661.39 1036.48C1627 1018.86 1585.74 1054.1 1575.42 1030.03C1567.91 1012.5 1590.9 1003.38 1626.14 993.925" stroke="#FB95FD" stroke-width="17.1932" stroke-linecap="round"/>
<path d="M1761.34 1087.2C1767.07 1067.57 1783.43 1023.67 1803.03 1005.1C1827.53 981.889 1854.18 931.598 1824.52 917.414C1794.87 903.229 1776.38 936.326 1745.87 926.87C1715.35 917.414 1699.87 934.607 1660.76 951.371C1621.64 968.134 1586.83 949.651 1612.19 917.414C1637.55 885.177 1634.11 876.58 1592.85 867.124C1551.58 857.668 1596.71 786.316 1647 812.965C1697.29 839.615 1718.36 830.159 1736.41 821.562C1754.46 812.965 1762.2 776 1803.03 776C1843.87 776 1829.25 814.255 1850.31 821.562C1871.38 828.869 1901.03 815.544 1909.63 836.606C1918.23 857.668 1906.62 910.537 1850.31 873.572C1794.01 836.606 1784.98 882.168 1752.31 886.467" stroke="#FB95FD" stroke-width="17.1932" stroke-linecap="round"/>
<path fill-rule="evenodd" clip-rule="evenodd" d="M562.169 980.547C557.564 986.878 558.964 995.744 565.296 1000.35C565.816 1000.73 566.388 1001.14 567.006 1001.59C577.391 1009.09 600.942 1026.12 619.329 1050.41C628.044 1061.93 636.878 1076.14 643.976 1090.07C651.185 1104.22 656.084 1117.07 657.684 1126.01C659.064 1133.72 666.429 1138.85 674.136 1137.47C681.843 1136.09 686.972 1128.72 685.592 1121.02C683.268 1108.03 676.921 1092.28 669.237 1077.2C661.442 1061.9 651.737 1046.26 641.937 1033.31C620.885 1005.49 594.254 986.282 583.765 978.717C583.1 978.238 582.501 977.805 581.971 977.42C575.639 972.815 566.774 974.215 562.169 980.547Z" fill="#A596FF"/>
<path fill-rule="evenodd" clip-rule="evenodd" d="M559.627 1027.19C553.941 1032.57 553.695 1041.55 559.076 1047.23C584.885 1074.5 602.128 1103.46 614.821 1139.32C617.434 1146.7 625.535 1150.56 632.915 1147.95C640.295 1145.34 644.16 1137.24 641.547 1129.86C627.617 1090.51 608.368 1058.07 579.667 1027.74C574.286 1022.06 565.313 1021.81 559.627 1027.19Z" fill="#A596FF"/>
<path fill-rule="evenodd" clip-rule="evenodd" d="M637.506 955.736C630.374 958.966 627.212 967.366 630.442 974.498C656.836 1032.77 658.813 1093.37 656.633 1115.36C655.861 1123.15 661.551 1130.09 669.342 1130.86C677.133 1131.63 684.075 1125.94 684.847 1118.15C687.419 1092.2 685.093 1026.44 656.268 962.8C653.037 955.668 644.637 952.505 637.506 955.736Z" fill="#A596FF"/>
<path fill-rule="evenodd" clip-rule="evenodd" d="M699.616 971.622C691.787 971.61 685.431 977.946 685.418 985.775C685.385 1006.49 685.444 1055.11 685.953 1083.48C686.186 1096.47 684.715 1105.04 683.153 1110.22C682.054 1113.87 681.092 1115.29 680.984 1115.49C675.513 1120.29 674.525 1128.55 678.908 1134.53C683.538 1140.84 692.409 1142.21 698.722 1137.58C704.206 1133.55 707.931 1126.25 710.297 1118.41C712.888 1109.82 714.574 1098.21 714.3 1082.97C713.797 1054.91 713.736 1006.54 713.769 985.821C713.782 977.992 707.445 971.635 699.616 971.622Z" fill="#A596FF"/>
<path fill-rule="evenodd" clip-rule="evenodd" d="M522.17 1034.2C515.076 1037.51 512.008 1045.95 515.318 1053.04C516.646 1055.89 523.459 1070.24 540.244 1105.22C548.961 1123.38 557.284 1137.03 564.292 1146.81C571.079 1156.28 577.133 1162.83 581.539 1166.11C587.819 1170.78 596.7 1169.48 601.375 1163.2C606.05 1156.92 604.749 1148.04 598.469 1143.37C597.547 1142.68 593.509 1138.9 587.338 1130.29C581.386 1121.99 573.884 1109.79 565.805 1092.95C548.997 1057.92 542.259 1043.73 541.011 1041.05C537.7 1033.96 529.265 1030.89 522.17 1034.2Z" fill="#A596FF"/>
<path fill-rule="evenodd" clip-rule="evenodd" d="M642.41 986.954C637.771 990.255 636.687 996.692 639.988 1001.33C669.275 1042.48 679.296 1074.62 682.397 1096.37C683.951 1107.28 683.793 1115.75 683.348 1121.68C683.151 1124.3 682.9 1126.41 682.686 1128.22C682.655 1128.48 682.624 1128.74 682.594 1128.99C682.489 1129.89 682.367 1130.96 682.313 1131.91C682.285 1132.39 682.261 1133.06 682.301 1133.81C682.334 1134.41 682.439 1135.84 683.066 1137.46C685.124 1142.77 691.096 1145.4 696.405 1143.35C700.843 1141.62 703.413 1137.17 702.934 1132.65C702.962 1132.37 703.006 1131.97 703.074 1131.39C703.1 1131.17 703.128 1130.93 703.159 1130.67C703.373 1128.87 703.677 1126.31 703.909 1123.23C704.445 1116.1 704.611 1106.1 702.81 1093.46C699.202 1068.14 687.8 1032.95 656.787 989.375C653.486 984.736 647.049 983.652 642.41 986.954ZM709.424 1002.06C703.755 1002.6 699.593 1007.63 700.128 1013.3C701.426 1027.05 709.123 1047.03 717.303 1065.23C725.694 1083.91 735.369 1102.36 741.75 1113.71C744.541 1118.67 750.827 1120.43 755.79 1117.64C760.752 1114.85 762.513 1108.56 759.722 1103.6C753.585 1092.69 744.203 1074.79 736.111 1056.78C727.805 1038.3 721.59 1021.25 720.656 1011.36C720.121 1005.69 715.092 1001.53 709.424 1002.06Z" fill="#EDD4FE"/>
<path fill-rule="evenodd" clip-rule="evenodd" d="M711.257 1012.2C707.177 1012.63 704.766 1017.49 705.87 1023.06C708.549 1036.58 716.693 1056.32 724.966 1074.32C733.454 1092.79 742.852 1111.06 748.947 1122.3C751.613 1127.22 756.432 1129.05 759.712 1126.4C762.991 1123.74 763.488 1117.6 760.822 1112.69C754.96 1101.87 745.847 1084.16 737.661 1066.35C729.261 1048.07 722.57 1031.23 720.643 1021.51C719.539 1015.94 715.336 1011.77 711.257 1012.2Z" fill="#FB95FD"/>
<path fill-rule="evenodd" clip-rule="evenodd" d="M716.186 1034.59C713.01 1035.03 713.116 1041.87 714.763 1046.32C717.613 1054.03 724.072 1069.17 730.996 1083.02C738.099 1097.23 745.908 1111.26 750.957 1119.89C753.165 1123.66 756.977 1124.97 759.471 1122.81C761.964 1120.66 762.196 1115.85 759.987 1112.08C755.131 1103.78 747.558 1090.17 740.708 1076.47C733.678 1062.41 727.027 1050.04 725.273 1042.5C722.945 1035.44 719.361 1034.15 716.186 1034.59Z" fill="#DC87FB"/>
<path fill-rule="evenodd" clip-rule="evenodd" d="M652.244 1001.07C648.778 1003.77 648.089 1009.22 650.704 1013.23C673.906 1048.8 682.229 1076.3 685.057 1094.84C686.474 1104.13 686.534 1111.33 686.321 1116.35C686.227 1118.57 686.08 1120.36 685.956 1121.89C685.938 1122.11 685.92 1122.33 685.903 1122.55C685.841 1123.31 685.771 1124.22 685.75 1125.02C685.74 1125.43 685.735 1126 685.782 1126.63C685.82 1127.14 685.93 1128.36 686.443 1129.75C688.125 1134.3 692.733 1136.67 696.736 1135.03C700.082 1133.66 701.946 1129.94 701.485 1126.09C701.5 1125.85 701.525 1125.51 701.564 1125.02C701.579 1124.83 701.596 1124.63 701.614 1124.41C701.738 1122.89 701.915 1120.72 702.027 1118.1C702.283 1112.06 702.197 1103.57 700.555 1092.81C697.264 1071.23 687.823 1041.1 663.254 1003.43C660.639 999.421 655.709 998.363 652.244 1001.07Z" fill="#FB95FD"/>
<path fill-rule="evenodd" clip-rule="evenodd" d="M665.065 1020.06C662.653 1022.17 662.203 1026.84 664.061 1030.49C680.539 1062.86 686.542 1087.25 688.637 1103.5C689.687 1111.64 689.774 1117.88 689.655 1122.22C689.603 1124.13 689.512 1125.68 689.434 1126.99C689.422 1127.18 689.411 1127.37 689.4 1127.56C689.362 1128.21 689.318 1128.99 689.309 1129.69C689.304 1130.04 689.304 1130.53 689.341 1131.09C689.37 1131.53 689.455 1132.59 689.823 1133.83C691.03 1137.89 694.274 1140.25 697.069 1139.1C699.406 1138.14 700.689 1135.03 700.342 1131.67C700.351 1131.47 700.367 1131.17 700.391 1130.75C700.401 1130.59 700.411 1130.41 700.422 1130.23C700.5 1128.91 700.611 1127.05 700.673 1124.79C700.816 1119.57 700.703 1112.21 699.486 1102.78C697.047 1083.86 690.245 1057.13 672.796 1022.85C670.938 1019.2 667.477 1017.95 665.065 1020.06Z" fill="#DC87FB"/>
<path fill-rule="evenodd" clip-rule="evenodd" d="M631.203 1024.19C625.603 1025.21 621.894 1030.59 622.92 1036.19C628.963 1069.18 634.603 1092.88 639.241 1109.18C643.748 1125.02 647.558 1134.8 650.255 1139.1C653.28 1143.92 659.643 1145.38 664.467 1142.35C669.29 1139.33 670.747 1132.96 667.721 1128.14C666.775 1126.63 663.619 1119.51 659.073 1103.54C654.658 1088.02 649.156 1064.98 643.202 1032.47C642.176 1026.87 636.804 1023.16 631.203 1024.19Z" fill="#EDD4FE"/>
<path fill-rule="evenodd" clip-rule="evenodd" d="M634.782 1041.85C630.327 1042.81 627.463 1047.39 628.385 1052.08C633.819 1079.72 638.761 1099.56 642.765 1113.19C646.657 1126.44 649.88 1134.6 652.114 1138.17C654.62 1142.18 659.73 1143.3 663.528 1140.67C667.326 1138.05 668.373 1132.67 665.867 1128.67C665.083 1127.41 662.432 1121.48 658.506 1108.12C654.693 1095.14 649.875 1075.86 644.52 1048.62C643.598 1043.92 639.238 1040.89 634.782 1041.85Z" fill="#FB95FD"/>
<path fill-rule="evenodd" clip-rule="evenodd" d="M637.073 1053.48C633.571 1054.4 631.428 1058.47 632.287 1062.56C637.347 1086.65 641.805 1103.93 645.35 1115.78C648.795 1127.31 651.571 1134.39 653.438 1137.47C655.533 1140.93 659.611 1141.81 662.547 1139.44C665.483 1137.06 666.165 1132.34 664.071 1128.88C663.416 1127.8 661.153 1122.65 657.678 1111.03C654.303 1099.74 649.958 1082.95 644.972 1059.21C644.112 1055.12 640.576 1052.55 637.073 1053.48Z" fill="#DC87FB"/>
<path fill-rule="evenodd" clip-rule="evenodd" d="M561.311 996.924C557.024 1000.67 556.587 1007.18 560.334 1011.47C583.57 1038.06 594.94 1071.65 600.498 1099.55C603.26 1113.41 604.545 1125.67 605.177 1134.63C605.493 1139.11 605.646 1142.76 605.74 1145.4C605.759 1145.95 605.777 1146.5 605.794 1147C605.816 1147.64 605.835 1148.22 605.852 1148.66C605.868 1149.07 605.887 1149.51 605.912 1149.89C605.913 1149.9 605.913 1149.91 605.914 1149.92C605.924 1150.1 605.981 1151.06 606.21 1152.05C607.496 1157.59 613.036 1161.05 618.582 1159.76C623.79 1158.55 627.152 1153.6 626.479 1148.41C626.473 1148.29 626.465 1148.11 626.456 1147.86C626.44 1147.44 626.424 1146.98 626.405 1146.41C626.389 1145.92 626.37 1145.35 626.346 1144.67C626.247 1141.89 626.084 1137.98 625.746 1133.18C625.069 1123.59 623.692 1110.44 620.72 1095.52C614.807 1065.83 602.418 1028.29 575.858 997.902C572.111 993.615 565.598 993.177 561.311 996.924ZM626.488 1148.55C626.499 1148.72 626.502 1148.69 626.486 1148.53C626.487 1148.54 626.487 1148.54 626.488 1148.55Z" fill="#EDD4FE"/>
<path fill-rule="evenodd" clip-rule="evenodd" d="M573.069 1009.63C569.674 1012.84 568.653 1016.53 572.592 1022.48C590.182 1049.04 598.02 1079.67 602.986 1104.25C605.455 1116.46 606.703 1127.23 607.368 1135.11C607.7 1139.04 607.887 1142.25 608.008 1144.56C608.033 1145.05 608.057 1145.53 608.08 1145.97C608.108 1146.54 608.134 1147.04 608.155 1147.43C608.175 1147.79 608.198 1148.17 608.225 1148.51C608.225 1148.52 608.226 1148.52 608.226 1148.53C608.238 1148.69 608.3 1149.54 608.502 1150.41C609.636 1155.3 614.166 1158.42 618.619 1157.39C622.8 1156.42 625.428 1152.13 624.795 1147.56C624.788 1147.46 624.779 1147.3 624.767 1147.08C624.747 1146.72 624.726 1146.31 624.701 1145.81C624.679 1145.38 624.654 1144.88 624.623 1144.28C624.495 1141.84 624.296 1138.41 623.94 1134.19C623.229 1125.77 621.891 1114.21 619.234 1101.06C613.951 1074.91 605.303 1049.67 585.03 1015.12C581.549 1009.18 576.463 1006.41 573.069 1009.63ZM624.804 1147.69C624.816 1147.84 624.819 1147.81 624.803 1147.67C624.804 1147.68 624.804 1147.68 624.804 1147.69Z" fill="#FB95FD"/>
<path fill-rule="evenodd" clip-rule="evenodd" d="M579.338 1019.37C575.722 1021.69 578.247 1026.16 581.223 1031.55C594.513 1055.62 601.31 1082.79 605.858 1104.52C608.118 1115.33 609.475 1124.82 610.298 1131.74C610.708 1135.2 610.985 1138.01 611.176 1140.05C611.216 1140.47 611.255 1140.89 611.291 1141.28C611.337 1141.78 611.378 1142.22 611.41 1142.56C611.441 1142.88 611.474 1143.21 611.509 1143.51C611.509 1143.51 611.51 1143.52 611.511 1143.53C611.526 1143.67 611.608 1144.41 611.787 1145.18C612.792 1149.51 616.041 1152.46 619.044 1151.76C621.864 1151.11 623.465 1147.48 622.819 1143.45C622.809 1143.36 622.796 1143.22 622.777 1143.03C622.746 1142.71 622.713 1142.35 622.673 1141.91C622.638 1141.53 622.597 1141.09 622.548 1140.57C622.347 1138.43 622.051 1135.42 621.61 1131.71C620.731 1124.3 619.275 1114.12 616.843 1102.49C612.005 1079.37 604.904 1056.87 589.403 1025.68C586.741 1020.33 581.735 1017.83 579.338 1019.37ZM622.831 1143.56C622.846 1143.69 622.847 1143.67 622.829 1143.55C622.83 1143.55 622.83 1143.56 622.831 1143.56Z" fill="#DC87FB"/>
<path fill-rule="evenodd" clip-rule="evenodd" d="M569.175 1077.73C563.927 1075.53 557.883 1077.99 555.675 1083.24C548.46 1100.4 544.17 1113.93 541.754 1124.02C539.432 1133.72 538.625 1141.1 539.147 1145.53C539.813 1151.18 544.937 1155.23 550.592 1154.56C556.247 1153.9 560.291 1148.77 559.624 1143.12C559.625 1143.12 559.625 1143.12 559.625 1143.11C559.621 1143.07 559.599 1142.76 559.619 1142.11C559.642 1141.4 559.711 1140.43 559.859 1139.18C560.157 1136.67 560.749 1133.23 561.806 1128.82C563.918 1120 567.824 1107.54 574.682 1091.23C576.889 1085.99 574.424 1079.94 569.175 1077.73Z" fill="#EDD4FE"/>
<rect x="1087" y="935" width="131" height="104" rx="45" fill="#9A37BA"/>
<rect x="1322" y="822" width="92" height="42" rx="21" fill="#D64CA4"/>
<rect x="1288" y="842" width="75" height="49" rx="24.5" fill="#CA39AD"/>
<path fill-rule="evenodd" clip-rule="evenodd" d="M1508.55 635.558H1436.41V851.965H1436.48C1436.84 864.173 1452.82 873.999 1472.49 873.999C1492.15 873.999 1508.14 864.173 1508.5 851.965H1508.55V635.558Z" fill="#F290FC"/>
<path opacity="0.5" fill-rule="evenodd" clip-rule="evenodd" d="M1508.55 656.297C1491.46 657.573 1478 671.841 1478 689.255V873.739C1495.05 872.107 1508.17 863.011 1508.5 851.966H1508.55V656.297Z" fill="#C373D1"/>
<path d="M1468.08 540.55H1532.59V626.761C1532.59 662.39 1503.71 691.273 1468.08 691.273V691.273V540.55Z" fill="#F290FC"/>
<path d="M1477.47 713.042H1550.19V752.336C1550.19 772.417 1533.91 788.697 1513.83 788.697H1477.47V713.042Z" fill="#F290FC"/>
<path d="M1378.35 606.234H1442.86V729.393H1435.24C1403.82 729.393 1378.35 703.924 1378.35 672.506V606.234Z" fill="#F290FC"/>
<path d="M1291.55 727.635H1340.82V802.117H1335.54C1311.25 802.117 1291.55 782.424 1291.55 758.131V727.635Z" fill="#F290FC"/>
<path d="M1457.53 752.853L1457.53 802.116L1330.26 802.116L1330.26 752.853L1457.53 752.853Z" fill="#F290FC"/>
<path d="M1340.82 727.341C1340.82 736.572 1329.79 744.056 1316.19 744.056C1302.58 744.056 1291.55 736.572 1291.55 727.341C1291.55 718.11 1302.58 710.627 1316.19 710.627C1329.79 710.627 1340.82 718.11 1340.82 727.341Z" fill="#200F8F"/>
<path fill-rule="evenodd" clip-rule="evenodd" d="M1328.37 731.446C1331.14 729.567 1331.5 727.947 1331.5 727.341C1331.5 726.736 1331.14 725.116 1328.37 723.236C1325.65 721.391 1321.37 719.949 1316.19 719.949C1311 719.949 1306.72 721.391 1304 723.236C1301.23 725.116 1300.88 726.736 1300.88 727.341C1300.88 727.947 1301.23 729.567 1304 731.446C1306.72 733.292 1311 734.734 1316.19 734.734C1321.37 734.734 1325.65 733.292 1328.37 731.446ZM1316.19 744.056C1329.79 744.056 1340.82 736.572 1340.82 727.341C1340.82 718.11 1329.79 710.627 1316.19 710.627C1302.58 710.627 1291.55 718.11 1291.55 727.341C1291.55 736.572 1302.58 744.056 1316.19 744.056Z" fill="#E86E95"/>
<path d="M1384.77 635.865C1384.77 632.589 1387.43 629.933 1390.71 629.933V629.933C1393.98 629.933 1396.64 632.589 1396.64 635.865V677.39C1396.64 680.667 1393.98 683.322 1390.71 683.322V683.322C1387.43 683.322 1384.77 680.667 1384.77 677.39V635.865Z" fill="#F5AEFE"/>
<path d="M1478.84 736.711C1478.84 733.435 1481.5 730.779 1484.77 730.779V730.779C1488.05 730.779 1490.71 733.435 1490.71 736.712V760.44C1490.71 763.717 1488.05 766.373 1484.77 766.373V766.373C1481.5 766.373 1478.84 763.717 1478.84 760.44V736.711Z" fill="#F5AEFE"/>
<path opacity="0.5" fill-rule="evenodd" clip-rule="evenodd" d="M1532.23 783.701V713.042H1550.19V752.336C1550.19 765.701 1542.98 777.382 1532.23 783.701Z" fill="#C373D1"/>
<path opacity="0.5" fill-rule="evenodd" clip-rule="evenodd" d="M1442.4 657.067V635.864H1467.83C1467.83 647.574 1458.33 657.067 1446.62 657.067H1442.4Z" fill="#C373D1"/>
<path opacity="0.5" d="M1430.54 608.746C1430.54 605.469 1433.19 602.813 1436.47 602.813V602.813C1439.75 602.813 1442.4 605.469 1442.4 608.746V696.034C1442.4 699.31 1439.75 701.966 1436.47 701.966V701.966C1433.19 701.966 1430.54 699.31 1430.54 696.034V608.746Z" fill="#C373D1"/>
<path d="M1472.91 578.237C1472.91 574.961 1475.57 572.305 1478.84 572.305V572.305C1482.12 572.305 1484.77 574.961 1484.77 578.237V614.678C1484.77 617.954 1482.12 620.61 1478.84 620.61V620.61C1475.57 620.61 1472.91 617.954 1472.91 614.678V578.237Z" fill="#F5AEFE"/>
<path d="M1295.79 754.508C1295.79 751.232 1298.45 748.576 1301.72 748.576V748.576C1305 748.576 1307.66 751.232 1307.66 754.508V762.983C1307.66 766.259 1305 768.915 1301.72 768.915V768.915C1298.45 768.915 1295.79 766.259 1295.79 762.983V754.508Z" fill="#F5AEFE"/>
<path d="M1420.37 758.746C1423.64 758.746 1426.3 761.402 1426.3 764.678V764.678C1426.3 767.955 1423.64 770.611 1420.37 770.611L1358.5 770.611C1355.23 770.611 1352.57 767.955 1352.57 764.678V764.678C1352.57 761.402 1355.23 758.746 1358.5 758.746L1420.37 758.746Z" fill="#F5AEFE"/>
<path d="M1443.25 758.746C1443.25 755.469 1445.9 752.813 1449.18 752.813V752.813C1452.46 752.813 1455.11 755.469 1455.11 758.746V849.424C1455.11 852.7 1452.46 855.356 1449.18 855.356V855.356C1445.9 855.356 1443.25 852.7 1443.25 849.424V758.746Z" fill="#F5AEFE"/>
<path d="M1405.11 696.458C1405.11 699.5 1402.65 701.966 1399.61 701.966C1396.56 701.966 1394.1 699.5 1394.1 696.458C1394.1 693.415 1396.56 690.949 1399.61 690.949C1402.65 690.949 1405.11 693.415 1405.11 696.458Z" fill="#F5AEFE"/>
<path d="M1550.19 712.749C1550.19 721.98 1533.91 729.463 1513.83 729.463C1493.75 729.463 1477.47 721.98 1477.47 712.749C1477.47 703.517 1493.75 696.034 1513.83 696.034C1533.91 696.034 1550.19 703.517 1550.19 712.749Z" fill="#200F8F"/>
<path fill-rule="evenodd" clip-rule="evenodd" d="M1540.63 712.749C1540.17 712.148 1538.92 710.905 1535.64 709.4C1530.54 707.054 1522.84 705.356 1513.83 705.356C1504.82 705.356 1497.11 707.054 1492.01 709.4C1488.74 710.905 1487.49 712.148 1487.02 712.749C1487.49 713.349 1488.74 714.593 1492.01 716.097C1497.11 718.443 1504.82 720.141 1513.83 720.141C1522.84 720.141 1530.54 718.443 1535.64 716.097C1538.92 714.593 1540.17 713.349 1540.63 712.749ZM1513.83 729.463C1533.91 729.463 1550.19 721.98 1550.19 712.749C1550.19 703.517 1533.91 696.034 1513.83 696.034C1493.75 696.034 1477.47 703.517 1477.47 712.749C1477.47 721.98 1493.75 729.463 1513.83 729.463Z" fill="#E86E95"/>
<path opacity="0.5" fill-rule="evenodd" clip-rule="evenodd" d="M1516.13 669.811V540.551H1532.59V626.762C1532.59 643.304 1526.37 658.392 1516.13 669.811Z" fill="#C373D1"/>
<path d="M1532.59 540.714C1532.59 549.946 1518.15 557.429 1500.34 557.429C1482.52 557.429 1468.08 549.946 1468.08 540.714C1468.08 531.483 1482.52 524 1500.34 524C1518.15 524 1532.59 531.483 1532.59 540.714Z" fill="#200F8F"/>
<path fill-rule="evenodd" clip-rule="evenodd" d="M1523.22 540.714C1523.03 540.291 1522.21 538.912 1518.86 537.172C1514.6 534.965 1508.06 533.322 1500.34 533.322C1492.61 533.322 1486.08 534.965 1481.82 537.172C1478.46 538.912 1477.65 540.291 1477.46 540.714C1477.65 541.138 1478.46 542.517 1481.82 544.256C1486.08 546.464 1492.61 548.107 1500.34 548.107C1508.06 548.107 1514.6 546.464 1518.86 544.256C1522.21 542.517 1523.03 541.138 1523.22 540.714ZM1500.34 557.429C1518.15 557.429 1532.59 549.946 1532.59 540.714C1532.59 531.483 1518.15 524 1500.34 524C1482.52 524 1468.08 531.483 1468.08 540.714C1468.08 549.946 1482.52 557.429 1500.34 557.429Z" fill="#E86E95"/>
<path d="M1442.86 605.942C1442.86 615.173 1428.42 622.656 1410.61 622.656C1392.79 622.656 1378.35 615.173 1378.35 605.942C1378.35 596.711 1392.79 589.228 1410.61 589.228C1428.42 589.228 1442.86 596.711 1442.86 605.942Z" fill="#200F8F"/>
<path fill-rule="evenodd" clip-rule="evenodd" d="M1433.49 605.942C1433.3 605.519 1432.48 604.139 1429.13 602.4C1424.87 600.192 1418.33 598.55 1410.61 598.55C1402.88 598.55 1396.35 600.192 1392.09 602.4C1388.73 604.139 1387.92 605.519 1387.73 605.942C1387.92 606.365 1388.73 607.745 1392.09 609.484C1396.35 611.691 1402.88 613.334 1410.61 613.334C1418.33 613.334 1424.87 611.691 1429.13 609.484C1432.48 607.745 1433.3 606.365 1433.49 605.942ZM1410.61 622.656C1428.42 622.656 1442.86 615.173 1442.86 605.942C1442.86 596.711 1428.42 589.228 1410.61 589.228C1392.79 589.228 1378.35 596.711 1378.35 605.942C1378.35 615.173 1392.79 622.656 1410.61 622.656Z" fill="#E86E95"/>
<path d="M1146.2 719.821L1174.14 711.058L1265.38 1002.01L1237.44 1010.78L1146.2 719.821Z" fill="#7E7BFB"/>
<path d="M1174.05 710.768C1176.32 717.999 1171.9 725.822 1164.18 728.242C1156.47 730.662 1148.37 726.761 1146.11 719.53C1143.84 712.299 1148.26 704.476 1155.97 702.056C1163.69 699.636 1171.78 703.537 1174.05 710.768Z" fill="#7E7BFB"/>
<path d="M1265.29 1001.72C1267.56 1008.95 1263.14 1016.78 1255.42 1019.2C1247.71 1021.61 1239.61 1017.71 1237.35 1010.48C1235.08 1003.25 1239.5 995.429 1247.21 993.009C1254.93 990.589 1263.02 994.49 1265.29 1001.72Z" fill="#7E7BFB"/>
<path d="M1186.31 692.366L1222.24 682.479L1298.54 959.737L1262.61 969.624L1186.31 692.366Z" fill="#7E7BFB"/>
<path d="M1222.16 682.202C1224.06 689.093 1217.55 696.892 1207.63 699.622C1197.71 702.352 1188.13 698.98 1186.24 692.089C1184.34 685.198 1190.85 677.399 1200.77 674.669C1210.69 671.939 1220.27 675.311 1222.16 682.202Z" fill="#7E7BFB"/>
<path d="M1298.46 959.46C1300.36 966.35 1293.85 974.15 1283.93 976.88C1274.01 979.61 1264.43 976.237 1262.54 969.347C1260.64 962.456 1267.14 954.657 1277.07 951.927C1286.99 949.196 1296.57 952.569 1298.46 959.46Z" fill="#7E7BFB"/>
<path d="M1151.2 771.597L1187.48 754.522L1301.31 996.361L1265.03 1013.44L1151.2 771.597Z" fill="#8D84F3"/>
<path d="M1187.37 754.281C1190.19 760.291 1184.37 768.986 1174.35 773.701C1164.33 778.416 1153.92 777.366 1151.09 771.355C1148.26 765.345 1154.09 756.65 1164.1 751.935C1174.12 747.22 1184.54 748.271 1187.37 754.281Z" fill="#D64CA4"/>
<path fill-rule="evenodd" clip-rule="evenodd" d="M1180.67 761.121C1182.4 758.542 1182.07 757.185 1181.91 756.848C1181.75 756.511 1180.91 755.395 1177.83 755.084C1174.88 754.786 1170.86 755.417 1166.67 757.389C1162.48 759.361 1159.44 762.053 1157.79 764.516C1156.06 767.094 1156.38 768.452 1156.54 768.788C1156.7 769.125 1157.54 770.241 1160.63 770.553C1163.58 770.85 1167.59 770.219 1171.78 768.247C1175.97 766.275 1179.02 763.583 1180.67 761.121ZM1174.35 773.701C1184.37 768.986 1190.19 760.291 1187.37 754.281C1184.54 748.271 1174.12 747.22 1164.1 751.935C1154.09 756.65 1148.26 765.345 1151.09 771.355C1153.92 777.366 1164.33 778.416 1174.35 773.701Z" fill="#E7D6FF"/>
<path d="M1301.2 996.12C1304.02 1002.13 1298.2 1010.82 1288.18 1015.54C1278.16 1020.25 1267.75 1019.2 1264.92 1013.19C1262.09 1007.18 1267.92 998.489 1277.93 993.774C1287.95 989.059 1298.37 990.109 1301.2 996.12Z" fill="#8D84F3"/>
<path d="M1342.98 695.746L1367.93 702.433L1291.42 987.98L1266.47 981.293L1342.98 695.746Z" fill="#8D84F3"/>
<path d="M1367.69 702.941C1366.62 706.948 1360.16 708.698 1353.27 706.852C1346.38 705.005 1341.66 700.261 1342.73 696.254C1343.81 692.248 1350.27 690.497 1357.16 692.343C1364.05 694.19 1368.76 698.935 1367.69 702.941Z" fill="#D64CA4"/>
<path fill-rule="evenodd" clip-rule="evenodd" d="M1362.17 700.81C1362.17 700.811 1362.15 700.829 1362.11 700.858C1362.14 700.823 1362.16 700.808 1362.17 700.81ZM1361.27 701.221C1361.23 701.176 1361.18 701.13 1361.14 701.082C1360.1 700.044 1358.2 698.863 1355.6 698.166C1352.99 697.468 1350.75 697.539 1349.34 697.922C1349.28 697.939 1349.21 697.957 1349.16 697.975C1349.2 698.019 1349.24 698.065 1349.29 698.114C1350.32 699.151 1352.23 700.332 1354.83 701.03C1357.43 701.727 1359.67 701.657 1361.08 701.274C1361.15 701.256 1361.21 701.238 1361.27 701.221ZM1348.59 697.171C1348.59 697.171 1348.6 697.194 1348.61 697.239C1348.59 697.193 1348.58 697.17 1348.59 697.171ZM1348.26 698.386C1348.26 698.384 1348.27 698.367 1348.31 698.337C1348.28 698.373 1348.26 698.387 1348.26 698.386ZM1361.82 701.956C1361.84 702.002 1361.84 702.025 1361.84 702.025C1361.84 702.025 1361.83 702.002 1361.82 701.956ZM1353.27 706.852C1360.16 708.698 1366.62 706.948 1367.69 702.941C1368.76 698.935 1364.05 694.19 1357.16 692.343C1350.27 690.497 1343.81 692.248 1342.73 696.254C1341.66 700.261 1346.38 705.005 1353.27 706.852Z" fill="#E7D6FF"/>
<path d="M1291.5 987.694C1289.6 994.79 1282.47 999.046 1275.58 997.2C1268.69 995.353 1264.64 988.104 1266.54 981.007C1268.44 973.91 1275.57 969.654 1282.46 971.501C1289.36 973.347 1293.4 980.597 1291.5 987.694Z" fill="#8D84F3"/>
<path d="M1342.98 695.746L1367.93 702.433L1291.42 987.98L1266.47 981.293L1342.98 695.746Z" fill="#8D84F3"/>
<path d="M1367.69 702.941C1366.62 706.948 1360.16 708.698 1353.27 706.852C1346.38 705.005 1341.66 700.261 1342.73 696.254C1343.81 692.248 1350.27 690.497 1357.16 692.343C1364.05 694.19 1368.76 698.935 1367.69 702.941Z" fill="#D64CA4"/>
<path fill-rule="evenodd" clip-rule="evenodd" d="M1362.17 700.81C1362.17 700.811 1362.15 700.829 1362.11 700.858C1362.14 700.823 1362.16 700.808 1362.17 700.81ZM1361.27 701.221C1361.23 701.176 1361.18 701.13 1361.14 701.082C1360.1 700.044 1358.2 698.863 1355.6 698.166C1352.99 697.468 1350.75 697.539 1349.34 697.922C1349.28 697.939 1349.21 697.957 1349.16 697.975C1349.2 698.019 1349.24 698.065 1349.29 698.114C1350.32 699.151 1352.23 700.332 1354.83 701.03C1357.43 701.727 1359.67 701.657 1361.08 701.274C1361.15 701.256 1361.21 701.238 1361.27 701.221ZM1348.59 697.171C1348.59 697.171 1348.6 697.194 1348.61 697.239C1348.59 697.193 1348.58 697.17 1348.59 697.171ZM1348.26 698.386C1348.26 698.384 1348.27 698.367 1348.31 698.337C1348.28 698.373 1348.26 698.387 1348.26 698.386ZM1361.82 701.956C1361.84 702.002 1361.84 702.025 1361.84 702.025C1361.84 702.025 1361.83 702.002 1361.82 701.956ZM1353.27 706.852C1360.16 708.698 1366.62 706.948 1367.69 702.941C1368.76 698.935 1364.05 694.19 1357.16 692.343C1350.27 690.497 1343.81 692.248 1342.73 696.254C1341.66 700.261 1346.38 705.005 1353.27 706.852Z" fill="#E7D6FF"/>
<path d="M1291.5 987.694C1289.6 994.79 1282.47 999.046 1275.58 997.2C1268.69 995.353 1264.64 988.104 1266.54 981.007C1268.44 973.91 1275.57 969.654 1282.46 971.501C1289.36 973.347 1293.4 980.597 1291.5 987.694Z" fill="#8D84F3"/>
<path fill-rule="evenodd" clip-rule="evenodd" d="M1299 859.877L1322 774.04L1322 873.864L1299 959.701L1299 859.877Z" fill="#7E7BFB"/>
<path d="M1269.87 672.404H1304.7V1007.28H1269.87V672.404Z" fill="#8D84F3"/>
<path d="M1304.7 672.069C1304.7 680.392 1296.9 687.139 1287.28 687.139C1277.67 687.139 1269.87 680.392 1269.87 672.069C1269.87 663.747 1277.67 657 1287.28 657C1296.9 657 1304.7 663.747 1304.7 672.069Z" fill="#D64CA4"/>
<path fill-rule="evenodd" clip-rule="evenodd" d="M1287.28 681.111C1294.42 681.111 1298.67 676.274 1298.67 672.069C1298.67 667.865 1294.42 663.028 1287.28 663.028C1280.15 663.028 1275.9 667.865 1275.9 672.069C1275.9 676.274 1280.15 681.111 1287.28 681.111ZM1287.28 687.139C1296.9 687.139 1304.7 680.392 1304.7 672.069C1304.7 663.747 1296.9 657 1287.28 657C1277.67 657 1269.87 663.747 1269.87 672.069C1269.87 680.392 1277.67 687.139 1287.28 687.139Z" fill="#E7D6FF"/>
<path d="M1304.7 1006.95C1304.7 1015.27 1296.9 1022.02 1287.28 1022.02C1277.67 1022.02 1269.87 1015.27 1269.87 1006.95C1269.87 998.625 1277.67 991.878 1287.28 991.878C1296.9 991.878 1304.7 998.625 1304.7 1006.95Z" fill="#8D84F3"/>
<path d="M1409.64 768.806L1436.36 784.228L1310.82 1001.67L1284.1 986.251L1409.64 768.806Z" fill="#A0A4FA"/>
<path d="M1436.48 784.01C1433.36 789.415 1424.85 790.343 1417.48 786.084C1410.1 781.825 1406.65 773.992 1409.77 768.588C1412.89 763.184 1421.4 762.255 1428.78 766.514C1436.15 770.773 1439.6 778.606 1436.48 784.01Z" fill="#D64CA4"/>
<path fill-rule="evenodd" clip-rule="evenodd" d="M1427.92 782.679C1429.96 782.456 1430.89 781.634 1431.26 780.997C1431.63 780.359 1431.88 779.143 1431.05 777.263C1430.22 775.387 1428.46 773.291 1425.76 771.734C1423.07 770.178 1420.37 769.697 1418.33 769.92C1416.29 770.142 1415.36 770.964 1414.99 771.602C1414.62 772.239 1414.38 773.456 1415.2 775.336C1416.03 777.211 1417.79 779.307 1420.49 780.864C1423.19 782.421 1425.88 782.901 1427.92 782.679ZM1417.48 786.084C1424.85 790.343 1433.36 789.415 1436.48 784.01C1439.6 778.606 1436.15 770.773 1428.78 766.514C1421.4 762.255 1412.89 763.184 1409.77 768.588C1406.65 773.992 1410.1 781.825 1417.48 786.084Z" fill="#C2B2FC"/>
<path d="M1310.94 1001.46C1307.82 1006.86 1299.31 1007.79 1291.93 1003.53C1284.56 999.272 1281.11 991.438 1284.23 986.034C1287.35 980.63 1295.86 979.702 1303.23 983.96C1310.61 988.219 1314.06 996.053 1310.94 1001.46Z" fill="#A0A4FA"/>
<path opacity="0.2" fill-rule="evenodd" clip-rule="evenodd" d="M1280 688C1282.21 688 1284 689.791 1284 692V976C1284 978.209 1282.21 980 1280 980C1277.79 980 1276 978.209 1276 976V692C1276 689.791 1277.79 688 1280 688Z" fill="#E7D6FF"/>
<path opacity="0.2" fill-rule="evenodd" clip-rule="evenodd" d="M1163.34 778.362C1165.35 777.444 1167.72 778.329 1168.64 780.339L1247.64 953.339C1248.56 955.348 1247.67 957.721 1245.66 958.639C1243.65 959.557 1241.28 958.672 1240.36 956.662L1161.36 783.662C1160.44 781.652 1161.33 779.28 1163.34 778.362Z" fill="#E7D6FF"/>
<path opacity="0.2" fill-rule="evenodd" clip-rule="evenodd" d="M1347.51 707.138C1349.65 707.712 1350.91 709.907 1350.34 712.041L1315.86 840.041C1315.29 842.174 1313.09 843.437 1310.96 842.863C1308.83 842.288 1307.56 840.093 1308.14 837.96L1342.61 709.96C1343.19 707.827 1345.38 706.563 1347.51 707.138Z" fill="#E7D6FF"/>
<path opacity="0.4" fill-rule="evenodd" clip-rule="evenodd" d="M1413.01 783.539C1414.92 784.646 1415.57 787.094 1414.46 789.005L1301.46 984.005C1300.35 985.917 1297.91 986.568 1295.99 985.461C1294.08 984.353 1293.43 981.905 1294.54 979.994L1407.54 784.994C1408.65 783.083 1411.09 782.431 1413.01 783.539Z" fill="#E7D6FF"/>
<path d="M1410.68 882.788L1436.01 913.862L1308.84 1017.55L1283.5 986.479L1410.68 882.788Z" fill="#A0A4FA"/>
<path d="M1436.14 913.758C1432.98 916.335 1424.75 911.468 1417.75 902.888C1410.75 894.307 1407.64 885.262 1410.8 882.685C1413.96 880.108 1422.2 884.975 1429.19 893.555C1436.19 902.136 1439.3 911.181 1436.14 913.758Z" fill="#D64CA4"/>
<path fill-rule="evenodd" clip-rule="evenodd" d="M1430.27 906.565C1429.16 903.929 1427.23 900.681 1424.52 897.364C1421.82 894.048 1419.03 891.499 1416.67 889.878C1417.78 892.514 1419.72 895.762 1422.42 899.078C1425.12 902.395 1427.92 904.944 1430.27 906.565ZM1415.6 885.835C1415.6 885.835 1415.6 885.836 1415.6 885.838C1415.6 885.836 1415.6 885.835 1415.6 885.835ZM1412.92 888.018C1412.92 888.018 1412.92 888.018 1412.93 888.019C1412.92 888.018 1412.92 888.018 1412.92 888.018ZM1417.75 902.888C1424.75 911.468 1432.98 916.335 1436.14 913.758C1439.3 911.181 1436.19 902.136 1429.19 893.555C1422.2 884.975 1413.96 880.108 1410.8 882.685C1407.64 885.262 1410.75 894.307 1417.75 902.888Z" fill="#C2B2FC"/>
<path d="M1308.97 1017.45C1305.81 1020.03 1297.57 1015.16 1290.58 1006.58C1283.58 997.998 1280.47 988.953 1283.63 986.376C1286.79 983.799 1295.03 988.666 1302.02 997.247C1309.02 1005.83 1312.13 1014.87 1308.97 1017.45Z" fill="#A0A4FA"/>
<path d="M1231.36 792.214L1253.99 788.908L1285.78 1006.57L1263.15 1009.88L1231.36 792.214Z" fill="#A0A4FA"/>
<path d="M1253.96 788.69C1254.75 794.1 1250.33 799.225 1244.08 800.138C1237.82 801.051 1232.12 797.406 1231.33 791.996C1230.54 786.587 1234.96 781.461 1241.21 780.548C1247.47 779.635 1253.17 783.281 1253.96 788.69Z" fill="#D64CA4"/>
<path fill-rule="evenodd" clip-rule="evenodd" d="M1243.2 794.174C1247 793.619 1248.19 790.896 1248 789.561C1247.8 788.226 1245.88 785.958 1242.09 786.513C1238.29 787.067 1237.1 789.79 1237.29 791.125C1237.49 792.46 1239.41 794.728 1243.2 794.174ZM1244.08 800.138C1250.33 799.225 1254.75 794.1 1253.96 788.69C1253.17 783.281 1247.47 779.635 1241.21 780.548C1234.96 781.461 1230.54 786.587 1231.33 791.996C1232.12 797.406 1237.82 801.051 1244.08 800.138Z" fill="#E7D6FF"/>
<path d="M1285.75 1006.36C1286.54 1011.77 1282.11 1016.89 1275.86 1017.8C1269.61 1018.72 1263.9 1015.07 1263.11 1009.66C1262.32 1004.25 1266.75 999.127 1273 998.214C1279.25 997.301 1284.96 1000.95 1285.75 1006.36Z" fill="#A0A4FA"/>
<path d="M1167.5 868.992L1198.61 858.079L1249.87 1004.23L1218.76 1015.14L1167.5 868.992Z" fill="#A0A4FA"/>
<path d="M1198.56 857.933C1199.83 861.566 1193.9 866.953 1185.31 869.967C1176.72 872.98 1168.72 872.479 1167.45 868.846C1166.17 865.214 1172.1 859.827 1180.7 856.813C1189.29 853.8 1197.29 854.301 1198.56 857.933Z" fill="#D64CA4"/>
<path fill-rule="evenodd" clip-rule="evenodd" d="M1190.08 860.906C1188.03 861.035 1185.47 861.527 1182.69 862.501C1179.91 863.475 1177.61 864.69 1175.92 865.873C1177.98 865.745 1180.54 865.253 1183.31 864.279C1186.09 863.304 1188.4 862.09 1190.08 860.906ZM1185.31 869.967C1193.9 866.953 1199.83 861.566 1198.56 857.933C1197.29 854.301 1189.29 853.8 1180.7 856.813C1172.1 859.827 1166.17 865.214 1167.45 868.846C1168.72 872.479 1176.72 872.98 1185.31 869.967Z" fill="#E7D6FF"/>
<path d="M1249.82 1004.08C1251.1 1007.72 1245.17 1013.1 1236.57 1016.12C1227.98 1019.13 1219.98 1018.63 1218.71 1015C1217.44 1011.37 1223.37 1005.98 1231.96 1002.96C1240.55 999.951 1248.55 1000.45 1249.82 1004.08Z" fill="#A0A4FA"/>
<path d="M1233.34 924.895L1266.23 922.56L1272.95 1017.18L1240.06 1019.52L1233.34 924.895Z" fill="#A0A4FA"/>
<path d="M1265.88 922.983C1266.22 927.841 1259.14 932.302 1250.06 932.947C1240.98 933.592 1233.33 930.176 1232.99 925.318C1232.64 920.46 1239.73 915.999 1248.81 915.354C1257.89 914.709 1265.53 918.125 1265.88 922.983Z" fill="#D64CA4"/>
<path fill-rule="evenodd" clip-rule="evenodd" d="M1259.9 922.999C1259.9 922.999 1259.9 923.01 1259.89 923.031C1259.89 923.009 1259.9 922.998 1259.9 922.999ZM1259.59 923.429C1259.33 923.217 1258.88 922.932 1258.16 922.608C1256.14 921.707 1252.99 921.1 1249.24 921.367C1245.49 921.633 1242.45 922.679 1240.58 923.856C1239.91 924.279 1239.51 924.624 1239.28 924.872C1239.54 925.084 1239.98 925.369 1240.71 925.693C1242.72 926.594 1245.88 927.201 1249.63 926.934C1253.38 926.668 1256.42 925.622 1258.29 924.445C1258.96 924.022 1259.36 923.677 1259.59 923.429ZM1238.91 924.489C1238.91 924.488 1238.92 924.498 1238.93 924.519C1238.91 924.499 1238.91 924.489 1238.91 924.489ZM1238.97 925.302C1238.97 925.302 1238.97 925.291 1238.98 925.27C1238.97 925.292 1238.97 925.303 1238.97 925.302ZM1259.94 923.782C1259.95 923.802 1259.96 923.812 1259.96 923.812C1259.96 923.813 1259.95 923.803 1259.94 923.782ZM1250.06 932.947C1259.14 932.302 1266.22 927.841 1265.88 922.983C1265.53 918.125 1257.89 914.709 1248.81 915.354C1239.73 915.999 1232.64 920.46 1232.99 925.318C1233.33 930.176 1240.98 933.592 1250.06 932.947Z" fill="#E7D6FF"/>
<path d="M1272.94 1017.09C1273.11 1019.44 1265.88 1021.87 1256.8 1022.52C1247.72 1023.16 1240.22 1021.78 1240.06 1019.43C1239.89 1017.07 1247.12 1014.64 1256.2 1014C1265.28 1013.35 1272.78 1014.74 1272.94 1017.09Z" fill="#A0A4FA"/>
<rect opacity="0.5" x="966" y="1038" width="65" height="13" rx="6.5" fill="#CA39AD"/>
<rect x="1273" y="1039" width="105" height="46" rx="23" fill="#CF42A9"/>
<rect x="1259" y="990" width="98" height="63" rx="31.5" fill="#CA39AD"/>
<rect x="953" y="1033" width="103" height="49" rx="24.5" fill="#9A37BA"/>
<rect x="1107" y="1010" width="191" height="87" rx="43.5" fill="#D64CA4"/>
<rect x="1175" y="1018" width="48" height="18" rx="9" fill="#E2609D"/>
<rect x="1147" y="1055" width="134" height="18" rx="9" fill="#CA39AD"/>
<path fill-rule="evenodd" clip-rule="evenodd" d="M1003.81 917.383C997.163 920.459 994.266 928.343 997.342 934.993C997.595 935.54 997.873 936.137 998.175 936.784C1003.24 947.654 1014.73 972.302 1018.68 1000.54C1020.55 1013.93 1021.29 1029.57 1020.74 1044.19C1020.19 1059.04 1018.33 1071.77 1015.57 1079.81C1013.18 1086.74 1016.86 1094.29 1023.79 1096.68C1030.72 1099.06 1038.27 1095.38 1040.65 1088.45C1044.67 1076.78 1046.66 1061.02 1047.26 1045.19C1047.86 1029.13 1047.06 1011.92 1044.96 996.866C1040.43 964.534 1027.42 936.697 1022.3 925.732C1021.97 925.038 1021.68 924.411 1021.42 923.854C1018.35 917.205 1010.46 914.307 1003.81 917.383Z" fill="#A596FF"/>
<path fill-rule="evenodd" clip-rule="evenodd" d="M980.917 972.3C974.596 976.004 972.474 984.131 976.178 990.452C993.94 1020.77 1003.53 1050.82 1007.52 1086.19C1008.35 1093.47 1014.91 1098.7 1022.19 1097.88C1029.47 1097.06 1034.71 1090.49 1033.89 1083.21C1029.51 1044.39 1018.82 1010.75 999.07 977.04C995.366 970.718 987.239 968.596 980.917 972.3Z" fill="#A596FF"/>
<path fill-rule="evenodd" clip-rule="evenodd" d="M1067.02 923.624C1059.84 925.061 1055.18 932.05 1056.62 939.235C1068.36 997.937 1057.34 1053.6 1050.71 1073.19C1048.36 1080.12 1052.08 1087.66 1059.02 1090.01C1065.95 1092.36 1073.49 1088.64 1075.84 1081.7C1083.67 1058.58 1095.46 998.14 1082.63 934.031C1081.2 926.847 1074.21 922.188 1067.02 923.624Z" fill="#A596FF"/>
<path fill-rule="evenodd" clip-rule="evenodd" d="M1120.29 951.242C1113.15 949.575 1106.02 954.007 1104.35 961.141C1099.94 980.021 1089.71 1024.35 1084.18 1050.33C1081.64 1062.21 1078.49 1069.72 1075.97 1074.11C1074.2 1077.2 1073.02 1078.29 1072.88 1078.46C1066.88 1081.67 1064.23 1089 1066.96 1095.37C1069.85 1102.11 1077.64 1105.23 1084.38 1102.34C1090.23 1099.83 1095.17 1093.96 1098.98 1087.31C1103.16 1080.03 1107.15 1069.8 1110.13 1055.86C1115.6 1030.17 1125.77 986.06 1130.19 967.178C1131.85 960.043 1127.42 952.908 1120.29 951.242Z" fill="#A596FF"/>
<path fill-rule="evenodd" clip-rule="evenodd" d="M961.43 955.255C954.235 953.875 947.283 958.589 945.902 965.784C945.349 968.67 942.646 983.287 936.191 1019.02C932.839 1037.57 931.669 1052.49 931.62 1063.74C931.572 1074.65 932.571 1082.94 934.114 1087.84C936.312 1094.83 943.76 1098.71 950.749 1096.51C957.738 1094.31 961.622 1086.87 959.423 1079.88C959.1 1078.85 958.109 1073.78 958.152 1063.86C958.193 1054.3 959.194 1040.93 962.301 1023.73C968.764 987.955 971.439 973.497 971.959 970.783C973.34 963.587 968.626 956.635 961.43 955.255Z" fill="#A596FF"/>
<path fill-rule="evenodd" clip-rule="evenodd" d="M1064.89 953.123C1059.97 955.152 1057.62 960.791 1059.64 965.718C1077.64 1009.43 1079.98 1040.84 1078.21 1061.33C1077.32 1071.6 1075.38 1079.29 1073.72 1084.6C1072.99 1086.94 1072.32 1088.82 1071.74 1090.42C1071.65 1090.65 1071.57 1090.88 1071.49 1091.11C1071.2 1091.91 1070.87 1092.85 1070.62 1093.7C1070.49 1094.14 1070.33 1094.75 1070.21 1095.43C1070.11 1095.99 1069.9 1097.32 1070.13 1098.92C1070.88 1104.2 1075.77 1107.86 1081.05 1107.11C1085.46 1106.48 1088.74 1102.96 1089.26 1098.74C1089.34 1098.49 1089.47 1098.14 1089.65 1097.62C1089.73 1097.42 1089.8 1097.21 1089.88 1096.99C1090.46 1095.39 1091.28 1093.12 1092.14 1090.36C1094.14 1083.97 1096.4 1074.89 1097.43 1062.99C1099.5 1039.15 1096.54 1004.65 1077.49 958.371C1075.46 953.444 1069.82 951.094 1064.89 953.123ZM1122.79 981.068C1117.51 980.357 1112.65 984.062 1111.94 989.342C1110.22 1002.15 1113.01 1022 1116.61 1040.32C1120.32 1059.12 1125.23 1077.99 1128.65 1089.68C1130.15 1094.79 1135.5 1097.73 1140.62 1096.23C1145.73 1094.74 1148.67 1089.38 1147.17 1084.27C1143.89 1073.02 1139.12 1054.72 1135.55 1036.59C1131.88 1017.99 1129.82 1001.13 1131.06 991.917C1131.77 986.636 1128.07 981.779 1122.79 981.068Z" fill="#EDD4FE"/>
<path fill-rule="evenodd" clip-rule="evenodd" d="M1122.32 990.694C1118.51 990.222 1115.28 994.146 1115.11 999.459C1114.69 1012.35 1117.94 1032.06 1121.68 1050.22C1125.51 1068.85 1130.22 1087.49 1133.4 1099.03C1134.79 1104.08 1138.79 1106.77 1142.34 1105.04C1145.89 1103.32 1147.64 1097.83 1146.25 1092.78C1143.2 1081.68 1138.63 1063.61 1134.94 1045.64C1131.15 1027.2 1128.61 1010.43 1128.9 1001.17C1129.08 995.854 1126.13 991.165 1122.32 990.694Z" fill="#FB95FD"/>
<path fill-rule="evenodd" clip-rule="evenodd" d="M1122.08 1012.15C1119.09 1011.88 1117.74 1018.14 1118.3 1022.54C1119.27 1030.17 1121.95 1045.34 1125.34 1059.43C1128.81 1073.89 1132.96 1088.33 1135.74 1097.26C1136.95 1101.17 1140.15 1103.17 1142.88 1101.73C1145.61 1100.29 1146.84 1095.95 1145.62 1092.05C1142.95 1083.46 1138.92 1069.45 1135.58 1055.51C1132.14 1041.21 1128.69 1028.53 1128.69 1021.28C1128.06 1014.35 1125.06 1012.42 1122.08 1012.15Z" fill="#DC87FB"/>
<path fill-rule="evenodd" clip-rule="evenodd" d="M1070.87 968.067C1067.14 969.8 1065.36 974.617 1066.9 978.825C1080.53 1016.16 1082.3 1042.99 1080.96 1060.49C1080.28 1069.26 1078.82 1075.84 1077.56 1080.37C1077.01 1082.37 1076.49 1083.98 1076.06 1085.34C1075.99 1085.54 1075.93 1085.74 1075.87 1085.93C1075.65 1086.61 1075.4 1087.42 1075.21 1088.15C1075.11 1088.52 1074.99 1089.04 1074.9 1089.63C1074.82 1090.1 1074.67 1091.23 1074.84 1092.61C1075.41 1097.11 1079.11 1100.24 1083.11 1099.6C1086.45 1099.06 1088.93 1096.06 1089.33 1092.45C1089.39 1092.24 1089.49 1091.94 1089.63 1091.5C1089.68 1091.33 1089.74 1091.14 1089.8 1090.95C1090.24 1089.59 1090.85 1087.65 1091.51 1085.29C1093.02 1079.83 1094.74 1072.08 1095.52 1061.91C1097.08 1041.55 1094.84 1012.08 1080.41 972.55C1078.87 968.341 1074.6 966.334 1070.87 968.067Z" fill="#FB95FD"/>
<path fill-rule="evenodd" clip-rule="evenodd" d="M1078.55 988.094C1075.9 989.508 1074.5 993.669 1075.42 997.389C1083.6 1030.39 1083.92 1053.88 1082.39 1069.14C1081.63 1076.79 1080.39 1082.49 1079.36 1086.42C1078.91 1088.16 1078.5 1089.55 1078.15 1090.73C1078.1 1090.9 1078.05 1091.07 1078 1091.24C1077.83 1091.83 1077.62 1092.53 1077.47 1093.16C1077.39 1093.48 1077.28 1093.93 1077.2 1094.44C1077.13 1094.85 1076.98 1095.84 1077.06 1097.05C1077.3 1101 1079.76 1103.83 1082.55 1103.38C1084.88 1103 1086.71 1100.44 1087.1 1097.3C1087.16 1097.12 1087.23 1096.85 1087.34 1096.47C1087.39 1096.33 1087.43 1096.17 1087.48 1096C1087.83 1094.82 1088.33 1093.15 1088.86 1091.1C1090.09 1086.37 1091.55 1079.64 1092.43 1070.78C1094.21 1053.02 1093.66 1027.21 1085 992.269C1084.08 988.549 1081.19 986.68 1078.55 988.094Z" fill="#DC87FB"/>
<path fill-rule="evenodd" clip-rule="evenodd" d="M1046.8 984.696C1041.48 984.447 1036.96 988.56 1036.71 993.882C1035.25 1025.23 1035.38 1048.03 1036.16 1063.87C1036.92 1079.27 1038.32 1088.99 1039.87 1093.48C1041.61 1098.52 1047.1 1101.19 1052.14 1099.45C1057.18 1097.71 1059.85 1092.22 1058.11 1087.18C1057.57 1085.61 1056.2 1078.45 1055.43 1062.92C1054.69 1047.84 1054.54 1025.68 1055.99 994.784C1056.24 989.461 1052.13 984.945 1046.8 984.696Z" fill="#EDD4FE"/>
<path fill-rule="evenodd" clip-rule="evenodd" d="M1046.33 1001.55C1042.07 1001.48 1038.49 1005.05 1038.34 1009.53C1037.44 1035.87 1037.75 1055.01 1038.52 1068.28C1039.27 1081.18 1040.48 1089.3 1041.76 1093.03C1043.2 1097.21 1047.62 1099.31 1051.64 1097.72C1055.66 1096.13 1057.75 1091.45 1056.31 1087.27C1055.86 1085.96 1054.7 1079.99 1053.95 1066.98C1053.21 1054.34 1052.9 1035.75 1053.78 1009.78C1053.93 1005.31 1050.59 1001.63 1046.33 1001.55Z" fill="#FB95FD"/>
<path fill-rule="evenodd" clip-rule="evenodd" d="M1045.96 1012.64C1042.57 1012.74 1039.76 1015.99 1039.68 1019.9C1039.2 1042.94 1039.61 1059.63 1040.33 1071.19C1041.04 1082.42 1042.07 1089.47 1043.12 1092.67C1044.3 1096.27 1047.83 1097.93 1051.01 1096.39C1054.19 1094.85 1055.81 1090.68 1054.63 1087.08C1054.26 1085.96 1053.29 1080.79 1052.58 1069.46C1051.89 1058.46 1051.47 1042.23 1051.95 1019.53C1052.03 1015.62 1049.35 1012.54 1045.96 1012.64Z" fill="#DC87FB"/>
<path fill-rule="evenodd" clip-rule="evenodd" d="M991.642 939.099C986.611 940.854 983.955 946.355 985.709 951.386C996.589 982.585 994.718 1015.72 989.79 1041.88C987.34 1054.89 984.172 1065.97 981.589 1073.98C980.298 1077.97 979.154 1081.19 978.313 1083.52C978.137 1084.01 977.962 1084.49 977.799 1084.93C977.595 1085.49 977.41 1086 977.271 1086.39C977.14 1086.75 977.005 1087.14 976.892 1087.48C976.89 1087.49 976.888 1087.49 976.885 1087.5C976.831 1087.66 976.544 1088.52 976.397 1089.46C975.575 1094.72 979.177 1099.65 984.442 1100.48C989.384 1101.25 994.036 1098.12 995.266 1093.38C995.303 1093.27 995.357 1093.12 995.436 1092.9C995.568 1092.53 995.718 1092.12 995.899 1091.62C996.058 1091.19 996.241 1090.69 996.457 1090.09C997.342 1087.64 998.567 1084.19 999.951 1079.91C1002.72 1071.35 1006.12 1059.45 1008.75 1045.45C1014 1017.62 1016.36 980.694 1003.93 945.032C1002.17 940.001 996.674 937.345 991.642 939.099ZM995.223 1093.51C995.173 1093.66 995.187 1093.63 995.229 1093.49C995.227 1093.49 995.225 1093.5 995.223 1093.51Z" fill="#EDD4FE"/>
<path fill-rule="evenodd" clip-rule="evenodd" d="M997.409 954.237C993.338 955.84 991.162 958.685 992.502 965.226C998.487 994.436 994.586 1023.76 990.307 1046.83C988.18 1058.3 985.498 1068.09 983.323 1075.16C982.237 1078.69 981.278 1081.53 980.573 1083.59C980.426 1084.02 980.279 1084.44 980.143 1084.84C979.971 1085.33 979.817 1085.78 979.7 1086.13C979.591 1086.45 979.477 1086.79 979.382 1087.09C979.381 1087.09 979.379 1087.1 979.376 1087.11C979.331 1087.25 979.089 1088.01 978.96 1088.83C978.236 1093.47 981.076 1097.77 985.303 1098.43C989.271 1099.05 993.052 1096.24 994.099 1092.06C994.13 1091.96 994.175 1091.83 994.241 1091.63C994.352 1091.31 994.478 1090.94 994.629 1090.51C994.762 1090.12 994.915 1089.68 995.097 1089.15C995.838 1086.99 996.865 1083.94 998.03 1080.15C1000.36 1072.59 1003.24 1062.09 1005.53 1049.75C1010.08 1025.2 1011.4 1000.26 1005.87 963.183C1004.92 956.816 1001.48 952.633 997.409 954.237ZM994.063 1092.17C994.021 1092.31 994.032 1092.28 994.068 1092.15C994.066 1092.16 994.064 1092.17 994.063 1092.17Z" fill="#FB95FD"/>
<path fill-rule="evenodd" clip-rule="evenodd" d="M999.447 964.883C995.497 965.635 996.126 970.396 996.826 976.115C999.95 1001.66 996.354 1027.62 992.703 1048.08C990.888 1058.25 988.75 1066.96 987.044 1073.26C986.192 1076.4 985.449 1078.94 984.904 1080.77C984.789 1081.16 984.676 1081.54 984.571 1081.89C984.438 1082.33 984.319 1082.73 984.228 1083.04C984.144 1083.32 984.056 1083.63 983.981 1083.9C983.98 1083.9 983.979 1083.91 983.977 1083.91C983.942 1084.04 983.753 1084.71 983.639 1085.45C982.997 1089.56 984.788 1093.25 987.638 1093.7C990.315 1094.11 992.974 1091.52 993.821 1087.8C993.844 1087.72 993.88 1087.59 993.931 1087.42C994.017 1087.13 994.114 1086.81 994.231 1086.41C994.334 1086.07 994.452 1085.67 994.592 1085.2C995.166 1083.28 995.962 1080.56 996.876 1077.18C998.701 1070.45 1001 1061.1 1002.95 1050.16C1006.83 1028.39 1008.53 1006.37 1005.98 973.884C1005.54 968.306 1002.06 964.386 999.447 964.883ZM993.792 1087.9C993.759 1088.02 993.768 1088 993.796 1087.88C993.795 1087.89 993.794 1087.89 993.792 1087.9Z" fill="#DC87FB"/>
<path fill-rule="evenodd" clip-rule="evenodd" d="M958.608 1015.29C953.288 1014.99 948.731 1019.05 948.43 1024.37C947.446 1041.76 947.906 1055.04 948.937 1064.7C949.929 1073.97 951.531 1080.73 953.381 1084.48C955.741 1089.26 961.527 1091.22 966.304 1088.86C971.082 1086.5 973.042 1080.71 970.682 1075.93C970.684 1075.94 970.683 1075.94 970.681 1075.93C970.664 1075.89 970.546 1075.62 970.361 1075.05C970.159 1074.41 969.915 1073.54 969.654 1072.39C969.131 1070.08 968.576 1066.87 968.124 1062.64C967.222 1054.21 966.76 1041.99 967.696 1025.47C967.997 1020.15 963.928 1015.59 958.608 1015.29Z" fill="#EDD4FE"/>
<path fill-rule="evenodd" clip-rule="evenodd" d="M958.565 1025.37C953.948 1025.1 949.999 1028.63 949.747 1033.25C948.921 1048.37 949.342 1059.92 950.254 1068.31C951.13 1076.38 952.531 1082.26 954.143 1085.52C956.199 1089.68 961.224 1091.39 965.367 1089.34C969.509 1087.3 971.201 1082.27 969.144 1078.12C969.146 1078.12 969.146 1078.12 969.144 1078.11C969.129 1078.08 969.026 1077.85 968.865 1077.34C968.688 1076.79 968.475 1076.03 968.246 1075.03C967.788 1073.03 967.301 1070.23 966.903 1066.56C966.106 1059.22 965.684 1048.6 966.469 1034.23C966.722 1029.61 963.183 1025.64 958.565 1025.37Z" fill="#F8A2FB"/>
<path opacity="0.5" fill-rule="evenodd" clip-rule="evenodd" d="M957.229 1040.03C953.874 1039.64 951.157 1042.16 951.16 1045.68C951.172 1057.15 951.943 1065.96 952.941 1072.39C953.901 1078.57 955.154 1083.1 956.453 1085.65C958.109 1088.9 961.818 1090.4 964.735 1089.02C967.653 1087.63 968.675 1083.87 967.018 1080.62C967.02 1080.62 967.02 1080.62 967.018 1080.62C967.005 1080.59 966.922 1080.41 966.785 1080.02C966.635 1079.59 966.45 1079 966.243 1078.23C965.831 1076.69 965.365 1074.54 964.929 1071.73C964.056 1066.11 963.322 1058 963.311 1047.1C963.307 1043.59 960.584 1040.42 957.229 1040.03Z" fill="#A596FF"/>
<path d="M90.3194 1013C95.459 992.769 101.533 946.943 84.7126 925.488C66.7246 902.544 86.1839 890.448 77.2603 859.148M53.1744 777.988C50.8382 784.104 50.9317 805.371 69.9948 841.505C73.4373 848.03 75.7535 853.863 77.2603 859.148M77.2603 859.148C86.5193 856.09 104.196 844.469 100.832 822.45C97.468 800.431 92.4219 769.049 90.3194 756.11M100.832 1013C113.681 995.121 136.716 948.495 126.063 905.022C112.747 850.679 123.96 857.031 137.276 829.507C150.592 801.983 137.276 775.871 126.063 756.11C117.092 740.301 129.801 724.116 137.276 718M84.7126 1013C69.9854 1011.07 45.1742 999.719 43.1227 969.95M37.055 822.45C34.9525 828.801 32.0089 846.163 37.055 864.794C43.3627 888.084 60.1828 888.789 45.465 947.366C43.3303 955.862 42.6684 963.357 43.1227 969.95M43.1227 969.95C20.0747 967.362 -23.7786 951.883 -14.8078 910.667C-3.59417 859.148 17.4314 857.737 1.3118 810.452C-14.8078 763.167 17.4314 755.404 1.3118 722.94" stroke="#7E7BFB" stroke-width="17.3529" stroke-linecap="round"/>
<path d="M1087 834.063C1103.11 814.811 1129.54 807.685 1153.15 816.229L1169.42 822.118L1225 816.145L1186.35 833.434L1225 848.104L1169.42 840.035L1151.13 848.204C1128.97 858.105 1102.94 852.366 1087 834.063V834.063V834.063Z" fill="#E2609D"/>
<path opacity="0.5" d="M1098 834.368C1102.67 837.535 1114.3 844.068 1123.5 844.868C1132.7 845.668 1153 838.201 1162 834.368" stroke="#CA39AD" stroke-width="9" stroke-linecap="round"/>
<path d="M878 717.063C894.113 697.811 920.542 690.685 944.149 699.229L960.419 705.118L1016 699.145L977.35 716.434L1016 731.104L960.419 723.035L942.135 731.204C919.973 741.105 893.943 735.366 878 717.063V717.063V717.063Z" fill="#E2609D"/>
<path opacity="0.5" d="M889 717.368C893.667 720.535 905.3 727.068 914.5 727.868C923.7 728.668 944 721.201 953 717.368" stroke="#CA39AD" stroke-width="9" stroke-linecap="round"/>
<path d="M1757 435.063C1773.11 415.811 1799.54 408.685 1823.15 417.229L1839.42 423.118L1895 417.145L1856.35 434.434L1895 449.104L1839.42 441.035L1821.13 449.204C1798.97 459.105 1772.94 453.366 1757 435.063V435.063V435.063Z" fill="#E2609D"/>
<path opacity="0.5" d="M1768 435.368C1772.67 438.535 1784.3 445.068 1793.5 445.868C1802.7 446.668 1823 439.201 1832 435.368" stroke="#CA39AD" stroke-width="9" stroke-linecap="round"/>
<rect x="178" y="970" width="90" height="57" rx="28.5" fill="#9A37BA"/>
<rect x="306" y="1004" width="131" height="104" rx="45" fill="#9A37BA"/>
<rect x="-8" y="1014" width="276" height="76" rx="38" fill="#A43CC3"/>
<rect x="107" y="996" width="98" height="63" rx="31.5" fill="#B23EA8"/>
<rect x="240" y="1020" width="75" height="33" rx="16.5" fill="#B23EA8"/>
<rect x="244" y="1041" width="161" height="49" rx="24.5" fill="#CE41AA"/>
<rect x="125" y="1005" width="33" height="18" rx="9" fill="#CE41AA"/>
<rect x="199" y="978" width="33" height="8" rx="4" fill="#A43CC3"/>
<rect opacity="0.5" x="264" y="1046" width="102" height="13" rx="6.5" fill="#E2609D"/>
<rect x="-18" y="978" width="90" height="57" rx="28.5" fill="#9A37BA"/>
<rect opacity="0.5" x="-7" y="987" width="46" height="21" rx="10.5" fill="#B23EA8"/>
<rect x="-14" y="1053" width="110" height="21" rx="10.5" fill="#9A37BA"/>
<rect x="1665" y="616" width="47" height="150" rx="16" fill="#9A37BA"/>
<rect x="1637" y="588" width="47" height="177" rx="16" fill="#CA39AD"/>
<rect x="1690" y="651" width="47" height="91" rx="16" fill="#CA39AD"/>
<rect x="1614" y="673" width="47" height="91" rx="16" fill="#D64CA4"/>
<rect x="1670" y="715" width="47" height="56" rx="16" fill="#D64CA4"/>
<path d="M1623 745V696" stroke="#E2609D" stroke-width="8" stroke-linecap="round"/>
<path d="M1646 660V611" stroke="#E2609D" stroke-width="8" stroke-linecap="round"/>
<path d="M1678 749L1678 731" stroke="#E2609D" stroke-width="8" stroke-linecap="round"/>
<path fill-rule="evenodd" clip-rule="evenodd" d="M828.344 925.482C820.026 929.33 816.402 939.191 820.25 947.509C820.566 948.193 820.915 948.941 821.291 949.75C827.628 963.346 841.998 994.177 846.94 1029.5C849.282 1046.24 850.209 1065.81 849.522 1084.1C848.824 1102.67 846.507 1118.6 843.044 1128.66C840.06 1137.32 844.665 1146.76 853.33 1149.75C861.995 1152.73 871.439 1148.13 874.423 1139.46C879.452 1124.86 881.942 1105.14 882.686 1085.35C883.44 1065.26 882.441 1043.73 879.807 1024.9C874.149 984.46 857.875 949.641 851.465 935.926C851.059 935.057 850.693 934.273 850.371 933.577C846.524 925.259 836.662 921.635 828.344 925.482Z" fill="#272CA1"/>
<path fill-rule="evenodd" clip-rule="evenodd" d="M799.705 994.174C791.798 998.807 789.144 1008.97 793.777 1016.88C815.994 1054.8 827.996 1092.38 832.987 1136.63C834.014 1145.73 842.229 1152.28 851.336 1151.26C860.442 1150.23 866.992 1142.01 865.965 1132.91C860.488 1084.35 847.118 1042.27 822.411 1000.1C817.778 992.196 807.613 989.542 799.705 994.174Z" fill="#272CA1"/>
<path fill-rule="evenodd" clip-rule="evenodd" d="M907.41 933.289C898.423 935.087 892.595 943.829 894.392 952.815C909.078 1026.24 895.303 1095.87 887.002 1120.36C884.061 1129.04 888.713 1138.46 897.393 1141.41C906.073 1144.35 915.493 1139.69 918.434 1131.02C928.232 1102.1 942.973 1026.5 926.935 946.306C925.138 937.32 916.396 931.492 907.41 933.289Z" fill="#272CA1"/>
<path fill-rule="evenodd" clip-rule="evenodd" d="M974.031 967.833C965.107 965.748 956.183 971.292 954.098 980.217C948.58 1003.83 935.789 1059.28 928.866 1091.77C925.697 1106.64 921.751 1116.03 918.601 1121.52C916.382 1125.39 914.91 1126.75 914.733 1126.96C907.226 1130.98 903.913 1140.14 907.33 1148.12C910.94 1156.54 920.695 1160.44 929.119 1156.83C936.435 1153.7 942.614 1146.36 947.387 1138.04C952.613 1128.93 957.606 1116.14 961.324 1098.69C968.173 1066.55 980.896 1011.39 986.415 987.767C988.5 978.843 982.956 969.918 974.031 967.833Z" fill="#272CA1"/>
<path fill-rule="evenodd" clip-rule="evenodd" d="M775.331 972.854C766.331 971.128 757.635 977.024 755.908 986.025C755.216 989.634 751.835 1007.92 743.761 1052.61C739.569 1075.82 738.104 1094.47 738.043 1108.56C737.984 1122.2 739.233 1132.56 741.163 1138.7C743.913 1147.44 753.229 1152.3 761.971 1149.55C770.713 1146.8 775.571 1137.48 772.821 1128.74C772.417 1127.45 771.176 1121.1 771.23 1108.7C771.282 1096.74 772.534 1080.02 776.42 1058.51C784.505 1013.76 787.85 995.672 788.501 992.277C790.228 983.277 784.331 974.581 775.331 972.854Z" fill="#272CA1"/>
<path fill-rule="evenodd" clip-rule="evenodd" d="M904.745 970.187C898.582 972.724 895.643 979.778 898.181 985.941C920.692 1040.61 923.621 1079.9 921.402 1105.53C920.29 1118.38 917.868 1128 915.792 1134.64C914.876 1137.57 914.029 1139.92 913.309 1141.92C913.203 1142.21 913.1 1142.5 912.999 1142.78C912.64 1143.78 912.219 1144.97 911.907 1146.03C911.749 1146.57 911.542 1147.33 911.391 1148.19C911.27 1148.89 911.01 1150.55 911.298 1152.56C912.24 1159.16 918.353 1163.74 924.951 1162.8C930.467 1162.01 934.576 1157.61 935.225 1152.33C935.33 1152.02 935.486 1151.58 935.717 1150.93C935.806 1150.68 935.902 1150.42 936.004 1150.13C936.725 1148.14 937.747 1145.3 938.829 1141.84C941.326 1133.85 944.16 1122.5 945.448 1107.61C948.03 1077.79 944.337 1034.64 920.499 976.751C917.961 970.588 910.908 967.649 904.745 970.187ZM977.164 1005.14C970.558 1004.25 964.483 1008.89 963.594 1015.49C961.437 1031.51 964.929 1056.34 969.44 1079.26C974.07 1102.77 980.221 1126.37 984.497 1141C986.367 1147.39 993.069 1151.06 999.466 1149.19C1005.86 1147.32 1009.53 1140.62 1007.66 1134.22C1003.55 1120.16 997.586 1097.27 993.122 1074.59C988.541 1051.32 985.963 1030.23 987.514 1018.71C988.403 1012.11 983.769 1006.03 977.164 1005.14Z" fill="#A596FF"/>
<path fill-rule="evenodd" clip-rule="evenodd" d="M976.573 1017.18C971.808 1016.59 967.771 1021.5 967.557 1028.15C967.037 1044.26 971.103 1068.93 975.775 1091.64C980.569 1114.95 986.454 1138.26 990.43 1152.69C992.17 1159.01 997.18 1162.37 1001.62 1160.21C1006.06 1158.05 1008.25 1151.19 1006.51 1144.87C1002.69 1130.99 996.984 1108.38 992.361 1085.91C987.616 1062.84 984.439 1041.87 984.813 1030.28C985.027 1023.64 981.338 1017.77 976.573 1017.18Z" fill="#4B51DC"/>
<path fill-rule="evenodd" clip-rule="evenodd" d="M976.272 1044.02C972.534 1043.68 970.846 1051.51 971.546 1057.02C972.758 1066.56 976.117 1085.54 980.349 1103.16C984.691 1121.25 989.885 1139.31 993.361 1150.48C994.881 1155.37 998.882 1157.87 1002.3 1156.07C1005.71 1154.27 1007.24 1148.84 1005.72 1143.96C1002.38 1133.21 997.345 1115.7 993.158 1098.26C988.861 1080.36 984.547 1064.51 984.542 1055.44C983.754 1046.78 980.009 1044.36 976.272 1044.02Z" fill="#363BBC"/>
<path fill-rule="evenodd" clip-rule="evenodd" d="M912.225 988.881C907.558 991.048 905.333 997.073 907.254 1002.34C924.303 1049.04 926.52 1082.6 924.84 1104.49C923.998 1115.46 922.164 1123.68 920.592 1129.35C919.898 1131.86 919.257 1133.86 918.711 1135.57C918.631 1135.82 918.553 1136.07 918.477 1136.31C918.205 1137.16 917.885 1138.17 917.649 1139.08C917.529 1139.54 917.373 1140.2 917.259 1140.93C917.167 1141.52 916.97 1142.94 917.188 1144.66C917.902 1150.3 922.531 1154.21 927.528 1153.41C931.705 1152.73 934.817 1148.97 935.308 1144.47C935.388 1144.2 935.506 1143.82 935.681 1143.27C935.748 1143.06 935.821 1142.83 935.898 1142.59C936.444 1140.88 937.218 1138.46 938.038 1135.5C939.929 1128.68 942.075 1118.98 943.05 1106.27C945.006 1080.79 942.209 1043.94 924.156 994.488C922.234 989.223 916.893 986.713 912.225 988.881Z" fill="#4B51DC"/>
<path fill-rule="evenodd" clip-rule="evenodd" d="M921.822 1013.93C918.513 1015.7 916.766 1020.9 917.919 1025.56C928.147 1066.83 928.542 1096.22 926.633 1115.31C925.676 1124.87 924.125 1132.01 922.842 1136.92C922.276 1139.1 921.763 1140.83 921.327 1142.31C921.263 1142.52 921.201 1142.74 921.14 1142.94C920.922 1143.68 920.666 1144.56 920.472 1145.35C920.373 1145.75 920.243 1146.31 920.138 1146.95C920.054 1147.47 919.87 1148.7 919.962 1150.21C920.266 1155.15 923.341 1158.7 926.832 1158.13C929.75 1157.66 932.035 1154.46 932.529 1150.53C932.593 1150.3 932.688 1149.97 932.828 1149.49C932.882 1149.31 932.94 1149.11 933.002 1148.9C933.438 1147.43 934.057 1145.33 934.725 1142.77C936.268 1136.86 938.086 1128.44 939.194 1117.35C941.416 1095.14 940.731 1062.86 929.901 1019.15C928.748 1014.5 925.131 1012.16 921.822 1013.93Z" fill="#363BBC"/>
<path fill-rule="evenodd" clip-rule="evenodd" d="M882.118 1009.68C875.46 1009.37 869.81 1014.51 869.499 1021.17C867.665 1060.39 867.827 1088.91 868.804 1108.72C869.754 1127.98 871.511 1140.14 873.449 1145.75C875.624 1152.05 882.494 1155.4 888.794 1153.22C895.095 1151.05 898.439 1144.18 896.264 1137.88C895.584 1135.9 893.869 1126.95 892.911 1107.53C891.981 1088.67 891.801 1060.94 893.609 1022.3C893.92 1015.64 888.776 1009.99 882.118 1009.68Z" fill="#A596FF"/>
<path fill-rule="evenodd" clip-rule="evenodd" d="M881.527 1030.77C876.193 1030.68 871.716 1035.14 871.527 1040.74C870.412 1073.7 870.799 1097.63 871.76 1114.23C872.694 1130.37 874.211 1140.52 875.814 1145.19C877.612 1150.42 883.143 1153.05 888.168 1151.06C893.193 1149.07 895.808 1143.22 894.01 1137.99C893.448 1136.35 891.994 1128.88 891.052 1112.61C890.136 1096.8 889.742 1073.54 890.841 1041.06C891.03 1035.46 886.86 1030.86 881.527 1030.77Z" fill="#4B51DC"/>
<path fill-rule="evenodd" clip-rule="evenodd" d="M881.065 1044.63C876.826 1044.76 873.307 1048.83 873.205 1053.72C872.603 1082.53 873.116 1103.41 874.023 1117.87C874.904 1131.92 876.196 1140.73 877.51 1144.74C878.984 1149.24 883.401 1151.32 887.377 1149.39C891.352 1147.46 893.381 1142.25 891.907 1137.75C891.446 1136.34 890.226 1129.88 889.338 1115.71C888.475 1101.94 887.961 1081.65 888.555 1053.26C888.657 1048.36 885.304 1044.5 881.065 1044.63Z" fill="#363BBC"/>
<path fill-rule="evenodd" clip-rule="evenodd" d="M813.121 952.646C806.828 954.841 803.505 961.722 805.7 968.015C819.309 1007.04 816.968 1048.49 810.804 1081.21C807.74 1097.48 803.778 1111.35 800.546 1121.35C798.932 1126.35 797.501 1130.38 796.449 1133.29C796.228 1133.9 796.009 1134.5 795.806 1135.06C795.55 1135.76 795.32 1136.39 795.145 1136.88C794.982 1137.34 794.813 1137.82 794.671 1138.25C794.669 1138.25 794.666 1138.26 794.662 1138.27C794.596 1138.47 794.236 1139.54 794.052 1140.72C793.024 1147.3 797.529 1153.47 804.115 1154.5C810.297 1155.47 816.115 1151.56 817.655 1145.62C817.7 1145.49 817.768 1145.3 817.866 1145.02C818.032 1144.56 818.219 1144.05 818.446 1143.43C818.644 1142.88 818.873 1142.25 819.144 1141.51C820.251 1138.45 821.783 1134.13 823.514 1128.77C826.972 1118.06 831.226 1103.18 834.523 1085.68C841.081 1050.86 844.045 1004.67 828.49 960.068C826.296 953.774 819.415 950.452 813.121 952.646ZM817.601 1145.78C817.538 1145.98 817.555 1145.94 817.608 1145.76C817.605 1145.77 817.603 1145.78 817.601 1145.78Z" fill="#A596FF"/>
<path fill-rule="evenodd" clip-rule="evenodd" d="M820.334 971.58C815.243 973.585 812.521 977.144 814.198 985.326C821.683 1021.86 816.804 1058.55 811.452 1087.4C808.791 1101.74 805.437 1113.99 802.716 1122.83C801.358 1127.24 800.158 1130.81 799.276 1133.38C799.092 1133.92 798.908 1134.45 798.738 1134.94C798.523 1135.56 798.33 1136.12 798.184 1136.55C798.047 1136.95 797.905 1137.38 797.786 1137.76C797.784 1137.76 797.782 1137.77 797.779 1137.78C797.723 1137.96 797.42 1138.9 797.259 1139.94C796.353 1145.74 799.904 1151.12 805.192 1151.94C810.156 1152.72 814.885 1149.21 816.195 1143.97C816.233 1143.85 816.29 1143.68 816.372 1143.44C816.511 1143.03 816.668 1142.58 816.858 1142.03C817.024 1141.55 817.216 1140.99 817.443 1140.33C818.37 1137.63 819.655 1133.81 821.112 1129.08C824.023 1119.62 827.624 1106.48 830.487 1091.05C836.181 1060.35 837.83 1029.15 830.922 982.77C829.736 974.806 825.425 969.575 820.334 971.58ZM816.15 1144.11C816.097 1144.28 816.111 1144.25 816.156 1144.09C816.153 1144.1 816.151 1144.11 816.15 1144.11Z" fill="#4B51DC"/>
<path fill-rule="evenodd" clip-rule="evenodd" d="M822.884 984.898C817.942 985.837 818.73 991.793 819.605 998.947C823.513 1030.89 819.015 1063.37 814.448 1088.96C812.178 1101.68 809.503 1112.58 807.37 1120.45C806.304 1124.39 805.374 1127.56 804.693 1129.86C804.55 1130.34 804.408 1130.81 804.276 1131.25C804.11 1131.81 803.961 1132.3 803.848 1132.69C803.742 1133.05 803.632 1133.42 803.539 1133.76C803.537 1133.77 803.536 1133.78 803.533 1133.78C803.489 1133.94 803.253 1134.79 803.11 1135.7C802.307 1140.84 804.547 1145.46 808.113 1146.02C811.461 1146.54 814.788 1143.3 815.846 1138.64C815.876 1138.54 815.92 1138.39 815.984 1138.17C816.092 1137.81 816.213 1137.4 816.359 1136.91C816.488 1136.48 816.636 1135.99 816.812 1135.4C817.529 1132.99 818.525 1129.58 819.668 1125.37C821.95 1116.94 824.821 1105.25 827.264 1091.56C832.123 1064.33 834.249 1036.79 831.051 996.156C830.502 989.178 826.158 984.275 822.884 984.898ZM815.811 1138.77C815.77 1138.92 815.78 1138.89 815.816 1138.75C815.814 1138.76 815.812 1138.76 815.811 1138.77Z" fill="#363BBC"/>
<path fill-rule="evenodd" clip-rule="evenodd" d="M771.801 1047.95C765.147 1047.57 759.447 1052.66 759.07 1059.31C757.838 1081.06 758.414 1097.67 759.704 1109.75C760.945 1121.35 762.949 1129.81 765.263 1134.49C768.215 1140.47 775.452 1142.92 781.427 1139.97C787.403 1137.02 789.854 1129.78 786.903 1123.8C786.905 1123.81 786.905 1123.81 786.902 1123.8C786.88 1123.75 786.733 1123.42 786.502 1122.69C786.249 1121.9 785.944 1120.8 785.617 1119.37C784.962 1116.49 784.268 1112.46 783.704 1107.18C782.576 1096.63 781.997 1081.35 783.167 1060.68C783.544 1054.02 778.455 1048.32 771.801 1047.95Z" fill="#A596FF"/>
<path fill-rule="evenodd" clip-rule="evenodd" d="M771.747 1060.55C765.971 1060.21 761.033 1064.63 760.717 1070.41C759.684 1089.32 760.211 1103.77 761.351 1114.27C762.447 1124.36 764.2 1131.71 766.216 1135.79C768.788 1140.99 775.074 1143.13 780.255 1140.58C785.437 1138.02 787.552 1131.73 784.98 1126.53C784.982 1126.54 784.982 1126.54 784.979 1126.53C784.96 1126.49 784.832 1126.2 784.63 1125.57C784.409 1124.88 784.143 1123.92 783.857 1122.67C783.284 1120.17 782.675 1116.67 782.176 1112.07C781.18 1102.9 780.652 1089.61 781.634 1071.64C781.95 1065.86 777.523 1060.89 771.747 1060.55Z" fill="#4B51DC"/>
<path opacity="0.5" fill-rule="evenodd" clip-rule="evenodd" d="M770.075 1078.89C765.878 1078.4 762.48 1081.56 762.484 1085.96C762.499 1100.31 763.463 1111.33 764.712 1119.37C765.913 1127.1 767.479 1132.77 769.104 1135.95C771.176 1140.02 775.815 1141.9 779.464 1140.17C783.114 1138.43 784.392 1133.73 782.32 1129.66C782.322 1129.67 782.322 1129.67 782.319 1129.66C782.304 1129.63 782.199 1129.4 782.028 1128.91C781.84 1128.38 781.609 1127.64 781.351 1126.68C780.835 1124.75 780.253 1122.06 779.706 1118.54C778.614 1111.51 777.696 1101.38 777.682 1087.73C777.678 1083.34 774.272 1079.38 770.075 1078.89Z" fill="#272CA1"/>
</g>
</svg>
