<svg width="1920" height="1080" viewBox="0 0 1920 1080" fill="none" xmlns="http://www.w3.org/2000/svg">
<mask id="mask0_303_8612" style="mask-type:alpha" maskUnits="userSpaceOnUse" x="0" y="0" width="1920" height="1080">
<rect width="1920" height="1080" fill="#D9D9D9"/>
</mask>
<g mask="url(#mask0_303_8612)">
<rect opacity="0.05" width="164.617" height="1090.21" transform="matrix(0.945548 -0.325484 0.182353 0.983233 1248 -125.762)" fill="url(#paint0_linear_303_8612)"/>
<rect opacity="0.2" width="164.617" height="1090.21" transform="matrix(0.945548 -0.325484 0.182353 0.983233 438 -232.684)" fill="url(#paint1_linear_303_8612)"/>
<rect opacity="0.1" width="292.845" height="1053.88" transform="matrix(0.945548 -0.325484 0.182353 0.983233 822 -232.684)" fill="url(#paint2_linear_303_8612)"/>
<rect opacity="0.1" width="253.265" height="1437.79" transform="matrix(0.945548 -0.325484 0.182353 0.983233 163.396 -232.684)" fill="url(#paint3_linear_303_8612)"/>
<rect opacity="0.1" width="267.131" height="1090.21" transform="matrix(0.945548 -0.325484 0.182353 0.983233 1324 -211.59)" fill="url(#paint4_linear_303_8612)"/>
</g>
<defs>
<linearGradient id="paint0_linear_303_8612" x1="82.3086" y1="0" x2="82.3086" y2="1090.21" gradientUnits="userSpaceOnUse">
<stop stop-color="#975AF4"/>
<stop offset="1" stop-color="#975AF4" stop-opacity="0"/>
</linearGradient>
<linearGradient id="paint1_linear_303_8612" x1="82.3086" y1="0" x2="82.3086" y2="1090.21" gradientUnits="userSpaceOnUse">
<stop stop-color="#975AF4"/>
<stop offset="1" stop-color="#975AF4" stop-opacity="0"/>
</linearGradient>
<linearGradient id="paint2_linear_303_8612" x1="146.422" y1="0" x2="146.422" y2="1053.88" gradientUnits="userSpaceOnUse">
<stop stop-color="#F491FC"/>
<stop offset="1" stop-color="#F491FC" stop-opacity="0"/>
</linearGradient>
<linearGradient id="paint3_linear_303_8612" x1="126.632" y1="0" x2="126.632" y2="1437.79" gradientUnits="userSpaceOnUse">
<stop stop-color="#AD67F9"/>
<stop offset="1" stop-color="#AD67F9" stop-opacity="0"/>
</linearGradient>
<linearGradient id="paint4_linear_303_8612" x1="133.565" y1="0" x2="133.565" y2="1090.21" gradientUnits="userSpaceOnUse">
<stop stop-color="#975AF4"/>
<stop offset="1" stop-color="#975AF4" stop-opacity="0"/>
</linearGradient>
</defs>
</svg>
