<svg width="1920" height="1080" viewBox="0 0 1920 1080" fill="none" xmlns="http://www.w3.org/2000/svg">
<mask id="mask0_303_8923" style="mask-type:alpha" maskUnits="userSpaceOnUse" x="0" y="0" width="1920" height="1080">
<rect width="1920" height="1080" fill="#D9D9D9"/>
</mask>
<g mask="url(#mask0_303_8923)">
<path fill-rule="evenodd" clip-rule="evenodd" d="M16.0136 728C16.5433 708.58 32.4522 693 52 693H386C461.387 693 525.447 741.5 548.678 809H742.684C773.219 771.76 819.585 748 871.5 748H1016.5C1050.05 748 1081.29 757.925 1107.43 775H1571V1046H1183V1081H705V1080H558H477H16V999H-40V728H16.0136Z" fill="#363BBC"/>
<rect opacity="0.5" x="142" y="707" width="271" height="22" rx="11" fill="#4B51DC"/>
<path d="M1272.79 788.5C1267.23 777.124 1259.44 749.364 1272.79 729.332C1289.48 704.293 1291.52 693.906 1288.74 666.827C1286.52 645.163 1299.44 627.258 1306.18 621.014" stroke="#363BBC" stroke-width="7.79005" stroke-linecap="round"/>
<path d="M1301.05 629.507C1301.04 629.507 1301.03 629.516 1301.03 629.526C1301.03 629.537 1301.02 629.546 1301.01 629.546C1296.92 629.556 1293.61 632.874 1293.61 636.965C1293.61 641.056 1296.92 644.373 1301.01 644.384C1301.02 644.384 1301.03 644.392 1301.03 644.403C1301.03 644.413 1301.04 644.422 1301.05 644.422C1309.4 644.736 1317.26 646.946 1324.22 650.634C1326.43 651.805 1328.87 652.545 1331.37 652.545H1334.41L1334.42 652.544L1334.42 652.544C1343.04 652.444 1350 645.424 1350 636.779C1350 628.134 1343.04 621.114 1334.42 621.015L1334.42 621.014L1334.41 621.014H1332.05C1329.49 621.014 1327 621.788 1324.75 623.011C1317.66 626.87 1309.61 629.186 1301.05 629.507Z" fill="#363BBC"/>
<path d="M1296.93 623.045C1296.94 623.051 1296.94 623.062 1296.94 623.071C1296.93 623.081 1296.94 623.092 1296.95 623.097C1300.55 625.037 1301.9 629.525 1299.97 633.131C1298.04 636.737 1293.55 638.099 1289.94 636.178C1289.93 636.173 1289.92 636.176 1289.91 636.186C1289.91 636.195 1289.9 636.199 1289.89 636.194C1282.38 632.528 1274.4 630.763 1266.53 630.729C1264.02 630.718 1261.53 630.222 1259.33 629.041L1256.64 627.602L1256.64 627.601L1256.64 627.601C1249.09 623.443 1246.27 613.969 1250.35 606.348C1254.43 598.727 1263.88 595.824 1271.52 599.806L1271.53 599.806L1271.53 599.806L1273.61 600.924C1275.87 602.133 1277.7 603.988 1279.1 606.128C1283.53 612.877 1289.53 618.72 1296.93 623.045Z" fill="#363BBC"/>
<path d="M1261.04 730.143C1261.05 730.14 1261.06 730.145 1261.07 730.155C1261.07 730.165 1261.08 730.17 1261.09 730.167C1264.96 728.844 1269.17 730.9 1270.5 734.768C1271.84 738.635 1269.79 742.851 1265.93 744.194C1265.92 744.198 1265.91 744.209 1265.92 744.219C1265.92 744.229 1265.91 744.239 1265.9 744.243C1258.11 747.262 1251.4 751.915 1246.02 757.672C1244.31 759.5 1242.26 760.992 1239.89 761.807L1237.01 762.801L1237.01 762.8L1237.01 762.8C1228.83 765.517 1219.96 761.149 1217.14 752.977C1214.32 744.804 1218.61 735.899 1226.73 732.994L1226.73 732.993L1226.73 732.993L1228.97 732.22C1231.39 731.386 1233.99 731.307 1236.51 731.731C1244.48 733.067 1252.84 732.631 1261.04 730.143Z" fill="#363BBC"/>
<path d="M1267.71 748.178C1267.71 748.171 1267.7 748.159 1267.71 748.151C1267.72 748.143 1267.72 748.131 1267.71 748.124C1264.65 745.407 1264.37 740.728 1267.08 737.664C1269.79 734.6 1274.47 734.309 1277.54 737.01C1277.55 737.017 1277.56 737.016 1277.57 737.008C1277.58 737 1277.59 736.999 1277.6 737.006C1284.06 742.304 1291.41 745.86 1299.07 747.709C1301.5 748.296 1303.81 749.354 1305.69 751.011L1307.97 753.03L1307.97 753.031L1307.97 753.031C1314.36 758.818 1314.92 768.686 1309.19 775.162C1303.47 781.637 1293.6 782.284 1287.08 776.647L1287.08 776.647L1287.08 776.647L1285.3 775.077C1283.39 773.381 1282.04 771.155 1281.16 768.749C1278.41 761.161 1273.91 754.091 1267.71 748.178Z" fill="#363BBC"/>
<path d="M1302.56 613.099C1302.55 613.109 1302.56 613.12 1302.57 613.124C1302.58 613.128 1302.58 613.14 1302.58 613.15C1300.9 616.879 1302.56 621.263 1306.29 622.949C1310.02 624.634 1314.4 622.984 1316.1 619.263C1316.1 619.253 1316.11 619.249 1316.12 619.253C1316.13 619.257 1316.14 619.253 1316.15 619.244C1319.87 611.765 1325.13 605.509 1331.36 600.685C1333.34 599.154 1335.01 597.243 1336.04 594.964L1337.3 592.187L1337.3 592.186L1337.3 592.186C1340.76 584.289 1337.23 575.057 1329.35 571.495C1321.47 567.933 1312.21 571.381 1308.57 579.196L1308.57 579.196L1308.57 579.197L1307.59 581.355C1306.54 583.687 1306.22 586.27 1306.41 588.823C1307 596.874 1305.79 605.165 1302.56 613.099Z" fill="#363BBC"/>
<path d="M1298.95 663.038C1298.95 663.032 1298.93 663.034 1298.93 663.043C1298.92 663.052 1298.91 663.053 1298.9 663.047C1295.57 660.68 1290.94 661.456 1288.57 664.785C1286.19 668.115 1286.96 672.739 1290.28 675.123C1290.29 675.129 1290.29 675.141 1290.28 675.15C1290.28 675.158 1290.28 675.17 1290.29 675.176C1296.9 680.284 1302.02 686.653 1305.54 693.7C1306.66 695.937 1308.21 697.952 1310.24 699.405L1312.72 701.176L1312.72 701.176L1312.72 701.176C1319.8 706.105 1329.54 704.435 1334.56 697.4C1339.59 690.364 1338 680.608 1331.05 675.517L1331.04 675.516L1331.04 675.515L1329.12 674.139C1327.03 672.651 1324.56 671.837 1322.02 671.527C1314.01 670.547 1306.11 667.752 1298.95 663.038Z" fill="#363BBC"/>
<path d="M1291.54 707.781C1291.53 707.776 1291.51 707.781 1291.51 707.792C1291.5 707.803 1291.49 707.808 1291.48 707.804C1287.22 705.963 1282.27 707.916 1280.42 712.173C1278.57 716.429 1280.51 721.38 1284.76 723.242C1284.77 723.247 1284.78 723.26 1284.77 723.271C1284.77 723.282 1284.77 723.294 1284.78 723.3C1293.33 727.406 1300.51 733.266 1306.09 740.255C1307.86 742.475 1310.05 744.345 1312.65 745.477L1315.82 746.857L1315.82 746.857L1315.83 746.856C1324.84 750.656 1335.26 746.502 1339.17 737.507C1343.09 728.512 1339.02 718.058 1330.1 714.051L1330.1 714.05L1330.1 714.05L1327.63 712.977C1324.97 711.818 1322.03 711.499 1319.14 711.754C1310.02 712.559 1300.59 711.323 1291.54 707.781Z" fill="#363BBC"/>
<path d="M1281.34 702.348C1281.35 702.346 1281.36 702.337 1281.36 702.326C1281.36 702.314 1281.37 702.304 1281.38 702.303C1285.77 701.972 1289.07 698.151 1288.75 693.758C1288.43 689.365 1284.61 686.062 1280.22 686.371C1280.21 686.371 1280.2 686.363 1280.2 686.351C1280.2 686.34 1280.19 686.332 1280.18 686.332C1271.18 686.649 1262.57 684.891 1254.8 681.475C1252.34 680.391 1249.67 679.787 1246.98 679.983L1243.71 680.221L1243.71 680.222L1243.71 680.222C1234.46 681.004 1227.54 689.086 1228.22 698.369C1228.89 707.652 1236.91 714.645 1246.18 714.077L1246.18 714.078L1246.18 714.078L1248.72 713.893C1251.47 713.693 1254.08 712.667 1256.4 711.178C1263.71 706.479 1272.17 703.362 1281.34 702.348Z" fill="#363BBC"/>
<path d="M1284.47 648.569C1284.48 648.569 1284.49 648.578 1284.49 648.588C1284.49 648.599 1284.5 648.607 1284.51 648.607C1288.6 648.538 1291.98 651.79 1292.05 655.881C1292.13 659.971 1288.89 663.352 1284.8 663.442C1284.79 663.443 1284.78 663.451 1284.78 663.462C1284.78 663.472 1284.77 663.481 1284.76 663.482C1276.42 663.957 1268.6 666.32 1261.71 670.144C1259.53 671.358 1257.11 672.144 1254.61 672.193L1251.56 672.252L1251.56 672.252L1251.56 672.251C1242.94 672.319 1235.85 665.436 1235.68 656.793C1235.51 648.15 1242.33 640.996 1250.95 640.728L1250.95 640.728L1250.95 640.727L1253.32 640.681C1255.87 640.631 1258.37 641.357 1260.65 642.536C1267.81 646.256 1275.91 648.415 1284.47 648.569Z" fill="#363BBC"/>
<path d="M60.6366 665.004C60.8183 662.445 69.2181 668.439 73.3953 671.756C79.6056 677.354 81.0139 685.193 69.538 676.035C58.0621 666.877 60.4095 668.202 60.6366 665.004Z" fill="#2F259F"/>
<path d="M72.4837 690.166C76.37 696.519 77.2431 696.672 84.0258 698.83C87.7989 703.624 93.0876 707.579 95.2602 708.957C97.5211 707.618 103.042 704.337 107.038 701.925C112.033 698.909 120.998 705.73 130.163 699.423C138.826 693.461 120.107 686.164 121.717 680.73C123.327 675.295 117.094 670.705 113.675 670.71C110.256 670.714 104.258 668.948 100.965 666.85C97.6707 664.751 94.493 660.699 89.3025 653.409C84.1119 646.118 81.7091 646.959 77.6603 647.663C73.6115 648.366 79.6965 652.98 81.28 657.257C82.8636 661.534 79.024 659.339 73.7925 659.53C68.561 659.721 71.3756 667.402 70.7084 673.053C70.1747 677.574 66.8506 680.841 65.2553 681.909C66.3694 682.544 69.3748 685.084 72.4837 690.166Z" fill="#3B38BE"/>
<path d="M60.9651 677.408C61.423 674.655 61.9508 675.052 59.5674 668.155C62.0348 671.17 61.6608 670.042 67.4238 673.891C73.1868 677.741 71.9881 679.351 74.3856 682.304C76.3037 684.666 73.5592 688.365 71.9473 689.92C69.0186 685.76 62.6542 682.176 59.838 680.903C60.061 680.656 60.5987 679.611 60.9651 677.408Z" fill="#3B38BE"/>
<path opacity="0.5" d="M98.2125 663.958C98.2565 663.928 98.2891 663.909 98.3095 663.903C98.2759 663.921 98.2436 663.94 98.2125 663.958C98.1058 664.032 97.932 664.175 97.702 664.377C97.7353 664.41 97.7673 664.441 97.7978 664.47C98.9384 665.551 97.0588 665.242 97.6418 664.43C95.9684 665.914 91.5951 670.253 88.2172 674.116C87.6364 674.199 89.5133 675.933 82.6099 671.357C73.9807 665.636 68.6292 661.049 72.3721 660.545C76.115 660.041 82.3001 661.738 81.0512 658.634C79.8023 655.529 72.937 646.729 77.2328 647.436C81.5286 648.142 84.0297 645.648 87.0231 650.325C89.9573 654.91 95.8536 662.545 97.6916 664.367C97.7994 664.241 97.9667 664.103 98.2125 663.958Z" fill="#2F259F"/>
<path opacity="0.5" fill-rule="evenodd" clip-rule="evenodd" d="M84.1378 698.973C85.6648 698.321 86.9007 697.525 87.3938 697.198L107.311 696.711L111.077 692.112C110.895 691.855 108.544 690.019 105.66 687.766L105.66 687.766C102.311 685.15 98.2435 681.973 96.0176 680.054L96.0232 680.048C97.6802 680.609 92.2419 676.368 94.7798 678.927C95.0663 679.216 95.4903 679.6 96.0176 680.054L80.2216 697.577C81.1479 697.916 82.2343 698.261 83.5556 698.681C83.7088 698.73 83.8652 698.779 84.0248 698.83C84.0623 698.878 84.1 698.925 84.1378 698.973Z" fill="#2F259F"/>
<path d="M72.4406 689.652C73.8963 688.459 76.0141 684.706 72.8393 679.248C68.8707 672.426 58.9444 669.968 59.4739 666.013C59.8596 663.132 64.4262 665.57 71.014 669.768" stroke="#E86E95" stroke-width="2.24196" stroke-linecap="round"/>
<path d="M84.4198 699.028C87.1476 697.872 93.8238 695.807 98.7061 696.79C104.809 698.017 113.74 696.808 110.224 691.027C106.709 685.246 100.677 685.904 96.589 680.477C92.5007 675.05 88.4142 674.532 80.5293 670.511C72.6444 666.49 68.6848 659.517 75.7537 659.954C82.8227 660.39 83.0516 659.014 77.2188 652.015C71.3859 645.015 85.2465 644.372 90.9703 654.439C96.6941 664.505 100.979 666.627 104.697 668.396C108.415 670.164 113.056 667.541 119.685 673.517C126.314 679.493 120.438 681.24 123.188 685.065C125.938 688.889 131.973 691.876 131.44 695.273C130.907 698.671 124.182 702.343 118.426 690.348C112.67 678.353 107.032 681.66 101.336 677.316" stroke="#E86E95" stroke-width="2.24196" stroke-linecap="round"/>
<path d="M1108.38 779.917C1112.44 773.067 1118.71 756.062 1111.34 742.84C1102.14 726.314 1101.38 719.703 1104.48 702.873C1106.96 689.409 1099.76 677.542 1095.85 673.292" stroke="#363BBC" stroke-width="4.8971" stroke-linecap="round"/>
<path d="M1098.63 678.872C1098.64 678.872 1098.65 678.878 1098.65 678.885C1098.64 678.891 1098.65 678.897 1098.66 678.898C1101.22 679.109 1103.13 681.354 1102.92 683.917C1102.72 686.481 1100.48 688.394 1097.91 688.196C1097.91 688.195 1097.9 688.2 1097.9 688.207C1097.9 688.214 1097.89 688.218 1097.89 688.218C1092.64 687.996 1087.6 688.987 1083.05 690.95C1081.61 691.573 1080.05 691.915 1078.48 691.79L1076.57 691.637L1076.57 691.637L1076.57 691.636C1071.17 691.142 1067.17 686.395 1067.6 680.977C1068.03 675.56 1072.74 671.51 1078.15 671.879L1078.15 671.879L1078.15 671.878L1079.64 671.997C1081.24 672.125 1082.76 672.735 1084.11 673.614C1088.36 676.387 1093.29 678.242 1098.63 678.872Z" fill="#363BBC"/>
<path d="M1101.54 675.029C1101.53 675.031 1101.53 675.038 1101.53 675.044C1101.54 675.05 1101.53 675.058 1101.53 675.06C1099.17 676.095 1098.1 678.84 1099.13 681.196C1100.16 683.553 1102.9 684.631 1105.26 683.608C1105.27 683.605 1105.27 683.608 1105.28 683.614C1105.28 683.62 1105.29 683.623 1105.29 683.621C1110.18 681.699 1115.27 680.993 1120.21 681.366C1121.77 681.484 1123.36 681.298 1124.8 680.669L1126.56 679.902L1126.56 679.901L1126.56 679.901C1131.5 677.674 1133.74 671.878 1131.57 666.898C1129.39 661.918 1123.61 659.626 1118.62 661.738L1118.62 661.738L1118.62 661.738L1117.26 662.334C1115.78 662.978 1114.55 664.05 1113.56 665.32C1110.45 669.328 1106.39 672.689 1101.54 675.029Z" fill="#363BBC"/>
<path d="M1118.66 743.936C1118.66 743.934 1118.65 743.937 1118.65 743.943C1118.65 743.949 1118.64 743.952 1118.63 743.949C1116.27 742.926 1113.53 744.004 1112.5 746.361C1111.47 748.717 1112.55 751.462 1114.9 752.497C1114.9 752.499 1114.91 752.507 1114.9 752.513C1114.9 752.519 1114.9 752.526 1114.91 752.529C1119.64 754.81 1123.62 758.063 1126.7 761.939C1127.68 763.17 1128.89 764.208 1130.33 764.838L1132.09 765.605L1132.09 765.604L1132.09 765.604C1137.08 767.716 1142.86 765.424 1145.03 760.444C1147.21 755.463 1144.96 749.669 1140.02 747.441L1140.02 747.441L1140.02 747.441L1138.66 746.844C1137.18 746.2 1135.56 746.021 1133.95 746.16C1128.9 746.599 1123.68 745.906 1118.66 743.936Z" fill="#363BBC"/>
<path d="M1113.58 754.904C1113.59 754.9 1113.59 754.893 1113.58 754.887C1113.58 754.882 1113.58 754.874 1113.59 754.87C1115.64 753.321 1116.05 750.403 1114.5 748.347C1112.96 746.291 1110.04 745.875 1107.98 747.414C1107.98 747.418 1107.97 747.417 1107.96 747.411C1107.96 747.406 1107.95 747.405 1107.95 747.409C1103.63 750.405 1098.85 752.265 1093.95 753.04C1092.4 753.286 1090.9 753.833 1089.64 754.778L1088.11 755.929L1088.11 755.929L1088.11 755.93C1083.82 759.236 1082.97 765.391 1086.24 769.736C1089.5 774.08 1095.65 774.98 1100.02 771.774L1100.02 771.774L1100.02 771.774L1101.21 770.88C1102.5 769.913 1103.45 768.585 1104.12 767.121C1106.23 762.504 1109.4 758.299 1113.58 754.904Z" fill="#363BBC"/>
<path d="M1098.51 668.513C1098.51 668.52 1098.51 668.526 1098.5 668.528C1098.5 668.531 1098.49 668.538 1098.49 668.544C1099.36 670.965 1098.1 673.629 1095.68 674.499C1093.26 675.368 1090.59 674.114 1089.72 671.698C1089.71 671.691 1089.71 671.688 1089.7 671.69C1089.69 671.693 1089.69 671.689 1089.69 671.683C1087.73 666.81 1084.75 662.627 1081.08 659.292C1079.92 658.234 1078.97 656.952 1078.44 655.472L1077.79 653.669L1077.79 653.669L1077.79 653.669C1076.02 648.547 1078.69 642.938 1083.8 641.101C1088.92 639.263 1094.55 641.888 1096.44 646.967L1096.44 646.968L1096.44 646.968L1096.95 648.369C1097.49 649.884 1097.56 651.518 1097.31 653.108C1096.54 658.124 1096.88 663.379 1098.51 668.513Z" fill="#363BBC"/>
<path d="M1098.27 699.988C1098.27 699.985 1098.28 699.987 1098.28 699.992C1098.29 699.998 1098.29 700 1098.3 699.996C1100.51 698.68 1103.37 699.397 1104.69 701.603C1106.01 703.808 1105.3 706.667 1103.1 707.995C1103.09 707.999 1103.09 708.006 1103.09 708.012C1103.1 708.017 1103.1 708.025 1103.09 708.028C1098.69 710.897 1095.17 714.632 1092.61 718.872C1091.79 720.218 1090.72 721.403 1089.37 722.212L1087.73 723.197L1087.73 723.197L1087.73 723.197C1083.05 725.931 1077.03 724.397 1074.23 719.737C1071.44 715.077 1072.92 709.042 1077.53 706.2L1077.53 706.2L1077.53 706.199L1078.81 705.433C1080.19 704.606 1081.78 704.219 1083.39 704.152C1088.46 703.939 1093.55 702.584 1098.27 699.988Z" fill="#363BBC"/>
<path d="M1100.68 728.397C1100.68 728.395 1100.69 728.399 1100.69 728.406C1100.7 728.413 1100.7 728.417 1100.71 728.414C1103.47 727.475 1106.47 728.946 1107.42 731.706C1108.37 734.466 1106.9 737.471 1104.15 738.425C1104.14 738.428 1104.14 738.436 1104.14 738.443C1104.14 738.45 1104.14 738.457 1104.13 738.46C1098.57 740.605 1093.77 743.918 1089.93 748.018C1088.71 749.32 1087.24 750.382 1085.56 750.962L1083.5 751.667L1083.5 751.667L1083.5 751.667C1077.66 753.596 1071.34 750.472 1069.34 744.639C1067.33 738.807 1070.4 732.459 1076.2 730.395L1076.2 730.395L1076.2 730.394L1077.8 729.846C1079.52 729.253 1081.38 729.2 1083.18 729.504C1088.86 730.466 1094.82 730.163 1100.68 728.397Z" fill="#363BBC"/>
<path d="M1107.33 725.503C1107.33 725.502 1107.32 725.495 1107.32 725.488C1107.33 725.481 1107.32 725.474 1107.31 725.473C1104.58 725.046 1102.71 722.486 1103.13 719.75C1103.55 717.013 1106.1 715.134 1108.84 715.547C1108.85 715.548 1108.85 715.544 1108.85 715.536C1108.85 715.529 1108.86 715.525 1108.87 715.525C1114.49 716.174 1119.97 715.504 1125.01 713.753C1126.61 713.196 1128.31 712.952 1129.99 713.209L1132.02 713.522L1132.02 713.523L1132.02 713.523C1137.78 714.476 1141.71 719.887 1140.83 725.67C1139.94 731.453 1134.56 735.434 1128.78 734.614L1128.78 734.614L1128.78 734.615L1127.2 734.371C1125.49 734.108 1123.9 733.335 1122.52 732.285C1118.18 728.975 1113.03 726.598 1107.33 725.503Z" fill="#363BBC"/>
<path d="M1108.07 691.646C1108.06 691.646 1108.05 691.651 1108.05 691.657C1108.05 691.664 1108.05 691.669 1108.04 691.668C1105.48 691.42 1103.2 693.289 1102.95 695.848C1102.69 698.407 1104.56 700.689 1107.12 700.95C1107.12 700.951 1107.13 700.957 1107.13 700.963C1107.13 700.97 1107.13 700.976 1107.14 700.976C1112.34 701.692 1117.12 703.565 1121.25 706.305C1122.56 707.176 1124.03 707.79 1125.6 707.945L1127.5 708.135L1127.5 708.135L1127.5 708.135C1132.9 708.609 1137.69 704.651 1138.23 699.243C1138.77 693.836 1134.85 689.011 1129.47 688.412L1129.47 688.411L1129.47 688.411L1127.99 688.264C1126.38 688.104 1124.78 688.434 1123.3 689.059C1118.62 691.031 1113.44 691.979 1108.07 691.646Z" fill="#363BBC"/>
<path d="M1196.12 696.655C1196.13 696.66 1196.13 696.668 1196.12 696.674C1196.12 696.679 1196.12 696.687 1196.12 696.693C1198.15 698.727 1198.14 702.016 1196.11 704.046C1194.08 706.077 1190.8 706.08 1188.76 704.057C1188.76 704.052 1188.75 704.051 1188.74 704.057C1188.74 704.062 1188.73 704.062 1188.72 704.057C1184.42 700.069 1179.42 697.264 1174.14 695.641C1172.46 695.125 1170.89 694.286 1169.65 693.045L1168.13 691.532L1168.13 691.532L1168.13 691.531C1163.9 687.204 1163.93 680.268 1168.22 675.977C1172.51 671.687 1179.45 671.655 1183.78 675.884L1183.78 675.884L1183.78 675.884L1184.95 677.059C1186.22 678.329 1187.07 679.946 1187.58 681.669C1189.19 687.102 1192.03 692.247 1196.12 696.655Z" fill="#363BBC"/>
<path d="M1198.26 709.581C1198.25 709.583 1198.24 709.579 1198.24 709.572C1198.24 709.565 1198.23 709.561 1198.22 709.563C1195.49 710.451 1192.56 708.962 1191.66 706.235C1190.77 703.507 1192.25 700.57 1194.98 699.669C1194.98 699.666 1194.99 699.659 1194.98 699.652C1194.98 699.645 1194.99 699.637 1194.99 699.635C1200.49 697.599 1205.25 694.405 1209.09 690.423C1210.31 689.159 1211.77 688.134 1213.43 687.587L1215.47 686.92L1215.47 686.92L1215.47 686.921C1221.24 685.101 1227.41 688.26 1229.3 694.025C1231.19 699.79 1228.09 705.993 1222.36 707.945L1222.36 707.945L1222.36 707.946L1220.78 708.464C1219.08 709.024 1217.25 709.051 1215.48 708.727C1209.91 707.705 1204.04 707.922 1198.26 709.581Z" fill="#363BBC"/>
<path d="M1196.02 692.778C1196.02 692.785 1196.02 692.792 1196.03 692.793C1196.04 692.793 1196.04 692.8 1196.04 692.807C1195.76 695.663 1197.84 698.211 1200.69 698.503C1203.55 698.794 1206.1 696.719 1206.4 693.866C1206.4 693.858 1206.41 693.853 1206.42 693.853C1206.42 693.854 1206.43 693.849 1206.43 693.842C1207.24 688.034 1209.35 682.701 1212.42 678.104C1213.4 676.645 1214.09 675 1214.26 673.253L1214.48 671.126L1214.48 671.125L1214.48 671.125C1215.03 665.099 1210.62 659.74 1204.58 659.124C1198.55 658.508 1193.15 662.865 1192.47 668.877L1192.47 668.877L1192.47 668.878L1192.3 670.531C1192.12 672.318 1192.48 674.108 1193.17 675.765C1195.36 680.991 1196.4 686.777 1196.02 692.778Z" fill="#363BBC"/>
<path d="M1185.27 757.512C1185.28 757.511 1185.29 757.504 1185.29 757.497C1185.29 757.489 1185.29 757.482 1185.3 757.481C1188.38 757.249 1190.69 754.567 1190.47 751.484C1190.24 748.401 1187.57 746.083 1184.49 746.3C1184.48 746.3 1184.47 746.294 1184.47 746.286C1184.47 746.278 1184.46 746.272 1184.45 746.273C1178.15 746.495 1172.1 745.262 1166.65 742.864C1164.92 742.103 1163.05 741.679 1161.16 741.817L1158.87 741.984L1158.86 741.984L1158.86 741.985C1152.37 742.533 1147.52 748.205 1147.99 754.72C1148.46 761.234 1154.09 766.142 1160.6 765.744L1160.6 765.744L1160.6 765.744L1162.38 765.614C1164.31 765.474 1166.14 764.754 1167.77 763.709C1172.9 760.411 1178.84 758.224 1185.27 757.512Z" fill="#363BBC"/>
<path d="M1180.05 732.029C1180.06 732.032 1180.07 732.029 1180.07 732.022C1180.08 732.014 1180.08 732.012 1180.09 732.015C1182.87 733.362 1186.22 732.206 1187.57 729.428C1188.93 726.649 1187.78 723.3 1185.01 721.939C1185 721.935 1185 721.926 1185 721.919C1185 721.912 1185 721.903 1184.99 721.9C1179.43 718.922 1174.82 714.816 1171.31 710.006C1170.2 708.478 1168.79 707.171 1167.09 706.342L1165.02 705.333L1165.02 705.333L1165.02 705.333C1159.13 702.546 1152.08 705.008 1149.22 710.879C1146.36 716.75 1148.76 723.822 1154.58 726.745L1154.58 726.745L1154.58 726.746L1156.19 727.53C1157.93 728.378 1159.87 728.675 1161.8 728.589C1167.9 728.317 1174.13 729.411 1180.05 732.029Z" fill="#363BBC"/>
<path d="M1193.75 734.039C1193.75 734.04 1193.74 734.035 1193.74 734.027C1193.73 734.019 1193.73 734.014 1193.72 734.016C1190.69 734.606 1187.75 732.63 1187.15 729.598C1186.55 726.565 1188.52 723.622 1191.55 723.016C1191.56 723.015 1191.56 723.007 1191.56 722.999C1191.56 722.992 1191.56 722.984 1191.57 722.982C1197.72 721.529 1203.22 718.741 1207.84 714.989C1209.31 713.798 1211.01 712.895 1212.86 712.529L1215.12 712.083L1215.12 712.084L1215.12 712.084C1221.53 710.897 1227.71 715.084 1228.97 721.492C1230.24 727.9 1226.11 734.121 1219.73 735.456L1219.73 735.456L1219.73 735.457L1217.97 735.803C1216.08 736.177 1214.12 735.967 1212.27 735.388C1206.45 733.564 1200.15 733.025 1193.75 734.039Z" fill="#363BBC"/>
<path d="M1196.84 757.617C1196.83 757.617 1196.82 757.61 1196.82 757.602C1196.82 757.594 1196.82 757.588 1196.81 757.588C1193.72 757.597 1191.2 755.105 1191.19 752.014C1191.17 748.923 1193.66 746.402 1196.74 746.377C1196.75 746.377 1196.76 746.37 1196.76 746.362C1196.76 746.355 1196.77 746.348 1196.77 746.348C1203.08 746.076 1209.01 744.373 1214.26 741.556C1215.92 740.662 1217.76 740.093 1219.65 740.082L1221.95 740.069L1221.95 740.07L1221.95 740.07C1228.46 740.109 1233.75 745.383 1233.79 751.915C1233.82 758.446 1228.6 763.78 1222.08 763.892L1222.08 763.892L1222.08 763.892L1220.29 763.902C1218.36 763.913 1216.48 763.339 1214.77 762.424C1209.4 759.539 1203.31 757.823 1196.84 757.617Z" fill="#363BBC"/>
<path d="M1202.05 784C1200.75 762.522 1183.05 748.003 1187.08 725.425C1190.6 705.771 1200.45 695.835 1202.05 691.322" stroke="#363BBC" stroke-width="7.54956" stroke-linecap="round"/>
<path d="M383.32 848.741C376.428 844.828 362.602 833.234 362.43 818.169C362.216 799.337 359.603 793.25 348.605 780.24C339.806 769.832 340.161 756.018 341.439 750.412" stroke="#B23EA8" stroke-width="4.87509" stroke-linecap="round"/>
<path d="M341.786 756.612C341.781 756.616 341.78 756.624 341.783 756.629C341.787 756.634 341.786 756.642 341.78 756.646C339.671 758.095 339.132 760.978 340.576 763.092C342.02 765.206 344.902 765.751 347.019 764.313C347.024 764.309 347.032 764.31 347.036 764.316C347.039 764.321 347.047 764.323 347.052 764.319C351.477 761.533 356.321 759.898 361.221 759.347C362.776 759.171 364.294 758.695 365.586 757.812L367.161 756.736L367.161 756.735L367.161 756.735C371.58 753.64 372.697 747.556 369.645 743.089C366.593 738.622 360.519 737.451 356.029 740.444L356.029 740.444L356.028 740.443L354.804 741.28C353.482 742.183 352.471 743.461 351.741 744.887C349.44 749.384 346.097 753.423 341.786 756.612Z" fill="#B23EA8"/>
<path d="M337.378 754.727C337.384 754.727 337.39 754.732 337.39 754.738C337.391 754.745 337.397 754.75 337.404 754.749C339.948 754.48 342.232 756.321 342.507 758.867C342.782 761.412 340.946 763.699 338.402 763.981C338.396 763.982 338.391 763.988 338.392 763.994C338.392 764.001 338.388 764.006 338.381 764.007C333.207 764.764 328.462 766.669 324.38 769.432C323.083 770.309 321.62 770.933 320.064 771.101L318.168 771.307L318.167 771.306L318.167 771.306C312.796 771.824 307.995 767.925 307.413 762.546C306.831 757.167 310.688 752.331 316.045 751.689L316.046 751.689L316.046 751.688L317.52 751.529C319.112 751.357 320.71 751.671 322.191 752.281C326.863 754.205 332.029 755.104 337.378 754.727Z" fill="#B23EA8"/>
<path d="M356.645 822.737C356.649 822.732 356.656 822.731 356.662 822.735C356.667 822.738 356.675 822.737 356.679 822.732C358.21 820.682 361.113 820.258 363.167 821.786C365.222 823.313 365.652 826.215 364.131 828.272C364.127 828.277 364.128 828.285 364.133 828.289C364.138 828.293 364.14 828.3 364.136 828.306C361.176 832.616 359.349 837.391 358.603 842.265C358.366 843.812 357.829 845.309 356.895 846.565L355.757 848.096L355.757 848.096L355.756 848.096C352.487 852.389 346.364 853.263 342.022 850.035C337.68 846.807 336.753 840.692 339.921 836.324L339.921 836.324L339.921 836.323L340.806 835.134C341.761 833.848 343.078 832.889 344.532 832.217C349.117 830.097 353.287 826.917 356.645 822.737Z" fill="#B23EA8"/>
<path d="M366.459 829.7C366.452 829.699 366.448 829.693 366.449 829.687C366.45 829.68 366.445 829.674 366.438 829.673C363.9 829.348 362.103 827.03 362.422 824.49C362.74 821.95 365.055 820.148 367.594 820.46C367.601 820.46 367.607 820.456 367.608 820.449C367.609 820.443 367.615 820.438 367.621 820.439C372.83 820.895 377.886 820.135 382.496 818.387C383.96 817.832 385.527 817.563 387.08 817.757L388.973 817.995L388.973 817.995L388.973 817.996C394.319 818.729 398.093 823.63 397.419 828.998C396.745 834.366 391.878 838.183 386.517 837.573L386.516 837.574L386.516 837.574L385.045 837.389C383.456 837.19 381.973 836.516 380.672 835.581C376.57 832.632 371.751 830.567 366.459 829.7Z" fill="#B23EA8"/>
<path d="M336.775 747.601C336.776 747.608 336.782 747.612 336.788 747.611C336.795 747.61 336.801 747.614 336.802 747.621C337.254 750.139 339.659 751.819 342.18 751.374C344.701 750.929 346.385 748.527 345.947 746.006C345.946 746 345.95 745.993 345.957 745.992C345.963 745.991 345.967 745.985 345.967 745.978C345.251 740.798 345.757 735.711 347.273 731.019C347.754 729.53 347.945 727.951 347.673 726.41L347.341 724.531L347.341 724.531L347.341 724.531C346.341 719.229 341.258 715.704 335.93 716.645C330.602 717.586 327.033 722.638 327.91 727.962L327.91 727.962L327.909 727.962L328.167 729.422C328.446 731 329.193 732.447 330.192 733.699C333.342 737.649 335.645 742.36 336.775 747.601Z" fill="#B23EA8"/>
<path d="M352.543 774.677C352.536 774.677 352.531 774.682 352.531 774.689C352.531 774.695 352.525 774.701 352.518 774.701C349.96 774.654 347.846 776.687 347.793 779.247C347.74 781.806 349.769 783.925 352.326 783.984C352.333 783.985 352.339 783.99 352.338 783.997C352.338 784.003 352.343 784.009 352.35 784.009C357.57 784.313 362.463 785.798 366.77 788.196C368.138 788.957 369.65 789.451 371.215 789.483L373.122 789.523L373.122 789.522L373.122 789.522C378.518 789.571 382.962 785.269 383.074 779.86C383.186 774.451 378.923 769.969 373.53 769.795L373.53 769.795L373.529 769.794L372.047 769.764C370.446 769.731 368.881 770.183 367.459 770.919C362.972 773.242 357.904 774.587 352.543 774.677Z" fill="#B23EA8"/>
<path d="M364.506 800.416C364.499 800.418 364.494 800.425 364.496 800.432C364.497 800.439 364.492 800.446 364.485 800.448C361.635 801.001 359.768 803.756 360.314 806.61C360.859 809.463 363.611 811.335 366.464 810.797C366.472 810.796 366.479 810.8 366.481 810.808C366.482 810.815 366.489 810.82 366.496 810.819C372.362 809.923 378.142 810.415 383.489 812.059C385.187 812.581 386.982 812.773 388.726 812.439L390.852 812.032L390.852 812.032L390.852 812.031C396.852 810.812 400.769 804.987 399.615 798.958C398.462 792.928 392.672 788.96 386.646 790.041L386.646 790.041L386.645 790.041L384.993 790.357C383.208 790.698 381.578 791.569 380.173 792.723C375.742 796.36 370.435 799.05 364.506 800.416Z" fill="#B23EA8"/>
<path d="M357.321 801.207C357.327 801.202 357.327 801.195 357.323 801.189C357.319 801.183 357.32 801.175 357.325 801.171C359.476 799.45 359.83 796.312 358.114 794.155C356.397 791.998 353.26 791.638 351.1 793.348C351.094 793.352 351.086 793.352 351.082 793.346C351.077 793.34 351.07 793.339 351.064 793.344C346.53 796.682 341.457 798.816 336.239 799.792C334.583 800.102 332.991 800.732 331.672 801.781L330.065 803.06L330.065 803.06L330.065 803.061C325.562 806.73 324.838 813.35 328.465 817.908C332.092 822.466 338.705 823.247 343.292 819.683L343.293 819.683L343.293 819.683L344.542 818.689C345.892 817.615 346.877 816.165 347.549 814.577C349.668 809.567 352.942 804.968 357.321 801.207Z" fill="#B23EA8"/>
<path d="M339.952 772.314C339.958 772.31 339.965 772.312 339.969 772.317C339.973 772.322 339.98 772.324 339.986 772.32C342.074 770.841 344.966 771.33 346.451 773.415C347.936 775.5 347.453 778.394 345.373 779.883C345.367 779.887 345.366 779.895 345.37 779.9C345.374 779.905 345.373 779.913 345.367 779.917C341.225 783.108 338.018 787.09 335.809 791.497C335.107 792.897 334.136 794.156 332.861 795.064L331.308 796.171L331.307 796.171L331.307 796.171C326.876 799.25 320.781 798.198 317.642 793.791C314.504 789.384 315.502 783.28 319.86 780.099L319.86 780.099L319.861 780.098L321.068 779.238C322.373 778.309 323.92 777.801 325.511 777.609C330.526 777.002 335.471 775.259 339.952 772.314Z" fill="#B23EA8"/>
<path d="M285.129 856.836C288.092 851.322 292.463 837.76 286.245 827.615C278.473 814.934 277.662 809.766 279.546 796.444C281.054 785.787 275.01 776.701 271.8 773.49" stroke="#B23EA8" stroke-width="3.85006" stroke-linecap="round"/>
<path d="M274.173 777.781C274.179 777.781 274.182 777.786 274.182 777.791C274.182 777.796 274.186 777.8 274.191 777.801C276.21 777.883 277.783 779.584 277.706 781.604C277.629 783.625 275.931 785.201 273.912 785.129C273.906 785.129 273.902 785.133 273.902 785.138C273.901 785.143 273.897 785.147 273.892 785.147C269.762 785.144 265.836 786.087 262.329 787.778C261.215 788.315 260.001 788.634 258.765 788.587L257.26 788.529L257.26 788.529L257.26 788.529C253.004 788.317 249.7 784.719 249.863 780.449C250.026 776.18 253.595 772.844 257.854 772.958L257.855 772.957L257.855 772.957L259.025 773.002C260.289 773.05 261.501 773.479 262.589 774.126C266.018 776.165 269.951 777.461 274.173 777.781Z" fill="#B23EA8"/>
<path d="M276.328 774.668C276.323 774.67 276.322 774.676 276.324 774.68C276.326 774.685 276.324 774.691 276.319 774.693C274.505 775.583 273.753 777.774 274.638 779.591C275.524 781.409 277.714 782.166 279.532 781.285C279.537 781.283 279.543 781.285 279.545 781.29C279.547 781.294 279.553 781.296 279.558 781.294C283.335 779.625 287.308 778.904 291.199 779.036C292.435 779.077 293.675 778.879 294.786 778.338L296.14 777.678L296.14 777.678L296.14 777.677C299.949 775.766 301.52 771.141 299.649 767.3C297.777 763.459 293.165 761.847 289.314 763.67L289.313 763.67L289.313 763.67L288.26 764.183C287.123 764.737 286.187 765.619 285.453 766.649C283.138 769.899 280.062 772.671 276.328 774.668Z" fill="#B23EA8"/>
<path d="M292.033 828.237C292.028 828.235 292.023 828.237 292.021 828.242C292.019 828.247 292.013 828.249 292.008 828.248C290.123 827.521 288.004 828.457 287.272 830.342C286.54 832.227 287.473 834.348 289.354 835.084C289.359 835.086 289.362 835.091 289.36 835.096C289.358 835.101 289.36 835.106 289.365 835.109C293.156 836.746 296.385 839.171 298.932 842.116C299.741 843.051 300.729 843.826 301.881 844.273L303.285 844.819L303.286 844.818L303.286 844.818C307.276 846.314 311.737 844.324 313.284 840.341C314.83 836.358 312.879 831.88 308.925 830.292L308.925 830.291L308.925 830.291L307.833 829.867C306.654 829.41 305.371 829.322 304.116 829.483C300.159 829.993 296.035 829.62 292.033 828.237Z" fill="#B23EA8"/>
<path d="M288.398 837.017C288.402 837.014 288.402 837.008 288.399 837.004C288.396 837 288.396 836.994 288.4 836.991C289.961 835.707 290.188 833.401 288.907 831.837C287.626 830.272 285.321 830.04 283.755 831.316C283.751 831.32 283.745 831.319 283.741 831.315C283.738 831.311 283.732 831.311 283.728 831.314C280.437 833.808 276.737 835.426 272.92 836.195C271.709 836.439 270.547 836.917 269.591 837.7L268.425 838.654L268.425 838.655L268.425 838.655C265.16 841.393 264.697 846.256 267.403 849.562C270.11 852.867 274.969 853.373 278.297 850.712L278.297 850.712L278.298 850.712L279.203 849.97C280.182 849.169 280.89 848.095 281.367 846.923C282.87 843.228 285.224 839.821 288.398 837.017Z" fill="#B23EA8"/>
<path d="M273.736 769.649C273.738 769.654 273.736 769.659 273.731 769.661C273.726 769.663 273.724 769.669 273.726 769.674C274.482 771.547 273.581 773.681 271.708 774.443C269.835 775.205 267.699 774.308 266.933 772.438C266.931 772.433 266.925 772.431 266.921 772.433C266.916 772.434 266.91 772.432 266.908 772.428C265.209 768.663 262.733 765.475 259.747 762.975C258.799 762.182 258.008 761.206 257.542 760.061L256.974 758.666L256.974 758.666L256.975 758.666C255.414 754.7 257.331 750.207 261.289 748.597C265.246 746.986 269.756 748.864 271.408 752.792L271.408 752.792L271.408 752.792L271.85 753.877C272.327 755.049 272.435 756.33 272.294 757.587C271.848 761.552 272.288 765.67 273.736 769.649Z" fill="#B23EA8"/>
<path d="M274.574 794.381C274.579 794.378 274.584 794.379 274.587 794.384C274.59 794.388 274.596 794.389 274.6 794.386C276.291 793.28 278.56 793.75 279.671 795.439C280.782 797.129 280.316 799.398 278.631 800.513C278.627 800.516 278.625 800.522 278.628 800.526C278.631 800.53 278.63 800.536 278.626 800.539C275.263 802.937 272.616 805.985 270.744 809.399C270.15 810.483 269.347 811.449 268.314 812.129L267.056 812.956L267.055 812.956L267.055 812.956C263.468 815.257 258.688 814.249 256.34 810.679C253.992 807.11 254.958 802.321 258.49 799.938L258.49 799.938L258.49 799.938L259.468 799.294C260.525 798.599 261.762 798.243 263.022 798.138C266.998 797.805 270.952 796.574 274.574 794.381Z" fill="#B23EA8"/>
<path d="M277.394 816.617C277.399 816.615 277.405 816.618 277.407 816.623C277.41 816.629 277.416 816.632 277.422 816.629C279.56 815.801 281.966 816.859 282.8 818.996C283.635 821.133 282.582 823.541 280.448 824.381C280.442 824.383 280.44 824.389 280.442 824.395C280.444 824.4 280.441 824.406 280.436 824.409C276.138 826.275 272.48 829.034 269.596 832.381C268.68 833.443 267.561 834.326 266.254 834.836L264.662 835.457L264.662 835.457L264.661 835.457C260.137 837.164 255.071 834.916 253.307 830.4C251.544 825.883 253.747 820.797 258.231 818.987L258.231 818.986L258.231 818.986L259.468 818.503C260.805 817.981 262.261 817.878 263.685 818.059C268.177 818.628 272.855 818.196 277.394 816.617Z" fill="#B23EA8"/>
<path d="M282.531 814.126C282.526 814.125 282.522 814.12 282.522 814.115C282.523 814.109 282.519 814.104 282.513 814.104C280.352 813.857 278.796 811.908 279.037 809.744C279.278 807.581 281.224 806.022 283.387 806.257C283.393 806.257 283.398 806.253 283.398 806.248C283.399 806.242 283.404 806.238 283.409 806.239C287.844 806.565 292.133 805.859 296.031 804.319C297.269 803.829 298.599 803.582 299.921 803.729L301.533 803.908L301.533 803.909L301.533 803.909C306.087 804.469 309.353 808.591 308.844 813.163C308.335 817.735 304.242 821.037 299.677 820.582L299.676 820.582L299.676 820.583L298.423 820.443C297.07 820.292 295.801 819.737 294.684 818.957C291.162 816.499 287.04 814.8 282.531 814.126Z" fill="#B23EA8"/>
<path d="M281.998 787.508C281.993 787.508 281.989 787.512 281.989 787.517C281.988 787.522 281.984 787.526 281.978 787.526C279.961 787.415 278.233 788.957 278.116 790.976C278 792.994 279.539 794.726 281.556 794.847C281.561 794.847 281.565 794.852 281.565 794.857C281.565 794.862 281.569 794.867 281.574 794.867C285.685 795.26 289.502 796.574 292.832 798.592C293.889 799.233 295.068 799.667 296.302 799.738L297.806 799.825L297.806 799.825L297.806 799.824C302.063 800.021 305.696 796.755 305.942 792.49C306.188 788.224 302.955 784.562 298.704 784.268L298.704 784.268L298.704 784.267L297.535 784.2C296.272 784.127 295.024 784.438 293.88 784.978C290.271 786.68 286.232 787.593 281.998 787.508Z" fill="#B23EA8"/>
<rect width="9.65957" height="100.577" transform="matrix(-0.954183 -0.299224 -0.299224 0.954183 597.611 719.721)" fill="#363BBC"/>
<ellipse cx="4.82978" cy="4.52597" rx="4.82978" ry="4.52597" transform="matrix(-0.954183 -0.299224 -0.299224 0.954183 598.996 715.307)" fill="#363BBC"/>
<ellipse cx="4.82978" cy="4.52597" rx="4.82978" ry="4.52597" transform="matrix(-0.954183 -0.299224 -0.299224 0.954183 568.901 811.275)" fill="#363BBC"/>
<rect width="12.2911" height="94.8509" transform="matrix(-0.964158 -0.265327 -0.265327 0.964158 584.379 710.665)" fill="#363BBC"/>
<ellipse cx="6.14555" cy="4.26829" rx="6.14555" ry="4.26829" transform="matrix(-0.964158 -0.265327 -0.265327 0.964158 585.537 706.458)" fill="#363BBC"/>
<ellipse cx="6.14555" cy="4.26829" rx="6.14555" ry="4.26829" transform="matrix(-0.964158 -0.265327 -0.265327 0.964158 560.371 797.909)" fill="#363BBC"/>
<rect width="13.2245" height="88.1632" transform="matrix(-0.904785 -0.425869 -0.425869 0.904785 595.96 736.799)" fill="#363BBC"/>
<path d="M584.932 731.511C584.673 732.062 584.743 732.892 585.416 733.897C586.077 734.883 587.232 735.88 588.749 736.594C590.266 737.308 591.771 737.563 592.951 737.444C594.155 737.322 594.839 736.847 595.098 736.296C595.358 735.745 595.288 734.915 594.615 733.91C593.954 732.924 592.799 731.927 591.281 731.213C589.764 730.499 588.26 730.244 587.079 730.363C585.876 730.485 585.192 730.96 584.932 731.511Z" fill="#363BBC" stroke="#363BBC" stroke-width="1.98822"/>
<ellipse cx="6.61224" cy="3.96734" rx="6.61224" ry="3.96734" transform="matrix(-0.904785 -0.425869 -0.425869 0.904785 560.142 812.898)" fill="#363BBC"/>
<rect width="8.52189" height="97.508" transform="matrix(-0.965926 0.258819 0.258819 0.965926 532.704 711.779)" fill="#363BBC"/>
<path d="M525.513 713.896C525.561 714.072 525.781 714.375 526.472 714.563C527.135 714.742 528.055 714.75 529.053 714.483C530.05 714.215 530.843 713.749 531.328 713.262C531.832 712.754 531.872 712.381 531.824 712.205C531.777 712.029 531.557 711.725 530.866 711.538C530.202 711.358 529.283 711.35 528.285 711.618C527.287 711.885 526.495 712.352 526.01 712.839C525.506 713.347 525.466 713.72 525.513 713.896Z" fill="#363BBC" stroke="#363BBC" stroke-width="1.98822"/>
<ellipse cx="4.26095" cy="4.38786" rx="4.26095" ry="4.38786" transform="matrix(-0.965926 0.258819 0.258819 0.965926 556.78 801.632)" fill="#363BBC"/>
<rect width="8.52189" height="97.508" transform="matrix(-0.965926 0.258819 0.258819 0.965926 532.704 711.779)" fill="#363BBC"/>
<path d="M525.513 713.896C525.561 714.072 525.781 714.375 526.472 714.563C527.135 714.742 528.055 714.75 529.053 714.483C530.05 714.215 530.843 713.749 531.328 713.262C531.832 712.754 531.872 712.381 531.824 712.205C531.777 712.029 531.557 711.725 530.866 711.538C530.202 711.358 529.283 711.35 528.285 711.618C527.287 711.885 526.495 712.352 526.01 712.839C525.506 713.347 525.466 713.72 525.513 713.896Z" fill="#363BBC" stroke="#363BBC" stroke-width="1.98822"/>
<ellipse cx="4.26095" cy="4.38786" rx="4.26095" ry="4.38786" transform="matrix(-0.965926 0.258819 0.258819 0.965926 556.78 801.632)" fill="#363BBC"/>
<path fill-rule="evenodd" clip-rule="evenodd" d="M547.21 765.917L539.624 737.604L539.624 770.531L547.21 798.843L547.21 765.917Z" fill="#363BBC"/>
<rect width="11.4875" height="110.457" transform="matrix(-1 0 0 1 556.818 704.081)" fill="#363BBC"/>
<path d="M546.325 703.971C546.325 706.037 548.312 707.947 551.075 707.947C553.838 707.947 555.824 706.037 555.824 703.971C555.824 701.904 553.838 699.994 551.075 699.994C548.312 699.994 546.325 701.904 546.325 703.971Z" fill="#363BBC" stroke="#363BBC" stroke-width="1.98822"/>
<ellipse cx="5.74375" cy="4.97055" rx="5.74375" ry="4.97055" transform="matrix(-1 0 0 1 556.818 809.457)" fill="#363BBC"/>
<rect width="10.1741" height="82.8182" transform="matrix(-0.866025 0.5 0.5 0.866025 510.716 735.878)" fill="#363BBC"/>
<path d="M502.724 740.397C503.042 740.947 503.675 741.344 504.579 741.443C505.482 741.541 506.582 741.325 507.635 740.717C508.688 740.109 509.425 739.265 509.791 738.433C510.158 737.601 510.131 736.854 509.813 736.304C509.495 735.753 508.862 735.356 507.958 735.258C507.055 735.159 505.955 735.376 504.902 735.984C503.849 736.591 503.112 737.436 502.745 738.267C502.379 739.099 502.406 739.846 502.724 740.397Z" fill="#363BBC" stroke="#363BBC" stroke-width="1.98822"/>
<ellipse cx="5.08704" cy="3.72682" rx="5.08704" ry="3.72682" transform="matrix(-0.866025 0.5 0.5 0.866025 550.22 804.302)" fill="#363BBC"/>
<path opacity="0.2" d="M553.478 710.544V804.219" stroke="#363BBC" stroke-width="2.63874" stroke-linecap="round"/>
<path opacity="0.2" d="M591.409 740.23L565.352 797.293" stroke="#363BBC" stroke-width="2.63874" stroke-linecap="round"/>
<path opacity="0.2" d="M531.552 716.812L542.923 759.031" stroke="#363BBC" stroke-width="2.63874" stroke-linecap="round"/>
<path opacity="0.4" d="M510.269 741.879L547.541 806.198" stroke="#363BBC" stroke-width="2.63874" stroke-linecap="round"/>
<rect width="13.2245" height="54.1231" transform="matrix(-0.631924 0.775031 0.775031 0.631924 510.375 773.475)" fill="#363BBC"/>
<path d="M502.588 782.909C502.588 782.909 502.589 782.91 502.592 782.911C502.589 782.909 502.588 782.909 502.588 782.909ZM502.563 782.656C502.568 782.809 502.593 782.885 502.608 782.915C502.641 782.923 502.719 782.932 502.871 782.906C503.146 782.859 503.539 782.711 504.029 782.421C505.002 781.846 506.172 780.825 507.272 779.476C508.371 778.127 509.136 776.775 509.504 775.707C509.689 775.168 509.755 774.754 509.746 774.474C509.741 774.321 509.716 774.246 509.701 774.215C509.668 774.207 509.59 774.198 509.438 774.224C509.163 774.271 508.77 774.419 508.28 774.709C507.307 775.284 506.137 776.306 505.037 777.654C503.938 779.003 503.173 780.355 502.805 781.424C502.62 781.962 502.554 782.376 502.563 782.656ZM509.691 774.197C509.691 774.197 509.692 774.198 509.694 774.201C509.692 774.198 509.691 774.197 509.691 774.197ZM509.721 774.222C509.721 774.221 509.72 774.221 509.717 774.219C509.72 774.221 509.721 774.222 509.721 774.222ZM502.615 782.929C502.617 782.932 502.618 782.933 502.618 782.933C502.618 782.933 502.617 782.932 502.615 782.929Z" fill="#363BBC" stroke="#363BBC" stroke-width="1.98822"/>
<ellipse cx="6.61224" cy="2.43554" rx="6.61224" ry="2.43554" transform="matrix(-0.631924 0.775031 0.775031 0.631924 550.393 806.103)" fill="#363BBC"/>
<rect width="7.54591" height="72.5569" transform="matrix(-0.989504 -0.144507 -0.144507 0.989504 569.522 743.6)" fill="#363BBC"/>
<path d="M563.05 742.581C562.888 743.693 563.815 744.988 565.472 745.23C567.128 745.472 568.387 744.496 568.549 743.384C568.712 742.272 567.785 740.977 566.128 740.735C564.471 740.493 563.212 741.469 563.05 742.581Z" fill="#363BBC" stroke="#363BBC" stroke-width="1.98822"/>
<ellipse cx="3.77296" cy="3.26506" rx="3.77296" ry="3.26506" transform="matrix(-0.989504 -0.144507 -0.144507 0.989504 559.52 812.092)" fill="#363BBC"/>
<rect width="10.8753" height="51.0862" transform="matrix(-0.943636 -0.330984 -0.330984 0.943636 590.585 768.925)" fill="#363BBC"/>
<path d="M581.279 765.601C581.279 765.601 581.279 765.602 581.278 765.605C581.279 765.602 581.279 765.601 581.279 765.601ZM581.47 765.47C581.329 765.538 581.287 765.591 581.278 765.606C581.276 765.623 581.275 765.691 581.343 765.832C581.438 766.03 581.636 766.296 581.973 766.602C582.644 767.211 583.717 767.844 585.039 768.308C586.362 768.772 587.595 768.948 588.499 768.891C588.953 768.862 589.274 768.778 589.473 768.683C589.614 768.615 589.655 768.562 589.664 768.547C589.666 768.53 589.667 768.462 589.599 768.321C589.504 768.123 589.306 767.857 588.969 767.551C588.299 766.942 587.226 766.309 585.903 765.845C584.581 765.381 583.347 765.205 582.443 765.262C581.989 765.291 581.668 765.375 581.47 765.47ZM589.666 768.543C589.666 768.543 589.666 768.544 589.665 768.546C589.666 768.544 589.666 768.543 589.666 768.543ZM589.663 768.552C589.663 768.552 589.664 768.551 589.664 768.548C589.663 768.551 589.663 768.552 589.663 768.552ZM581.278 765.607C581.277 765.609 581.276 765.61 581.276 765.61C581.276 765.61 581.277 765.609 581.278 765.607Z" fill="#363BBC" stroke="#363BBC" stroke-width="1.98822"/>
<ellipse cx="5.43765" cy="2.29888" rx="5.43765" ry="2.29888" transform="matrix(-0.943636 -0.330984 -0.330984 0.943636 574.454 814.914)" fill="#363BBC"/>
<rect width="10.8753" height="31.2899" transform="matrix(-0.99749 -0.0708138 -0.0708138 0.99749 568.867 787.362)" fill="#363BBC"/>
<path d="M559.128 786.802C559.11 787.061 559.289 787.538 560.109 788.055C560.89 788.547 562.057 788.93 563.425 789.027C564.792 789.124 566.003 788.91 566.844 788.533C567.73 788.137 567.975 787.69 567.993 787.432C568.011 787.173 567.832 786.696 567.012 786.179C566.231 785.687 565.064 785.304 563.696 785.207C562.328 785.11 561.118 785.324 560.276 785.701C559.391 786.096 559.146 786.544 559.128 786.802Z" fill="#363BBC" stroke="#363BBC" stroke-width="1.98822"/>
<ellipse cx="5.43765" cy="1.40805" rx="5.43765" ry="1.40805" transform="matrix(-0.99749 -0.0708138 -0.0708138 0.99749 566.754 817.138)" fill="#363BBC"/>
<rect x="601.364" y="746.796" width="9.65957" height="100.577" transform="rotate(22.4345 601.364 746.796)" fill="#363BBC"/>
<ellipse cx="605.867" cy="748.546" rx="4.82978" ry="4.52597" transform="rotate(22.4345 605.867 748.546)" fill="#363BBC"/>
<ellipse cx="567.484" cy="841.511" rx="4.82978" ry="4.52597" transform="rotate(22.4345 567.484 841.511)" fill="#363BBC"/>
<rect x="617.326" y="748.321" width="12.2911" height="94.8509" transform="rotate(24.4591 617.326 748.321)" fill="#363BBC"/>
<ellipse cx="622.96" cy="750.779" rx="6.14555" ry="4.26829" transform="rotate(24.4591 622.96 750.779)" fill="#363BBC"/>
<ellipse cx="583.687" cy="837.118" rx="6.14555" ry="4.26829" transform="rotate(24.4591 583.687 837.118)" fill="#363BBC"/>
<rect x="591.69" y="760.966" width="13.2245" height="88.1632" transform="rotate(14.6399 591.69 760.966)" fill="#363BBC"/>
<path d="M603.545 763.972C603.391 764.561 602.806 765.154 601.645 765.494C600.506 765.827 598.981 765.852 597.358 765.428C595.736 765.005 594.417 764.237 593.587 763.389C592.741 762.524 592.52 761.721 592.674 761.132C592.828 760.542 593.413 759.95 594.574 759.61C595.713 759.276 597.239 759.251 598.861 759.675C600.483 760.099 601.802 760.867 602.632 761.715C603.478 762.579 603.699 763.382 603.545 763.972Z" fill="#363BBC" stroke="#363BBC" stroke-width="1.98822"/>
<ellipse cx="575.827" cy="847.852" rx="6.61224" ry="3.96734" transform="rotate(14.6399 575.827 847.852)" fill="#363BBC"/>
<rect x="656.286" y="782.286" width="8.52189" height="97.508" transform="rotate(54.8455 656.286 782.286)" fill="#363BBC"/>
<path d="M660.452 788.519C660.303 788.623 659.939 788.715 659.288 788.416C658.664 788.129 657.953 787.546 657.358 786.701C656.763 785.857 656.454 784.991 656.394 784.306C656.332 783.593 656.541 783.281 656.69 783.177C656.838 783.072 657.202 782.98 657.853 783.279C658.477 783.566 659.188 784.149 659.783 784.994C660.378 785.838 660.688 786.704 660.747 787.389C660.809 788.102 660.6 788.414 660.452 788.519Z" fill="#363BBC" stroke="#363BBC" stroke-width="1.98822"/>
<ellipse cx="579.097" cy="841.857" rx="4.26095" ry="4.38786" transform="rotate(54.8455 579.097 841.857)" fill="#363BBC"/>
<rect x="656.286" y="782.286" width="8.52189" height="97.508" transform="rotate(54.8455 656.286 782.286)" fill="#363BBC"/>
<path d="M660.452 788.519C660.303 788.623 659.939 788.715 659.288 788.416C658.664 788.129 657.953 787.546 657.358 786.701C656.763 785.857 656.454 784.991 656.394 784.306C656.332 783.593 656.541 783.281 656.69 783.177C656.838 783.072 657.202 782.98 657.853 783.279C658.477 783.566 659.188 784.149 659.783 784.994C660.378 785.838 660.688 786.704 660.747 787.389C660.809 788.102 660.6 788.414 660.452 788.519Z" fill="#363BBC" stroke="#363BBC" stroke-width="1.98822"/>
<ellipse cx="579.097" cy="841.857" rx="4.26095" ry="4.38786" transform="rotate(54.8455 579.097 841.857)" fill="#363BBC"/>
<path fill-rule="evenodd" clip-rule="evenodd" d="M610.462 814.558L634.427 797.681L613.33 822.96L589.365 839.838L610.462 814.558Z" fill="#363BBC"/>
<rect x="642.705" y="760.925" width="11.4875" height="110.457" transform="rotate(39.8455 642.705 760.925)" fill="#363BBC"/>
<path d="M650.833 767.563C649.509 769.149 646.76 769.343 644.638 767.573C642.517 765.803 642.216 763.063 643.539 761.477C644.863 759.89 647.613 759.697 649.734 761.467C651.855 763.237 652.157 765.977 650.833 767.563Z" fill="#363BBC" stroke="#363BBC" stroke-width="1.98822"/>
<ellipse cx="576.415" cy="849.326" rx="5.74375" ry="4.97055" transform="rotate(39.8455 576.415 849.326)" fill="#363BBC"/>
<rect x="657.729" y="814.877" width="10.1741" height="82.8182" transform="rotate(69.8455 657.729 814.877)" fill="#363BBC"/>
<path d="M660.97 823.466C660.373 823.686 659.633 823.585 658.876 823.081C658.119 822.578 657.413 821.707 656.994 820.566C656.576 819.424 656.55 818.304 656.802 817.43C657.054 816.557 657.553 816.001 658.15 815.782C658.747 815.563 659.487 815.664 660.244 816.167C661.001 816.67 661.706 817.541 662.125 818.683C662.544 819.824 662.569 820.945 662.318 821.818C662.066 822.692 661.567 823.247 660.97 823.466Z" fill="#363BBC" stroke="#363BBC" stroke-width="1.98822"/>
<ellipse cx="581.813" cy="848.159" rx="5.08704" ry="3.72682" transform="rotate(69.8455 581.813 848.159)" fill="#363BBC"/>
<path opacity="0.2" d="M641.129 768.028L581.109 839.95" stroke="#363BBC" stroke-width="2.63874" stroke-linecap="round"/>
<path opacity="0.2" d="M592.986 766.517L576.431 827.023" stroke="#363BBC" stroke-width="2.63874" stroke-linecap="round"/>
<path opacity="0.2" d="M653.948 786.888L618.167 812.017" stroke="#363BBC" stroke-width="2.63874" stroke-linecap="round"/>
<path opacity="0.4" d="M654.228 819.771L584.4 845.273" stroke="#363BBC" stroke-width="2.63874" stroke-linecap="round"/>
<rect x="633.902" y="843.961" width="13.2245" height="54.1231" transform="rotate(90.6533 633.902 843.961)" fill="#363BBC"/>
<path d="M633.836 856.193C633.836 856.193 633.835 856.193 633.831 856.192C633.835 856.193 633.836 856.193 633.836 856.193ZM634.017 856.015C633.915 856.13 633.848 856.172 633.817 856.186C633.786 856.171 633.72 856.127 633.62 856.01C633.439 855.797 633.233 855.432 633.042 854.896C632.664 853.831 632.42 852.297 632.439 850.557C632.459 848.817 632.738 847.289 633.141 846.233C633.344 845.701 633.558 845.34 633.745 845.132C633.847 845.017 633.914 844.975 633.945 844.961C633.975 844.976 634.042 845.019 634.141 845.136C634.322 845.349 634.529 845.714 634.72 846.251C635.098 847.316 635.342 848.85 635.322 850.59C635.302 852.33 635.023 853.858 634.621 854.914C634.418 855.446 634.203 855.806 634.017 856.015ZM633.964 844.954C633.964 844.954 633.963 844.954 633.96 844.955C633.963 844.954 633.964 844.954 633.964 844.954ZM633.925 844.953C633.925 844.953 633.927 844.953 633.93 844.954C633.927 844.954 633.925 844.953 633.925 844.953ZM633.802 856.192C633.799 856.193 633.797 856.193 633.797 856.193C633.797 856.193 633.799 856.192 633.802 856.192Z" fill="#363BBC" stroke="#363BBC" stroke-width="1.98822"/>
<ellipse cx="579.762" cy="849.956" rx="6.61224" ry="2.43554" transform="rotate(90.6533 579.762 849.956)" fill="#363BBC"/>
<rect x="607.632" y="783.127" width="7.54591" height="72.5569" transform="rotate(31.5368 607.632 783.127)" fill="#363BBC"/>
<path d="M613.254 786.492C612.666 787.45 611.125 787.85 609.698 786.974C608.271 786.098 607.929 784.543 608.517 783.585C609.105 782.627 610.646 782.227 612.074 783.103C613.501 783.979 613.842 785.534 613.254 786.492Z" fill="#363BBC" stroke="#363BBC" stroke-width="1.98822"/>
<ellipse cx="572.936" cy="846.879" rx="3.77296" ry="3.26506" transform="rotate(31.5368 572.936 846.879)" fill="#363BBC"/>
<rect x="575.233" y="789.075" width="10.8753" height="51.0862" transform="rotate(20.517 575.233 789.075)" fill="#363BBC"/>
<path d="M584.507 792.486C584.507 792.486 584.507 792.487 584.506 792.489C584.507 792.487 584.507 792.486 584.507 792.486ZM584.445 792.263C584.51 792.405 584.508 792.473 584.505 792.49C584.496 792.505 584.453 792.557 584.311 792.622C584.111 792.713 583.788 792.791 583.333 792.81C582.428 792.848 581.199 792.646 579.886 792.155C578.574 791.664 577.514 791.009 576.856 790.386C576.526 790.073 576.333 789.803 576.242 789.603C576.177 789.46 576.179 789.393 576.182 789.376C576.192 789.361 576.234 789.308 576.377 789.244C576.577 789.153 576.899 789.075 577.354 789.056C578.259 789.018 579.488 789.22 580.801 789.711C582.114 790.202 583.173 790.857 583.831 791.48C584.162 791.793 584.354 792.063 584.445 792.263ZM576.183 789.371C576.183 789.371 576.183 789.372 576.182 789.375C576.183 789.372 576.183 789.371 576.183 789.371ZM576.18 789.38C576.18 789.38 576.18 789.379 576.182 789.376C576.181 789.379 576.18 789.38 576.18 789.38ZM584.505 792.491C584.505 792.494 584.504 792.495 584.504 792.495C584.504 792.495 584.504 792.494 584.505 792.491Z" fill="#363BBC" stroke="#363BBC" stroke-width="1.98822"/>
<ellipse cx="562.438" cy="838.779" rx="5.43765" ry="2.29888" transform="rotate(20.517 562.438 838.779)" fill="#363BBC"/>
<rect x="580.095" y="817.146" width="10.8753" height="31.2899" transform="rotate(35.7848 580.095 817.146)" fill="#363BBC"/>
<path d="M587.931 822.957C587.78 823.167 587.336 823.419 586.375 823.29C585.461 823.167 584.319 822.713 583.207 821.912C582.095 821.11 581.303 820.17 580.898 819.342C580.471 818.471 580.57 817.97 580.722 817.76C580.873 817.55 581.317 817.298 582.278 817.427C583.192 817.55 584.334 818.004 585.446 818.805C586.558 819.607 587.35 820.547 587.755 821.375C588.182 822.247 588.083 822.747 587.931 822.957Z" fill="#363BBC" stroke="#363BBC" stroke-width="1.98822"/>
<ellipse cx="566.227" cy="845.684" rx="5.43765" ry="1.40805" transform="rotate(35.7848 566.227 845.684)" fill="#363BBC"/>
<rect x="719.229" y="711.552" width="33.388" height="106.557" rx="16" fill="#363BBC"/>
<rect x="699" y="735.661" width="34" height="82" rx="16" fill="#363BBC"/>
<rect x="736.989" y="736.415" width="33.388" height="64.6448" rx="16" fill="#363BBC"/>
<rect x="683" y="752.044" width="33.388" height="64.6448" rx="16" fill="#363BBC"/>
<rect x="722.781" y="781.88" width="33.388" height="39.7814" rx="16" fill="#363BBC"/>
<path d="M689.394 803.192V768.383" stroke="#363BBC" stroke-width="8" stroke-linecap="round"/>
<path d="M705.732 742.809V708" stroke="#363BBC" stroke-width="8" stroke-linecap="round"/>
<path d="M728.465 806.033L728.465 793.246" stroke="#363BBC" stroke-width="8" stroke-linecap="round"/>
<rect x="799" y="723" width="34" height="71" rx="16" fill="#363BBC"/>
<rect x="779" y="711.661" width="34" height="82" rx="16" fill="#363BBC"/>
<rect x="828" y="711" width="33.388" height="64.6448" rx="16" fill="#363BBC"/>
<rect x="763" y="728.044" width="33.388" height="64.6448" rx="16" fill="#363BBC"/>
<rect x="802.781" y="757.88" width="33.388" height="39.7814" rx="16" fill="#363BBC"/>
<path d="M769.394 779.192V744.383" stroke="#363BBC" stroke-width="8" stroke-linecap="round"/>
<path d="M808.465 782.033L808.465 769.246" stroke="#363BBC" stroke-width="8" stroke-linecap="round"/>
</g>
</svg>
