<svg width="1919" height="1080" viewBox="0 0 1919 1080" fill="none" xmlns="http://www.w3.org/2000/svg">
<mask id="mask0_303_8618" style="mask-type:alpha" maskUnits="userSpaceOnUse" x="-1" y="0" width="1920" height="1080">
<rect x="-1" width="1920" height="1080" fill="#D9D9D9"/>
</mask>
<g mask="url(#mask0_303_8618)">
<path d="M1664.93 557.877V623.716H1623.6V665.878" stroke="#26249E" stroke-width="10.8001" stroke-linecap="round" stroke-linejoin="round"/>
<path d="M1623.18 623.716H1602L1602.21 541.677" stroke="#26249E" stroke-width="10.8001" stroke-linecap="round" stroke-linejoin="round"/>
<path d="M1645.82 622.885V579.477M1645.82 579.477H1620.48V530.876M1645.82 579.477V521.53" stroke="#26249E" stroke-width="10.8001" stroke-linecap="round" stroke-linejoin="round"/>
<path d="M1665.55 597.547H1697.12V557.462M1697.12 535.239V557.462M1697.12 557.462H1679.88V518" stroke="#26249E" stroke-width="10.8001" stroke-linecap="round" stroke-linejoin="round"/>
<path fill-rule="evenodd" clip-rule="evenodd" d="M991.5 970C1049.72 970 1101.32 941.647 1133.25 897.996C1148.88 902.555 1165.4 905 1182.5 905H1408.5C1505.43 905 1584 826.426 1584 729.5C1584 632.574 1505.43 554 1408.5 554H1182.5C1124.28 554 1072.68 582.353 1040.75 626.004C1025.12 621.445 1008.6 619 991.5 619H635.5C577.279 619 525.679 647.351 493.753 691H300V728.926C268.914 679.698 214.026 647 151.5 647H106.5C9.57403 647 -69 725.574 -69 822.5C-69 919.426 9.57403 998 106.5 998H151.5C225.652 998 289.064 952.011 314.768 887H486.328C517.29 936.826 572.521 970 635.5 970H991.5Z" fill="#26249E"/>
<path d="M73 541.347V607.186H114.331V649.347" stroke="#26249E" stroke-width="10.8001" stroke-linecap="round" stroke-linejoin="round"/>
<path d="M114.746 607.185H135.931L135.723 525.146" stroke="#26249E" stroke-width="10.8001" stroke-linecap="round" stroke-linejoin="round"/>
<path d="M92.1074 606.354V562.946M92.1074 562.946H117.446V514.346M92.1074 562.946V505" stroke="#26249E" stroke-width="10.8001" stroke-linecap="round" stroke-linejoin="round"/>
<path d="M221.932 562.347V628.186H180.601V670.347" stroke="#26249E" stroke-width="10.8001" stroke-linecap="round" stroke-linejoin="round"/>
<path d="M180.186 628.185H159.001V508.5" stroke="#26249E" stroke-width="10.8001" stroke-linecap="round" stroke-linejoin="round"/>
<path d="M202.824 627.354V590.5M202.824 590.5H177.486V556.5M202.824 590.5V526" stroke="#26249E" stroke-width="10.8001" stroke-linecap="round" stroke-linejoin="round"/>
<path fill-rule="evenodd" clip-rule="evenodd" d="M404.485 631.208C409.639 640.135 406.466 651.443 397.684 656.468L403.139 654.46C413.091 650.796 424.078 656.246 427.184 666.386C430.352 676.73 423.993 687.57 413.418 689.853L342.609 705.139C340.709 706.178 338.532 706.656 336.35 706.49L312.813 711.572C307.099 712.805 301.391 709.458 299.68 703.868C299.484 703.231 299.348 702.589 299.269 701.948C296.128 702.193 292.997 701.102 290.687 698.93L243.772 697.142C232.962 696.73 224.817 687.158 226.141 676.421C227.076 668.842 232.457 662.949 239.293 660.945C229.68 656.214 226.085 644.296 231.521 635.027C235.798 627.733 244.262 624.498 251.996 626.46L245.594 617.639C239.239 608.884 241.734 596.566 250.995 590.974C256.815 587.459 263.763 587.542 269.309 590.523C270.5 583.689 275.511 577.767 282.736 575.831C288.311 574.337 293.947 575.56 298.276 578.658C301.535 573.472 307.307 570 313.928 570C324.117 570 332.252 578.209 332.401 588.17C336.493 581.231 344.861 577.51 353.097 579.717C361.06 581.851 366.333 588.826 366.767 596.528L367.154 595.799C372.124 586.43 383.944 583.161 393.022 588.643C402.283 594.235 404.778 606.552 398.423 615.308L393.152 622.57C397.755 623.771 401.905 626.739 404.485 631.208Z" fill="#26249E"/>
<path d="M297.568 711.05C296.791 695.767 303.742 669.291 312.334 650.045C322.048 628.285 337.202 611.577 342.254 605.748" stroke="#363BBC" stroke-width="25.6456" stroke-linecap="round"/>
<path d="M328.365 711.715C331.436 684.486 338.881 661.11 352.649 637.611" stroke="#363BBC" stroke-width="25.6456" stroke-linecap="round"/>
<path d="M297.12 706.388C291.809 690.715 283.442 648.102 292.457 603.028" stroke="#363BBC" stroke-width="25.6456" stroke-linecap="round"/>
<path d="M257.486 623.233C260.724 637.092 268.211 669.551 272.252 688.513C276.293 707.475 282.743 714.547 285.463 715.713" stroke="#363BBC" stroke-width="25.6456" stroke-linecap="round"/>
<path d="M381.708 637.611C381.275 639.658 378.956 650.26 373.149 676.291C367.343 702.321 359.992 715.791 357.042 719.272" stroke="#363BBC" stroke-width="25.6456" stroke-linecap="round"/>
<path d="M242.332 713.382C247.254 696.544 256.554 658.827 254.378 642.662M285.075 721.153C285.463 718.433 266.035 687.736 293.235 621.68" stroke="#4B51DC" stroke-width="18.6513" stroke-linecap="round"/>
<path d="M307.602 715.849C309.138 711.397 311.677 691.071 309.54 645.382" stroke="#4B51DC" stroke-width="18.6513" stroke-linecap="round"/>
<path d="M338.697 719.988C338.697 718.045 323.932 661.314 348.412 615.463" stroke="#4B51DC" stroke-width="18.6513" stroke-linecap="round"/>
<path d="M382.605 705.999C382.217 702.502 377.787 690.457 363.177 670.251" stroke="#4B51DC" stroke-width="18.6513" stroke-linecap="round"/>
<path fill-rule="evenodd" clip-rule="evenodd" d="M360.069 746.961C359.33 746.93 358.595 746.828 357.875 746.653L357.816 746.659C354.954 746.943 352.22 746.125 350.054 744.537C348.412 744.323 346.794 743.743 345.324 742.774C341.485 740.245 339.671 735.736 340.429 731.427L336.99 729.979C331.641 727.728 328.888 721.781 330.615 716.254C326.721 712.03 326.631 705.529 330.443 701.197C333.744 697.445 339.016 696.398 343.401 698.318L360.46 620.732C362.783 610.166 373.647 603.849 383.979 607.057C394.107 610.201 399.515 621.208 395.813 631.147L395.525 631.92C401.571 627.128 410.288 626.436 417.172 630.971C424.293 635.662 427.07 644.388 424.602 652.056C432.146 645.551 443.686 646.178 450.455 653.794C454.853 658.743 456.091 665.365 454.381 671.246C459.572 672.423 464.229 675.824 466.816 680.984C470.168 687.67 469.07 695.35 464.753 700.78C470.666 702.945 475.343 708.083 476.582 714.769C478.554 725.406 471.004 735.453 460.238 736.519L449.392 737.593C455.996 742.071 459.2 750.546 456.589 758.589C453.272 768.81 441.975 774.039 432.053 769.996C435.096 776.437 434.266 784.374 429.221 790.107C422.075 798.229 409.51 798.5 402.021 790.693L360.069 746.961Z" fill="#26249E"/>
<path d="M355.889 759.72C367.83 750.148 383.003 727.365 391.681 708.158C401.494 686.442 403.916 664.016 404.918 656.368" stroke="#363BBC" stroke-width="25.6456" stroke-linecap="round"/>
<path d="M334.935 737.141C353.248 716.757 365.776 695.665 374.195 669.763" stroke="#363BBC" stroke-width="25.6456" stroke-linecap="round"/>
<path d="M359.672 756.957C374.914 750.516 412.325 728.464 440.029 691.784" stroke="#363BBC" stroke-width="25.6456" stroke-linecap="round"/>
<path d="M448.156 731.347C435.646 738.132 406.411 754.098 389.552 763.673C372.694 773.249 363.123 773.125 360.445 771.866" stroke="#363BBC" stroke-width="25.6456" stroke-linecap="round"/>
<path d="M390.839 802.557C400.155 787.693 422.171 755.687 435.699 746.576M356.637 775.77C358.412 773.673 394.263 767.804 425.571 703.593" stroke="#4B51DC" stroke-width="18.6513" stroke-linecap="round"/>
<path d="M345.637 755.407C347.944 751.301 361.451 735.902 397.022 707.149" stroke="#4B51DC" stroke-width="18.6513" stroke-linecap="round"/>
<path d="M321.888 734.913C323.34 733.623 375.554 706.975 393.566 658.219" stroke="#4B51DC" stroke-width="18.6513" stroke-linecap="round"/>
<path fill-rule="evenodd" clip-rule="evenodd" d="M267 376C267 367.716 260.284 361 252 361H-16.5C-29.4787 361 -40 371.521 -40 384.5V388C-40 399.046 -31.0457 408 -20 408V408C-8.95431 408 0 416.954 0 428V471V479V542V552V624V630V780C0 798.225 14.7746 813 33 813H46C64.2254 813 79 798.225 79 780V663C79 644.775 93.7746 630 112 630H147C165.225 630 180 615.225 180 597V572C180 555.431 166.569 542 150 542V542C133.431 542 120 528.569 120 512V510.5C120 493.103 134.103 479 151.5 479H320C338.225 479 353 464.225 353 446V424C353 405.775 338.225 391 320 391H282C273.716 391 267 384.284 267 376V376Z" fill="#363BBC"/>
<rect opacity="0.5" x="-23" y="410" width="253" height="22" rx="11" fill="#4B51DC"/>
<rect opacity="0.2" x="-5" y="383" width="253" height="22" rx="11" fill="#281280"/>
<rect opacity="0.5" x="-23" y="596" width="83" height="22" rx="11" fill="#4B51DC"/>
<rect opacity="0.5" x="52" y="571" width="36" height="22" rx="11" fill="#4B51DC"/>
<rect opacity="0.5" x="63" y="543" width="31" height="22" rx="11" fill="#4B51DC"/>
<rect x="-23" y="531" width="75" height="54" rx="27" fill="#0D1179"/>
<rect width="34" height="71" rx="16" transform="matrix(-0.996381 0.0849975 0.0849975 0.996381 1282.18 540.017)" fill="#26249E"/>
<rect width="34" height="82" rx="16" transform="matrix(-0.996381 0.0849975 0.0849975 0.996381 1301.15 527.019)" fill="#26249E"/>
<rect width="33.388" height="64.6448" rx="16" transform="matrix(-0.996381 0.0849975 0.0849975 0.996381 1252.27 530.524)" fill="#26249E"/>
<rect width="33.388" height="64.6448" rx="16" transform="matrix(-0.996381 0.0849975 0.0849975 0.996381 1318.48 541.982)" fill="#26249E"/>
<rect width="33.388" height="39.7814" rx="16" transform="matrix(-0.996381 0.0849975 0.0849975 0.996381 1281.38 575.092)" fill="#26249E"/>
<path d="M1316.46 593.487L1313.5 558.805" stroke="#26249E" stroke-width="8" stroke-linecap="round"/>
<path d="M1277.77 599.64L1276.68 586.899" stroke="#26249E" stroke-width="8" stroke-linecap="round"/>
<path d="M1492 253.508C1492 154.369 1572.37 74 1671.51 74H1920V274H1512.49C1501.17 274 1492 264.826 1492 253.508V253.508Z" fill="#221E9C"/>
<path fill-rule="evenodd" clip-rule="evenodd" d="M1622 274.18C1624.48 274.06 1626.99 274 1629.5 274C1709.39 274 1775.02 335.025 1782.32 413H1920V274H1629.5H1622V274.18Z" fill="#221E9C"/>
<path fill-rule="evenodd" clip-rule="evenodd" d="M1820.21 633.752H1920V533H1709.44H1704V533.13C1705.8 533.044 1707.61 533 1709.44 533C1767.34 533 1814.91 577.233 1820.21 633.752Z" fill="#221E9C"/>
<path d="M1646 473.5C1646 440.087 1673.09 413 1706.5 413H1920V534H1706.5C1673.09 534 1646 506.913 1646 473.5V473.5Z" fill="#221E9C"/>
<path d="M1704 387.5C1704 372.864 1715.86 361 1730.5 361H1920V414H1730.5C1715.86 414 1704 402.136 1704 387.5V387.5Z" fill="#221E9C"/>
<path d="M1721 334.5C1721 319.864 1732.86 308 1747.5 308H1920V361H1747.5C1732.86 361 1721 349.136 1721 334.5V334.5Z" fill="#221E9C"/>
<rect x="1821" y="634" width="99" height="255" fill="#221E9C"/>
<rect x="1812" y="355" width="81" height="33" rx="16.5" fill="#0D1179"/>
<rect opacity="0.5" x="1680" y="424" width="107" height="23" rx="11.5" fill="#363BBC"/>
<rect opacity="0.5" x="1836" y="395" width="94" height="23" rx="11.5" fill="#363BBC"/>
<rect opacity="0.5" x="1898" y="372" width="94" height="23" rx="11.5" fill="#363BBC"/>
<rect x="1778" y="300" width="81" height="61" rx="30" fill="#0D1179"/>
<rect x="1690" y="458" width="131" height="31" rx="15.5" fill="#0D1179"/>
<path opacity="0.3" d="M1859.5 105.5H1676.78C1599.83 105.5 1535.25 163.493 1527 240V240" stroke="#363BBC" stroke-width="35" stroke-linecap="round"/>
<circle opacity="0.5" cx="1732" cy="388" r="15" fill="#363BBC"/>
<rect x="1584" y="215" width="163" height="31" rx="15.5" fill="#0D1179"/>
<rect x="1602" y="274" width="145" height="55" rx="27.5" fill="#221E9C"/>
<rect opacity="0.5" x="1639" y="253" width="111" height="15" rx="7.5" fill="#363BBC"/>
<rect opacity="0.5" x="1752" y="238" width="51" height="15" rx="7.5" fill="#363BBC"/>
<rect opacity="0.5" x="1757" y="216" width="34" height="15" rx="7.5" fill="#363BBC"/>
<path d="M1726.78 662C1729.43 651.576 1732.56 627.964 1723.89 616.909C1714.62 605.087 1724.65 598.855 1720.05 582.727M1707.64 540.909C1706.44 544.061 1706.49 555.018 1716.31 573.636C1718.08 576.999 1719.28 580.004 1720.05 582.727M1720.05 582.727C1724.82 581.152 1733.93 575.164 1732.2 563.818C1730.46 552.473 1727.86 536.303 1726.78 529.636M1732.2 662C1738.82 652.788 1750.69 628.764 1745.2 606.364C1738.34 578.364 1744.12 581.636 1750.98 567.455C1757.84 553.273 1750.98 539.818 1745.2 529.636C1740.58 521.491 1747.12 513.152 1750.98 510M1723.89 662C1716.3 661.008 1703.52 655.157 1702.46 639.818M1699.34 563.818C1698.25 567.091 1696.74 576.036 1699.34 585.636C1702.59 597.636 1711.25 598 1703.67 628.182C1702.57 632.559 1702.23 636.421 1702.46 639.818M1702.46 639.818C1690.59 638.485 1667.99 630.509 1672.61 609.273C1678.39 582.727 1689.23 582 1680.92 557.636C1672.61 533.273 1689.23 529.273 1680.92 512.545" stroke="#5D5AF4" stroke-width="8.94118" stroke-linecap="round"/>
<path d="M533.732 586.655C533.727 586.66 533.727 586.668 533.732 586.674C533.737 586.679 533.737 586.687 533.732 586.693C531.708 588.727 531.711 592.016 533.741 594.046C535.771 596.077 539.06 596.08 541.094 594.057C541.1 594.052 541.108 594.051 541.114 594.057C541.119 594.062 541.127 594.062 541.132 594.057C545.432 590.069 550.432 587.264 555.717 585.641C557.395 585.125 558.968 584.286 560.21 583.045L561.722 581.532L561.722 581.532L561.722 581.531C565.952 577.204 565.922 570.268 561.632 565.977C557.343 561.687 550.407 561.655 546.078 565.884L546.078 565.884L546.077 565.884L544.902 567.059C543.631 568.329 542.782 569.946 542.273 571.669C540.669 577.102 537.822 582.247 533.732 586.655Z" fill="#4625A0"/>
<path d="M531.6 599.581C531.607 599.583 531.615 599.579 531.617 599.572C531.619 599.565 531.627 599.561 531.634 599.563C534.363 600.451 537.296 598.962 538.191 596.235C539.086 593.507 537.604 590.57 534.88 589.669C534.872 589.666 534.869 589.659 534.871 589.652C534.873 589.645 534.87 589.637 534.863 589.635C529.363 587.599 524.602 584.405 520.767 580.423C519.549 579.159 518.09 578.134 516.422 577.587L514.389 576.92L514.389 576.92L514.388 576.921C508.618 575.101 502.442 578.26 500.551 584.025C498.661 589.79 501.765 595.993 507.492 597.945L507.492 597.945L507.493 597.946L509.072 598.464C510.779 599.024 512.605 599.051 514.372 598.727C519.945 597.705 525.82 597.922 531.6 599.581Z" fill="#4625A0"/>
<path d="M533.838 582.778C533.838 582.785 533.833 582.792 533.826 582.793C533.818 582.793 533.813 582.8 533.814 582.807C534.098 585.663 532.018 588.211 529.162 588.503C526.305 588.794 523.753 586.719 523.454 583.866C523.454 583.858 523.447 583.853 523.439 583.853C523.432 583.854 523.426 583.849 523.425 583.842C522.611 578.034 520.507 572.701 517.435 568.104C516.46 566.645 515.77 565 515.592 563.253L515.375 561.126L515.375 561.125L515.375 561.125C514.83 555.099 519.235 549.74 525.271 549.124C531.306 548.508 536.703 552.865 537.388 558.877L537.388 558.877L537.388 558.878L537.557 560.531C537.74 562.318 537.377 564.108 536.683 565.765C534.494 570.991 533.451 576.777 533.838 582.778Z" fill="#4625A0"/>
<path d="M544.582 647.512C544.574 647.511 544.568 647.504 544.569 647.497C544.569 647.489 544.563 647.482 544.555 647.481C541.475 647.249 539.162 644.567 539.387 641.484C539.611 638.401 542.289 636.083 545.37 636.3C545.378 636.3 545.385 636.294 545.386 636.286C545.386 636.278 545.393 636.272 545.401 636.273C551.71 636.495 557.758 635.262 563.206 632.864C564.936 632.103 566.809 631.679 568.694 631.817L570.99 631.984L570.991 631.984L570.991 631.985C577.482 632.533 582.34 638.205 581.866 644.72C581.391 651.234 575.762 656.142 569.26 655.744L569.259 655.744L569.259 655.744L567.474 655.614C565.545 655.474 563.715 654.754 562.088 653.709C556.957 650.411 551.016 648.224 544.582 647.512Z" fill="#4625A0"/>
<path d="M549.802 622.029C549.795 622.032 549.787 622.029 549.783 622.022C549.78 622.014 549.771 622.012 549.764 622.015C546.984 623.362 543.636 622.206 542.282 619.428C540.927 616.649 542.077 613.3 544.85 611.939C544.857 611.935 544.86 611.926 544.856 611.919C544.853 611.912 544.856 611.903 544.863 611.9C550.429 608.922 555.038 604.816 558.544 600.006C559.657 598.478 561.064 597.171 562.762 596.342L564.832 595.333L564.832 595.333L564.833 595.333C570.72 592.546 577.771 595.008 580.634 600.879C583.497 606.75 581.097 613.822 575.275 616.745L575.275 616.745L575.275 616.746L573.666 617.53C571.928 618.378 569.984 618.675 568.052 618.589C561.958 618.317 555.723 619.411 549.802 622.029Z" fill="#4625A0"/>
<path d="M536.102 624.039C536.11 624.04 536.117 624.035 536.119 624.027C536.121 624.019 536.128 624.014 536.136 624.016C539.168 624.606 542.108 622.63 542.706 619.598C543.304 616.565 541.335 613.622 538.305 613.016C538.298 613.015 538.292 613.007 538.294 612.999C538.295 612.992 538.291 612.984 538.283 612.982C532.139 611.529 526.632 608.741 522.011 604.989C520.544 603.798 518.85 602.895 516.995 602.529L514.736 602.083L514.736 602.084L514.736 602.084C508.33 600.897 502.146 605.084 500.882 611.492C499.618 617.9 503.75 624.121 510.126 625.456L510.126 625.456L510.127 625.457L511.883 625.803C513.78 626.177 515.735 625.967 517.581 625.388C523.401 623.564 529.708 623.025 536.102 624.039Z" fill="#4625A0"/>
<path d="M533.019 647.617C533.027 647.617 533.033 647.61 533.033 647.602C533.033 647.594 533.04 647.588 533.048 647.588C536.137 647.597 538.653 645.105 538.67 642.014C538.688 638.923 536.2 636.402 533.111 636.377C533.103 636.377 533.096 636.37 533.096 636.362C533.096 636.355 533.09 636.348 533.082 636.348C526.775 636.076 520.842 634.373 515.598 631.556C513.933 630.662 512.099 630.093 510.209 630.082L507.907 630.069L507.906 630.07L507.906 630.07C501.392 630.109 496.105 635.383 496.068 641.915C496.032 648.446 501.259 653.78 507.772 653.892L507.773 653.892L507.773 653.892L509.563 653.902C511.497 653.913 513.378 653.339 515.081 652.424C520.455 649.539 526.549 647.823 533.019 647.617Z" fill="#4625A0"/>
<path d="M527.802 674C529.104 652.522 546.808 638.003 542.771 615.425C539.256 595.771 529.407 585.835 527.802 581.322" stroke="#4625A0" stroke-width="7.54956" stroke-linecap="round"/>
<path d="M624.905 572.661C624.908 572.664 624.908 572.669 624.905 572.673C624.902 572.676 624.902 572.681 624.905 572.684C626.144 573.929 626.142 575.943 624.9 577.185C623.657 578.428 621.644 578.43 620.399 577.192C620.395 577.189 620.39 577.189 620.387 577.192C620.384 577.195 620.379 577.195 620.375 577.192C617.743 574.751 614.683 573.034 611.448 572.04C610.421 571.725 609.458 571.211 608.698 570.451L607.772 569.526L607.772 569.525L607.772 569.525C605.183 566.876 605.202 562.631 607.827 560.004C610.453 557.378 614.698 557.359 617.348 559.947L617.348 559.947L617.348 559.947L618.068 560.667C618.846 561.444 619.365 562.434 619.677 563.488C620.659 566.814 622.402 569.963 624.905 572.661Z" fill="#4625A0"/>
<path d="M626.209 580.573C626.205 580.574 626.2 580.572 626.199 580.567C626.198 580.563 626.193 580.561 626.189 580.562C624.518 581.105 622.723 580.194 622.175 578.525C621.627 576.855 622.535 575.057 624.202 574.506C624.206 574.504 624.209 574.499 624.207 574.495C624.206 574.491 624.208 574.486 624.212 574.485C627.579 573.239 630.493 571.284 632.84 568.846C633.586 568.072 634.479 567.445 635.5 567.11L636.744 566.702L636.744 566.702L636.745 566.702C640.277 565.589 644.057 567.523 645.214 571.051C646.372 574.58 644.471 578.377 640.966 579.571L640.966 579.572L640.965 579.572L639.999 579.889C638.954 580.232 637.836 580.249 636.755 580.05C633.344 579.424 629.747 579.557 626.209 580.573Z" fill="#4625A0"/>
<path d="M624.84 570.288C624.84 570.292 624.843 570.296 624.847 570.297C624.852 570.297 624.855 570.301 624.855 570.306C624.681 572.054 625.954 573.613 627.702 573.792C629.45 573.97 631.013 572.7 631.196 570.954C631.196 570.949 631.2 570.946 631.205 570.946C631.209 570.947 631.213 570.943 631.214 570.939C631.712 567.384 633 564.12 634.88 561.306C635.477 560.413 635.899 559.406 636.008 558.337L636.141 557.035L636.141 557.034L636.141 557.034C636.474 553.345 633.778 550.066 630.084 549.688C626.39 549.311 623.086 551.978 622.667 555.658L622.667 555.658L622.667 555.658L622.563 556.671C622.452 557.765 622.674 558.86 623.099 559.874C624.438 563.073 625.076 566.615 624.84 570.288Z" fill="#4625A0"/>
<path d="M618.263 609.911C618.268 609.911 618.272 609.907 618.271 609.902C618.271 609.897 618.275 609.893 618.28 609.892C620.165 609.75 621.581 608.109 621.443 606.222C621.306 604.335 619.667 602.916 617.781 603.048C617.776 603.049 617.772 603.045 617.771 603.04C617.771 603.035 617.767 603.032 617.762 603.032C613.9 603.168 610.198 602.413 606.863 600.946C605.804 600.48 604.658 600.22 603.504 600.304L602.099 600.407L602.098 600.407L602.098 600.407C598.125 600.743 595.151 604.215 595.442 608.202C595.733 612.19 599.178 615.194 603.158 614.95L603.158 614.95L603.158 614.951L604.251 614.871C605.432 614.785 606.552 614.344 607.548 613.704C610.689 611.686 614.325 610.347 618.263 609.911Z" fill="#4625A0"/>
<path d="M615.068 594.313C615.072 594.315 615.077 594.313 615.079 594.309C615.081 594.305 615.087 594.303 615.091 594.305C616.793 595.129 618.842 594.422 619.671 592.721C620.5 591.021 619.797 588.97 618.099 588.137C618.095 588.135 618.093 588.13 618.095 588.125C618.097 588.121 618.096 588.116 618.091 588.113C614.684 586.29 611.863 583.777 609.717 580.833C609.036 579.898 608.175 579.098 607.135 578.591L605.868 577.973L605.868 577.973L605.868 577.973C602.264 576.267 597.948 577.774 596.196 581.368C594.443 584.961 595.912 589.29 599.476 591.079L599.476 591.079L599.476 591.08L600.461 591.56C601.525 592.079 602.715 592.261 603.897 592.208C607.627 592.041 611.443 592.711 615.068 594.313Z" fill="#4625A0"/>
<path d="M623.454 595.543C623.449 595.544 623.444 595.541 623.443 595.536C623.442 595.531 623.438 595.528 623.433 595.529C621.577 595.89 619.778 594.681 619.411 592.825C619.045 590.969 620.251 589.167 622.105 588.797C622.11 588.796 622.113 588.791 622.112 588.786C622.111 588.781 622.114 588.777 622.119 588.776C625.88 587.886 629.25 586.18 632.079 583.883C632.977 583.154 634.014 582.601 635.149 582.377L636.532 582.104L636.532 582.105L636.532 582.105C640.453 581.379 644.238 583.941 645.012 587.864C645.785 591.786 643.256 595.594 639.354 596.411L639.353 596.411L639.353 596.411L638.278 596.623C637.117 596.852 635.92 596.723 634.791 596.369C631.228 595.253 627.367 594.923 623.454 595.543Z" fill="#4625A0"/>
<path d="M625.341 609.976C625.337 609.975 625.333 609.972 625.333 609.967C625.333 609.962 625.329 609.958 625.324 609.958C623.433 609.964 621.893 608.438 621.882 606.546C621.872 604.654 623.394 603.111 625.285 603.096C625.29 603.096 625.294 603.092 625.294 603.087C625.294 603.082 625.298 603.078 625.303 603.078C629.164 602.911 632.795 601.869 636.005 600.145C637.024 599.598 638.147 599.249 639.303 599.243L640.713 599.235L640.713 599.235L640.713 599.235C644.701 599.259 647.937 602.487 647.959 606.485C647.982 610.483 644.782 613.748 640.795 613.816L640.795 613.817L640.794 613.817L639.699 613.823C638.515 613.83 637.364 613.478 636.321 612.918C633.032 611.152 629.302 610.102 625.341 609.976Z" fill="#4625A0"/>
<path d="M628.535 626.124C627.738 612.978 616.901 604.091 619.372 590.271C621.524 578.24 627.552 572.159 628.535 569.396" stroke="#4625A0" stroke-width="4.62109" stroke-linecap="round"/>
<path d="M467.086 689C469.072 681.182 471.42 663.473 464.919 655.182C457.968 646.315 465.488 641.641 462.04 629.545M452.732 598.182C451.829 600.545 451.865 608.764 459.232 622.727C460.562 625.249 461.457 627.503 462.04 629.545M462.04 629.545C465.618 628.364 472.449 623.873 471.149 615.364C469.849 606.855 467.899 594.727 467.086 589.727M471.149 689C476.114 682.091 485.016 664.073 480.899 647.273C475.753 626.273 480.086 628.727 485.232 618.091C490.378 607.455 485.232 597.364 480.899 589.727C477.432 583.618 482.343 577.364 485.232 575M464.919 689C459.228 688.256 449.64 683.868 448.847 672.364M446.503 615.364C445.69 617.818 444.553 624.527 446.503 631.727C448.94 640.727 455.44 641 449.753 663.636C448.928 666.92 448.672 669.816 448.847 672.364M448.847 672.364C439.941 671.364 422.994 665.382 426.461 649.455C430.794 629.545 438.919 629 432.69 610.727C426.461 592.455 438.919 589.455 432.69 576.909" stroke="#26249E" stroke-width="6.70588" stroke-linecap="round"/>
<path d="M1853.99 686.142C1858.82 678.81 1864.61 655.991 1849.16 623.371C1829.84 582.597 1832.53 585.816 1843.26 548.797C1853.99 511.778 1829.84 524.654 1839.5 493" stroke="#5D5AF4" stroke-width="7.41627" stroke-linecap="round"/>
<path d="M1848.09 620.152C1846.12 608.17 1845.62 581.309 1859.35 569.721C1861.52 567.887 1863.48 566.235 1865.25 564.713M1884.57 535.921C1880.82 549.979 1877.48 554.214 1865.25 564.713M1865.25 564.713C1863.47 557.083 1860.96 538.925 1865.25 527.337C1869.55 515.748 1869.55 507.844 1869.01 505.34M1859.35 642.149C1870.44 638.93 1892.19 627.878 1890.47 609.422C1888.32 586.352 1890.47 576.338 1900.66 564.713C1908.82 555.414 1907.64 537.709 1906.03 530.019M1893.69 600.838C1898.7 592.254 1910.43 574.549 1917.29 572.403C1924.16 570.257 1924.45 556.487 1923.73 549.87M1853.99 631.955C1860.25 626.233 1872.01 610.28 1869.01 592.254C1866 574.227 1875.27 569.721 1880.28 569.721M1842.18 521.972C1833.24 523.223 1814.93 523.688 1813.21 515.533M1836.28 576.695C1836.1 568.29 1832.53 549.333 1819.65 540.749M1853.99 680.777C1855.78 669.332 1850.12 645.583 1813.21 642.149C1804.69 641.356 1798.55 638.851 1794.2 635.174M1766 535.921C1774.58 539.319 1791.64 549.834 1791.22 564.713C1790.78 579.878 1775 618.94 1794.2 635.174M1794.2 635.174C1794.46 622.119 1796.8 594.078 1804.09 586.352C1811.39 578.627 1810.71 564.534 1809.46 558.454M1836.28 605.13C1829.13 602.269 1813.75 598.263 1809.46 605.13M1853.99 642.149C1844.69 634.459 1822.76 619.616 1809.46 621.762" stroke="#5D5AF4" stroke-width="7.41627" stroke-linecap="round"/>
<rect x="710.236" y="595.881" width="34" height="71" rx="16" transform="rotate(33.5107 710.236 595.881)" fill="#26249E"/>
<rect x="699.821" y="575.385" width="34" height="82" rx="16" transform="rotate(33.5107 699.821 575.385)" fill="#26249E"/>
<rect x="741.042" y="601.886" width="33.388" height="64.6448" rx="16" transform="rotate(33.5107 741.042 601.886)" fill="#26249E"/>
<rect x="677.436" y="580.211" width="33.388" height="64.6448" rx="16" transform="rotate(33.5107 677.436 580.211)" fill="#26249E"/>
<rect x="694.133" y="627.051" width="33.388" height="39.7814" rx="16" transform="rotate(33.5107 694.133 627.051)" fill="#26249E"/>
<path d="M654.528 626.386L673.746 597.363" stroke="#26249E" stroke-width="8" stroke-linecap="round"/>
<path d="M685.536 650.327L692.596 639.665" stroke="#26249E" stroke-width="8" stroke-linecap="round"/>
<rect width="34" height="71" rx="16" transform="matrix(-0.996381 0.0849975 0.0849975 0.996381 827.459 601.11)" fill="#26249E"/>
<rect width="34" height="82" rx="16" transform="matrix(-0.996381 0.0849975 0.0849975 0.996381 846.423 588.112)" fill="#26249E"/>
<rect width="33.388" height="64.6448" rx="16" transform="matrix(-0.996381 0.0849975 0.0849975 0.996381 797.544 591.618)" fill="#26249E"/>
<rect width="33.388" height="64.6448" rx="16" transform="matrix(-0.996381 0.0849975 0.0849975 0.996381 863.757 603.076)" fill="#26249E"/>
<rect width="33.388" height="39.7814" rx="16" transform="matrix(-0.996381 0.0849975 0.0849975 0.996381 826.656 636.186)" fill="#26249E"/>
<path d="M861.734 654.581L858.775 619.898" stroke="#26249E" stroke-width="8" stroke-linecap="round"/>
<path d="M823.046 660.734L821.959 647.993" stroke="#26249E" stroke-width="8" stroke-linecap="round"/>
<rect width="9.65957" height="100.577" transform="matrix(-0.992995 0.118159 0.118159 0.992995 1056.08 526.969)" fill="#26249E"/>
<ellipse cx="4.82978" cy="4.52597" rx="4.82978" ry="4.52597" transform="matrix(-0.992995 0.118159 0.118159 0.992995 1055.54 522.375)" fill="#26249E"/>
<ellipse cx="4.82978" cy="4.52597" rx="4.82978" ry="4.52597" transform="matrix(-0.992995 0.118159 0.118159 0.992995 1067.42 622.247)" fill="#26249E"/>
<rect width="12.2911" height="94.8509" transform="matrix(-0.9882 0.153167 0.153167 0.9882 1040.3 524.132)" fill="#26249E"/>
<ellipse cx="6.14555" cy="4.26829" rx="6.14555" ry="4.26829" transform="matrix(-0.9882 0.153167 0.153167 0.9882 1039.63 519.82)" fill="#26249E"/>
<ellipse cx="6.14555" cy="4.26829" rx="6.14555" ry="4.26829" transform="matrix(-0.9882 0.153167 0.153167 0.9882 1054.16 613.552)" fill="#26249E"/>
<rect width="13.2245" height="88.1632" transform="matrix(-0.999845 -0.0176059 -0.0176059 0.999845 1061.58 543.224)" fill="#26249E"/>
<path d="M1049.35 542.92C1049.34 543.529 1049.74 544.258 1050.77 544.899C1051.78 545.527 1053.24 545.963 1054.92 545.992C1056.59 546.022 1058.07 545.638 1059.1 545.045C1060.15 544.441 1060.57 543.727 1060.59 543.118C1060.6 542.509 1060.19 541.781 1059.17 541.14C1058.16 540.512 1056.7 540.076 1055.02 540.046C1053.34 540.017 1051.87 540.401 1050.84 540.993C1049.79 541.597 1049.36 542.311 1049.35 542.92Z" fill="#26249E" stroke="#363BBC" stroke-width="1.98822"/>
<ellipse cx="6.61224" cy="3.96734" rx="6.61224" ry="3.96734" transform="matrix(-0.999845 -0.0176059 -0.0176059 0.999845 1060.1 627.318)" fill="#26249E"/>
<rect width="8.52189" height="97.508" transform="matrix(-0.774979 0.631987 0.631987 0.774979 993.625 546.329)" fill="#26249E"/>
<path d="M987.933 551.207C988.048 551.348 988.373 551.534 989.081 551.422C989.759 551.314 990.601 550.944 991.402 550.291C992.202 549.639 992.734 548.888 992.976 548.245C993.228 547.575 993.111 547.218 992.996 547.077C992.881 546.936 992.556 546.75 991.848 546.862C991.17 546.97 990.328 547.34 989.527 547.993C988.727 548.645 988.195 549.396 987.953 550.039C987.701 550.709 987.818 551.065 987.933 551.207Z" fill="#26249E" stroke="#363BBC" stroke-width="1.98822"/>
<ellipse cx="4.26095" cy="4.38786" rx="4.26095" ry="4.38786" transform="matrix(-0.774979 0.631987 0.631987 0.774979 1052.41 618.419)" fill="#26249E"/>
<rect width="8.52189" height="97.508" transform="matrix(-0.774979 0.631987 0.631987 0.774979 993.625 546.329)" fill="#26249E"/>
<path d="M987.933 551.207C988.048 551.348 988.373 551.534 989.081 551.422C989.759 551.314 990.601 550.944 991.402 550.291C992.202 549.639 992.734 548.888 992.976 548.245C993.228 547.575 993.111 547.218 992.996 547.077C992.881 546.936 992.556 546.75 991.848 546.862C991.17 546.97 990.328 547.34 989.527 547.993C988.727 548.645 988.195 549.396 987.953 550.039C987.701 550.709 987.818 551.065 987.933 551.207Z" fill="#26249E" stroke="#363BBC" stroke-width="1.98822"/>
<ellipse cx="4.26095" cy="4.38786" rx="4.26095" ry="4.38786" transform="matrix(-0.774979 0.631987 0.631987 0.774979 1052.41 618.419)" fill="#26249E"/>
<path fill-rule="evenodd" clip-rule="evenodd" d="M1029.05 589.765L1010.52 567.049L1024.02 597.082L1042.54 619.798L1029.05 589.765Z" fill="#26249E"/>
<rect width="11.4875" height="110.457" transform="matrix(-0.912143 0.409873 0.409873 0.912143 1012.46 529.423)" fill="#26249E"/>
<path d="M1002.85 533.623C1003.69 535.507 1006.29 536.436 1008.81 535.303C1011.33 534.171 1012.36 531.614 1011.51 529.729C1010.67 527.845 1008.07 526.917 1005.55 528.049C1003.03 529.182 1002 531.738 1002.85 533.623Z" fill="#26249E" stroke="#363BBC" stroke-width="1.98822"/>
<ellipse cx="5.74375" cy="4.97055" rx="5.74375" ry="4.97055" transform="matrix(-0.912143 0.409873 0.409873 0.912143 1055.66 625.541)" fill="#26249E"/>
<rect width="10.1741" height="82.8182" transform="matrix(-0.585002 0.811032 0.811032 0.585002 983.444 577.322)" fill="#26249E"/>
<path d="M978.007 584.719C978.523 585.091 979.262 585.194 980.127 584.913C980.992 584.633 981.906 583.984 982.617 582.998C983.329 582.012 983.655 580.94 983.649 580.031C983.642 579.122 983.311 578.452 982.796 578.08C982.28 577.708 981.54 577.606 980.675 577.886C979.811 578.167 978.896 578.815 978.185 579.801C977.474 580.787 977.147 581.859 977.154 582.768C977.16 583.677 977.491 584.347 978.007 584.719Z" fill="#26249E" stroke="#363BBC" stroke-width="1.98822"/>
<ellipse cx="5.08704" cy="3.72682" rx="5.08704" ry="3.72682" transform="matrix(-0.585002 0.811032 0.811032 0.585002 1047.52 623.543)" fill="#26249E"/>
<path opacity="0.2" d="M1012.07 536.688L1050.46 622.133" stroke="#26249E" stroke-width="2.63874" stroke-linecap="round"/>
<path opacity="0.2" d="M1058.83 548.219L1058.45 610.948" stroke="#26249E" stroke-width="2.63874" stroke-linecap="round"/>
<path opacity="0.2" d="M994.635 551.392L1022.31 585.241" stroke="#26249E" stroke-width="2.63874" stroke-linecap="round"/>
<path opacity="0.4" d="M985.496 582.98L1045.86 626.372" stroke="#26249E" stroke-width="2.63874" stroke-linecap="round"/>
<rect width="13.2245" height="54.1231" transform="matrix(-0.25874 0.965947 0.965947 0.25874 998.543 611.755)" fill="#26249E"/>
<path d="M995.307 623.552C995.307 623.552 995.309 623.553 995.312 623.552C995.309 623.552 995.307 623.552 995.307 623.552ZM995.181 623.332C995.249 623.47 995.302 623.528 995.328 623.55C995.362 623.544 995.437 623.52 995.565 623.434C995.796 623.278 996.094 622.982 996.422 622.517C997.074 621.594 997.723 620.182 998.173 618.502C998.623 616.821 998.767 615.274 998.664 614.148C998.612 613.581 998.502 613.177 998.379 612.925C998.312 612.787 998.259 612.729 998.233 612.707C998.199 612.713 998.124 612.737 997.996 612.823C997.764 612.979 997.467 613.275 997.139 613.74C996.487 614.663 995.838 616.075 995.388 617.756C994.938 619.436 994.794 620.983 994.897 622.109C994.949 622.676 995.059 623.081 995.181 623.332ZM998.216 612.695C998.216 612.695 998.217 612.696 998.22 612.697C998.217 612.695 998.216 612.695 998.216 612.695ZM998.253 612.705C998.253 612.705 998.252 612.704 998.249 612.705C998.252 612.705 998.253 612.705 998.253 612.705ZM995.341 623.56C995.344 623.562 995.345 623.563 995.345 623.562C995.345 623.562 995.344 623.561 995.341 623.56Z" fill="#26249E" stroke="#363BBC" stroke-width="1.98822"/>
<ellipse cx="6.61224" cy="2.43554" rx="6.61224" ry="2.43554" transform="matrix(-0.25874 0.965947 0.965947 0.25874 1048.42 625.115)" fill="#26249E"/>
<rect width="7.54591" height="72.5569" transform="matrix(-0.961798 0.27376 0.27376 0.961798 1040.25 560.262)" fill="#26249E"/>
<path d="M1033.93 561.986C1034.24 563.067 1035.61 563.868 1037.22 563.409C1038.83 562.951 1039.58 561.545 1039.27 560.464C1038.96 559.383 1037.59 558.582 1035.98 559.041C1034.37 559.499 1033.62 560.905 1033.93 561.986Z" fill="#26249E" stroke="#363BBC" stroke-width="1.98822"/>
<ellipse cx="3.77296" cy="3.26506" rx="3.77296" ry="3.26506" transform="matrix(-0.961798 0.27376 0.27376 0.961798 1059.2 626.837)" fill="#26249E"/>
<rect width="10.8753" height="51.0862" transform="matrix(-0.996392 0.0848667 0.0848667 0.996392 1069.84 574.729)" fill="#26249E"/>
<path d="M1059.99 575.512C1059.99 575.512 1059.99 575.513 1059.99 575.516C1059.99 575.513 1059.99 575.512 1059.99 575.512ZM1060.11 575.314C1060.01 575.434 1059.99 575.499 1059.99 575.517C1060 575.534 1060.02 575.596 1060.14 575.696C1060.31 575.838 1060.6 576 1061.03 576.141C1061.9 576.421 1063.13 576.559 1064.53 576.44C1065.93 576.321 1067.12 575.976 1067.93 575.554C1068.33 575.341 1068.59 575.133 1068.73 574.965C1068.83 574.846 1068.84 574.78 1068.85 574.763C1068.84 574.746 1068.81 574.684 1068.7 574.583C1068.53 574.442 1068.24 574.28 1067.8 574.139C1066.94 573.858 1065.71 573.721 1064.31 573.84C1062.91 573.959 1061.72 574.304 1060.91 574.726C1060.51 574.938 1060.25 575.146 1060.11 575.314ZM1068.85 574.758C1068.85 574.758 1068.85 574.759 1068.85 574.762C1068.85 574.759 1068.85 574.758 1068.85 574.758ZM1068.85 574.767C1068.85 574.767 1068.85 574.766 1068.85 574.764C1068.85 574.766 1068.85 574.767 1068.85 574.767ZM1059.99 575.518C1059.99 575.52 1059.99 575.522 1059.99 575.522C1059.99 575.522 1059.99 575.52 1059.99 575.518Z" fill="#26249E" stroke="#363BBC" stroke-width="1.98822"/>
<ellipse cx="5.43765" cy="2.29888" rx="5.43765" ry="2.29888" transform="matrix(-0.996392 0.0848667 0.0848667 0.996392 1073.98 623.29)" fill="#26249E"/>
<rect width="10.8753" height="31.2899" transform="matrix(-0.938877 0.344252 0.344252 0.938877 1057.59 600.449)" fill="#26249E"/>
<path d="M1048.48 603.93C1048.57 604.173 1048.92 604.536 1049.88 604.671C1050.8 604.799 1052.02 604.67 1053.31 604.198C1054.59 603.726 1055.61 603.035 1056.22 602.347C1056.87 601.623 1056.91 601.114 1056.82 600.871C1056.73 600.628 1056.37 600.266 1055.41 600.13C1054.5 600.002 1053.28 600.131 1051.99 600.603C1050.7 601.075 1049.69 601.766 1049.07 602.455C1048.43 603.179 1048.39 603.687 1048.48 603.93Z" fill="#26249E" stroke="#363BBC" stroke-width="1.98822"/>
<ellipse cx="5.43765" cy="1.40805" rx="5.43765" ry="1.40805" transform="matrix(-0.938877 0.344252 0.344252 0.938877 1067.87 628.476)" fill="#26249E"/>
<rect width="35.8022" height="22.6747" rx="11.3374" transform="matrix(-1 0 0 1 126.031 331)" fill="#9A37BA"/>
<rect width="52.1121" height="41.3714" rx="17.9011" transform="matrix(-1 0 0 1 75.1123 344.525)" fill="#9A37BA"/>
<rect width="52" height="24" rx="12" transform="matrix(-1 0 0 1 344 386)" fill="#9A37BA"/>
<rect width="109.793" height="30.233" rx="15.1165" transform="matrix(-1 0 0 1 200.021 348.503)" fill="#A43CC3"/>
<rect width="38.9846" height="25.0615" rx="12.5308" transform="matrix(-1 0 0 1 154.274 341.343)" fill="#B23EA8"/>
<rect x="278" y="379" width="38.9846" height="25.0615" rx="12.5308" fill="#B23EA8"/>
<rect width="29.8352" height="13.1275" rx="6.56374" transform="matrix(-1 0 0 1 101.367 350.89)" fill="#9A37BA"/>
<rect width="64.0462" height="19.4923" rx="9.74615" transform="matrix(-1 0 0 1 99.7754 359.244)" fill="#B23EA8"/>
<rect width="13.1275" height="7.16044" rx="3.58022" transform="matrix(-1 0 0 1 138.127 344.923)" fill="#CE41AA"/>
<rect x="285.16" y="382.58" width="13.1275" height="7.16044" rx="3.58022" fill="#CE41AA"/>
<rect width="13.1275" height="3.18242" rx="1.59121" transform="matrix(-1 0 0 1 117.677 334.183)" fill="#A43CC3"/>
<rect opacity="0.5" width="40.5758" height="5.17143" rx="2.58571" transform="matrix(-1 0 0 1 83.5762 361.233)" fill="#E2609D"/>
<rect width="35.8022" height="22.6747" rx="11.3374" transform="matrix(-1 0 0 1 204 334.183)" fill="#9A37BA"/>
<rect opacity="0.5" width="18.2989" height="8.35385" rx="4.17692" transform="matrix(-1 0 0 1 199.624 337.763)" fill="#B23EA8"/>
<rect width="43.7582" height="8.35385" rx="4.17692" transform="matrix(-1 0 0 1 190.758 367)" fill="#9A37BA"/>
<rect width="9.65957" height="100.577" transform="matrix(-0.876671 -0.481091 -0.481091 0.876671 280.836 284.99)" fill="#363BBC"/>
<ellipse cx="4.82978" cy="4.52597" rx="4.82978" ry="4.52597" transform="matrix(-0.876671 -0.481091 -0.481091 0.876671 283.062 280.935)" fill="#363BBC"/>
<ellipse cx="4.82978" cy="4.52597" rx="4.82978" ry="4.52597" transform="matrix(-0.876671 -0.481091 -0.481091 0.876671 234.675 369.107)" fill="#363BBC"/>
<rect width="12.2911" height="94.8509" transform="matrix(-0.89312 -0.449819 -0.449819 0.89312 269.644 273.509)" fill="#363BBC"/>
<ellipse cx="6.14555" cy="4.26829" rx="6.14555" ry="4.26829" transform="matrix(-0.89312 -0.449819 -0.449819 0.89312 271.606 269.611)" fill="#363BBC"/>
<ellipse cx="6.14555" cy="4.26829" rx="6.14555" ry="4.26829" transform="matrix(-0.89312 -0.449819 -0.449819 0.89312 228.94 354.324)" fill="#363BBC"/>
<rect width="13.2245" height="88.1632" transform="matrix(-0.803324 -0.595543 -0.595543 0.803324 275.857 301.41)" fill="#363BBC"/>
<path d="M266.085 294.056C265.722 294.545 265.627 295.373 266.09 296.49C266.544 297.587 267.48 298.791 268.827 299.79C270.174 300.789 271.599 301.335 272.78 301.45C273.984 301.568 274.748 301.237 275.111 300.747C275.474 300.258 275.569 299.43 275.106 298.313C274.652 297.216 273.716 296.012 272.369 295.013C271.022 294.015 269.597 293.468 268.416 293.353C267.212 293.235 266.448 293.566 266.085 294.056Z" fill="#363BBC" stroke="#B23EA8" stroke-width="1.98822"/>
<ellipse cx="6.61224" cy="3.96734" rx="6.61224" ry="3.96734" transform="matrix(-0.803324 -0.595543 -0.595543 0.803324 225.768 368.977)" fill="#363BBC"/>
<rect width="8.52189" height="97.508" transform="matrix(-0.997967 0.0637368 0.0637368 0.997967 218.76 264.435)" fill="#363BBC"/>
<path d="M211.293 265.094C211.304 265.276 211.461 265.617 212.102 265.937C212.717 266.244 213.617 266.432 214.648 266.366C215.678 266.3 216.547 265.999 217.118 265.616C217.713 265.218 217.825 264.86 217.813 264.678C217.802 264.496 217.645 264.155 217.004 263.836C216.389 263.529 215.489 263.34 214.459 263.406C213.428 263.472 212.559 263.774 211.988 264.156C211.393 264.555 211.281 264.913 211.293 265.094Z" fill="#363BBC" stroke="#B23EA8" stroke-width="1.98822"/>
<ellipse cx="4.26095" cy="4.38786" rx="4.26095" ry="4.38786" transform="matrix(-0.997967 0.0637368 0.0637368 0.997967 224.688 357.268)" fill="#363BBC"/>
<rect width="8.52189" height="97.508" transform="matrix(-0.997967 0.0637368 0.0637368 0.997967 218.76 264.435)" fill="#363BBC"/>
<path d="M211.293 265.094C211.304 265.276 211.461 265.617 212.102 265.937C212.717 266.244 213.617 266.432 214.648 266.366C215.678 266.3 216.547 265.999 217.118 265.616C217.713 265.218 217.825 264.86 217.813 264.678C217.802 264.496 217.645 264.155 217.004 263.836C216.389 263.529 215.489 263.34 214.459 263.406C213.428 263.472 212.559 263.774 211.988 264.156C211.393 264.555 211.281 264.913 211.293 265.094Z" fill="#363BBC" stroke="#B23EA8" stroke-width="1.98822"/>
<ellipse cx="4.26095" cy="4.38786" rx="4.26095" ry="4.38786" transform="matrix(-0.997967 0.0637368 0.0637368 0.997967 224.688 357.268)" fill="#363BBC"/>
<path fill-rule="evenodd" clip-rule="evenodd" d="M222.332 320.368L220.464 291.116L213.986 323.399L215.855 352.651L222.332 320.368Z" fill="#363BBC"/>
<rect width="11.4875" height="110.457" transform="matrix(-0.980458 -0.196728 -0.196728 0.980458 243.916 261.63)" fill="#363BBC"/>
<path d="M233.65 259.458C233.243 261.483 234.815 263.747 237.524 264.291C240.233 264.834 242.557 263.352 242.963 261.326C243.37 259.301 241.798 257.037 239.089 256.493C236.38 255.95 234.056 257.432 233.65 259.458Z" fill="#363BBC" stroke="#B23EA8" stroke-width="1.98822"/>
<ellipse cx="5.74375" cy="4.97055" rx="5.74375" ry="4.97055" transform="matrix(-0.980458 -0.196728 -0.196728 0.980458 223.186 364.947)" fill="#363BBC"/>
<rect width="10.1741" height="82.8182" transform="matrix(-0.947465 0.319858 0.319858 0.947465 192.46 283.736)" fill="#363BBC"/>
<path d="M183.736 286.594C183.939 287.197 184.481 287.71 185.348 287.985C186.215 288.259 187.336 288.263 188.488 287.874C189.639 287.485 190.529 286.803 191.051 286.059C191.574 285.316 191.695 284.578 191.491 283.976C191.288 283.373 190.745 282.86 189.879 282.585C189.012 282.311 187.891 282.307 186.739 282.696C185.587 283.085 184.698 283.768 184.176 284.511C183.652 285.255 183.532 285.992 183.736 286.594Z" fill="#363BBC" stroke="#B23EA8" stroke-width="1.98822"/>
<ellipse cx="5.08704" cy="3.72682" rx="5.08704" ry="3.72682" transform="matrix(-0.947465 0.319858 0.319858 0.947465 217.731 358.595)" fill="#363BBC"/>
<path opacity="0.2" d="M239.37 267.311L220.942 359.155" stroke="#363BBC" stroke-width="2.63874" stroke-linecap="round"/>
<path opacity="0.2" d="M270.72 303.878L233.946 354.699" stroke="#363BBC" stroke-width="2.63874" stroke-linecap="round"/>
<path opacity="0.2" d="M216.64 269.142L219.483 312.773" stroke="#363BBC" stroke-width="2.63874" stroke-linecap="round"/>
<path opacity="0.4" d="M190.84 289.532L214.73 359.927" stroke="#363BBC" stroke-width="2.63874" stroke-linecap="round"/>
<rect width="13.2245" height="54.1231" transform="matrix(-0.772045 0.635568 0.635568 0.772045 184.729 320.531)" fill="#363BBC"/>
<path d="M175.238 328.249C175.238 328.249 175.239 328.25 175.242 328.252C175.24 328.25 175.238 328.249 175.238 328.249ZM175.264 327.996C175.238 328.148 175.248 328.227 175.256 328.26C175.287 328.274 175.362 328.298 175.516 328.303C175.795 328.31 176.209 328.243 176.747 328.055C177.814 327.682 179.162 326.911 180.506 325.805C181.849 324.699 182.865 323.524 183.436 322.548C183.723 322.057 183.869 321.664 183.915 321.388C183.941 321.236 183.931 321.158 183.923 321.125C183.892 321.11 183.817 321.086 183.663 321.082C183.384 321.074 182.97 321.142 182.432 321.33C181.365 321.702 180.017 322.474 178.673 323.579C177.33 324.685 176.314 325.86 175.743 326.836C175.456 327.328 175.31 327.721 175.264 327.996ZM183.916 321.105C183.916 321.105 183.917 321.107 183.918 321.11C183.917 321.106 183.916 321.105 183.916 321.105ZM183.941 321.135C183.941 321.135 183.94 321.134 183.937 321.132C183.939 321.134 183.941 321.135 183.941 321.135ZM175.261 328.275C175.262 328.278 175.263 328.279 175.263 328.279C175.263 328.279 175.262 328.278 175.261 328.275Z" fill="#363BBC" stroke="#B23EA8" stroke-width="1.98822"/>
<ellipse cx="6.61224" cy="2.43554" rx="6.61224" ry="2.43554" transform="matrix(-0.772045 0.635568 0.635568 0.772045 217.545 360.395)" fill="#363BBC"/>
<rect width="7.54591" height="72.5569" transform="matrix(-0.941738 -0.336346 -0.336346 0.941738 248.598 302.876)" fill="#363BBC"/>
<path d="M242.452 300.604C242.074 301.662 242.729 303.114 244.306 303.677C245.882 304.24 247.308 303.532 247.686 302.473C248.064 301.414 247.41 299.963 245.833 299.4C244.256 298.836 242.831 299.545 242.452 300.604Z" fill="#363BBC" stroke="#B23EA8" stroke-width="1.98822"/>
<ellipse cx="3.77296" cy="3.26506" rx="3.77296" ry="3.26506" transform="matrix(-0.941738 -0.336346 -0.336346 0.941738 225.316 368.062)" fill="#363BBC"/>
<rect width="10.8753" height="51.0862" transform="matrix(-0.860082 -0.510155 -0.510155 0.860082 264.268 331.85)" fill="#363BBC"/>
<path d="M255.797 326.76C255.797 326.76 255.797 326.761 255.796 326.764C255.797 326.761 255.798 326.76 255.797 326.76ZM256.01 326.669C255.859 326.708 255.807 326.751 255.796 326.765C255.79 326.781 255.776 326.847 255.815 326.999C255.869 327.212 256.011 327.512 256.281 327.878C256.819 328.607 257.746 329.439 258.952 330.154C260.157 330.869 261.331 331.284 262.229 331.406C262.68 331.467 263.011 331.448 263.224 331.394C263.376 331.355 263.427 331.311 263.439 331.298C263.445 331.281 263.459 331.215 263.42 331.064C263.365 330.851 263.224 330.551 262.953 330.185C262.416 329.456 261.488 328.624 260.283 327.909C259.077 327.194 257.903 326.779 257.005 326.657C256.554 326.595 256.223 326.615 256.01 326.669ZM263.442 331.294C263.442 331.294 263.441 331.295 263.44 331.297C263.441 331.295 263.442 331.294 263.442 331.294ZM263.437 331.303C263.437 331.303 263.438 331.301 263.438 331.299C263.437 331.301 263.437 331.302 263.437 331.303ZM255.795 326.765C255.793 326.767 255.792 326.768 255.793 326.768C255.793 326.768 255.794 326.767 255.795 326.765Z" fill="#363BBC" stroke="#B23EA8" stroke-width="1.98822"/>
<ellipse cx="5.43765" cy="2.29888" rx="5.43765" ry="2.29888" transform="matrix(-0.860082 -0.510155 -0.510155 0.860082 239.404 373.767)" fill="#363BBC"/>
<rect width="10.8753" height="31.2899" transform="matrix(-0.964066 -0.265664 -0.265664 0.964066 239.346 345.655)" fill="#363BBC"/>
<path d="M229.907 343.19C229.838 343.439 229.92 343.943 230.623 344.611C231.291 345.247 232.361 345.852 233.682 346.216C235.004 346.58 236.233 346.608 237.132 346.405C238.078 346.191 238.406 345.8 238.475 345.551C238.544 345.301 238.462 344.798 237.759 344.129C237.091 343.494 236.021 342.889 234.7 342.525C233.378 342.16 232.149 342.132 231.25 342.336C230.304 342.55 229.976 342.94 229.907 343.19Z" fill="#363BBC" stroke="#B23EA8" stroke-width="1.98822"/>
<ellipse cx="5.43765" cy="1.40805" rx="5.43765" ry="1.40805" transform="matrix(-0.964066 -0.265664 -0.265664 0.964066 231.416 374.433)" fill="#363BBC"/>
<path fill-rule="evenodd" clip-rule="evenodd" d="M16.6181 305.192H-4.19824V367.641H-4.18002C-4.07538 371.164 0.537037 373.999 6.2116 373.999C11.8862 373.999 16.4986 371.164 16.6032 367.641H16.6181V305.192Z" fill="#363BBC"/>
<path opacity="0.5" fill-rule="evenodd" clip-rule="evenodd" d="M16.6177 311.178C11.6869 311.546 7.80078 315.663 7.80078 320.688V373.925C12.7236 373.454 16.5083 370.829 16.6028 367.642H16.6177V311.178Z" fill="#363BBC"/>
<path d="M4.94043 277.775H23.5566V302.653C23.5566 312.935 15.2219 321.27 4.94043 321.27V321.27V277.775Z" fill="#363BBC"/>
<path d="M7.64844 327.552H28.634V338.891C28.634 344.686 23.9362 349.383 18.1412 349.383H7.64844V327.552Z" fill="#363BBC"/>
<rect x="1.89453" y="339.04" width="14.216" height="36.7247" transform="rotate(90 1.89453 339.04)" fill="#363BBC"/>
<rect x="8.0459" y="332.671" width="3.42372" height="10.2712" rx="1.71186" fill="#363BBC"/>
<path opacity="0.5" fill-rule="evenodd" clip-rule="evenodd" d="M23.4521 347.942V327.552H28.6336V338.891C28.6336 342.748 26.5526 346.119 23.4521 347.942Z" fill="#363BBC"/>
<path opacity="0.5" fill-rule="evenodd" clip-rule="evenodd" d="M-2.46973 311.4V305.281H4.86685C4.86685 308.66 2.1275 311.4 -1.25167 311.4H-2.46973Z" fill="#363BBC"/>
<rect x="6.33398" y="286.939" width="3.42372" height="13.9394" rx="1.71186" fill="#363BBC"/>
<rect x="-2.22559" y="339.029" width="3.42372" height="29.5907" rx="1.71186" fill="#363BBC"/>
<path d="M27.2889 327.467C27.2889 327.955 26.8007 328.827 24.9989 329.655C23.3133 330.43 20.89 330.945 18.1412 330.945C15.3924 330.945 12.9691 330.43 11.2835 329.655C9.48168 328.827 8.99347 327.955 8.99347 327.467C8.99347 326.979 9.48168 326.107 11.2835 325.278C12.9691 324.504 15.3924 323.989 18.1412 323.989C20.89 323.989 23.3133 324.504 24.9989 325.278C26.8007 326.107 27.2889 326.979 27.2889 327.467Z" fill="#363BBC" stroke="#A0A4FA" stroke-width="2.69007"/>
<path opacity="0.5" fill-rule="evenodd" clip-rule="evenodd" d="M18.8057 315.076V277.775H23.5565V302.653C23.5565 307.427 21.7597 311.781 18.8057 315.076Z" fill="#363BBC"/>
<path d="M22.2116 277.823C22.2116 278.396 21.7358 279.25 20.2115 280.04C18.7546 280.795 16.6485 281.302 14.2485 281.302C11.8485 281.302 9.74241 280.795 8.28553 280.04C6.76125 279.25 6.28546 278.396 6.28546 277.823C6.28546 277.25 6.76125 276.397 8.28553 275.607C9.74241 274.852 11.8485 274.345 14.2485 274.345C16.6485 274.345 18.7546 274.852 20.2115 275.607C21.7358 276.397 22.2116 277.25 22.2116 277.823Z" fill="#363BBC" stroke="#A0A4FA" stroke-width="2.69007"/>
<rect x="1399.23" y="470.891" width="33.388" height="106.557" rx="16" fill="#28259F"/>
<rect x="1379.34" y="451" width="33.388" height="125.738" rx="16" fill="#28259F"/>
<rect x="1416.99" y="495.754" width="33.388" height="64.6448" rx="16" fill="#28259F"/>
<rect x="1363" y="511.383" width="33.388" height="64.6448" rx="16" fill="#28259F"/>
<rect x="1402.78" y="541.219" width="33.388" height="39.7814" rx="16" fill="#28259F"/>
<path d="M1369.39 562.53V527.722" stroke="#28259F" stroke-width="8" stroke-linecap="round"/>
<path d="M1385.73 502.148V467.339" stroke="#28259F" stroke-width="8" stroke-linecap="round"/>
<path d="M1408.46 565.372L1408.46 552.585" stroke="#28259F" stroke-width="8" stroke-linecap="round"/>
</g>
</svg>
