<svg width="135" height="171" viewBox="0 0 135 171" fill="none" xmlns="http://www.w3.org/2000/svg">
<path d="M67.5023 155.273C91.0174 155.273 110.08 136.391 110.08 113.099C110.08 89.8079 91.0174 70.9263 67.5023 70.9263C43.9872 70.9263 24.9244 89.8079 24.9244 113.099C24.9244 136.391 43.9872 155.273 67.5023 155.273Z" stroke="white" stroke-width="3" stroke-miterlimit="10"/>
<path d="M114.038 143.239C116.223 143.239 117.995 141.484 117.995 139.319C117.995 137.154 116.223 135.399 114.038 135.399C111.852 135.399 110.08 137.154 110.08 139.319C110.08 141.484 111.852 143.239 114.038 143.239Z" stroke="white" stroke-width="3" stroke-miterlimit="10"/>
<path d="M100.68 159.43C102.866 159.43 104.637 157.675 104.637 155.51C104.637 153.345 102.866 151.59 100.68 151.59C98.4943 151.59 96.7224 153.345 96.7224 155.51C96.7224 157.675 98.4943 159.43 100.68 159.43Z" stroke="white" stroke-width="3" stroke-miterlimit="10"/>
<path d="M79.0243 169.129C81.21 169.129 82.9818 167.374 82.9818 165.209C82.9818 163.045 81.21 161.29 79.0243 161.29C76.8386 161.29 75.0668 163.045 75.0668 165.209C75.0668 167.374 76.8386 169.129 79.0243 169.129Z" stroke="white" stroke-width="3" stroke-miterlimit="10"/>
<path d="M55.9803 169.129C58.166 169.129 59.9379 167.374 59.9379 165.209C59.9379 163.045 58.166 161.29 55.9803 161.29C53.7947 161.29 52.0228 163.045 52.0228 165.209C52.0228 167.374 53.7947 169.129 55.9803 169.129Z" stroke="white" stroke-width="3" stroke-miterlimit="10"/>
<path d="M34.3201 159.43C36.5058 159.43 38.2776 157.675 38.2776 155.51C38.2776 153.345 36.5058 151.59 34.3201 151.59C32.1344 151.59 30.3626 153.345 30.3626 155.51C30.3626 157.675 32.1344 159.43 34.3201 159.43Z" stroke="white" stroke-width="3" stroke-miterlimit="10"/>
<path d="M20.967 143.239C23.1526 143.239 24.9245 141.484 24.9245 139.319C24.9245 137.154 23.1526 135.399 20.967 135.399C18.7813 135.399 17.0095 137.154 17.0095 139.319C17.0095 141.484 18.7813 143.239 20.967 143.239Z" stroke="white" stroke-width="3" stroke-miterlimit="10"/>
<path d="M46.9814 37.1639L52.1474 28.4287C58.9969 16.8471 75.8971 16.838 82.7558 28.4104L88.0233 37.2919L67.5023 34.6329L46.9814 37.1639Z" stroke="white" stroke-width="3" stroke-miterlimit="10" stroke-linecap="round"/>
<path d="M58.9323 20.6483C58.9323 20.6483 57.6685 13.1877 55.9296 8.63274C54.1907 4.0778 49.9611 0.870605 49.9611 0.870605" stroke="white" stroke-width="3" stroke-miterlimit="10" stroke-linecap="round"/>
<path d="M75.8463 20.6483C75.8463 20.6483 77.1101 13.1877 78.849 8.63274C80.5879 4.0778 84.8176 0.870605 84.8176 0.870605" stroke="white" stroke-width="3" stroke-miterlimit="10" stroke-linecap="round"/>
<path d="M119.748 72.7537L90.6109 68.9572C86.8286 68.4638 83.5353 66.1475 81.8195 62.7713L67.5023 34.6329L97.8479 38.5894C100.874 38.9823 103.507 40.8372 104.882 43.5372L119.748 72.7537Z" stroke="white" stroke-width="3" stroke-linecap="round" stroke-linejoin="round"/>
<path d="M112.391 71.7943L90.6109 68.9572C86.8286 68.4638 83.5353 66.1475 81.8195 62.7713L67.5023 34.6329L78.9551 102.656C80.671 110.038 82.2715 117.111 90.1496 119.902L134.614 130.926L112.386 71.7898L112.391 71.7943Z" stroke="white" stroke-width="3" stroke-linejoin="round"/>
<path d="M15.2567 72.7537L44.3938 68.9572C48.176 68.4638 51.4693 66.1475 53.1852 62.7713L67.5023 34.6329L37.1568 38.5894C34.131 38.9823 31.4973 40.8372 30.1227 43.5372L15.2567 72.7537Z" stroke="white" stroke-width="3" stroke-linecap="round" stroke-linejoin="round"/>
<path d="M22.6136 71.7943L44.3938 68.9572C48.176 68.4638 51.4693 66.1475 53.1852 62.7712L67.5023 34.6329L56.0495 102.656C54.3337 110.038 52.7331 117.111 44.855 119.902L0.386047 130.931L22.6136 71.7943Z" stroke="white" stroke-width="3" stroke-linejoin="round"/>
</svg>
