<?xml version="1.0" encoding="UTF-8"?><svg id="Layer_2" xmlns="http://www.w3.org/2000/svg" viewBox="0 0 297.02 374.29"><defs><style>.cls-1,.cls-2{stroke-miterlimit:10;}.cls-1,.cls-2,.cls-3,.cls-4{fill:none;stroke:#000;stroke-width:6px;}.cls-1,.cls-3{stroke-linecap:round;}.cls-3,.cls-4{stroke-linejoin:round;}</style></defs><g id="firefly"><circle id="body" class="cls-2" cx="148.51" cy="248.65" r="92.31"/><circle id="circle_6" class="cls-2" cx="249.4" cy="306.04" r="8.58"/><circle id="circle_5" class="cls-2" cx="220.44" cy="341.48" r="8.58"/><circle id="circle_4" class="cls-2" cx="173.49" cy="362.71" r="8.58"/><circle id="circle_3" class="cls-2" cx="123.53" cy="362.71" r="8.58"/><circle id="circle_2" class="cls-2" cx="76.57" cy="341.48" r="8.58"/><circle id="circle_1" class="cls-2" cx="47.62" cy="306.04" r="8.58"/><path id="head" class="cls-1" d="m104.02,82.44l11.2-19.12c14.85-25.35,51.49-25.37,66.36-.04l11.42,19.44-44.49-5.82-44.49,5.54Z"/><path id="left_antennae" class="cls-1" d="m129.93,46.29s-2.74-16.33-6.51-26.3-12.94-16.99-12.94-16.99"/><path id="right_antennae" class="cls-1" d="m166.6,46.29s2.74-16.33,6.51-26.3,12.94-16.99,12.94-16.99"/><path id="top_right_wing" class="cls-3" d="m261.78,160.34l-63.17-8.31c-8.2-1.08-15.34-6.15-19.06-13.54l-31.04-61.59,65.79,8.66c6.56.86,12.27,4.92,15.25,10.83l32.23,63.95Z"/><path id="bottom_right_wing" class="cls-4" d="m245.83,158.24l-47.22-6.21c-8.2-1.08-15.34-6.15-19.06-13.54l-31.04-61.59,24.83,148.89c3.72,16.16,7.19,31.64,24.27,37.75l96.4,24.13-48.19-129.44Z"/><path id="top_left_wing" class="cls-3" d="m35.24,160.34l63.17-8.31c8.2-1.08,15.34-6.15,19.06-13.54l31.04-61.59-65.79,8.66c-6.56.86-12.27,4.92-15.25,10.83l-32.23,63.95Z"/><path id="bottom_left_wing" class="cls-4" d="m51.19,158.24l47.22-6.21c8.2-1.08,15.34-6.15,19.06-13.54l31.04-61.59-24.83,148.89c-3.72,16.16-7.19,31.64-24.27,37.75L3,287.68l48.19-129.44Z"/></g></svg>