<?xml version="1.0" encoding="UTF-8"?><svg id="Layer_2" xmlns="http://www.w3.org/2000/svg" viewBox="0 0 1080 1080"><defs><style>.cls-1{fill:#fff;}</style></defs><g id="Layer_1-2"><rect class="cls-1" width="1080" height="1080"/><g><path d="M376.36,567.27c-75.31,0-136.36,61.05-136.36,136.36v136.36h54.55v-136.36c0-45.19,36.63-81.82,81.82-81.82s81.82,36.63,81.82,81.82h54.55c0-75.31-61.05-136.36-136.36-136.36Z"/><path d="M703.64,240c-75.31,0-136.36,61.05-136.36,136.36v136.36h54.55v-81.82h136.36v-54.55h-136.36c0-45.19,36.63-81.82,81.82-81.82s81.82,36.63,81.82,81.82v136.36h54.55v-136.36c0-75.31-61.05-136.36-136.36-136.36Z"/><path d="M703.64,567.27c-75.31,0-136.36,61.05-136.36,136.36v136.36h54.55v-81.82h136.36v-54.55h-136.36c0-45.19,36.63-81.82,81.82-81.82s81.82,36.63,81.82,81.82v136.36h54.55v-136.36c0-75.31-61.05-136.36-136.36-136.36Z"/><path d="M376.36,240c-75.31,0-136.36,61.05-136.36,136.36v136.36h54.55v-136.36c0-45.19,36.63-81.82,81.82-81.82s81.82,36.63,81.82,81.82v136.36h54.55v-136.36c0-75.31-61.05-136.36-136.36-136.36Z"/></g></g></svg>