<?xml version="1.0" encoding="UTF-8"?><svg id="Layer_2" xmlns="http://www.w3.org/2000/svg" viewBox="0 0 268.4 200"><g id="Layer_1-2"><g><path d="m263.4,152h-64.86c.83-1.88,1.79-4,2.74-6.1,10.68-23.68,32.92-72.95,32.92-102.9,0-20.79-11.3-43-43-43H43C20.82,0,10.24,11.83,5.28,21.76.06,32.2,0,42.56,0,43c0,2.76,2.24,5,5,5h70.75c-1.6,16.09-10.58,32.41-20.03,49.59-10.58,19.23-21.52,39.12-21.52,59.41s11.3,43,43,43h148.2c22.18,0,32.76-11.83,37.72-21.76,5.22-10.44,5.28-20.8,5.28-21.24,0-2.76-2.24-5-5-5ZM10.45,38c1.44-9.25,7.44-28,32.55-28s31.52,16.91,32.73,28H10.45Zm66.75,152c-29.78,0-33-23.08-33-33,0-17.72,9.85-35.63,20.28-54.59,10.58-19.23,21.52-39.12,21.52-59.41,0-12.06-3.82-24.6-13.2-33h118.4c29.78,0,33,23.08,33,33,0,27.79-21.63,75.74-32.03,98.78-2.22,4.93-3.63,8.08-4.52,10.22h-72.45c-2.76,0-5,2.24-5,5,0,1.35-.38,33-33,33Zm148.2,0h-119.3c4.05-3.66,6.87-7.86,8.83-11.76,3.04-6.09,4.33-12.15,4.88-16.24h138.15c-1.44,9.25-7.44,28-32.55,28Z"/><g><path d="m179.09,38.5c-7.78,0-14.1,6.33-14.1,14.1v12.6c0,7.78,6.33,14.1,14.1,14.1s14.1-6.33,14.1-14.1v-12.6c0-7.78-6.33-14.1-14.1-14.1Zm7.57,14.1v12.6c0,4.18-3.4,7.57-7.57,7.57s-7.57-3.4-7.57-7.57v-12.6c0-4.18,3.4-7.57,7.57-7.57s7.57,3.4,7.57,7.57Z"/><path d="m127.87,79.3c3.33.07,6.53-1.02,9.11-3.1,2.5,2.02,5.58,3.11,8.82,3.11.1,0,.2,0,.3,0,7.61-.15,13.81-6.61,13.81-14.4v-24.88l-.02-1.52-6.51.02v26.43c0,4.13-3.24,7.64-7.23,7.82-2.24.1-4.38-.79-5.89-2.43-.07-.07-.13-.15-.23-.26l-.14-.17c-.06-.08-.12-.16-.19-.25l-.3-.45c-.09-.15-.18-.3-.29-.51l-.05-.1c-.06-.12-.12-.24-.17-.37l-.08-.18c-.05-.12-.1-.25-.17-.46l-.03-.09c-.06-.18-.11-.37-.16-.56l-1.47-6.21-1.45,6.22c-.04.19-.1.37-.15.54l-.07.19c-.04.13-.09.25-.14.37l-.08.18c-.05.13-.11.25-.17.36l-.08.16c-.08.16-.17.31-.27.46l-.14.2c-.05.08-.11.16-.16.24-.06.08-.12.16-.18.23l-.15.18c-.07.08-.14.17-.22.26-1.52,1.64-3.65,2.53-5.89,2.43-3.99-.18-7.23-3.68-7.23-7.82v-24.93s-.03-1.52-.03-1.52l-6.5.02v26.38c0,7.79,6.2,14.25,13.81,14.4Z"/><path d="m164.29,83.5c-2.73,0-5.33.77-7.57,2.2v-2.2h-6.53v53.4h6.53v-14.8c2.24,1.43,4.84,2.2,7.57,2.2,7.78,0,14.1-6.33,14.1-14.1v-12.6c0-7.78-6.33-14.1-14.1-14.1Zm-7.57,14.1c0-4.18,3.4-7.57,7.57-7.57s7.57,3.4,7.57,7.57v12.6c0,4.18-3.4,7.57-7.57,7.57s-7.57-3.4-7.57-7.57v-12.6Z"/><path d="m130.07,83.5h-15.83c-9.56,0-17.33,8.52-17.33,19s7.78,19,17.33,19h15.83c9.56,0,17.33-8.52,17.33-19s-7.78-19-17.33-19Zm10.71,19c0,6.62-4.81,12-10.71,12h-15.83c-5.91,0-10.71-5.38-10.71-12s4.81-12,10.71-12h15.83c5.91,0,10.71,5.38,10.71,12Z"/></g></g></g></svg>