<svg width="65" height="72" viewBox="0 0 65 72" fill="none" xmlns="http://www.w3.org/2000/svg">
<path d="M64.2673 45.9073C64.2646 46.0919 64.2793 46.2548 64.2579 46.4138C64.0721 47.7554 63.5629 48.9758 62.8544 50.1153C61.7798 51.8449 60.3817 53.235 58.5651 54.1684C58.1802 54.3665 57.7792 54.5335 57.3515 54.7315C57.425 54.7854 57.4731 54.8312 57.5292 54.8595C59.3858 55.805 60.7599 57.2652 61.8319 59.0257C62.2276 59.6736 62.5417 60.3727 62.8705 61.0597C62.9654 61.259 63.0082 61.4961 63.0282 61.7197C63.0616 62.1049 62.8945 62.28 62.5176 62.2329C62.1246 62.1844 61.741 62.0632 61.348 62.0012C60.4538 61.8584 59.5596 61.6995 58.6587 61.6079C57.0106 61.4409 55.3585 61.3156 53.7064 61.1796C53.3041 61.1459 53.2961 61.158 53.2653 61.5554C53.0742 64.0931 53.3362 66.5689 54.2678 68.9517C54.4162 69.3316 54.6207 69.6885 54.7798 70.0643C55.0752 70.7607 55.007 70.9035 54.2638 70.8739C53.7652 70.855 53.26 70.7257 52.7788 70.5789C51.7108 70.2543 50.6375 69.935 49.5989 69.5255C48.0872 68.9288 46.7545 68.0479 45.7601 66.7184C45.5168 66.3938 45.3096 66.0435 45.0543 65.6597C43.8126 67.466 42.2527 68.9005 40.4148 70.0266C40.3961 70.0064 40.3774 69.9849 40.3587 69.9647C40.7664 69.64 41.174 69.3154 41.579 68.9921C41.3384 68.6527 41.285 68.65 41.0003 68.8749C40.2745 69.4474 39.5727 70.0549 38.7079 70.4186C38.5328 70.4927 38.5048 70.6341 38.5809 70.8523C39.0755 70.6193 39.5594 70.3916 40.0432 70.164C40.0566 70.1896 40.0686 70.2138 40.082 70.2394C39.8494 70.3728 39.6209 70.5115 39.3843 70.6395C39.0809 70.8025 38.7734 70.9547 38.4673 71.1123C38.2855 71.2066 38.1479 71.1554 38.1345 70.948C38.1238 70.7742 38.1679 70.591 38.22 70.4213C38.585 69.2346 39.014 68.0654 39.3134 66.8639C39.7465 65.1249 40.0887 63.363 40.4683 61.6106C40.491 61.5042 40.5017 61.3951 40.5231 61.2509C40.3493 61.2267 40.1916 61.1876 40.0325 61.1863C38.6264 61.1809 37.2189 61.1742 35.8128 61.1863C34.5055 61.1971 33.213 61.3641 31.9285 61.5931C31.76 61.6227 31.5876 61.6389 31.4165 61.647C31.1251 61.6591 31.065 61.6025 31.1572 61.321C31.3804 60.6421 31.5836 59.9511 31.875 59.3018C32.8628 57.1009 34.444 55.4158 36.4383 54.1051C36.6455 53.9691 36.8486 53.8263 37.0839 53.6647C36.997 53.5892 36.9529 53.534 36.8954 53.5057C35.4358 52.7945 34.2863 51.7088 33.2731 50.4602C32.0421 48.9448 31.1144 47.2422 30.275 45.4871C30.2456 45.4264 30.2323 45.3591 30.1948 45.2392C34.0658 45.9868 37.9033 46.6576 41.8277 47.0617C41.8049 46.6051 41.7942 46.1996 41.7622 45.7955C41.5884 43.5972 41.2903 41.4178 40.769 39.2734C40.6434 38.7548 40.4763 38.247 40.3346 37.7311C40.2919 37.5721 40.2571 37.4091 40.2424 37.2461C40.2197 36.9848 40.2785 36.8973 40.5284 36.9633C41.0765 37.1074 41.6312 37.2583 42.1471 37.4886C43.6883 38.1783 44.9073 39.2828 45.9378 40.6096C46.4685 41.2925 46.9524 42.0064 47.3186 42.7971C47.3667 42.9008 47.4469 42.9897 47.5111 43.0854C47.8345 42.657 48.1166 42.2206 48.4601 41.8421C50.1122 40.0223 52.0316 38.5918 54.4215 37.917C55.0324 37.7445 55.6767 37.6826 56.3089 37.5923C56.5682 37.556 56.6083 37.6395 56.5094 37.9143C56.3436 38.3722 56.1645 38.8262 56.0095 39.2882C55.3639 41.2171 55.0324 43.2106 54.8092 45.2257C54.733 45.906 54.6715 46.5889 54.618 47.2718C54.594 47.5816 54.618 47.5843 54.9214 47.5991C57.3475 47.711 59.6919 47.2382 62.011 46.5929C62.7462 46.3882 63.4733 46.1525 64.2673 45.9127V45.9073ZM37.3205 49.7234C37.3405 49.6964 37.3606 49.6695 37.3806 49.6425C37.4568 49.6493 37.5343 49.6547 37.6105 49.6627C38.0449 49.7099 38.4794 49.7786 38.9151 49.7988C39.6302 49.8311 40.3199 49.7153 40.9201 49.2842C41.2275 49.0633 41.4775 48.7993 41.4307 48.3683C41.3625 47.7487 40.7971 47.2893 40.1742 47.3567C39.9577 47.3796 39.7986 47.5116 39.7706 47.7136C39.7505 47.8497 39.8214 48.0127 39.8909 48.142C39.9216 48.1999 40.0459 48.2174 40.1328 48.2336C40.2036 48.2471 40.2785 48.2336 40.352 48.2322C40.3413 48.3292 40.3654 48.4626 40.3119 48.5151C40.1702 48.6552 40.0098 48.8168 39.8294 48.868C39.3976 48.9919 38.9525 49.0862 38.5061 49.1388C38.2254 49.1711 37.926 49.1388 37.6493 49.0741C37.2897 48.9906 37.0144 48.7643 36.9168 48.3844C36.8901 48.2794 36.9315 48.1568 36.9409 48.041C37.0358 48.1635 37.0652 48.2753 37.1053 48.3831C37.2109 48.6633 37.4742 48.8128 37.7549 48.7549C38.0276 48.6983 38.2067 48.4707 38.208 48.1757C38.212 47.6005 37.8084 47.1075 37.1574 46.9122C36.6 46.7452 36.2218 46.8866 35.8422 47.4362C35.3382 48.1662 35.504 48.9408 35.798 49.6803C36.1442 50.5531 36.7898 51.1929 37.5504 51.7156C38.5489 52.4025 39.6623 52.8255 40.8238 53.1353C42.1137 53.4801 43.4196 53.7078 44.7589 53.6323C45.0851 53.6135 45.466 53.6983 45.6879 53.2969C45.8216 53.0545 45.8456 52.9844 45.5823 52.905C45.3377 52.8309 45.077 52.8134 44.8231 52.773C43.5011 52.5601 42.2073 52.2315 40.9308 51.8301C39.9577 51.5229 39.0234 51.1256 38.2053 50.4979C37.8952 50.2595 37.6145 49.982 37.3192 49.722L37.3205 49.7234ZM52.593 43.7629C52.5556 43.8168 52.4888 43.8855 52.4553 43.969C52.4299 44.031 52.4233 44.1252 52.4553 44.1791C52.5743 44.3906 52.8483 44.5051 53.0849 44.4364C53.4805 44.3192 53.7773 44.0795 53.923 43.6794C54.0366 43.3629 53.9537 43.0881 53.7185 42.8631C53.4765 42.6314 53.1718 42.525 52.8483 42.494C51.4635 42.3661 50.2913 42.882 49.3944 43.8909C48.1099 45.3375 47.4683 47.1075 47.1796 49.0108C47.09 49.6021 47.0326 50.1975 46.955 50.7915C46.8374 51.6994 46.7826 52.6073 46.8855 53.5205C46.923 53.8559 46.9403 53.8654 47.2598 53.7926C47.3507 53.7724 47.4389 53.728 47.5311 53.7212C47.7463 53.7091 47.7851 53.5785 47.8038 53.3926C47.8666 52.7433 47.9321 52.0927 48.0177 51.4462C48.2115 49.9833 48.5296 48.5515 49.0375 47.1627C49.4091 46.1457 49.8315 45.1611 50.4744 44.2882C50.6629 44.0323 50.9075 43.8168 51.1428 43.5999C51.239 43.5124 51.3767 43.4706 51.4943 43.4073L51.5357 43.4544C51.501 43.5299 51.4662 43.604 51.4315 43.6794C51.1775 44.2344 50.9703 44.7987 51.0251 45.4291C51.0799 46.0703 51.1989 46.6738 51.7456 47.1021C52.438 47.6449 53.1437 47.3486 53.5447 46.7654C53.6784 46.5714 53.649 46.3033 53.5073 46.1228C53.3602 45.9343 53.0849 45.8305 52.8777 45.9397C52.7427 46.0097 52.6331 46.1498 52.5516 46.2831C52.5302 46.3168 52.6585 46.4434 52.728 46.5418C52.5823 46.6738 52.4593 46.5754 52.3604 46.4515C52.0343 46.0353 51.8017 45.5719 51.7843 45.0331C51.7683 44.5388 51.8472 44.0566 52.1706 43.6551C52.3163 43.4747 52.5529 43.4248 52.7146 43.5393C52.7748 43.5811 52.7922 43.6861 52.8283 43.7629C52.7628 43.7629 52.6959 43.7643 52.593 43.7656V43.7629ZM40.8613 64.5511C40.9669 64.5241 41.0404 64.5093 41.1126 64.4878C41.309 64.4285 41.5109 64.1995 41.4868 64.0527C41.4494 63.821 41.2917 63.7079 41.0751 63.6567C40.8599 63.6068 40.6715 63.6499 40.5204 63.8183C40.1141 64.2736 39.9163 65.0158 40.634 65.6192C40.8813 65.828 41.158 65.987 41.5176 65.9708C42.3556 65.9331 42.9705 65.4953 43.5065 64.9013C44.5464 63.7496 44.9674 62.3164 45.2548 60.8415C45.4914 59.6305 45.6598 58.4047 45.8336 57.183C45.9485 56.3735 46.0194 55.5572 46.1156 54.7436C46.1397 54.5456 46.0688 54.4863 45.879 54.5227C45.6184 54.5739 45.3551 54.6103 45.0944 54.6561C44.9728 54.6776 44.8832 54.718 44.8672 54.8743C44.7977 55.5397 44.6974 56.2011 44.6386 56.8678C44.4916 58.5192 44.2109 60.1424 43.6722 61.7143C43.3554 62.6397 42.9384 63.5045 42.2447 64.2049C42.0495 64.4016 41.8103 64.5632 41.5684 64.6992C41.3184 64.838 41.0618 64.7733 40.8613 64.5484V64.5511ZM53.387 58.7806C53.4391 58.7644 53.4672 58.7523 53.4966 58.7482C53.673 58.7213 53.8441 58.6741 53.8922 58.4721C53.943 58.2566 53.8414 58.0882 53.6917 57.9481C53.4765 57.7447 53.2333 57.7461 52.9726 57.8484C52.5008 58.0343 51.9354 58.5785 52.184 59.2318C52.3751 59.7315 52.74 60.0265 53.268 60.0791C53.5621 60.1087 53.8602 60.0885 54.1569 60.0831C55.0177 60.0696 56.0121 59.3773 55.9426 58.1825C55.9066 57.5548 55.7101 57.0268 55.1848 56.6092C53.9925 55.6636 52.5943 55.2097 51.1668 54.8285C50.0748 54.5362 48.9426 54.5092 47.8185 54.4486C47.5926 54.4365 47.3654 54.4554 47.1395 54.4729C46.8815 54.4917 46.8481 54.5389 46.8882 54.8029C46.9083 54.9349 46.947 55.0642 46.9684 55.1962C46.9978 55.3848 47.0874 55.4696 47.2905 55.4952C48.3599 55.6245 49.4332 55.7337 50.4931 55.9222C51.5798 56.1162 52.6278 56.4583 53.5701 57.0712C53.9591 57.3245 54.2451 57.6464 54.3721 58.1044C54.4897 58.5246 54.2358 58.9382 53.8107 58.9947C53.6369 59.0176 53.4846 58.9826 53.3883 58.7806H53.387ZM49.8168 58.1111C49.9371 58.2283 49.9718 58.3401 49.8823 58.4761C49.6698 58.7994 49.2313 58.8897 48.9132 58.6701C48.5697 58.433 48.3746 58.1071 48.3599 57.6828C48.3492 57.3918 48.3438 57.1009 48.3411 56.8099C48.3385 56.488 48.3198 56.4476 47.9949 56.3991C47.741 56.3614 47.483 56.3573 47.2264 56.3425C47.0018 56.329 46.8722 56.4327 46.8508 56.6631C46.796 57.2585 46.7091 57.8525 46.6971 58.4478C46.681 59.2682 47.062 59.9188 47.7503 60.3309C48.4641 60.7579 49.2541 60.7755 50.0414 60.5451C50.8086 60.3215 51.3031 59.6777 51.3259 58.9112C51.358 57.8188 50.5346 57.0658 49.4546 57.2005C49.1485 57.2382 48.9052 57.482 48.8758 57.7919C48.8531 58.0303 48.9293 58.2498 49.1445 58.3495C49.2648 58.4047 49.4412 58.3724 49.5802 58.3347C49.6644 58.3118 49.7246 58.2013 49.8168 58.1098V58.1111ZM50.8447 49.454C50.9583 49.3044 51.0652 49.2654 51.251 49.295C51.6226 49.3543 51.9875 49.7261 52.0423 50.1032C52.1372 50.7471 51.6854 51.5701 51.0465 51.8193C50.5038 52.0308 49.9371 52.1803 49.3784 52.3487C49.2354 52.3918 49.1244 52.4281 49.111 52.6127C49.0883 52.9171 49.0308 53.2188 49.0014 53.5246C48.964 53.9071 48.9948 53.9354 49.377 53.957C49.4318 53.9597 49.4866 53.9583 49.5414 53.957C50.6255 53.9489 51.4809 53.406 52.2562 52.7245C53.0141 52.0577 53.3977 51.1754 53.4752 50.1733C53.5166 49.6466 53.4351 49.1388 52.9967 48.7549C52.3364 48.177 51.2016 48.0006 50.4169 48.3952C50.0454 48.5825 49.7901 48.899 49.7018 49.3125C49.6631 49.4957 49.6524 49.7234 49.7272 49.8837C49.9718 50.4076 50.7057 50.5639 51.1441 50.1948C51.2483 50.1073 51.3285 49.9227 51.3179 49.7907C51.3098 49.691 51.1468 49.5954 51.0398 49.5132C50.9904 49.4755 50.9128 49.4728 50.8433 49.4526L50.8447 49.454ZM35.5441 59.5295C36.5252 59.2076 36.9021 59.4163 36.9943 60.3296C37.1948 60.3458 37.398 60.4333 37.5704 60.2205C37.6079 60.1747 37.7536 60.1531 37.7963 60.1882C38.0409 60.3862 38.204 60.2488 38.3845 60.0871C38.4473 60.0306 38.5796 59.9834 38.6438 60.0131C38.8483 60.106 38.9592 60.0225 39.0795 59.8703C39.133 59.8043 39.2573 59.7383 39.3281 59.7558C39.5767 59.8204 39.7184 59.7019 39.8601 59.5268C39.9136 59.4621 40.0259 59.4096 40.1101 59.4123C40.336 59.4217 40.4629 59.2938 40.5979 59.1429C40.6741 59.058 40.7744 58.9759 40.8786 58.9395C41.1567 58.8439 41.3451 58.6189 41.3184 58.4155C41.2716 58.0761 41.2435 57.7339 41.2141 57.3918C41.2021 57.2504 41.2088 57.1076 41.2061 56.9271C40.9829 57.1035 40.7984 57.2477 40.6153 57.3931C39.7652 58.0653 38.8483 58.5718 37.7308 58.6041C37.3526 58.6149 37.0385 58.5071 36.7992 58.2094C36.6495 58.0249 36.6776 57.8781 36.874 57.7838C36.9195 57.8457 36.9556 57.9252 37.0157 57.9643C37.0852 58.0087 37.1895 58.0532 37.259 58.0316C37.533 57.9522 37.7389 57.6316 37.7295 57.3366C37.7161 56.8826 37.1374 56.4072 36.6655 56.4974C36.1589 56.5944 35.7432 56.853 35.5334 57.3527C35.4465 57.5602 35.3824 57.7824 35.3449 58.0047C35.2567 58.5287 35.2968 59.0405 35.5414 59.5241L35.5441 59.5295ZM51.918 66.7817C51.8565 66.9002 51.7429 66.938 51.5999 66.9043C51.493 66.88 51.3887 66.8491 51.2831 66.8181C50.6509 66.6362 50.159 66.2254 49.7272 65.7607C49.1244 65.1101 48.5791 64.3948 48.301 63.5381C48.0377 62.7272 47.7931 61.9015 47.7918 61.03C47.7918 60.9721 47.7797 60.8926 47.7423 60.8603C47.491 60.6408 47.2317 60.4306 46.959 60.207C46.951 60.2986 46.9377 60.3687 46.9403 60.436C46.9978 61.6739 47.1368 62.901 47.5659 64.0729C47.8225 64.7747 48.2649 65.3647 48.7314 65.9412C49.3329 66.6861 50.0534 67.2505 50.9503 67.5818C51.4716 67.7744 52.0009 67.8997 52.5542 67.7381C52.9445 67.6236 53.0929 67.3474 53.0274 66.9433C52.9392 66.3911 52.5556 66.1298 52.0824 65.9749C51.9167 65.921 51.7148 65.9317 51.5411 65.9708C51.4435 65.9937 51.3085 66.1325 51.3058 66.2227C51.3018 66.352 51.37 66.5231 51.4676 66.6066C51.5798 66.7036 51.7549 66.7238 51.9167 66.7817H51.918ZM41.6726 39.66C41.6432 39.6882 41.6138 39.7152 41.5844 39.7435C41.6232 40.0277 41.6726 40.3106 41.698 40.5948C41.7127 40.7591 41.7715 40.8494 41.9279 40.9261C42.5748 41.2427 43.0814 41.7303 43.4811 42.327C43.9543 43.0355 44.1788 43.837 44.2376 44.6775C44.2644 45.056 44.243 45.452 43.993 45.7847C43.7979 46.0447 43.5212 46.0959 43.4022 45.9383C43.4557 45.7565 43.5452 45.6016 43.5305 45.4588C43.5118 45.2756 43.167 45.1341 42.9545 45.1813C42.619 45.2554 42.3944 45.4669 42.4345 45.708C42.5588 46.4529 42.9397 46.8933 43.6976 47.0078C44.231 47.0886 44.6333 46.7963 44.9394 46.3936C45.2963 45.9235 45.319 45.351 45.2949 44.7934C45.2508 43.8127 44.8993 42.9197 44.3967 42.094C43.8607 41.213 43.2057 40.4345 42.3089 39.9011C42.1164 39.7866 41.8865 39.7394 41.6726 39.6613V39.66ZM44.4582 54.3705C43.9048 54.3476 43.3835 54.3907 42.9357 54.6736C42.2206 55.1262 41.7127 55.7606 41.5911 56.6267C41.4748 57.4551 41.5242 58.2431 42.2688 58.821C42.8342 59.2601 43.7337 59.0378 43.997 58.3697C44.1761 57.9158 43.9623 57.4955 43.5199 57.4389C43.3568 57.4174 43.2071 57.4349 43.1202 57.6073C43.036 57.773 43.0453 57.9225 43.1777 58.0599C43.2138 58.0976 43.2405 58.1421 43.2726 58.1825C43.2672 58.2081 43.2619 58.2323 43.2565 58.2579C43.1215 58.2485 42.9558 58.2835 42.8582 58.2175C42.766 58.1555 42.6938 57.9818 42.7045 57.8659C42.7232 57.6693 42.7874 57.4659 42.8796 57.2894C43.1376 56.7951 43.5653 56.4853 44.0572 56.2536C44.136 56.2159 44.2443 56.1593 44.263 56.092C44.4127 55.537 44.4809 54.9699 44.4595 54.3705H44.4582ZM51.8298 62.1238C51.6066 62.043 51.4101 62.0012 51.3553 62.2652C51.3352 62.3636 51.3526 62.4875 51.3967 62.5804C51.5504 62.9077 52.0009 63.0815 52.339 62.9603C52.7227 62.8229 52.9405 62.4808 52.8496 62.0969C52.8042 61.9029 52.72 61.7022 52.5997 61.5459C52.0811 60.8697 51.366 60.6206 50.5493 60.7202C49.8328 60.8078 49.5281 61.1688 49.3637 61.8908C49.1979 62.6168 49.2581 63.3307 49.4171 64.0419C49.5401 64.5915 49.7433 65.1128 50.1149 65.5452C50.294 65.7526 50.5065 65.9317 50.7137 66.1351C50.8407 65.8738 50.8326 65.8657 50.7458 65.6462C50.4129 64.8016 50.1162 63.9463 50.2993 63.0142C50.3902 62.5521 50.576 62.144 50.993 61.8854C51.3072 61.6914 51.6614 61.7776 51.8298 62.1251V62.1238ZM44.7295 51.5499C45.1198 51.5229 45.466 51.4947 45.8135 51.4745C46.0902 51.4583 46.1891 51.2778 46.2078 51.038C46.2867 50.0399 46.0074 49.1442 45.2602 48.4855C44.5411 47.8524 43.6642 47.8201 42.7954 48.1501C41.8932 48.4936 41.8731 49.1563 42.3837 49.8203C42.7753 50.3295 43.6575 50.2958 43.9462 49.788C44.0024 49.6897 44.0037 49.5294 43.969 49.4162C43.9128 49.2357 43.6482 49.1226 43.4383 49.1536C43.2378 49.1846 43.1803 49.3287 43.1683 49.5092C43.167 49.5361 43.1443 49.5617 43.0961 49.6627C43.032 49.5146 42.9665 49.4284 42.9598 49.3381C42.9398 49.0862 43.1763 48.8788 43.449 48.8869C44.1401 48.9057 44.9634 49.4769 44.8712 50.5033C44.8418 50.8306 44.7843 51.1539 44.7295 51.5512V51.5499ZM41.8678 60.4145C41.952 60.3417 42.0362 60.374 42.1698 60.6125C42.6043 61.3883 42.4693 62.1265 42.0201 62.839C41.7675 63.2405 41.7301 63.1313 42.0295 63.526C42.0602 63.5045 42.0923 63.4829 42.1231 63.4614C42.7753 62.9845 43.0854 62.276 43.3621 61.5554C43.5479 61.0731 43.5038 60.5761 43.294 60.1073C43.044 59.547 42.6136 59.3194 42.0188 59.4487C41.555 59.5497 41.2502 59.8662 41.1179 60.3175C41.0738 60.4697 41.0912 60.6717 41.158 60.8159C41.2181 60.9465 41.3719 61.0947 41.5015 61.1135C41.6191 61.1311 41.8103 61.0139 41.8758 60.9007C41.9373 60.7943 41.8771 60.6165 41.8691 60.4131L41.8678 60.4145ZM57.8928 60.6529C57.9035 60.599 57.9062 60.5694 57.9155 60.5438C58.0225 60.2515 57.8594 60.0225 57.5533 60.0319C57.2205 60.0427 56.9799 60.4091 57.0962 60.7243C57.2633 61.1755 57.7097 61.4341 58.1855 61.3223C58.6427 61.2146 59.0744 60.925 58.9955 60.3673C58.9568 60.0939 58.8819 59.8083 58.7509 59.5672C58.2951 58.728 57.564 58.1596 56.7874 57.6464C56.6885 57.5817 56.5642 57.5561 56.4305 57.505C56.484 57.8875 56.5228 58.2377 56.5882 58.5812C56.6043 58.6647 56.7019 58.7401 56.7767 58.8021C57.1376 59.1011 57.5199 59.3759 57.8581 59.6992C57.9984 59.8339 58.0746 60.0575 58.1321 60.2542C58.1815 60.4225 58.0893 60.5653 57.8941 60.6529H57.8928ZM38.2949 57.9993C38.887 58.0532 39.4859 57.7784 39.8922 57.2396C40.1074 56.954 40.2518 56.6456 40.3172 56.2846C40.4068 55.7862 40.1863 55.2164 39.7532 54.9618C39.2961 54.6924 38.5596 55.0669 38.5061 55.5963C38.478 55.8764 38.6251 56.1526 38.8322 56.2078C39.0728 56.2725 39.288 56.1418 39.4177 55.8549C39.4324 55.8226 39.4458 55.7902 39.4725 55.7296C39.6155 56.0664 39.4992 56.3385 39.3362 56.5755C38.9966 57.0685 38.6304 57.5427 38.2949 57.9979V57.9993ZM59.196 48.5838C59.1386 48.67 59.0985 48.7562 59.0356 48.8182C58.8178 49.031 58.6133 49.2708 58.362 49.4364C57.8794 49.7543 57.3688 50.0264 56.8716 50.3241C56.7299 50.409 56.5976 50.5114 56.4573 50.6097C56.8101 50.941 57.0654 50.9801 57.4424 50.7605C58.1655 50.3389 58.7817 49.7813 59.3484 49.1724C59.5783 48.9246 59.7681 48.6283 59.9299 48.3279C60.0609 48.0854 59.9847 47.851 59.8056 47.7096C59.6371 47.5763 59.303 47.5655 59.1212 47.7069C59.0316 47.777 58.9595 47.8766 58.8993 47.975C58.7068 48.2902 58.8138 48.5232 59.1947 48.5825L59.196 48.5838ZM49.901 67.858C50.016 67.9563 50.0988 68.056 50.2044 68.1125C50.6455 68.3483 51.0866 68.5853 51.5397 68.7955C52.1653 69.0864 52.8082 69.3302 53.5073 69.3787C53.7572 69.3962 53.7933 69.3612 53.7292 69.1228C53.6463 68.8116 53.5541 68.5032 53.4645 68.1947C53.4124 68.0142 53.3255 67.9617 53.1357 68.0546C52.6852 68.2782 52.2134 68.3429 51.7282 68.1651C51.3833 68.0384 51.0412 67.9051 50.695 67.7852C50.4383 67.6963 50.1737 67.5926 49.901 67.858ZM50.8621 54.2237C51.1882 54.1779 51.5103 54.1402 51.8284 54.0863C52.9232 53.9044 53.9871 53.6081 55.0003 53.1447C55.0725 53.111 55.1701 53.0222 55.1687 52.9602C55.1647 52.7474 55.1219 52.5345 55.0912 52.3002C54.9362 52.354 54.8265 52.3931 54.7156 52.4281C54.0847 52.6275 53.4511 52.8214 52.8216 53.0275C52.6692 53.0774 52.5208 53.1501 52.3858 53.235C51.8833 53.5529 51.3874 53.8815 50.8621 54.2223V54.2237ZM58.2591 47.785C57.6536 47.8201 57.0574 47.8228 56.4733 47.9669C56.3343 48.0006 56.3503 48.0922 56.365 48.2026C56.4038 48.4936 56.2648 48.7832 56.0536 48.8855C55.8531 48.9812 55.7863 48.9327 55.7876 48.7118C55.7876 48.6538 55.7502 48.5757 55.7047 48.542C55.6646 48.5124 55.5791 48.5138 55.531 48.5367C55.404 48.5973 55.3144 48.9637 55.3813 49.0916C55.547 49.4122 55.8504 49.4822 56.1578 49.462C56.8957 49.4136 57.5025 49.0431 58.0679 48.5946C58.096 48.573 58.1147 48.5313 58.1227 48.4949C58.1682 48.274 58.2083 48.0517 58.2604 47.785H58.2591ZM48.2195 53.6606C48.2489 53.6674 48.2783 53.6754 48.3077 53.6822C48.3598 53.5556 48.44 53.4316 48.4574 53.2996C48.6165 52.1224 48.7582 50.9424 48.9186 49.7665C49.1271 48.2349 49.6952 46.8273 50.3996 45.4669C50.5867 45.1059 50.7458 44.7301 50.9182 44.3623C50.8888 44.3435 50.8607 44.3233 50.8313 44.3044C50.6575 44.528 50.4557 44.7368 50.3127 44.9792C49.4024 46.5202 48.9119 48.2215 48.5697 49.9604C48.3732 50.9586 48.3104 51.9836 48.2008 52.9979C48.1767 53.2161 48.2115 53.4397 48.2195 53.6606ZM47.3239 46.4973C47.622 45.8427 47.872 45.1907 48.2075 44.5859C48.543 43.9811 48.964 43.4235 49.3984 42.7688C49.1525 42.7607 48.9747 42.7554 48.7862 42.75C48.8197 42.6274 48.8852 42.4469 48.6659 42.3849C48.5924 42.3647 48.4253 42.4173 48.424 42.4402C48.42 42.5829 48.4507 42.7271 48.4695 42.8712C48.4788 42.9237 48.4187 42.9776 48.3786 43.0436C48.0203 43.6498 47.6688 44.2599 47.3079 44.8647C46.9965 45.386 46.9631 45.9087 47.3239 46.4946V46.4973ZM61.4202 50.2177C61.6581 50.4049 62.019 50.4049 62.2182 50.1692C62.3973 49.955 62.547 49.7139 62.6967 49.4769C63.2608 48.5878 63.6685 47.6328 63.9117 46.6064C63.9251 46.5471 63.9091 46.4798 63.9064 46.4044C63.5522 46.4919 63.3985 46.7196 63.2795 47.0159C63.1004 47.4577 62.9106 47.9022 62.6673 48.3104C62.2784 48.961 61.8413 49.5833 61.4229 50.2191L61.4202 50.2177ZM58.5865 52.8093C57.3889 53.5704 56.1418 54.1051 54.7985 54.5523C54.9094 54.6035 54.9629 54.6318 55.019 54.6547C55.3198 54.7732 55.6205 54.7679 55.9346 54.6897C56.8489 54.4594 57.7779 54.2735 58.5772 53.728C58.6534 53.6754 58.7456 53.5636 58.7376 53.4869C58.7189 53.2794 58.6507 53.0774 58.5865 52.8107V52.8093ZM59.8617 58.336C59.978 58.5058 60.0689 58.6714 60.1905 58.8088C60.8067 59.5052 61.3053 60.2744 61.5165 61.189C61.6047 61.5702 61.8346 61.6699 62.1447 61.7359C62.2757 61.7641 62.3305 61.7237 62.3452 61.589C62.3786 61.2954 62.3225 61.0233 62.1621 60.7781C61.6728 60.0306 61.1836 59.2816 60.6824 58.5421C60.4471 58.196 60.3081 58.1677 59.859 58.3347L59.8617 58.336ZM61.2144 50.5922C60.3964 51.3115 59.601 52.0106 58.7844 52.7299C58.9581 52.8821 59.1105 53.0275 59.2789 53.1515C59.323 53.1851 59.442 53.1798 59.4834 53.1434C60.0903 52.614 60.6944 52.0806 61.2892 51.5378C61.3534 51.4798 61.3988 51.3519 61.3855 51.2684C61.3507 51.0461 61.2772 50.8292 61.2144 50.5908V50.5922ZM38.7226 50.2675C38.9044 50.4184 39.0394 50.5612 39.1998 50.6609C40.2451 51.3088 41.3732 51.7681 42.5628 52.0483C43.5118 52.2719 44.4769 52.4335 45.458 52.4335C45.7641 52.4335 46.0822 52.4133 46.2038 52.0321C45.7841 52.0281 45.3658 52.0321 44.9487 52.0159C44.4675 51.9971 43.981 51.9957 43.5065 51.919C42.917 51.8233 42.3289 51.69 41.7568 51.5162C41.0257 51.294 40.2798 51.0825 39.6837 50.5558C39.427 50.3295 39.1437 50.1881 38.72 50.2662L38.7226 50.2675ZM60.3188 47.5412C60.2948 47.5668 60.2707 47.5911 60.2466 47.6167C60.4405 47.9682 60.3108 48.2834 60.1397 48.5771C59.978 48.8532 59.8069 49.132 59.5917 49.3637C59.2041 49.7813 58.7803 50.1638 58.3606 50.572C58.4796 50.6272 58.5999 50.6784 58.7149 50.739C58.8699 50.8212 58.9969 50.8144 59.1332 50.6824C59.4246 50.3982 59.7387 50.1382 60.0288 49.854C60.3977 49.493 60.6717 49.066 60.8121 48.5609C60.8949 48.2632 60.8588 47.9763 60.6637 47.7392C60.5848 47.6436 60.4365 47.6059 60.3202 47.5412H60.3188ZM49.6912 42.3243C49.8262 42.2017 49.9451 42.1034 50.052 41.993C50.2699 41.768 50.4557 41.5027 50.6976 41.3114C51.4328 40.7308 52.1853 40.1718 52.9405 39.6182C53.1049 39.497 53.0528 39.4229 52.9566 39.3111C52.8416 39.1791 52.7347 39.2303 52.6064 39.2963C51.5772 39.827 50.6803 40.5315 49.8582 41.3477C49.5655 41.6374 49.5227 41.9229 49.6912 42.3243ZM58.1454 50.7053C58.0545 50.7525 57.9877 50.7861 57.9222 50.8225C57.5119 51.0475 57.1042 51.2764 56.6912 51.496C56.2434 51.7344 55.7916 51.9634 55.3198 52.2086C55.4828 52.3783 55.6125 52.4901 55.7127 52.6234C55.833 52.7824 55.9493 52.7635 56.1111 52.6894C56.8676 52.3446 57.5493 51.8799 58.2056 51.3734C58.2497 51.3398 58.2885 51.2549 58.2791 51.2024C58.2497 51.0434 58.1962 50.8885 58.1454 50.704V50.7053ZM51.9447 41.9296C51.9635 41.9701 51.9822 42.0105 52.0009 42.0509C52.2602 42.0037 52.5489 42.0145 52.7721 41.8973C53.4217 41.5565 54.074 41.2588 54.8252 41.2602C54.8947 41.2602 54.999 41.2009 55.0257 41.1417C55.1219 40.9275 55.1928 40.7039 55.2703 40.4816C55.3211 40.3348 55.2463 40.2607 55.1099 40.2796C54.8827 40.3119 54.6408 40.3281 54.4362 40.4224C53.8936 40.6716 53.3549 40.9356 52.8403 41.2373C52.5182 41.4259 52.2415 41.6953 51.9447 41.9296ZM42.6524 66.973C42.8021 66.8302 42.9518 66.7036 43.0841 66.5608C44.0692 65.4899 44.7977 64.244 45.4727 62.9643C45.6318 62.6639 45.7039 62.3285 45.6932 61.977C45.5863 62.0969 45.4994 62.2235 45.4299 62.3595C44.7456 63.6755 43.9275 64.8986 42.9772 66.0328C42.8475 66.1877 42.7473 66.3682 42.6203 66.5258C42.5067 66.6672 42.5227 66.7925 42.6537 66.9743L42.6524 66.973ZM34.7354 51.1485C34.6739 51.5256 34.8664 51.7452 35.1043 51.9594C35.9344 52.7083 36.8968 53.235 37.9153 53.6647C38.1866 53.7792 38.4727 53.8654 38.744 53.6094C38.0436 53.2417 37.3352 52.9157 36.6762 52.5116C36.0092 52.1022 35.3904 51.6145 34.7341 51.1498L34.7354 51.1485ZM53.1704 52.5494C53.3215 52.5143 53.4017 52.4968 53.4819 52.478C54.3948 52.2517 55.269 51.9244 56.075 51.43C56.1472 51.3856 56.2126 51.2778 56.2233 51.1929C56.2407 51.0501 56.2113 50.9006 56.2006 50.7215C56.0924 50.7673 56.0081 50.8036 55.9253 50.8387C55.3238 51.1 54.7437 51.4475 54.1168 51.597C53.5621 51.729 53.4846 52.1695 53.1718 52.548L53.1704 52.5494ZM32.1931 61.2711C32.427 61.2846 32.4818 61.0893 32.5527 60.9384C33.0071 59.9875 33.5458 59.0904 34.1834 58.2525C34.2943 58.1057 34.3959 57.9508 34.5002 57.8013C34.2712 57.6307 34.0702 57.6379 33.8973 57.8228C33.8706 57.8511 33.8439 57.8794 33.8238 57.9117C33.4028 58.6014 32.9657 59.2816 32.5674 59.9834C32.3468 60.3727 32.1009 60.7728 32.1931 61.2711ZM41.3211 53.697C41.1099 53.6135 40.9228 53.5205 40.7249 53.464C39.5046 53.1124 38.3283 52.6598 37.2296 52.0119C37.136 51.9567 37.0224 51.9351 36.9048 51.8934C37.0532 52.3581 37.3512 52.6342 37.7589 52.7824C38.6451 53.107 39.538 53.4182 40.4269 53.7361C40.7223 53.8411 41.0136 53.8815 41.3211 53.6957V53.697ZM45.9138 62.839C45.6277 63.2997 45.5502 63.751 45.7213 64.1887C45.9031 64.6521 46.1637 65.0845 46.4124 65.5182C46.5233 65.7122 46.6904 65.8725 46.8307 66.0489C46.8628 66.0355 46.8962 66.0233 46.9283 66.0099C46.9283 65.8065 46.9978 65.5694 46.9189 65.4037C46.5674 64.6656 46.2747 63.9072 46.0528 63.1192C46.0301 63.0371 45.9753 62.963 45.9125 62.839H45.9138ZM46.7385 63.7079C46.7225 63.7254 46.7078 63.7415 46.6917 63.759C47.0392 65.1842 48.2877 66.9945 49.2741 67.4471C49.3784 67.1548 49.2674 66.9433 49.0375 66.7413C48.2088 66.0126 47.6006 65.1182 47.1368 64.1147C47.062 63.9517 46.8735 63.8426 46.7385 63.7079ZM43.8741 40.355C43.8594 40.2068 44.0959 40.0129 43.8527 39.8364C43.183 39.3502 42.5187 38.8545 41.833 38.3911C41.4828 38.154 41.3384 38.2537 41.3491 38.6767C41.3505 38.74 41.4133 38.8181 41.4694 38.8612C41.5496 38.9218 41.6539 38.9461 41.7394 38.9999C42.4505 39.4485 43.159 39.8997 43.8727 40.3537L43.8741 40.355ZM55.5189 39.2707L55.4975 39.2087C55.3077 39.2532 55.1179 39.3003 54.9268 39.3407C54.2999 39.4727 53.7211 39.7314 53.1718 40.0492C52.18 40.6231 51.2457 41.2791 50.4824 42.1492C50.3501 42.3001 50.2672 42.494 50.1616 42.6678C50.187 42.6894 50.2124 42.7096 50.2378 42.7311C50.7591 42.2502 51.255 41.7357 51.8097 41.2993C52.3725 40.8561 52.9726 40.4453 53.5995 40.1031C54.209 39.7704 54.876 39.5441 55.5176 39.2707H55.5189ZM49.2153 50.4507C49.1806 50.8521 49.1525 51.1956 49.1204 51.5378C49.107 51.6752 49.1739 51.7398 49.2955 51.7169C49.7139 51.6401 50.1403 51.5849 50.5439 51.4583C50.8687 51.3559 51.1374 51.1269 51.37 50.7592C50.5787 50.9828 49.8649 51.0246 49.2153 50.4494V50.4507ZM47.2665 66.5096C47.6247 67.3838 50.2138 69.1753 51.3713 69.3114C51.3018 69.2023 51.2711 69.116 51.2096 69.0689C51.1254 69.0029 51.0184 68.9665 50.9209 68.9167C50.4637 68.6823 49.9678 68.5018 49.5602 68.2001C48.9293 67.7327 48.3532 67.1872 47.7664 66.6605C47.6113 66.5217 47.4643 66.4544 47.2638 66.5083L47.2665 66.5096ZM42.3476 67.3178C42.0455 67.1683 42.0255 67.171 41.8384 67.3515C40.9749 68.1853 40.0873 68.9908 39.0461 69.5983C38.8496 69.7128 38.7801 69.8677 38.8309 70.1492C40.1702 69.3989 41.2208 68.3348 42.3476 67.3178ZM37.2269 55.2178C38.192 54.811 39.1437 54.4096 40.09 54.0095C39.8454 53.8034 39.5741 53.7307 39.3281 53.8263C38.7306 54.058 38.1332 54.291 37.5397 54.5321C37.1855 54.6763 37.1106 54.8662 37.2269 55.2164V55.2178ZM36.3835 51.527C35.5655 50.7525 34.7595 49.9901 33.9535 49.2263C34.0417 49.5119 34.0123 49.8405 34.2248 50.1073C34.7073 50.7147 35.2981 51.1929 35.9371 51.6213C36.1295 51.7506 36.2498 51.6738 36.3848 51.5256L36.3835 51.527ZM36.8861 55.4508C36.7431 55.343 36.6802 55.0898 36.465 55.2703C35.8836 55.7552 35.3062 56.2442 34.7434 56.7506C34.5443 56.9298 34.5884 57.1601 34.7929 57.3366C35.4879 56.7116 36.1803 56.0879 36.8874 55.4521L36.8861 55.4508ZM45.5181 64.869C45.311 65.1747 45.4353 65.459 45.5609 65.7216C45.859 66.3399 46.2907 66.8612 46.7799 67.3326C46.9403 67.4875 47.1435 67.5966 47.3199 67.7233C47.4857 67.4606 47.3507 67.3124 47.1903 67.1387C46.8895 66.8113 46.6022 66.4679 46.3388 66.1082C46.0501 65.7122 45.7948 65.2919 45.5168 64.8703L45.5181 64.869ZM45.7962 43.8855C46.0332 43.6565 46.0951 43.406 45.982 43.1339C45.9552 43.0692 45.9298 43.0032 45.9031 42.9372C45.6064 42.2139 45.2214 41.5431 44.7509 40.9207C44.6213 40.7497 44.4996 40.8965 44.3753 40.8979C44.386 40.9719 44.37 41.0662 44.4087 41.1147C44.9688 41.803 45.3778 42.5695 45.6291 43.4208C45.6732 43.5703 45.7333 43.7144 45.7948 43.8828L45.7962 43.8855ZM41.8637 68.7591C42.631 68.192 43.2672 67.5441 43.8701 66.8315C43.7377 66.7669 43.6375 66.7049 43.5279 66.6686C43.4744 66.651 43.3835 66.6564 43.3474 66.6915C42.8956 67.1252 42.4492 67.5657 42.0041 68.0075C41.8089 68.2028 41.7675 68.4399 41.8637 68.7577V68.7591ZM53.5621 39.2815C53.7425 39.2006 53.8789 39.1266 54.0232 39.0767C54.5686 38.8881 55.1126 38.6982 55.6633 38.5271C55.9279 38.445 56.0148 38.2335 56.1565 37.9803C56.0282 37.9924 55.948 37.9978 55.8691 38.0085C55.2356 38.0894 54.6621 38.3628 54.0687 38.577C53.7385 38.6969 53.6343 38.938 53.5621 39.2828V39.2815ZM35.6256 46.7223C35.6123 46.6913 35.5989 46.6589 35.5855 46.628C35.4585 46.6738 35.3115 46.694 35.2072 46.7707C34.8811 47.0146 34.7755 47.389 34.7167 47.7675C34.6418 48.2471 34.6606 48.7037 34.9025 49.1644C35.1097 49.559 35.3235 49.9348 35.5481 50.1921C35.4171 49.7476 35.2326 49.225 35.1137 48.6875C35.0455 48.3804 35.0589 48.049 35.0736 47.7298C35.0936 47.3149 35.3423 47.0065 35.6243 46.7236L35.6256 46.7223ZM53.9671 51.3101C54.5672 51.1081 55.1433 50.9141 55.6192 50.5073C55.1714 50.3255 54.7397 50.1504 54.3213 49.9806C54.2117 50.3928 54.0954 50.8292 53.9684 51.3115L53.9671 51.3101ZM33.1782 58.0478C33.8586 57.2638 34.5336 56.4866 35.2139 55.704C35.087 55.5626 34.9479 55.5181 34.7849 55.7013C34.3852 56.1512 33.9735 56.589 33.5819 57.0456C33.4054 57.2504 33.2638 57.4861 33.106 57.7083C33.0151 57.8363 33.0085 57.9522 33.1769 58.0491L33.1782 58.0478ZM46.8027 47.9224C47.0433 47.3958 46.9457 46.9324 46.8548 46.4825C46.7372 45.8992 46.5714 45.3254 46.4257 44.7489C46.3509 44.4539 46.2787 44.427 45.9873 44.6209C46.3656 45.6635 46.7078 46.7276 46.804 47.9224H46.8027ZM59.5489 57.7393C59.6251 57.6275 59.6746 57.5507 59.7294 57.4753C59.8363 57.3271 59.8483 57.2059 59.6853 57.0753C59.3858 56.8368 59.0998 56.5836 58.8111 56.3317C58.7135 56.2455 58.636 56.259 58.5518 56.3465C58.4743 56.4287 58.39 56.5041 58.2871 56.6038C58.6948 56.9702 59.1105 57.3447 59.5489 57.738V57.7393ZM38.0383 55.3296C37.7028 55.5451 37.3927 55.7444 37.0826 55.9438C37.0812 55.9653 37.0786 55.9882 37.0772 56.0098C37.8912 56.03 38.0957 56.6348 38.3029 57.2989C38.4713 57.113 38.617 56.9527 38.7667 56.7857C38.3586 56.5127 38.1158 56.0273 38.0383 55.3296ZM45.2775 64.2143C45.2521 64.2036 45.2254 64.1928 45.2 64.182C45.1693 64.213 45.1318 64.2413 45.1078 64.2763C44.7683 64.776 44.4208 65.2704 44.0973 65.7809C44.0184 65.9062 44.0091 66.0826 43.9904 66.2389C43.9823 66.3049 44.0358 66.3763 44.0612 66.4463C44.1294 66.4045 44.2243 66.3803 44.2617 66.3197C44.5517 65.8455 44.8458 65.3727 45.1038 64.8811C45.208 64.6831 45.2227 64.4379 45.2775 64.213V64.2143ZM52.6612 57.0631C51.8298 56.3263 48.5898 55.7714 47.2651 55.9182C47.3467 55.968 47.4336 56.0179 47.5244 56.03C48.3906 56.1472 49.2594 56.2509 50.1242 56.3748C50.6616 56.4516 51.2016 56.5311 51.7282 56.6631C52.0517 56.7439 52.3511 56.9271 52.6612 57.0631ZM33.9642 59.4204C33.9428 59.5335 33.904 59.7396 33.8733 59.9066C33.9789 59.978 34.0738 60.0427 34.1994 60.1289C34.3906 60.0737 34.6365 60.0036 34.9092 59.9255C34.6659 59.6938 34.96 59.5362 34.9814 59.3342C34.8865 59.3194 34.8063 59.3059 34.7167 59.2911C34.7555 59.1631 34.7902 59.05 34.825 58.9368C34.6031 59.0998 34.4186 59.1106 34.2863 58.8722C34.1834 59.0473 34.0938 59.2008 33.9642 59.4217V59.4204ZM35.6056 55.4225C36.3661 54.9416 37.1187 54.4648 37.8792 53.9826C37.8097 53.7926 37.6546 53.7886 37.4822 53.8896C36.9182 54.2196 36.3581 54.5564 35.794 54.8891C35.5655 55.0238 35.528 55.2151 35.6069 55.4225H35.6056ZM33.7303 48.829C33.3172 48.2511 32.9189 47.6948 32.5032 47.1142C32.4297 47.1856 32.3749 47.2382 32.3415 47.2705C32.3482 47.4133 32.3522 47.5318 32.3548 47.5897C32.7037 48.0908 33.0272 48.5542 33.352 49.0216C33.4562 48.9677 33.5658 48.9111 33.7276 48.829H33.7303ZM31.5034 61.3547C31.7333 61.3062 31.7574 61.1122 31.8242 60.9586C32.0915 60.3417 32.3508 59.7208 32.6208 59.1038C32.689 58.9476 32.7839 58.8048 32.8735 58.6445C32.681 58.5785 32.562 58.5839 32.4725 58.7779C32.2426 59.2776 31.9886 59.7652 31.7507 60.2609C31.5916 60.5936 31.4419 60.9304 31.5047 61.3533L31.5034 61.3547ZM32.4751 48.5165L32.419 48.5218C32.4324 48.6256 32.4137 48.7468 32.4618 48.829C32.7398 49.295 33.0151 49.7638 33.4041 50.1517C33.5685 50.3147 33.7182 50.4938 33.8572 50.6797C33.9789 50.8441 34.1099 50.8939 34.3211 50.7848C33.7008 50.0224 33.0873 49.2694 32.4751 48.5165ZM34.317 48.6202C34.2729 48.3993 34.2435 48.173 34.1807 47.9561C34.0136 47.3823 34.2088 46.9324 34.6245 46.5498C34.3625 46.3734 34.0163 46.5162 33.8559 46.8637C33.6046 47.4092 33.8318 48.0194 34.317 48.6188V48.6202ZM41.2355 54.7961C41.1794 54.8716 41.1152 54.9551 41.0551 55.0346C40.9575 54.978 40.8813 54.9349 40.8212 54.8999C40.7543 55.0723 40.6982 55.2178 40.634 55.3807C40.634 55.4616 40.634 55.5707 40.6327 55.6798C40.7062 55.665 40.7811 55.6501 40.8559 55.6353C40.8933 55.7296 40.9268 55.8118 40.9428 55.8549C41.0805 55.8522 41.1887 55.8495 41.3278 55.8468C41.3852 55.7633 41.3117 55.4993 41.5336 55.5424C41.5617 55.3834 41.5871 55.2407 41.6058 55.1329C41.4868 55.0251 41.3692 54.9174 41.2342 54.7961H41.2355ZM57.2138 56.3789C57.1617 56.2819 57.1002 56.1687 57.0333 56.0448C56.9585 56.0893 56.8823 56.1364 56.7981 56.1876C56.738 56.1283 56.6831 56.0744 56.6377 56.03C56.5268 56.1458 56.4225 56.2563 56.3049 56.3789C56.4546 56.5095 56.4131 56.6483 56.2822 56.756C56.3931 56.8597 56.496 56.9567 56.5816 57.0348C56.7286 57.0281 56.873 57.0214 57.012 57.016C57.0587 56.9352 57.1162 56.8355 57.1844 56.7156C57.1924 56.6281 57.2031 56.5055 57.2138 56.3789ZM46.6129 63.1866C46.6423 63.196 46.6717 63.2041 46.6997 63.2135C46.7171 63.1179 46.7639 63.0169 46.7492 62.9253C46.6543 62.3272 46.5474 61.7318 46.4418 61.1364C46.4351 61.0974 46.4124 61.061 46.3936 61.0152C46.0114 61.4449 46.2105 62.373 46.6115 63.1866H46.6129ZM51.0505 47.5776C51.0786 47.4658 51.1107 47.3351 51.1481 47.1897C51.108 47.1614 51.0532 47.1223 51.0011 47.0846C51.0144 46.9984 51.0265 46.9243 51.0425 46.8246C50.9396 46.8758 50.8594 46.9149 50.7271 46.9809C50.695 46.8906 50.6602 46.7936 50.6241 46.6953C50.4022 47.0119 50.2271 47.2624 50.0494 47.517C50.151 47.5372 50.2539 47.5587 50.3648 47.5816C50.3434 47.6638 50.3287 47.719 50.3207 47.7514L50.6134 47.777C50.7792 47.7015 50.9195 47.6382 51.0505 47.5776ZM61.1569 61.4853C61.1074 60.9519 61.1609 61.0812 60.7372 60.9438C60.4712 60.8576 60.1945 60.801 59.9218 60.7418C59.6518 60.6839 59.6171 60.7135 59.5382 61.0462C60.0729 61.1917 60.6089 61.3358 61.1569 61.4853ZM30.7843 45.7066C30.7669 45.7174 30.7495 45.7282 30.7308 45.739C30.7482 45.8144 30.7589 45.8939 30.787 45.9652C30.8271 46.0663 30.8899 46.1579 30.9273 46.2589C31.1412 46.8394 31.4259 47.3809 31.8055 47.8685C31.8483 47.9238 31.9285 47.9507 31.9926 47.9911C32.0087 47.9723 32.026 47.9534 32.0421 47.9346C31.994 47.8133 31.9565 47.6854 31.895 47.5695C31.5876 46.989 31.2775 46.4111 30.9607 45.8359C30.9286 45.778 30.8444 45.7484 30.7856 45.7066H30.7843ZM53.6784 48.305C53.8561 48.5744 54.0259 48.8316 54.2023 49.101C54.4028 48.7495 54.5819 48.437 54.7717 48.1029C54.4068 48.0693 54.0446 48.0733 53.6784 48.305ZM56.5722 55.2218C56.5615 55.2501 56.5495 55.277 56.5388 55.3053C56.9465 55.6959 57.4531 55.9397 57.9276 56.2442C58.0113 55.9317 57.9195 55.7157 57.6522 55.5963C57.5319 55.5424 57.417 55.4696 57.2927 55.4292C57.0561 55.3511 56.8141 55.2905 56.5735 55.2218H56.5722ZM43.6281 43.9394C43.3728 43.7225 43.1656 43.5299 42.9384 43.3642C42.8756 43.3184 42.7139 43.3117 42.6671 43.3575C42.504 43.5191 42.3717 43.7117 42.2193 43.9057C42.6992 43.9178 43.1229 43.9272 43.6295 43.9394H43.6281ZM49.1244 61.9891C49.0656 61.9608 49.0081 61.9325 48.9533 61.9069C48.9613 61.8167 48.968 61.7453 48.976 61.6402C48.8771 61.6941 48.805 61.7332 48.7047 61.7884C48.6633 61.7157 48.6218 61.6402 48.5804 61.5661C48.4975 61.6941 48.4294 61.7992 48.3532 61.915C48.3291 62.0403 48.2984 62.1911 48.2756 62.311C48.3839 62.3487 48.5122 62.3945 48.6566 62.4457C48.7408 62.4188 48.8611 62.3811 48.9293 62.3582C49.0001 62.2248 49.0562 62.1184 49.1231 61.9891H49.1244ZM35.7847 60.4266C36.0146 60.8549 36.2472 60.502 36.4597 60.3767C36.5025 60.2501 36.5385 60.1424 36.58 60.0198C36.5091 59.9996 36.4383 59.9807 36.3608 59.9592C36.3634 59.8716 36.3675 59.7948 36.3701 59.7248C36.2766 59.7302 36.187 59.7369 36.1376 59.7396C36.0266 59.846 35.933 59.9363 35.8448 60.0225C35.8275 60.141 35.8087 60.269 35.786 60.4279L35.7847 60.4266ZM54.2384 70.5223C54.2304 70.4967 54.221 70.4711 54.213 70.4455C54.0606 70.4321 53.9003 70.4428 53.7559 70.4011C52.8951 70.1559 52.0396 69.8973 51.1802 69.6468C51.1227 69.6306 51.0599 69.6346 50.9997 69.6292C50.9944 69.6508 50.989 69.6724 50.9837 69.6939C51.0465 69.7262 51.108 69.7693 51.1748 69.7895C51.7496 69.9687 52.323 70.1573 52.9044 70.3176C53.2774 70.4213 53.6623 70.4846 54.0433 70.5573C54.1048 70.5695 54.1743 70.5344 54.2398 70.521L54.2384 70.5223ZM52.736 63.2674C52.2522 63.4425 51.8378 63.3469 51.4448 63.099C51.4034 63.1879 51.3553 63.2539 51.3473 63.3253C51.3406 63.3792 51.374 63.4829 51.4074 63.491C51.8231 63.5853 52.2428 63.6661 52.6598 63.751C52.6839 63.5947 52.7066 63.4573 52.736 63.2674ZM50.1857 69.469C50.2044 69.4434 50.2218 69.4178 50.2405 69.3922C50.1817 69.3423 50.1296 69.2763 50.0627 69.2454C49.4425 68.9692 48.8344 68.6769 48.3398 68.1907C48.2302 68.0829 48.0992 68.0681 47.9522 68.2095C48.6405 68.7604 49.3958 69.147 50.187 69.4676L50.1857 69.469ZM60.7719 60.5586C60.673 60.2393 59.9352 59.8972 59.6893 59.9888C59.6251 60.0131 59.569 60.0952 59.5396 60.1639C59.5235 60.2003 59.5663 60.3027 59.597 60.3107C59.9873 60.401 60.3803 60.4791 60.7719 60.5599V60.5586ZM51.3312 64.1537C51.787 64.2399 52.2268 64.3221 52.6679 64.4043C52.7387 64.2763 52.7748 64.1578 52.593 64.112C52.2682 64.0311 51.9434 63.9544 51.6159 63.8884C51.4408 63.8533 51.3312 63.9288 51.3326 64.1537H51.3312ZM51.8726 69.4043C51.8645 69.4434 51.8565 69.4824 51.8498 69.5215C52.474 69.6966 53.0983 69.8731 53.7198 70.0468C53.796 69.8219 53.7425 69.7262 53.5741 69.6966C53.4819 69.6804 53.3923 69.6562 53.3001 69.6387C52.9111 69.5673 52.5222 69.4959 52.1332 69.4272C52.0477 69.4124 51.9608 69.411 51.8739 69.403L51.8726 69.4043ZM40.9388 62.1238C40.9602 62.5414 41.0671 62.6491 41.436 62.6626C41.6632 62.6707 41.9132 62.5454 41.9399 62.2127C41.6058 62.1831 41.2729 62.1534 40.9388 62.1251V62.1238ZM60.3188 59.648C60.2239 59.1927 59.7895 58.9947 59.3685 59.2372C59.323 59.2628 59.2629 59.3396 59.2736 59.3746C59.2936 59.446 59.3498 59.5524 59.4032 59.5591C59.708 59.6022 60.0167 59.6211 60.3188 59.648ZM52.7588 65.0656C52.716 65.001 52.6786 64.8676 52.6024 64.8393C52.307 64.7289 52.0009 64.6386 51.6921 64.5699C51.6079 64.5511 51.4769 64.6117 51.4087 64.6777C51.3259 64.7599 51.3326 64.8636 51.4903 64.8851C51.906 64.9417 52.3217 65.0037 52.7588 65.0656ZM59.4767 51.0192C59.565 51.1552 59.6385 51.2711 59.7133 51.3856C60.3429 50.9505 60.3563 50.968 60.0782 50.4777C60.0395 50.5046 59.998 50.5262 59.966 50.5571C59.8069 50.7053 59.6505 50.8548 59.4781 51.0192H59.4767ZM43.7337 44.7839C43.5279 44.4553 43.0814 44.2357 42.7687 44.3206C42.52 44.3879 42.4385 44.6088 42.3637 44.8553C42.8208 44.6075 43.2712 44.7004 43.7337 44.7853V44.7839ZM60.6196 50.5571C61.2451 50.0413 61.1823 50.118 60.9471 49.5227C60.7733 49.7368 60.5835 49.9173 60.4725 50.1369C60.4284 50.2244 60.5608 50.4022 60.6209 50.5571H60.6196ZM58.4596 58.5071C58.5718 58.6041 58.656 58.7375 58.7456 58.7415C59.0102 58.7536 59.2762 58.7146 59.5556 58.6957C59.4193 58.3886 59.0544 58.3257 58.4609 58.5071H58.4596ZM44.0585 59.0284C43.8072 59.1752 43.6148 59.2762 43.437 59.4002C43.3942 59.4298 43.3621 59.5578 43.3889 59.5955C43.5038 59.7558 43.6415 59.8999 43.8246 60.1127C43.9061 59.7369 43.977 59.4096 44.0585 59.0297V59.0284ZM42.0362 61.391C41.7648 61.4314 41.5176 61.4611 41.2729 61.5109C41.2075 61.5244 41.1246 61.5904 41.1045 61.6497C41.0885 61.6941 41.1446 61.7978 41.1968 61.8261C41.3999 61.9393 41.6111 61.9339 41.8237 61.8369C42.0429 61.7359 42.1017 61.6012 42.0362 61.3897V61.391ZM58.8164 52.1587C58.9742 52.0483 59.1145 51.9648 59.2348 51.8583C59.2869 51.8112 59.3351 51.7061 59.319 51.6428C59.2869 51.5189 59.2107 51.4071 59.1105 51.2078C58.9127 51.4125 58.7483 51.5822 58.5718 51.7641C58.6453 51.8826 58.7269 52.0133 58.8164 52.1587ZM56.7941 53.3912C56.9719 53.2835 57.1095 53.1797 57.2646 53.1124C57.425 53.0437 57.4277 52.9413 57.3715 52.8134C57.3328 52.7231 57.2766 52.641 57.2125 52.5265C56.9999 52.676 56.8115 52.8093 56.6257 52.9413C56.6831 53.0962 56.7326 53.2255 56.7941 53.3912ZM31.4272 45.8507C31.5395 46.073 31.6384 46.2737 31.7413 46.4731C31.8603 46.702 31.9525 46.7371 32.2172 46.663C32.2145 46.6482 32.2172 46.6307 32.2105 46.6172C32.1383 46.4529 32.0661 46.2899 31.9913 46.1269C31.8879 45.9015 31.6999 45.8094 31.4272 45.8507ZM45.986 59.617C45.8991 60.1949 45.8202 60.7243 45.7333 61.3089C46.0996 61.0893 46.2667 59.8864 45.986 59.617ZM58.1855 51.9715C57.5573 52.3029 57.5439 52.4564 57.9075 52.7689C58.4408 52.513 58.4809 52.4039 58.1855 51.9715ZM39.4177 68.0627C39.2626 68.3186 39.2987 68.5449 39.5019 68.689C39.7305 68.852 39.9256 68.7941 40.1355 68.5072C39.8962 68.359 39.6569 68.2109 39.4177 68.0627ZM46.125 46.5512C45.9084 46.5593 45.7066 46.5552 45.5088 46.5795C45.2882 46.6064 45.1679 46.7573 45.0837 46.997C45.466 46.9459 45.8135 46.8987 46.1758 46.8502C46.1544 46.7196 46.1383 46.6293 46.125 46.5512ZM52.8349 65.8738C52.8483 65.8455 52.8617 65.8173 52.8737 65.7903C52.712 65.5034 52.0156 65.1599 51.7081 65.2327C51.64 65.2488 51.5865 65.335 51.4943 65.4185C51.7883 65.4765 52.0249 65.4994 52.2428 65.5735C52.45 65.6448 52.6371 65.7715 52.8336 65.8738H52.8349ZM55.7582 53.7832C56.3236 53.6256 56.4265 53.4586 56.1605 53.0868C55.9774 53.2013 55.7929 53.3171 55.6005 53.437C55.6579 53.5636 55.7087 53.6754 55.7582 53.7832ZM61.5018 49.5213C61.9322 49.2061 61.9576 49.0755 61.6702 48.6808C61.3066 48.9596 61.2572 49.2088 61.5018 49.5213ZM58.0118 57.9589L58.0051 58.072C58.1027 58.0895 58.2043 58.138 58.2951 58.1192C58.4382 58.0909 58.5705 58.0168 58.7095 57.967C58.8138 57.9293 58.902 57.8808 58.8405 57.7501C58.787 57.637 58.6975 57.5871 58.5732 57.6558C58.386 57.7582 58.1989 57.8579 58.0118 57.9589ZM46.3281 47.3729C45.8202 47.2853 45.3283 47.3526 44.8418 47.5008C45.347 47.5884 45.8456 47.5749 46.3281 47.3729ZM52.9432 44.8782C52.8844 44.9914 52.8069 45.1395 52.7467 45.254C52.8069 45.3429 52.8523 45.4103 52.8737 45.4413C53.01 45.3914 53.1424 45.3429 53.2867 45.2904C53.3001 45.1395 53.3148 44.959 53.3308 44.7812C53.2012 44.8136 53.0956 44.8405 52.9432 44.8782ZM43.0574 43.0167C42.9184 42.8766 42.7847 42.7392 42.6457 42.6072C42.5374 42.5048 42.4305 42.4765 42.349 42.6409C42.2794 42.7823 42.2113 42.9237 42.1364 43.08C42.3102 43.0221 42.4505 42.9426 42.5936 42.9359C42.7486 42.9278 42.9063 42.9884 43.0574 43.018V43.0167ZM54.6742 53.7994C54.8092 54.1402 54.7677 54.1092 55.269 53.9287C55.2516 53.7967 55.2356 53.6633 55.2115 53.4761C55.0097 53.5987 54.8466 53.6956 54.6742 53.7994ZM57.4611 57.4874C57.5119 57.6531 57.6054 57.6989 57.7485 57.6248C57.8781 57.5575 58.0131 57.4955 58.1321 57.4107C58.1815 57.3756 58.1962 57.2908 58.2256 57.2288C58.1521 57.2127 58.0626 57.1615 58.0078 57.1871C57.8193 57.2733 57.6415 57.3851 57.4597 57.4874H57.4611ZM42.4692 41.9108C42.365 41.7801 42.2607 41.5821 41.9734 41.6414C41.9693 41.8259 41.9653 42.0091 41.9627 42.1896C42.1565 42.0832 42.3142 41.9957 42.4706 41.9108H42.4692ZM51.3887 60.2582C51.6052 60.2771 51.8097 60.2959 52.0169 60.3134C51.898 60.1262 51.7884 59.9538 51.664 59.7612C51.5678 59.9336 51.4809 60.0912 51.3887 60.2582ZM40.8867 62.8067C40.8452 62.967 40.8559 62.9832 41.0791 63.0613C41.3572 63.1583 41.428 63.1354 41.5202 62.9279C41.3197 62.8889 41.1139 62.8498 40.8867 62.8067ZM45.5783 47.9561C45.74 48.1649 46.1945 48.1177 46.3843 47.9036C46.1076 47.9211 45.8683 47.9372 45.5783 47.9561ZM45.9218 45.8494C45.8002 45.972 45.7186 46.0541 45.6104 46.1633C45.9312 46.2037 45.9432 46.1915 45.9218 45.8494Z" fill="white"/>
<path d="M54.236 70.5223C54.1706 70.5358 54.101 70.5708 54.0396 70.5587C53.6586 70.4859 53.2737 70.4213 52.9007 70.3189C52.3206 70.1586 51.7472 69.97 51.1711 69.7909C51.1043 69.7693 51.0441 69.7276 50.98 69.6953C50.9853 69.6737 50.9907 69.6522 50.996 69.6306C51.0562 69.636 51.119 69.6306 51.1765 69.6481C52.0346 69.8987 52.8914 70.1573 53.7522 70.4024C53.8965 70.4442 54.0569 70.4334 54.2093 70.4469C54.2173 70.4725 54.2267 70.4981 54.2347 70.5237L54.236 70.5223Z" fill="white"/>
<path d="M50.1831 69.4689C49.3918 69.147 48.6366 68.7604 47.9482 68.2109C48.0953 68.0694 48.2263 68.0842 48.3359 68.192C48.8304 68.6769 49.4386 68.9706 50.0588 69.2467C50.127 69.2763 50.1778 69.3437 50.2366 69.3935C50.2179 69.4191 50.2005 69.4447 50.1818 69.4703L50.1831 69.4689Z" fill="white"/>
<path d="M36.6258 41.7209C36.6258 41.7209 23.7125 6.26661 1.44531 1.33122" stroke="white" stroke-miterlimit="10" stroke-linecap="round"/>
<path d="M31.0598 40.5988C31.0598 40.5988 13.6914 12.7739 1.22314 11.8768" stroke="white" stroke-miterlimit="10" stroke-linecap="round"/>
<path d="M23.9344 39.7004C23.9344 39.7004 17.0226 27.5114 6.17836 25.429C6.01128 25.3966 5.8442 25.367 5.67578 25.3401" stroke="white" stroke-miterlimit="10" stroke-linecap="round"/>
</svg>
