<?xml version="1.0" encoding="UTF-8"?><svg id="Layer_2" xmlns="http://www.w3.org/2000/svg" viewBox="0 0 779.82 122.58"><defs><style>.cls-1{fill:#fff;}.cls-2{fill:#ae8ce6;}.cls-3{fill:#7734e5;}.cls-4{fill:#ff6f1d;}</style></defs><g id="purple"><path class="cls-3" d="m106.36,31.95c-.21,2.83-.61,5.52-1.18,8.07-3.52,16-13.62,26.71-26.24,33.84-.4-.22-.79-.44-1.19-.67-1.34-.74-2.71-1.43-4.1-2.07-14.08-6.58-30.4-9.39-44.09-10.48,30.11.91,38.98-22.37,41.6-30.96.43-1.4,1.33-2.56,2.49-3.32.98-.64,2.15-1.01,3.38-1.01h23.19c3.58,0,6.41,3.05,6.15,6.6Z"/></g><g id="star"><path class="cls-1" d="m78.88,73.85s-.09.06-.11.09c.05-.03.11-.06.16-.09l-.08-.05s0,.03.03.05Z"/><path class="cls-1" d="m107.51,40.01c-.54-2.43-.92-4.98-1.15-7.66h-.05s0,.04,0,.06c-.19,2.29-.5,4.49-.93,6.6-.05.25-.1.51-.16.76-.02.08-.03.16-.05.24-.09.42-.21.83-.31,1.25-.14.56-.27,1.13-.42,1.68-.27.97-.57,1.92-.89,2.85-.15.43-.32.84-.48,1.25-.21.54-.41,1.09-.63,1.62-.18.43-.38.84-.57,1.26-.23.5-.45,1-.69,1.48-.21.41-.42.81-.64,1.22-.25.47-.51.94-.77,1.4-.23.39-.46.78-.7,1.16-.28.45-.56.89-.85,1.33-.25.37-.5.74-.76,1.1-.3.43-.62.85-.93,1.27-.26.35-.52.69-.8,1.03-.34.42-.69.83-1.04,1.25-.27.31-.53.63-.81.94-.4.44-.81.87-1.23,1.3-.24.25-.48.51-.73.76-.66.66-1.34,1.3-2.04,1.93-.15.14-.32.27-.47.4-.56.49-1.13.98-1.72,1.45-.25.2-.51.4-.77.6-.51.39-1.01.78-1.53,1.16-.27.2-.55.39-.83.58-.52.37-1.05.73-1.59,1.09-.26.17-.53.34-.79.51-.58.37-1.16.73-1.76,1.09-.12.07-.23.15-.35.22,0,0-.01,0-.01,0-.38.22-.75.45-1.13.67.38.21.75.44,1.13.67,0,0,.01,0,.02,0,.11.07.22.14.34.21.61.37,1.22.74,1.81,1.12.24.16.49.31.73.47.58.38,1.15.78,1.72,1.18.23.17.47.33.7.5.6.44,1.19.89,1.77,1.35.18.14.36.27.54.42,1.51,1.22,2.95,2.51,4.32,3.87.18.18.35.37.53.55.49.5.97,1.01,1.44,1.53.23.26.45.52.67.78.4.47.8.94,1.18,1.42.24.3.46.6.69.9.35.47.7.94,1.04,1.43.23.33.45.65.67.99.32.48.63.98.94,1.47.21.35.42.69.63,1.05.29.51.57,1.03.85,1.56.19.36.38.71.57,1.08.28.56.53,1.13.79,1.71.16.35.33.7.48,1.06.31.74.59,1.5.87,2.27.18.5.35,1.02.52,1.53.21.66.43,1.32.62,2.01.14.5.26,1.02.38,1.54.1.43.22.84.32,1.28.02.09.03.19.05.28.19.87.34,1.76.49,2.66.06.39.14.76.2,1.16.18,1.26.32,2.56.42,3.88.01.15.01.3.01.44,0-.14,0-.29.01-.44.21-2.79.6-5.45,1.16-7.97,3.51-16.06,13.62-26.79,26.26-33.93-12.62-7.13-22.76-17.83-26.29-33.84Z"/></g><g id="lilac"><path class="cls-2" d="m100.21,122.36h-23.19c-1.23,0-2.4-.36-3.38-1.01-1.16-.76-2.06-1.92-2.49-3.32-2.55-8.37-11.24-26.39-39.38-30.66,13.08,1.4,28.54-4.56,41.87-10.79,1.39-.64,2.76-1.33,4.1-2.07.4-.22.79-.44,1.19-.67,12.65,7.14,22.76,17.87,26.26,33.93.56,2.52.95,5.18,1.16,7.97.26,3.55-2.57,6.6-6.15,6.6Z"/></g><g id="orange"><path class="cls-4" d="m78.93,73.85c-.4.22-.79.44-1.19.67-1.34.74-2.71,1.43-4.1,2.07-13.33,6.23-28.79,12.19-41.87,10.79-.72-.12-1.47-.21-2.22-.3-8.92-1.57-21.14-.12-21.19-.12-.53.06-1.06.11-1.6.16-3.61.39-6.76-2.48-6.76-6.1v-14.33c0-3.62,3.12-6.03,6.76-6.1,9.61-.18,15.45-.18,22.79.05,13.69,1.1,30,3.9,44.09,10.48,1.39.64,2.76,1.33,4.1,2.07.4.22.79.44,1.19.67Z"/></g><g id="i"><rect class="cls-1" x="763.61" y="25.17" width="16.2" height="97.17" rx="1.54" ry="1.54"/></g><g id="u"><path class="cls-1" d="m712.37,26.72c0-.85-.69-1.54-1.54-1.54h-13.11c-.85,0-1.54.69-1.54,1.55v47.04c0,8.95-3.15,16.59-9.46,22.9-6.02,6.03-14.13,9.43-22.65,9.49-8.92.06-16.55-3-22.87-9.18-6.41-6.26-9.79-15.02-9.79-23.98V26.73c0-.85-.7-1.54-1.55-1.54h-13.11c-.85,0-1.54.69-1.54,1.55v45.85c.01,13.61,5.22,26.86,15.03,36.3,9.34,8.98,20.53,13.47,33.58,13.47,13.04,0,24.23-4.5,33.56-13.48,9.8-9.43,15.01-22.69,15.01-36.3V26.72Z"/></g><g id="h"><path class="cls-1" d="m563.96,26.73c0-.85-.69-1.54-1.54-1.54h-13.11c-.85,0-1.54.69-1.54,1.55v37.4c0,.85-.69,1.54-1.54,1.54h-61.69c-.85.01-1.54-.68-1.54-1.53V26.75c0-.85-.7-1.54-1.55-1.54h-13.11c-.85,0-1.54.69-1.54,1.55l.02,94.08c0,.85.69,1.54,1.54,1.54h13.11c.85,0,1.54-.69,1.54-1.55v-37.4c0-.85.69-1.54,1.54-1.54h61.69c.85-.01,1.54.68,1.54,1.53v37.4c0,.85.7,1.54,1.55,1.54h13.11c.85,0,1.54-.69,1.54-1.55l-.02-94.08Z"/></g><g id="a"><path class="cls-1" d="m415.56,74.71c0-13.2-4.97-26.04-14.32-35.35-9.48-9.44-20.9-14.15-34.26-14.15-12.68,0-24.82,4.92-33.89,13.78-9.8,9.58-14.7,21.19-14.7,34.81v47.04c0,.85.7,1.54,1.55,1.54h13.11c.85,0,1.54-.69,1.54-1.55v-13.11c0-.85.69-1.54,1.54-1.54h61.69c.85-.01,1.54.68,1.54,1.53v13.11c0,.85.69,1.54,1.55,1.54h13.11c.85,0,1.54-.68,1.54-1.53,0-6.24,0-30.24,0-46.13Zm-17.74,15.27h-61.69c-.85.01-1.54-.68-1.54-1.53v-14.65c0-8.95,3.15-16.58,9.47-22.9,6.02-6.03,14.14-9.43,22.66-9.49,8.92-.06,16.55,3,22.87,9.18,6.41,6.26,9.78,15.02,9.78,23.98v13.87c0,.85-.69,1.54-1.54,1.54Z"/><rect class="cls-1" x="337.49" width="58.99" height="15.17" rx=".5" ry=".5"/></g><g id="k"><path class="cls-1" d="m241.79,72.29c2.51-1.45,4.88-3.06,7.05-4.86,11.56-9.55,17.88-23.48,18.32-40.35.03-1.05-.83-1.91-1.88-1.91h-12.53c-1.03,0-1.85.82-1.88,1.85-1.08,34.57-32.56,37.3-42.33,37.3h-7.52V27.06c0-1.04-.84-1.88-1.88-1.88h-12.53c-1.04,0-1.88.84-1.88,1.88v93.33c0,1.04.84,1.88,1.88,1.88h12.53c1.04,0,1.88-.84,1.88-1.88v-39.78h7.52c18.97,0,41.52,7.02,42.33,40.11.03,1.03.85,1.86,1.88,1.86h12.53c1.05,0,1.91-.86,1.88-1.91-.48-22.53-9.53-39.23-25.37-48.38Z"/></g></svg>