<svg width="118" height="194" viewBox="0 0 118 194" fill="none" xmlns="http://www.w3.org/2000/svg">
<path d="M95.8831 148.959C97.4015 146.268 97.9881 143.564 98.1628 140.757C98.4249 136.541 97.6262 132.472 96.3407 128.485C94.4521 122.625 91.4694 117.289 88 112.265C82.9624 104.971 77.7333 97.8065 72.5292 90.6293C68.0365 84.4311 63.7601 78.1203 60.2907 71.2556C57.4869 65.703 53.5308 60.8918 49.558 56.1307C44.6326 50.2282 39.387 44.6172 33.8875 39.2437C33.4757 38.8439 32.7685 38.4023 33.3966 37.7567C34.029 37.111 34.4824 37.8025 34.8942 38.2107C42.5444 45.7794 49.8659 53.6439 56.2514 62.3331C57.7198 64.3325 59.076 66.4153 60.5195 68.5105C60.6235 68.4147 60.7483 68.3314 60.8273 68.219C66.9549 59.5256 72.7663 50.6364 77.517 41.1016C78.9605 38.2024 80.1378 35.1699 81.4357 32.1957C81.4731 32.1124 81.4648 31.9833 81.523 31.9416C81.8267 31.7209 82.1803 31.3085 82.459 31.3501C83.0414 31.4376 83.0206 31.9874 82.8625 32.4498C82.6171 33.1663 82.3467 33.8744 82.0638 34.5784C79.0603 42.0763 75.0959 49.0702 70.7779 55.8641C67.8784 60.4211 64.7917 64.8574 61.7758 69.3436C61.2059 70.1892 61.3307 70.6683 62.3124 71.0681C65.1328 72.2137 67.8659 73.5133 70.2745 75.4044C70.99 75.9626 71.639 76.6083 72.3004 77.2331C72.6831 77.5955 72.9327 78.037 72.4294 78.4786C71.9635 78.8868 71.5891 78.5744 71.2604 78.2203C69.0307 75.846 66.2144 74.3714 63.3066 73.0384C63.2068 72.9926 63.0903 72.9801 62.7367 72.8926C63.5812 74.4172 64.2218 75.8293 65.0829 77.0873C69.1555 83.0148 73.2156 88.959 77.4255 94.7907C82.8251 102.276 88.441 109.607 93.0086 117.659C93.3789 118.309 93.7366 118.963 94.3065 119.6C94.5062 118.167 94.7641 116.743 94.9014 115.306C95.5379 108.637 94.6268 102.218 91.6525 96.1694C89.6432 92.0831 86.9309 88.5341 83.3284 85.714C82.8958 85.3766 82.4507 85.0142 82.875 84.4519C83.316 83.8687 83.7985 84.2436 84.2103 84.5685C88.7197 88.1467 91.9021 92.6954 94.0403 98.0148C94.2108 98.4355 94.3772 98.8604 94.552 99.2769C94.5686 99.3227 94.631 99.3477 94.6976 99.4019C96.6444 95.3488 98.5164 91.2666 100.542 87.2678C105.588 77.3081 110.697 67.3817 115.797 57.4511C116.055 56.9513 116.292 56.1265 117.091 56.5514C117.972 57.0221 117.303 57.6427 117.032 58.1676C112.04 67.9149 107.007 77.6413 102.065 87.4136C99.8351 91.8248 97.7718 96.3236 95.6793 100.801C95.4463 101.297 95.3756 101.98 95.5004 102.509C96.9647 108.753 96.7484 114.981 95.4339 121.212C95.3423 121.646 95.3964 122.187 95.5795 122.591C98.038 128.015 99.6728 133.638 99.6188 139.641C99.5813 143.885 98.6245 147.888 96.0371 151.375C95.8956 151.566 95.7542 151.791 95.7167 152.02C94.839 156.857 92.4761 161.043 89.7597 164.996C87.4634 168.341 84.7969 171.432 82.3134 174.652C81.8725 175.222 81.4273 175.814 81.1237 176.459C79.8965 179.071 78.8482 181.737 78.3157 184.607C77.7291 187.76 75.5785 189.156 72.4127 188.652C72.1756 188.614 71.9468 188.56 71.7264 188.519C71.664 188.589 71.6016 188.627 71.5891 188.673C70.5741 193.146 65.1578 194.367 61.2599 192.147C58.3105 190.464 56.9336 187.76 56.7506 184.49C56.6466 182.633 56.9128 180.75 57.0085 178.921C51.95 180.742 48.1852 178.855 45.4896 174.239C40.8554 176.501 36.2462 173.477 35.0024 169.77C34.9317 169.557 34.6779 169.266 34.4907 169.249C32.4149 169.053 31.1336 167.683 29.9314 166.208C28.4921 164.442 27.5353 162.413 26.9071 160.239C26.7366 159.656 26.4953 159.531 25.9212 159.481C24.2947 159.348 23.0883 159.731 21.8237 160.997C19.6148 163.213 16.6903 163.796 13.6286 163.034C10.2882 162.205 8.63667 159.289 9.4645 155.774C9.85137 154.124 10.4504 152.52 10.7874 150.858C11.3822 147.913 11.1326 144.931 10.9246 141.957C10.7707 139.774 10.6043 137.595 10.5045 135.413C10.4754 134.779 10.3672 134.517 9.65585 134.484C7.605 134.384 5.72887 133.167 5.64567 130.256C5.57079 127.64 4.8636 125.045 4.54328 122.429C4.31033 120.508 4.07737 118.559 4.16057 116.635C4.27289 114.077 5.75799 112.115 7.4802 110.328C10.6293 107.062 14.4148 104.746 18.4999 102.88C19.1946 102.563 19.6064 102.159 19.7936 101.41C20.5632 98.3855 21.3869 95.3738 22.1773 92.3538C22.4227 91.4249 22.3229 90.5127 21.7571 89.7379C20.0266 87.3636 18.4458 84.8351 16.4615 82.6941C11.2574 77.0873 5.87031 71.6513 0.55806 66.1487C0.412462 65.9946 0.162865 65.8738 0.121266 65.6988C0.0463871 65.3864 -0.0284919 64.924 0.133746 64.7491C0.291824 64.5783 0.849256 64.5533 1.05725 64.7074C1.63965 65.1323 2.143 65.6738 2.66299 66.1862C8.79891 72.2053 14.9015 78.2578 20.2803 84.9851C21.0749 85.9806 21.7571 87.0637 22.5059 88.0925C23.6915 89.7296 23.9785 91.5249 23.4544 93.4535C22.664 96.3485 21.9526 99.2727 21.025 102.126C19.5565 106.65 17.9591 111.132 16.3742 115.618C16.1495 116.251 16.1662 116.705 16.5406 117.284C18.0007 119.546 19.153 121.946 19.3818 124.686C19.7645 129.235 17.3309 132.867 12.9422 134.117C12.0229 134.38 11.8273 134.771 11.8897 135.617C12.1227 138.857 12.3349 142.102 12.5137 145.347C12.6843 148.496 12.3598 151.591 11.3074 154.591C11.0494 155.328 10.8456 156.103 10.7416 156.877C10.4379 159.064 11.4862 160.751 13.5537 161.514C16.2993 162.53 20.2179 161.343 21.7238 159.014C21.5616 158.935 21.4077 158.852 21.2496 158.781C18.7328 157.694 17.4557 155.765 17.3684 153.037C17.1978 147.805 18.0215 142.681 19.1156 137.599C20.0515 133.23 21.2163 128.927 23.2505 124.916C24.2489 122.949 25.5052 121.267 27.6934 120.446C30.4514 119.413 32.548 120.096 34.0498 122.625C34.1246 122.749 34.212 122.87 34.3118 123.024C35.9467 122.529 37.5815 122.304 39.2497 122.745C42.1284 123.508 44.0003 125.465 45.3482 127.981C45.7558 128.739 46.1635 129.031 47.0496 129.073C50.9391 129.264 53.564 131.914 54.3212 136.217C54.8827 139.428 54.6456 142.631 54.2463 145.835C54.2213 146.035 54.2047 146.239 54.1797 146.518C54.7829 146.393 55.2987 146.247 55.8271 146.185C58.3937 145.885 60.2449 146.905 61.3639 149.242C62.3914 151.396 62.7034 153.72 62.8033 156.061C63.0321 161.359 62.7367 166.641 61.5844 171.819C61.2267 173.435 60.3073 174.939 59.596 176.468C58.3105 179.238 57.8488 182.137 58.2481 185.157C58.4936 187.015 59.2299 188.677 60.6651 189.931C62.6036 191.626 64.8333 192.247 67.3376 191.422C69.1763 190.818 70.1373 189.477 70.1997 187.544C70.3328 183.507 71.4851 179.721 73.0159 176.026C73.6774 174.431 74.293 172.81 74.8671 171.182C75.9029 168.245 75.7365 165.367 74.501 162.488C72.3295 157.419 69.5465 152.687 66.6471 148.022C65.0455 145.443 63.3565 142.919 61.7009 140.374C61.4222 139.945 61.2683 139.52 61.7675 139.187C62.2583 138.857 62.6202 139.137 62.9031 139.561C67.4374 146.426 71.8636 153.349 75.3746 160.826C77.2133 164.742 77.4588 168.624 75.8905 172.64C75.4578 173.739 75.0626 174.856 74.6217 175.955C73.4902 178.771 72.342 181.583 71.8969 184.615C71.8636 184.857 71.822 185.094 71.8054 185.336C71.6598 187.09 72.1382 187.54 73.9353 187.34C75.5493 187.161 76.5644 186.203 76.918 184.266C77.4504 181.341 78.5071 178.609 79.7675 175.939C81.1819 172.952 82.667 169.995 84.0273 166.983C84.9134 165.025 85.6455 162.997 86.4317 160.993C87.3178 158.723 87.1098 156.486 86.2778 154.241C84.4807 149.384 81.7435 145.052 78.869 140.799C77.4047 138.637 75.8031 136.571 74.3138 134.425C74.1308 134.163 74.2681 133.68 74.2556 133.301C74.6508 133.392 75.229 133.342 75.4162 133.588C79.8299 139.395 84.0273 145.347 86.9642 152.079C87.4593 153.212 87.8295 154.411 88.1665 155.603C88.8196 157.902 88.3536 160.135 87.5175 162.284C86.6397 164.546 85.6414 166.758 84.6971 168.995C84.5931 169.236 84.4849 169.478 84.5307 169.824C85.1006 169.078 85.683 168.345 86.2404 167.591C88.7904 164.142 90.9994 160.497 92.8256 156.598C94.6934 152.612 94.814 148.592 93.6118 144.448C91.9437 138.687 89.0234 133.563 85.5706 128.714C85.4833 128.59 85.3169 128.473 85.3127 128.348C85.3002 127.952 85.3502 127.552 85.3751 127.152C85.7329 127.265 86.2612 127.261 86.4234 127.506C87.9335 129.743 89.481 131.968 90.8247 134.305C93.0752 138.212 94.8348 142.34 95.5836 146.83C95.6377 147.159 95.6627 147.493 95.7084 147.822C95.75 148.117 95.7999 148.417 95.8831 148.95V148.959ZM53.4975 140.503L53.2354 140.461C53.2354 138.295 53.0815 136.154 52.1954 134.134C51.4633 132.459 50.2819 131.23 48.4764 130.789C44.9114 129.918 43.3847 130.514 41.7623 133.534C41.4045 134.2 41.0385 134.892 40.8679 135.617C40.0942 138.916 39.2289 142.207 38.6922 145.551C37.9934 149.921 37.619 154.345 37.0241 158.731C36.7204 160.98 36.1339 163.192 35.8676 165.446C35.4101 169.324 37.6315 172.66 41.0842 173.427C43.0477 173.864 44.8531 173.473 45.9472 171.661C46.879 170.115 47.8358 168.491 48.2892 166.77C49.5913 161.789 50.7478 156.765 51.7628 151.716C52.5074 148.009 52.9317 144.239 53.4975 140.494V140.503ZM34.524 167.799C34.1704 165.408 34.8651 163.28 35.1896 161.097C35.955 155.936 36.5291 150.75 37.228 145.576C37.7479 141.727 38.3803 137.891 39.8446 134.263C40.7348 132.055 41.9079 130.052 44.3123 129.169C43.4928 127.207 41.8746 125.386 40.1399 124.599C37.4443 123.378 33.8917 123.445 32.5272 127.452C32.3317 128.027 32.0821 128.585 31.9323 129.169C31.3957 131.285 30.8508 133.396 30.3848 135.529C29.0495 141.636 27.7599 147.759 27.5353 154.032C27.373 158.544 28.6917 162.597 31.6827 166.029C32.3983 166.85 33.2261 167.562 34.524 167.791V167.799ZM61.6926 159.102C61.6135 159.093 61.5345 159.085 61.4596 159.073C61.4471 156.215 61.3931 153.358 60.3822 150.633C59.3172 147.759 57.3954 146.893 54.5583 148.022C54.2213 148.155 53.8594 148.592 53.7845 148.95C52.7778 153.728 51.9084 158.535 50.8268 163.292C50.0655 166.633 49.0755 169.924 47.0205 172.773C46.8499 173.01 46.8957 173.548 47.0371 173.848C48.1936 176.272 50.1571 177.68 52.782 178.101C54.9243 178.446 56.7006 177.697 58.1109 176.035C59.3214 174.602 60.0744 172.923 60.324 171.115C60.8731 167.125 61.2516 163.109 61.6967 159.102H61.6926ZM26.046 158.048C26.1667 155.282 26.1583 152.641 26.4163 150.025C27.0195 143.852 28.3506 137.804 29.765 131.776C30.4015 129.064 30.988 126.311 32.8767 124.095C32.964 123.995 32.9599 123.758 32.9141 123.608C32.469 122.162 30.9007 121.196 29.4156 121.467C27.7974 121.762 26.4204 122.495 25.5385 123.924C24.8729 125.007 24.2365 126.119 23.7331 127.282C21.8653 131.593 20.7754 136.137 19.9351 140.74C19.1863 144.835 18.5997 148.955 18.7994 153.141C18.8992 155.199 19.8935 156.64 21.7696 157.448C23.1881 158.056 24.6857 158.177 26.0419 158.048H26.046ZM18.7952 104.45C18.5706 104.484 18.4833 104.475 18.4125 104.509C14.939 106.162 11.6942 108.162 8.9445 110.886C7.33461 112.482 5.79127 114.194 5.60407 116.576C5.47927 118.134 5.59575 119.729 5.79127 121.287C6.16982 124.295 6.77301 127.273 7.10581 130.285C7.30549 132.093 7.93364 132.938 9.74737 133.08C15.0513 133.501 18.97 128.935 17.8135 123.703C17.2103 120.975 15.8126 118.651 14.2235 116.405C13.9905 116.076 13.7409 115.489 13.8824 115.239C14.0446 114.952 14.6353 114.906 15.2094 114.689C16.345 111.444 17.5556 107.991 18.7952 104.455V104.45Z" fill="white"/>
<path d="M46.8042 8.97307C46.3216 9.94363 46.8874 11.8348 47.8442 12.368C48.4515 12.7054 48.959 13.3552 49.8368 12.9719C51.2803 12.3471 52.6239 11.6265 53.0691 9.96446C53.8886 6.89865 52.0207 4.01613 48.543 3.13721C45.577 2.38742 42.9146 3.15804 40.5892 5.11582C40.3854 5.2866 40.3188 5.61151 40.1857 5.86561C40.4311 5.94892 40.6891 5.9989 40.9179 6.11554C41.6625 6.4946 42.4945 6.78202 43.1101 7.3152C43.8298 7.93586 43.3389 9.58956 42.4404 9.93947C41.5418 10.2852 40.7806 9.73536 40.8679 8.71064C40.9428 7.82756 40.6516 7.6651 39.8196 7.79423C38.7838 7.95252 38.1557 8.47738 37.8145 9.42711C37.1115 11.3849 37.3611 13.3843 37.4401 15.3213C38.2597 14.559 38.9793 13.7551 39.828 13.1261C40.8763 12.3513 42.5735 12.4554 43.6301 13.1969C44.5994 13.8759 44.953 15.1255 44.4912 16.2169C44.1543 17.0083 43.0436 17.3749 42.1201 17C41.4004 16.7084 41.2257 16.0544 41.6209 15.1338C41.7249 14.8881 41.8497 14.6506 41.962 14.409C41.9162 14.3132 41.8663 14.2216 41.8206 14.1258C41.2881 14.3049 40.6558 14.3591 40.2523 14.6965C39.7323 15.1297 39.2788 15.7295 39.0001 16.3502C38.1307 18.2746 38.9793 21.5654 40.7099 22.9608C41.0385 21.5362 41.7582 20.4199 42.9229 19.5743C43.9089 18.8578 45.2733 19.0369 45.8807 20.0533C46.2967 20.7489 46.1136 21.3488 45.5728 21.8694C45.0071 22.411 44.5994 22.0111 44.1585 21.632C43.3265 20.9197 43.21 20.9572 42.7066 21.8903C42.5902 22.1069 42.4446 22.3068 42.3281 22.5193C41.5876 23.923 41.675 24.802 42.7441 25.935C43.6218 26.8639 44.5536 27.747 45.6311 28.8217C45.706 28.2926 45.7184 27.9552 45.8058 27.6345C46.1053 26.5265 46.2883 25.356 46.7834 24.3396C47.3824 23.1108 48.7053 22.7859 49.8326 23.344C50.8352 23.8397 51.2137 24.8978 50.7478 25.9058C50.3692 26.7306 49.3625 26.8472 48.8093 26.1308C48.6429 25.9141 48.5306 25.6392 48.3309 25.4643C47.9232 25.1102 47.4448 25.1102 47.3658 25.7059C47.2202 26.8472 47.112 28.0094 47.1744 29.1549C47.2243 30.1005 47.8275 30.8211 48.5888 31.4251C50.9724 33.3246 53.5017 34.9699 56.3221 36.1571C57.229 36.5403 58.0402 36.5695 58.9512 36.1155C61.9172 34.6284 64.4756 32.5956 66.7969 30.2629C67.8909 29.1632 67.8368 27.6845 67.5498 26.2682C67.4125 25.5809 67.1005 24.9269 66.8676 24.2563C66.7636 24.2479 66.6596 24.2396 66.5556 24.2313C66.3268 24.527 66.0647 24.8061 65.8775 25.1269C65.5863 25.6351 65.2494 26.1599 64.6087 25.885C63.9639 25.6101 63.3524 25.156 63.5147 24.2813C63.6603 23.4898 64.018 22.8442 64.8375 22.5443C65.7194 22.2235 66.4932 22.2943 67.1962 22.99C68.1613 23.9439 68.5399 25.156 68.8602 26.414C68.9559 26.7889 69.089 27.1513 69.2429 27.6428C69.505 27.4262 69.6839 27.3221 69.8045 27.1763C70.3827 26.4598 70.9069 25.6975 71.5226 25.0186C72.9785 23.4065 72.4877 22.2985 71.3686 20.4698C71.0275 19.9117 70.599 19.895 70.1997 20.4157C69.7962 20.9447 69.2887 21.4279 68.6813 20.9322C68.3319 20.649 68.1114 19.9991 68.1322 19.5243C68.1572 18.8411 68.5482 18.0997 69.3303 18.133C70.0749 18.1622 70.9443 18.3579 71.5142 18.7995C72.3629 19.4493 72.9993 20.3824 73.7273 21.1946C75.1833 19.9158 75.6159 17.0416 74.6425 14.8631C74.0892 13.6259 72.9453 12.872 71.6723 13.0094C71.8096 13.4218 71.9344 13.8092 72.0633 14.1966C72.4045 15.2005 71.847 15.9753 70.7821 15.9669C69.4509 15.9544 68.5565 14.6132 69.0058 13.2927C69.6131 11.5099 71.169 10.8975 73.2198 11.4932C74.0934 11.7473 74.8131 12.5429 75.5993 13.1052C75.799 13.2469 75.9695 13.4302 76.3148 13.7426C76.3148 11.3391 76.0694 9.21467 74.9795 7.33186C74.5094 6.51959 73.5443 6.23217 72.5542 6.29465C72.0259 6.32798 71.7763 6.54042 72.0592 7.04861C72.5209 7.87754 72.0592 8.33158 71.4061 8.66066C70.8154 8.95641 70.129 8.55235 69.8295 7.80257C69.297 6.47377 70.0791 5.09916 71.5226 4.84506C71.9011 4.77841 72.2797 4.73259 72.8329 4.65761C72.5875 4.33687 72.4793 4.1161 72.3046 3.98697C69.6007 2.02919 66.6887 1.30439 63.498 2.66234C61.8174 3.37881 60.6235 4.66595 59.9496 6.34464C58.8597 9.03972 60.7982 12.0514 63.6686 12.2388C65.5156 12.3596 67.1463 10.0228 66.4557 8.03167C66.1646 8.30659 65.9191 8.54402 65.6695 8.77729C65.1204 9.28965 64.5588 9.81034 63.731 9.41461C62.9198 9.02722 62.3707 8.33575 62.4414 7.46099C62.5038 6.67788 62.899 5.95308 63.7892 5.66566C64.9748 5.27827 66.0273 5.49071 66.9383 6.32798C68.0032 7.30687 68.3319 8.54819 68.0199 9.92697C67.4625 12.3929 65.8318 13.7384 63.3774 13.8342C61.1352 13.9217 58.9013 12.1972 58.0943 9.84366C56.8296 6.14886 59.2715 2.79564 61.7675 1.33355C65.3367 -0.761698 70.2496 -0.253507 73.6483 2.46656C77.854 5.82812 79.3183 10.3477 78.9522 15.5212C78.6527 19.7784 76.918 23.5398 74.4844 27.018C71.7722 30.8878 68.6356 34.3618 64.9166 37.261C63.2401 38.5689 61.3224 39.5728 59.4795 40.66C58.6642 41.1432 57.7823 41.189 56.8296 40.9016C54.4252 40.181 52.2371 39.023 50.2028 37.5942C46.1178 34.7283 42.3946 31.4418 39.3953 27.4346C36.5 23.5648 34.4491 19.2952 34.5573 14.3174C34.6613 9.58123 36.4459 5.59069 40.4062 2.81646C42.8606 1.09611 45.6061 0.404642 48.6013 1.16276C51.7753 1.9667 54.1798 3.64956 55.0284 6.99446C56.0184 10.8892 53.3727 13.855 50.4691 14.3424C48.776 14.6256 47.3034 14.13 46.2551 12.872C45.0237 11.3932 44.6244 9.65205 45.5728 7.81506C46.3133 6.37797 48.2061 5.82395 49.5997 6.6154C50.4816 7.11526 50.8227 8.06083 50.44 8.96474C50.1446 9.66038 48.7344 10.4143 48.0771 10.0978C47.5946 9.86449 47.241 9.37712 46.8208 8.9939L46.8042 8.97307Z" fill="white"/>
</svg>
