<svg width="38" height="47" viewBox="0 0 38 47" fill="none" xmlns="http://www.w3.org/2000/svg">
<path d="M4.30238 17.7916C4.31142 17.7283 4.32147 17.6639 4.33051 17.6006C3.6896 17.4986 3.05069 17.3838 2.40677 17.3076C2.29626 17.2948 2.16567 17.4472 2.04311 17.5224C1.97346 17.3673 2.12549 17.2502 2.49919 17.171C2.33444 17.0552 2.18777 16.9533 2.00293 16.8227C2.25407 16.7801 2.44193 16.7484 2.62878 16.7178C2.62777 16.6821 2.62677 16.6475 2.62576 16.6118C2.38768 16.5238 2.1506 16.4357 1.91252 16.3486C1.92156 16.3169 1.9306 16.2852 1.93864 16.2526C2.64786 16.3921 3.35709 16.5317 4.06531 16.6702C4.07334 16.6445 4.08138 16.6188 4.08942 16.593C3.03161 16.2011 1.9748 15.8082 0.916992 15.4163C0.929047 15.3747 0.942106 15.3321 0.954161 15.2906C1.65334 15.345 2.35252 15.3985 3.05069 15.4529C3.05772 15.4173 3.06476 15.3816 3.07179 15.346C2.69809 15.1283 2.32339 14.9095 1.94969 14.6918C1.98987 14.6146 2.03005 14.5374 2.06923 14.4602C2.97636 14.8858 3.88448 15.3114 4.79161 15.7369C4.81672 15.6845 4.84083 15.633 4.86595 15.5806C4.30339 15.2629 3.74083 14.9462 3.17827 14.6285C3.20037 14.5918 3.22348 14.5552 3.24558 14.5176C3.39426 14.5661 3.54293 14.6136 3.69161 14.6621L3.74384 14.4473C4.15572 14.6839 4.56759 14.9204 4.98047 15.156C5.01764 15.0966 5.0548 15.0382 5.09298 14.9788C4.7012 14.7324 4.31343 14.48 3.91362 14.2484C3.87444 14.2256 3.75891 14.3296 3.67855 14.3741C3.27572 14.2514 2.87188 14.1296 2.56046 14.0346C2.66393 13.902 2.78147 13.7526 2.898 13.6031C3.20439 13.708 3.51078 13.8129 3.89553 13.9455C3.50576 13.1439 3.00549 12.9608 2.64083 13.3992C2.53033 13.1993 2.41882 12.9994 2.30832 12.7995L2.30229 12.8143C2.44293 12.848 2.58357 12.8826 2.76238 12.9261C2.5243 12.4629 2.32037 12.0671 2.11544 11.6692C2.11845 11.6672 2.13352 11.6534 2.1496 11.6504C2.64686 11.5781 3.24457 12.0225 3.63736 11.3713C3.64942 11.3515 3.83626 11.3842 3.86741 11.4356C4.1517 11.9067 4.60074 11.7632 4.99453 11.7612C5.12312 11.5405 5.24165 11.3376 5.43453 11.0051C4.58668 10.82 3.78704 10.6458 2.95727 10.4637C3.03462 10.2955 3.09791 10.1589 3.1632 10.0154C4.39882 10.2757 5.60028 10.529 6.80175 10.7834C6.82586 10.73 6.85097 10.6755 6.87508 10.6221C6.30449 10.3697 5.75298 10.0045 5.15526 9.90453C4.75243 9.83723 4.36969 9.72836 3.97791 9.63631C3.58311 9.54328 3.1843 9.46905 2.7875 9.3869C2.79553 9.34633 2.80357 9.30476 2.8106 9.26418C3.33699 9.3295 3.86339 9.39383 4.38878 9.45915C4.11553 9.26418 3.81818 9.15828 3.52184 9.04842C2.97736 8.84652 2.93215 8.77526 3.0748 8.46647C4.13261 8.85444 5.1854 9.24142 6.23919 9.62741C6.25627 9.58287 6.27334 9.53932 6.29042 9.49478C6.12467 9.40571 5.95992 9.31564 5.79417 9.22657C5.80019 9.20381 5.80622 9.18005 5.81225 9.15729C5.97298 9.17214 6.13371 9.18698 6.29444 9.20183C6.32458 9.16026 6.35371 9.1177 6.38385 9.07613C6.2412 8.94252 6.11965 8.76932 5.95188 8.68223C5.51289 8.45558 5.02266 8.31405 4.61179 8.04979C4.1959 7.78257 3.93773 7.23229 3.28978 7.46388C3.23352 7.48368 3.12704 7.36887 3.04467 7.31641C3.06375 7.26198 3.08183 7.20655 3.10092 7.15212C4.12257 7.42627 5.14421 7.69943 6.29042 8.00625C5.22759 7.3372 4.26019 6.72852 3.24658 6.09114C3.26969 6.05551 3.35608 5.91794 3.41937 5.81798C3.68056 6.00504 3.88247 6.18912 4.11654 6.31086C5.02969 6.78592 5.94887 7.24911 6.87809 7.6935C6.97353 7.73902 7.1433 7.63312 7.34321 7.58067C6.63398 6.98783 6.02421 6.4702 5.4054 5.96347C5.07289 5.69129 5.07289 5.4211 5.32302 5.14695C5.91572 5.45079 6.48029 5.73979 7.04586 6.02978C7.06293 6.01295 7.08001 5.99613 7.09709 5.98029C6.81983 5.64775 6.54156 5.31619 6.2643 4.98365C6.75051 5.46861 7.22668 5.96248 7.72495 6.43457C8.24632 6.92745 8.78878 7.39955 9.38348 7.93598C9.26696 7.33522 6.95746 4.49868 6.24924 4.02065C5.94083 4.18395 5.87252 4.38882 6.1106 4.68178C6.18595 4.77482 6.22713 4.89556 6.28339 5.00443C6.05937 4.72038 5.83636 4.43633 5.63846 4.18593C6.40896 3.39317 6.71435 4.30866 7.21965 4.5264C7.18047 4.3146 7.14933 4.14436 7.11718 3.97413C7.1654 3.94543 7.21362 3.91772 7.26184 3.88902C7.41152 4.03945 7.58631 4.17406 7.70686 4.34429C8.12577 4.93911 8.5075 5.55966 8.94148 6.1436C9.08011 6.33065 9.33627 6.43259 9.64568 6.64835C9.69691 6.71169 9.87271 6.86807 9.97116 7.06206C10.1349 7.38173 10.1148 7.39163 10.4965 7.32532C9.6949 6.17923 8.93043 5.08559 8.16595 3.99096C8.177 3.98205 8.18705 3.97314 8.1981 3.96424C8.56778 4.35517 8.93645 4.74611 9.30613 5.13705C9.1675 4.74413 8.9696 4.39377 8.77673 4.04044C8.43216 3.41098 8.43819 3.29321 8.72148 3.11011C9.51207 4.28095 10.3027 5.45178 11.0923 6.62163C11.1445 6.58996 11.1967 6.55829 11.249 6.52662C10.9295 5.90013 10.6111 5.27462 10.2916 4.64813C10.3127 4.63823 10.3328 4.62834 10.3539 4.61844C10.4574 4.76294 10.5608 4.90843 10.6643 5.05293C10.4192 4.18692 10.1098 3.35853 9.81947 2.52419C9.77728 2.40345 9.82148 2.254 9.82549 2.11742C9.93901 2.19462 10.1108 2.24707 10.157 2.35297C10.5347 3.22492 10.9034 4.10181 11.2449 4.9876C11.5323 5.73286 11.7794 6.49297 12.0446 7.24713C12.1049 7.22635 12.1651 7.20655 12.2254 7.18577C11.8969 5.46861 11.3153 3.82666 10.6744 2.18076C10.8642 2.46481 11.0531 2.74985 11.2429 3.0339C11.2881 3.00916 11.3344 2.98441 11.3796 2.95967C11.2128 2.55982 11.045 2.16097 10.8662 1.73242C11.2218 1.43352 11.3293 1.45827 11.4489 1.94125C11.483 2.07783 11.5242 2.21342 11.5714 2.34704C12.0687 3.74551 12.566 5.14398 13.0713 6.54047C13.1295 6.70279 13.232 6.84927 13.3144 7.00267C13.3525 6.98486 13.3897 6.96803 13.4279 6.95022C13.2239 6.18121 13.021 5.41318 12.8171 4.64417C12.8663 4.63032 12.9145 4.61745 12.9638 4.60359C13.1124 5.10736 13.2601 5.61113 13.4088 6.11489C13.3254 4.78669 12.9025 3.51787 12.7839 2.2065C12.8673 2.18868 12.9497 2.17087 13.0331 2.15305C13.3184 3.13881 13.6047 4.12457 13.894 5.12419C14.4093 3.99987 14.0236 2.76173 14.1421 1.58297C14.1974 1.58297 14.2526 1.58297 14.3069 1.58297C14.3822 2.01152 14.4565 2.44007 14.5319 2.86961C14.5711 2.86367 14.6092 2.85872 14.6484 2.85278V1.63147C15.1045 1.6572 14.995 1.97193 15.0171 2.20353C15.0412 2.44997 15.0533 2.6974 15.0844 2.94186C15.1155 3.18137 15.1648 3.4189 15.206 3.65742C15.2301 3.65445 15.2542 3.65049 15.2793 3.64753C15.3034 3.48125 15.3275 3.31399 15.3627 3.06458C15.3627 3.61882 15.3597 4.08993 15.3647 4.56104C15.3657 4.69465 15.3486 4.85102 15.4099 4.95692C15.5264 5.15685 15.6942 5.32708 15.9001 5.58539C15.9624 5.37854 16.097 5.15685 16.0789 4.94901C16.0267 4.35418 15.9222 3.76332 15.8157 3.17444C15.7856 3.00619 15.665 2.85575 15.6108 2.68948C15.433 2.14612 15.2411 1.60376 15.1135 1.04852C15.0774 0.88918 15.2401 0.685298 15.3667 0.35968C15.661 1.2435 15.9031 1.97094 16.1462 2.69938L16.3301 2.64593C16.3301 2.44403 16.3301 2.24213 16.3301 2.0808C16.4797 2.10159 16.6385 2.12336 16.8243 2.14909C16.8243 2.66474 16.8414 3.17048 16.8203 3.67425C16.7922 4.32845 16.981 4.89754 17.4743 5.51512C17.5215 5.21029 17.5998 5.02027 17.5707 4.84805C17.4019 3.8425 17.2 2.84189 17.0282 1.83634C16.9881 1.60079 17.0222 1.35336 17.0222 1.03764C17.2352 1.77795 17.4019 2.43017 17.6169 3.06656C17.6832 3.26351 17.8781 3.41791 18.0067 3.5822C18.0067 3.80984 18.0067 4.083 18.0067 4.50165C18.6456 3.35754 17.8339 2.38464 17.9745 1.37513C18.071 1.39888 18.1272 1.39888 18.1333 1.4167C18.4276 2.20155 18.7189 2.98738 19.0092 3.77322C19.0153 3.78906 19.0233 3.81479 19.0163 3.82469C18.7149 4.22453 19.0022 4.33736 19.3699 4.51056C19.2564 3.67623 19.1539 2.92404 19.0514 2.17087L19.2614 2.11049C19.6823 3.0527 20.1032 3.99393 20.5231 4.93614L20.5804 4.92228C20.5372 4.31954 20.494 3.71582 20.4508 3.11308C20.4789 3.11011 20.5071 3.10615 20.5352 3.10318C20.5924 3.28331 20.6507 3.46344 20.708 3.64258C20.7311 3.63763 20.7542 3.63169 20.7773 3.62674C20.7401 3.27143 20.7029 2.91612 20.6628 2.54102C20.5703 2.62218 20.5201 2.66572 20.4689 2.71026C20.4106 2.57269 20.2951 2.43116 20.3031 2.29755C20.3323 1.82941 20.4036 1.36424 20.4619 0.878293C20.9179 0.934707 21.1651 1.22469 21.2123 1.70966C21.3007 2.62416 21.3891 3.53866 21.4835 4.45217C21.4935 4.5452 21.5458 4.63427 21.602 4.79065C21.6422 4.64516 21.6593 4.57885 21.6804 4.51254C21.6844 4.49967 21.7065 4.49275 21.7196 4.48285C21.7356 4.61349 21.7527 4.74413 21.7688 4.87478C21.819 4.87577 21.8693 4.87676 21.9195 4.87775C22.0159 3.65049 22.1114 2.42423 22.2078 1.19698C22.253 1.19797 22.2992 1.19995 22.3444 1.20094C22.3444 2.55884 22.3444 3.91772 22.3444 5.27561C22.3816 5.28155 22.4187 5.28749 22.4559 5.29244C22.7482 4.42742 23.0416 3.5634 23.3339 2.69839C23.363 2.70927 23.3922 2.72016 23.4213 2.73105C23.363 3.19127 23.3048 3.65247 23.2465 4.11269C23.2998 4.1216 23.352 4.13051 23.4052 4.13942C23.5248 3.82271 23.6443 3.506 23.7639 3.19028C23.8282 3.1972 23.8935 3.20314 23.9577 3.21007C23.9577 3.47235 23.9959 3.74254 23.9477 3.99591C23.8925 4.28688 23.7558 4.56203 23.6644 4.84608C23.579 5.11033 23.5067 5.37854 23.4283 5.64577C23.4615 5.65468 23.4956 5.66358 23.5288 5.67249C23.6333 5.48048 23.7377 5.28749 23.8422 5.09548C23.8693 5.10637 23.8975 5.11825 23.9246 5.12913C23.7156 5.6616 23.5077 6.19407 23.2767 6.78394C23.4494 6.67112 23.5609 6.59689 23.6735 6.52365C23.4746 7.00168 23.2696 7.47675 23.0788 7.95775C22.9662 8.24279 22.8768 8.53575 22.7764 8.82573L22.9743 8.90095C23.1943 8.38333 23.4193 7.86868 23.6333 7.34808C23.7207 7.13628 23.795 6.91756 23.8482 6.69586C23.8573 6.65924 23.7267 6.58996 23.6604 6.53651C23.8935 5.64379 24.7262 3.96325 25.1934 3.60992C24.9121 4.56895 24.67 5.39636 24.4279 6.22376C24.4721 6.24158 24.5163 6.2584 24.5595 6.27622C24.8538 5.64973 25.1482 5.02422 25.4957 4.28589C25.4756 4.5452 25.4656 4.66991 25.4465 4.91437C25.6535 4.59271 25.7911 4.37893 25.9287 4.16515C25.6565 5.42704 24.6398 6.36232 24.3616 7.61234C24.4108 7.64005 24.46 7.66776 24.5093 7.69449C25.1642 6.77207 25.8192 5.84866 26.4742 4.92624C26.5345 4.96187 26.5937 4.99849 26.654 5.03412C26.1939 5.83282 25.7328 6.63153 25.2727 7.43023C25.3069 7.31542 25.341 7.20062 25.3782 7.07492C24.8036 7.46091 24.2661 8.33285 24.3365 8.87423C24.5595 8.54465 24.7403 8.27644 24.9221 8.00724C24.9051 8.06761 24.886 8.12897 24.8679 8.19132C24.9412 8.18539 25.0477 8.20716 25.0829 8.16757C25.2466 7.98249 25.4144 7.79247 25.5389 7.58067C26.0884 6.64439 26.6219 5.69921 27.1673 4.75997C27.2025 4.6996 27.2849 4.66595 27.3451 4.62042C27.3914 4.64813 27.4376 4.67485 27.4848 4.70257C27.1543 5.35776 26.8238 6.01295 26.4451 6.76514C26.6781 6.62856 26.7987 6.55829 26.8941 6.50286C26.5325 7.23526 26.1728 7.96468 25.8122 8.6941C25.8825 8.73765 25.9518 8.7812 26.0221 8.82474C26.3325 8.41698 26.642 8.01021 26.9614 7.59056V7.87164C26.9946 7.88847 27.0277 7.90431 27.0609 7.92113C27.3733 7.52128 27.6857 7.12144 28.0192 6.69586C28.1649 6.78295 28.3276 6.87896 28.4904 6.97595C28.0936 7.78158 27.7018 8.58919 27.2989 9.39086C26.9202 10.145 26.5254 10.8923 26.1497 11.6484C26.1115 11.7266 26.1598 11.8454 26.1668 11.9453C26.1829 11.9394 26.202 11.9374 26.214 11.9275C26.2271 11.9166 26.2331 11.8978 26.2421 11.883C26.0111 12.3788 25.779 12.8737 25.548 13.3695C25.5922 13.3943 25.6354 13.419 25.6796 13.4438C26.0251 12.9321 26.3577 12.4125 26.7213 11.9137C26.8911 11.6811 27.1543 11.5128 27.314 11.2753C27.5491 10.9269 27.3472 10.7329 26.9946 10.6409C27.1995 10.4439 27.4798 10.2826 27.5943 10.0441C27.977 9.24735 28.3216 8.42985 28.63 7.60145C28.6933 7.43221 28.5386 7.18379 28.4833 6.96902C29.1232 7.26099 29.1524 7.37481 28.8168 8.00922C28.402 8.79307 28.0031 9.58584 27.5963 10.3746C27.6445 10.4024 27.6927 10.4291 27.7409 10.4568C27.9107 10.1797 28.0966 9.91047 28.2452 9.62345C28.7104 8.72973 29.1534 7.82414 29.6265 6.93438C29.6848 6.82452 29.8696 6.77998 29.9962 6.70477C29.9731 6.83541 29.9781 6.97793 29.9229 7.09373C29.4939 7.99239 29.0529 8.88512 28.6149 9.78081C28.6501 9.80259 28.6852 9.82436 28.7204 9.84613C28.9856 9.53635 29.2508 9.22657 29.516 8.91679C29.5462 8.93856 29.5773 8.96132 29.6074 8.9831C29.3312 9.39779 29.0539 9.81347 28.7777 10.2282C28.8199 10.2598 28.862 10.2915 28.9042 10.3222C29.3613 9.90552 29.8184 9.48885 30.3076 9.04248C30.3408 9.27804 30.3629 9.43045 30.386 9.59771C30.4995 9.47895 30.5929 9.37998 30.6873 9.281C30.7547 9.34039 30.822 9.39977 30.8893 9.46014C30.2062 9.99162 29.7169 10.6735 29.0599 11.2496C28.3829 11.8434 27.8685 12.6173 27.2829 13.3121L27.306 13.3547C27.8866 12.9331 28.4683 12.5114 29.0489 12.0898L29.1966 12.2759C28.7094 12.6866 28.2211 13.0974 27.7339 13.5081C27.7711 13.5487 27.8083 13.5902 27.8454 13.6308C29.0871 12.8836 30.1047 11.8533 31.2288 10.9487C30.8189 11.3495 30.4081 11.7504 29.9982 12.1522C30.0213 12.1809 30.0454 12.2086 30.0685 12.2373C30.6331 11.8929 31.1977 11.5484 31.7622 11.205C31.7934 11.2496 31.8245 11.2941 31.8557 11.3386C31.3504 11.781 30.8451 12.2234 30.3408 12.6658L30.4272 12.8559C30.8832 12.7312 31.3403 12.6065 31.7592 12.4926C31.8768 12.6441 31.9822 12.7787 32.1319 12.9707C31.3283 13.4715 30.5296 13.9683 29.731 14.4661C29.7461 14.4929 29.7611 14.5206 29.7762 14.5473C30.6954 14.1257 31.6146 13.7031 32.5337 13.2814C32.5629 13.3339 32.591 13.3854 32.6201 13.4378C32.0445 13.7892 31.4679 14.1415 30.8923 14.4929C30.9204 14.5334 30.9485 14.575 30.9767 14.6156C31.4197 14.7057 31.8617 14.7967 32.3851 14.9036C31.7924 15.0916 31.272 15.2569 30.7516 15.4222C30.7557 15.4509 30.7607 15.4786 30.7647 15.5073C31.0731 15.5073 31.3825 15.5073 31.6909 15.5073C31.6989 15.5509 31.707 15.5944 31.714 15.638C31.3544 15.7449 30.9957 15.8517 30.6361 15.9586C31.1635 16.0131 31.6728 15.927 32.1821 15.926C32.7276 15.926 33.0782 15.7587 33.1676 15.1253C33.3464 15.2906 33.4851 15.4559 33.5182 15.639C33.5303 15.7063 33.2982 15.8725 33.1596 15.8983C32.38 16.0408 31.5995 16.1843 30.8119 16.2704C29.6245 16.401 28.4311 16.4852 27.2407 16.5881C27.2387 16.6138 27.2367 16.6396 27.2357 16.6643C27.3552 16.6871 27.4747 16.7098 27.6515 16.7425C27.4567 16.789 27.3261 16.8197 27.2839 16.8296C28.5868 16.7722 29.9691 16.7118 31.3263 16.6524C31.4116 16.8593 31.4679 16.9978 31.5633 17.2304C30.5889 17.2304 29.6707 17.2304 28.7515 17.2304C28.7515 17.2849 28.7515 17.3403 28.7505 17.3947C30.0032 17.4818 31.2569 17.5699 32.5679 17.661C32.5639 17.7094 32.5518 17.846 32.5418 17.9539C32.2424 17.9252 32.0094 17.8757 31.7803 17.8886C31.485 17.9054 31.1846 18.039 30.8993 18.0064C29.511 17.848 28.1257 17.6629 26.7424 17.463C26.2281 17.3888 25.7358 17.2472 25.2536 17.5966C25.113 17.6986 24.8729 17.659 24.6851 17.7094C24.5203 17.754 24.3134 17.7896 24.2139 17.9044C23.2857 18.9802 22.3715 20.0679 21.4714 21.1665C21.381 21.2764 21.3398 21.5238 21.4031 21.6426C21.9868 22.7501 22.5574 23.8675 23.2114 24.9354C24.1175 26.415 25.0849 27.857 26.0372 29.308C26.7072 30.3294 27.3954 31.3389 28.0795 32.3513C28.1076 32.3939 28.1669 32.4157 28.2945 32.5057C27.8113 30.944 27.6274 29.4693 28.0634 27.9728C28.3969 26.8287 28.9535 25.8301 30.1328 25.361C30.8069 25.0927 31.5332 24.9542 32.2324 24.7483C33.041 24.5108 33.8467 24.2653 34.6474 24.0248C34.6775 24.4247 34.6895 24.8701 34.7478 25.3085C34.8211 25.8509 34.9387 26.3873 35.0281 26.9277C35.4691 29.6177 34.126 32.9947 31.1063 33.8626C30.6954 33.9804 30.3468 34.312 29.9711 34.5465C29.7049 34.7128 29.6778 34.9088 29.8676 35.1621C31.061 36.7506 32.2273 38.3589 33.4459 39.9286C34.577 41.3865 35.7534 42.8107 36.9287 44.2349C37.1839 44.5447 37.0473 44.7921 36.8956 45.0366C36.5651 45.569 36.2044 46.0837 35.8056 46.6805C33.7382 44.8 32.6633 42.2753 30.9274 40.2503C29.1654 38.1946 27.7882 35.8936 26.3988 33.5261C25.3893 33.9943 24.4691 34.5327 23.4786 34.8603C20.8587 35.7253 18.5512 35.0869 16.5189 33.2837C15.3315 32.2296 14.5108 30.7727 12.9577 30.1176C12.9366 30.1086 12.9336 30.0552 12.8914 29.9315C13.0702 29.8949 13.237 29.8345 13.4058 29.8305C14.0316 29.8157 14.6705 29.8968 15.2813 29.7989C16.534 29.5989 17.7656 29.2664 19.0183 29.0625C20.2408 28.8626 21.4765 28.8181 22.6809 29.2209C22.9733 29.3188 23.2656 29.4168 23.7056 29.5653C23.2194 28.8774 22.8246 28.3202 22.4318 27.762C21.3861 26.2765 20.494 24.7097 19.9797 22.9639C19.8742 22.6056 19.7175 22.5442 19.3719 22.5709C18.2498 22.658 17.1247 22.7362 15.9996 22.7639C14.2376 22.8075 13.6398 23.1885 13.006 24.8344C12.5931 25.9063 12.1199 26.9544 11.6679 28.0104C11.6277 28.1045 11.5433 28.1807 11.48 28.2658C11.4398 28.245 11.3997 28.2242 11.3595 28.2034C11.5955 27.6551 11.8326 27.1068 12.0687 26.5585C12.0255 26.5368 11.9833 26.515 11.9401 26.4932C11.692 26.9188 11.4449 27.3434 11.1967 27.7689C11.1435 27.7373 11.0902 27.7066 11.037 27.6749C11.0551 26.7802 11.8497 26.2101 12.1772 25.2788C11.2902 26.0924 10.5166 26.802 9.75718 27.4997C9.6718 27.4453 9.54522 27.3651 9.40458 27.2761C9.70495 26.8653 10.0003 26.4605 10.2956 26.0567C10.2715 26.035 10.2474 26.0122 10.2243 25.9904C9.61353 26.5615 9.00276 27.1336 8.39198 27.7046C8.3518 27.6828 8.31262 27.6601 8.27243 27.6383C8.35581 27.4879 8.41307 27.3147 8.52659 27.1919C8.97664 26.7129 9.44979 26.2547 9.90084 25.7766C10.0033 25.6678 10.0535 25.5114 10.1279 25.3768C10.0877 25.3352 10.0475 25.2927 10.0063 25.2511C9.53216 25.5223 9.05801 25.7935 8.58385 26.0647C8.56074 26.0369 8.53764 26.0092 8.51453 25.9815C9.14239 25.4164 9.77024 24.8503 10.4795 24.2109C9.22878 24.0031 8.42211 24.9186 7.34321 24.9304C7.80631 24.6622 8.27043 24.394 8.73353 24.1258C8.71746 24.0951 8.70138 24.0654 8.68531 24.0347C8.19609 24.1565 7.70686 24.2772 7.21764 24.399C7.72896 24.0427 8.41307 23.8704 8.26842 23.0411C7.76412 23.3449 7.24074 23.6606 6.637 24.0248C6.8359 23.5003 7.01472 23.0282 7.19353 22.5561C7.16942 22.5323 7.1443 22.5096 7.1202 22.4858C6.69627 22.7748 6.27234 23.0648 5.74494 23.4241C6.46321 22.371 7.1212 21.408 7.77819 20.444C7.57727 20.4846 7.41554 20.5767 7.28595 20.7014C6.75654 21.2131 6.24421 21.7426 5.70777 22.2463C5.61636 22.3324 5.43955 22.3295 5.30193 22.3671C5.30193 22.3275 5.30293 22.2879 5.30394 22.2483C5.54704 22.0434 5.78914 21.8386 6.03225 21.6337C5.98102 21.5733 5.92978 21.5139 5.87955 21.4536C5.60129 21.6545 5.33207 21.8692 5.04175 22.0513C4.77654 22.2176 4.57764 22.6135 4.14868 22.3849C4.42193 21.4407 5.49983 21.3952 5.9549 20.6727C5.49782 20.831 5.06284 21.027 4.62786 21.2249C4.10047 21.4654 3.55097 21.505 3.34001 21.317C3.58713 21.1685 3.83325 21.0201 4.08841 20.8676C4.09444 20.9577 4.10047 21.0339 4.11353 21.2111C5.09298 20.7162 6.02522 20.2451 6.95746 19.773C6.92933 19.7047 6.9022 19.6354 6.87408 19.5672C5.86147 19.7987 4.84987 20.0303 3.83727 20.2629C3.83325 20.2491 3.82923 20.2342 3.82521 20.2204C4.03818 20.1293 4.25115 20.0392 4.57864 19.8997C3.73078 20.0026 3.01654 20.0887 2.2832 20.1778C2.55042 19.8848 2.7443 19.673 2.92713 19.4731C2.79352 19.4296 2.6348 19.3781 2.47608 19.3257C2.47608 19.2821 2.47608 19.2376 2.47608 19.194C2.9211 19.1307 3.36613 19.0683 3.81115 19.005C3.30686 18.8536 2.80558 18.8061 2.32439 18.6833C2.13955 18.6358 1.99992 18.4191 1.83918 18.2785C1.86832 18.237 1.89745 18.1944 1.92759 18.1528C1.74174 18.1172 1.5559 18.0806 1.37106 18.045L1.34594 17.8925C1.52476 17.846 1.71261 17.8183 1.87937 17.7441C1.9517 17.7124 1.97982 17.5847 2.02704 17.5006C2.7654 17.8035 3.52887 17.8421 4.30037 17.7857L4.30238 17.7916ZM12.5891 18.6002C12.57 18.6705 12.5519 18.7407 12.5328 18.811C13.5504 19.0396 14.5691 19.2683 15.5867 19.4969C15.7755 19.6176 15.9453 19.774 16.1462 19.8601C16.9007 20.1857 17.6611 20.4975 18.4276 20.7954C18.6386 20.8775 18.8987 20.8508 19.0966 20.9518C19.2986 21.0547 19.4513 21.2516 19.6261 21.407C19.4693 21.5436 19.3297 21.7673 19.1519 21.8019C18.6275 21.9039 18.0901 21.9524 17.5556 21.984C16.6083 22.0405 15.66 22.0781 14.7117 22.1048C14.4144 22.1137 14.115 22.0622 13.8819 22.0434C13.896 22.2315 13.9131 22.4472 13.9322 22.7085C13.9553 22.7145 14.0407 22.762 14.115 22.7501C14.7418 22.6462 15.3637 22.471 15.9935 22.4334C17.2251 22.3582 18.4628 22.3641 19.6964 22.3225C20.0078 22.3126 20.1846 22.4136 20.3082 22.7095C21.385 25.2877 22.9622 27.5888 24.4771 29.9196C25.1793 30.9994 26.0432 31.9753 26.7766 33.0372C27.102 33.5083 27.2417 34.0992 27.54 34.5921C28.197 35.6788 28.85 36.7744 29.5974 37.8017C31.4468 40.3463 33.3464 42.8542 35.228 45.3751C35.2782 45.4424 35.3526 45.4909 35.5374 45.6581C35.5866 45.2345 35.6178 44.9247 35.6589 44.6169C35.679 44.4635 35.664 44.2428 35.7574 44.1725C36.1803 43.8568 35.9252 43.5688 35.7263 43.3244C34.79 42.1723 33.8015 41.0589 32.8884 39.889C31.1856 37.7077 29.4206 35.5719 28.0825 33.1322C27.6083 32.2682 26.9272 31.517 26.3878 30.6856C25.0959 28.6943 23.8201 26.6921 22.5644 24.679C22.0882 23.916 21.7306 23.0807 21.2414 22.3265C20.0912 20.5569 20.5673 18.6833 20.8074 16.8217C20.9199 15.9468 21.0716 15.0778 21.1982 14.2039C21.2153 14.0891 21.1851 13.9673 21.0525 13.7892C20.9621 13.9258 20.8265 14.0505 20.7893 14.1999C20.4357 15.6221 20.1072 17.0493 19.7496 18.4705C19.6853 18.7269 19.5196 18.9595 19.401 19.2029C19.1961 19.007 18.9289 18.8456 18.7983 18.6101C18.3492 17.8064 17.9504 16.9761 17.5275 16.1586C17.4572 16.023 17.3587 15.9002 17.2724 15.7726C17.2111 15.7765 17.1498 15.7805 17.0885 15.7844C17.0885 15.9329 17.0333 16.1111 17.0966 16.2259C17.7606 17.4274 18.4477 18.616 19.1127 19.8175C19.178 19.9353 19.2082 20.1699 19.1388 20.2392C19.0354 20.3441 18.8093 20.4242 18.6717 20.3866C17.637 20.1085 16.6113 19.7987 15.5827 19.4979C14.5841 19.199 13.5866 18.8991 12.5881 18.6002H12.5891ZM31.1494 25.4946C29.3824 26.0755 28.5577 27.4097 28.3537 29.1555C28.1448 30.9489 28.5737 32.6196 29.4939 34.2348C30.0866 33.927 30.6472 33.4994 31.278 33.3331C33.5855 32.7245 35.1135 29.0774 34.5981 27.0712C34.4022 26.3081 34.3239 25.5163 34.1812 24.6701C33.1114 24.9581 32.1148 25.1789 31.1505 25.4956L31.1494 25.4946ZM21.3187 29.4198C20.3071 29.2684 19.3227 29.3446 18.3362 29.5722C17.0895 29.8592 15.8388 30.1314 14.5902 30.4105C15.9413 32.0148 17.425 33.544 19.4503 34.4545C20.4076 34.885 21.3941 34.9622 22.3856 34.6435C23.4052 34.3149 24.4078 33.9339 25.4144 33.5647C25.7469 33.443 26.0673 33.2876 26.5013 33.1006C26.2642 32.9046 26.0864 32.676 25.8524 32.577C23.8693 31.7407 21.8271 31.2923 19.6361 31.4022C18.3995 31.4636 17.1478 31.2231 15.9041 31.1043C15.8137 31.0954 15.7344 30.9687 15.649 30.8975C15.7595 30.8371 15.878 30.7124 15.9785 30.7262C16.5631 30.8064 17.1408 30.9677 17.7274 31.0063C18.509 31.0578 19.2996 31.0657 20.0821 31.0152C21.6945 30.9103 23.2083 31.323 24.7212 31.7724C24.9754 31.8476 25.2245 31.9396 25.6083 32.0673C24.5243 30.4541 23.0878 29.685 21.3187 29.4208V29.4198ZM12.0717 17.1126C11.9361 17.2948 11.8045 17.4729 11.5965 17.753C13.9081 18.5527 16.2376 19.393 18.6496 19.9848C18.6818 19.9423 18.7129 19.8997 18.745 19.8571C18.5391 19.5216 18.3362 19.1841 18.1272 18.8516C17.5707 17.9638 17.0152 17.076 16.4436 16.1972C16.3984 16.1269 16.2286 16.0883 16.1302 16.1071C15.3466 16.2565 14.566 16.4208 13.7865 16.5851C13.5776 16.6287 13.3716 16.689 13.1627 16.7385C12.7247 16.8434 12.2063 16.8395 12.1209 17.4759C12.1039 17.3502 12.0868 17.2255 12.0707 17.1126H12.0717ZM17.1247 14.6977C17.0885 14.7739 17.1156 14.9066 17.1608 14.9877C17.7907 16.1279 18.4286 17.2641 19.0665 18.3993C19.1067 18.4705 19.165 18.5329 19.2614 18.6606C19.5497 17.37 19.8229 16.1536 20.0882 14.9363C20.1092 14.8393 20.1082 14.7096 20.06 14.6294C19.5628 13.8189 19.0524 13.0162 18.5461 12.2106C18.4798 12.1888 18.4135 12.167 18.3472 12.1453C17.9374 12.9944 17.5245 13.8426 17.1247 14.6967V14.6977ZM11.8055 18.9486C11.7653 18.9961 11.7261 19.0436 11.686 19.0911C11.8818 19.3613 12.0637 19.6424 12.2756 19.9007C12.6232 20.3233 12.9477 20.7796 13.3596 21.1329C13.7955 21.507 14.2677 21.8039 14.9518 21.7257C16.1945 21.5852 17.4512 21.5684 18.7019 21.4981C18.8194 21.4912 18.9349 21.4644 19.0514 21.4466C19.0595 21.3932 19.0665 21.3387 19.0745 21.2853C16.6515 20.5064 14.2285 19.7275 11.8065 18.9486H11.8055ZM21.8562 18.9337C22.2239 18.4171 22.5925 17.8975 23.0044 17.4145C23.2124 17.171 23.2425 16.9929 23.0858 16.7187C22.9381 16.4604 22.8367 16.1714 22.7523 15.8854C22.6548 15.5538 22.5122 15.2045 22.913 14.9323C22.9763 14.8887 22.9411 14.7047 22.9522 14.5849L22.7824 14.4879C22.7482 14.6037 22.7151 14.7195 22.6609 14.9066C22.4911 14.5958 22.3956 14.4196 22.3103 14.2652C21.4072 14.3741 21.4765 15.0788 21.4021 15.727C21.2605 16.9681 21.0837 18.2053 20.925 19.4444C20.8928 19.6938 20.8808 19.9462 20.8597 20.1966C20.9039 20.2085 20.9481 20.2214 20.9913 20.2332C21.2786 19.7987 21.5538 19.3563 21.8562 18.9327V18.9337ZM23.2375 16.021C23.2375 16.021 23.2073 16.0626 23.2174 16.0814C23.6624 16.9246 23.2867 17.556 22.7553 18.2261C22.0983 19.0535 21.5478 19.963 20.9511 20.837C20.9923 20.8686 21.0345 20.9003 21.0756 20.932C21.3609 20.5588 21.6292 20.1719 21.9345 19.8166C22.5825 19.0634 23.2264 18.3053 23.9226 17.5966C24.1325 17.3828 24.5103 17.3294 24.9633 17.1374C24.6509 17.0107 24.4048 16.8583 24.1396 16.8157C23.7388 16.7504 23.5037 16.3931 23.6956 16.021C23.5439 16.021 23.3972 16.021 23.2375 16.021ZM20.486 6.59293C20.4769 6.56027 20.2921 6.57709 20.1896 6.57115C19.9817 5.47257 19.7727 4.372 19.5648 3.27143C19.5045 3.27935 19.4452 3.28826 19.385 3.29618C19.4412 3.69404 19.4945 4.0929 19.5547 4.48978C19.618 4.90744 19.7335 5.32312 19.7476 5.74276C19.7757 6.59788 20.5965 7.19963 20.4809 8.09928C20.4508 8.33582 20.5422 8.58721 20.5774 8.83167C20.6377 8.82375 20.6979 8.81683 20.7582 8.80891C20.9561 8.04781 20.6919 7.32037 20.485 6.59194L20.486 6.59293ZM23.0808 5.42308C23.0104 5.4023 22.9401 5.3825 22.8698 5.36172C22.3916 6.27721 21.9637 7.20754 22.0089 8.27842C22.0752 8.29821 22.1405 8.319 22.2068 8.33879C22.4981 7.36689 22.7884 6.39399 23.0798 5.42209L23.0808 5.42308ZM11.1565 7.74496C11.1113 7.77069 11.0651 7.79544 11.0199 7.82117C11.476 8.63274 11.9331 9.44431 12.3892 10.2559L12.5258 10.1797C12.3771 9.19688 11.9773 8.35364 11.1565 7.74496ZM13.8217 10.3103C13.6609 8.92075 12.9557 7.8756 12.585 6.57412C12.4082 7.30157 13.3164 9.58188 13.8217 10.3103ZM9.58138 21.8118C9.42065 21.8445 9.30613 22.0998 9.0791 22.3562C9.72102 22.3997 10.1731 22.4314 10.6754 22.466C10.5669 21.9801 10.1379 21.698 9.58038 21.8118H9.58138ZM18.3945 4.54817C18.078 5.27858 18.4567 5.92289 18.5492 6.72456C18.9359 6.04561 18.8365 5.02818 18.3945 4.54817ZM2.92211 11.9127C3.10193 12.46 3.82521 12.7529 4.39983 12.5184C4.05325 11.9641 3.52786 11.8543 2.92211 11.9127ZM10.3891 20.9844C10.375 21.1289 10.3649 21.222 10.3609 21.2655C10.1158 21.3011 9.89782 21.3338 9.67983 21.3655C9.68385 21.414 9.68787 21.4634 9.69289 21.5119C10.4021 21.5119 11.1123 21.5119 11.8216 21.5119C11.8336 21.4941 11.8467 21.4763 11.8587 21.4585C11.3796 21.3031 10.8994 21.1487 10.3901 20.9834L10.3891 20.9844ZM11.041 11.492C11.0691 11.4406 11.0973 11.3891 11.1254 11.3376C10.4664 10.9962 9.80741 10.6557 9.05399 10.2648C9.5191 11.1753 10.375 11.1625 11.041 11.491V11.492ZM11.7161 12.3759C11.7281 12.3274 11.7402 12.2799 11.7523 12.2314C11.2128 11.9137 10.6452 11.7028 9.99929 11.8087C9.98522 11.8632 9.97216 11.9176 9.9581 11.972C10.5438 12.1067 11.1294 12.2403 11.7161 12.3749V12.3759ZM11.9371 14.0861C12.5077 14.4176 13.0934 14.3434 13.677 14.3404C13.671 14.2553 13.6639 14.1702 13.6579 14.0861H11.9371ZM6.78367 6.12677L6.69526 6.22673C7.25481 6.7206 7.81435 7.21447 8.3739 7.70834C8.42211 7.65193 8.47134 7.5965 8.51956 7.54009C7.94093 7.06898 7.3623 6.59689 6.78367 6.12578V6.12677ZM27.3401 14.7274C27.2949 14.6661 27.2497 14.6037 27.2045 14.5423C26.7374 14.868 26.2713 15.1936 25.8041 15.5192C25.8574 15.5924 25.9106 15.6647 25.9639 15.7379C26.422 15.4014 26.881 15.0639 27.3391 14.7274H27.3401ZM29.4879 13.809C28.9806 13.7268 28.9314 13.7605 28.3115 14.6809C28.6893 14.4008 29.068 14.1207 29.4879 13.809ZM25.4425 11.5039C25.3903 11.4871 25.338 11.4703 25.2858 11.4524C24.7795 11.8572 24.9914 12.5045 24.7413 12.9964C24.7976 13.0142 24.8528 13.032 24.9091 13.0499C25.0869 12.5342 25.2647 12.0186 25.4425 11.5039ZM4.59672 13.2676C4.55553 13.3438 4.51535 13.42 4.47416 13.4962C4.85389 13.6981 5.23462 13.9 5.61435 14.1009C5.65654 14.0237 5.69873 13.9475 5.74092 13.8703C5.35919 13.6694 4.97846 13.4685 4.59672 13.2676ZM19.4472 13.037C19.6763 13.4527 19.9043 13.8684 20.1334 14.285C20.3493 13.6318 19.8219 13.3755 19.4472 13.037ZM14.0939 16.2971C14.0839 16.2348 14.0748 16.1724 14.0648 16.1101C13.4952 16.1932 12.9256 16.2753 12.357 16.3585C12.3671 16.4238 12.3781 16.4891 12.3881 16.5544C12.9567 16.4683 13.5253 16.3822 14.0949 16.2971H14.0939ZM10.4895 20.3431C10.3921 20.3045 10.2313 20.4223 10.0987 20.4688C10.1881 20.5559 10.2655 20.6964 10.37 20.7212C10.6683 20.7904 10.9787 20.8112 11.2841 20.8518C11.2952 20.831 11.3062 20.8102 11.3173 20.7895C11.043 20.636 10.7778 20.4589 10.4885 20.3431H10.4895ZM29.3904 13.3567C29.8616 13.6338 30.0605 13.5774 30.4563 13.1379C30.4352 13.0825 30.4141 13.0281 30.392 12.9727C30.0796 13.0924 29.7672 13.2122 29.3894 13.3567H29.3904ZM16.6023 6.86312C16.6495 6.87203 16.6967 6.87995 16.7429 6.88885C17.0611 6.41577 17.0962 6.05287 16.8484 5.80016C16.761 6.17824 16.6817 6.52068 16.6023 6.86312ZM7.56823 13.5734C7.53408 13.6269 7.49992 13.6803 7.46577 13.7337C7.63152 13.8555 7.7812 14.0198 7.96705 14.0861C8.11472 14.1385 8.30659 14.0693 8.57581 14.0445C8.36988 13.5427 7.89371 13.7278 7.56823 13.5734ZM10.5176 25.9479C10.5538 25.9825 10.59 26.0162 10.6261 26.0508C11.0491 25.6034 11.473 25.1561 11.8959 24.7087C11.912 24.7256 11.927 24.7424 11.9431 24.7582C11.468 25.1551 10.9928 25.551 10.5176 25.9479ZM11.5734 20.0788C11.5242 20.1392 11.474 20.1986 11.4248 20.259L12.5348 21.1398C12.577 21.0883 12.6192 21.0379 12.6604 20.9864C12.2977 20.6836 11.9351 20.3817 11.5734 20.0788ZM6.65609 9.10681C6.82284 9.54328 7.04184 9.66798 8.02129 9.88473C7.59234 9.64027 7.1644 9.3968 6.65609 9.10681ZM8.02832 21.1725C7.64056 21.1853 7.35928 21.5555 7.39946 22.1256C7.60239 21.8188 7.80431 21.5129 8.02832 21.1725ZM3.06074 18.5428C3.05773 18.5705 3.05572 18.5982 3.0527 18.6259C3.45453 18.6259 3.85535 18.6259 4.25718 18.6259L4.26321 18.5428C3.86238 18.5428 3.46156 18.5428 3.06074 18.5428ZM17.7626 6.38311C17.8359 6.37024 17.9103 6.35738 17.9836 6.34352C17.9163 6.01988 17.848 5.69723 17.7807 5.37359C17.6973 5.39141 17.6129 5.40922 17.5295 5.42605C17.6069 5.74474 17.6852 6.06343 17.7626 6.38212V6.38311ZM3.21042 19.6552C3.21946 19.7018 3.2285 19.7483 3.23654 19.7948C3.777 19.6919 4.31745 19.5899 4.85891 19.487C4.84385 19.4395 4.82777 19.391 4.8127 19.3435C4.27827 19.4474 3.74485 19.5513 3.21042 19.6552Z" fill="white"/>
<path d="M2.30343 12.8142C2.20298 12.7033 2.10252 12.5935 2.00206 12.4826C1.95987 12.4915 1.91768 12.5005 1.87549 12.5084C1.87549 12.6964 1.87549 12.8835 1.87549 13.0715C1.9227 13.0874 1.97092 13.1042 2.01814 13.12C2.11458 13.0141 2.21101 12.9082 2.30846 12.8003C2.30846 12.7984 2.30343 12.8132 2.30343 12.8132V12.8142Z" fill="white"/>
<path d="M30.1789 33.3954C31.094 30.5866 31.5129 27.6105 34.0736 25.5677C32.5326 25.5153 29.4908 31.792 30.1789 33.3954Z" fill="white"/>
</svg>
