<svg width="81" height="107" viewBox="0 0 81 107" fill="none" xmlns="http://www.w3.org/2000/svg">
<path d="M80.8809 44.2676C79.4747 43.9838 78.066 43.7098 76.6598 43.4185C72.5303 42.5646 68.3612 41.9969 64.1524 41.7328C60.4099 41.4983 56.6748 41.5502 52.9497 41.9697C48.8252 42.4362 44.7875 43.3272 40.7821 44.4058C36.9379 45.44 33.2227 46.8147 29.6017 48.4461C28.7907 48.8114 28.0094 49.2434 27.0942 49.7049C30.1597 38.5761 36.2633 29.9524 46.6948 24.5545C46.3451 24.4385 46.0524 24.362 45.7796 24.2436C45.0256 23.9128 44.2121 23.6586 43.5475 23.1995C42.047 22.1629 41.5634 20.3143 42.2181 18.5619C42.8803 16.7947 44.227 15.5952 45.663 14.4771C46.1392 14.1044 46.6451 13.7712 47.1759 13.3936C46.7196 12.9025 46.2954 12.4483 45.8738 11.9942C45.725 11.8338 45.5341 11.6881 45.4472 11.4981C45.1546 10.8514 44.6313 10.8218 44.0013 10.77C41.6427 10.575 39.2915 10.301 36.9379 10.0468C35.611 9.9012 34.2842 9.73584 32.9598 9.57541C32.7192 9.54579 32.4786 9.50383 32.2405 9.46928C32.2182 9.41498 32.1959 9.36068 32.1736 9.30391C32.5009 9.0102 32.7862 8.62764 33.1656 8.4376C35.549 7.25289 37.8704 5.88307 40.5713 5.50298C41.608 5.35736 42.6596 5.24629 43.7012 5.2537C44.9463 5.25863 46.0301 4.92543 46.9924 4.15784C47.3346 3.88388 47.7017 3.6346 48.0216 3.33595C49.7329 1.7366 51.8286 1.16646 54.1004 1.05539C54.15 1.05539 58.6515 0.88262 58.4456 0.956664C61.2705 1.25284 63.6961 2.33142 65.7397 4.13316C67.1534 5.3771 68.4877 6.74198 69.6831 8.19325C72.88 12.0682 75.1543 16.4763 76.8458 21.1806C78.9936 27.1535 80.3626 33.2893 80.5809 39.6522C80.5933 40.0076 80.6428 40.363 80.6751 40.7184C80.6949 40.7184 80.876 42.7892 80.876 44.2725L80.8809 44.2676ZM54.1178 18.2262C54.0012 17.9424 53.9467 17.5969 53.7507 17.3747C53.4432 17.0243 53.0265 17.086 52.6396 17.3106C52.2255 17.5524 51.9948 18.051 52.0841 18.5125C52.2329 19.2801 52.9422 19.875 53.7408 19.9046C54.5196 19.9342 55.1495 19.4233 55.3703 18.5841C55.6828 17.3945 55.1347 16.2369 53.964 15.6421C52.6297 14.9634 51.1888 14.8227 49.7205 14.8424C47.3942 14.8745 44.7875 16.6812 43.9443 18.8408C43.5822 19.7664 43.5871 20.645 44.2369 21.4595C45.3034 22.7972 48.0464 23.0811 49.3807 21.9877C50.3753 21.1732 50.4695 19.4159 49.5667 18.4977C49.0608 17.9844 48.2721 17.935 47.6149 18.3793C47.0296 18.7742 46.8808 19.3073 47.1809 20.0156C47.2875 20.2674 47.4289 20.5019 47.5727 20.7808C46.8857 20.6524 46.4616 20.1884 46.412 19.5763C46.3401 18.6878 46.9031 17.7153 47.7314 17.2982C48.5127 16.9033 49.6362 17.044 50.3083 17.624C50.4894 17.7795 50.6605 17.9449 50.8862 18.1522C50.9159 17.8856 50.9209 17.7178 50.9556 17.5574C51.2185 16.385 52.9745 15.9432 53.9368 16.8046C54.4526 17.2661 54.4898 17.6832 54.1178 18.2287V18.2262ZM54.4179 8.9954C54.651 8.98059 54.8544 8.98306 55.0553 8.95097C55.6753 8.84978 56.0176 8.53632 56.0201 8.09206C56.0201 7.52438 55.6034 6.99867 55.0082 6.95671C54.5816 6.92709 54.1327 6.99127 53.7185 7.10233C53.2969 7.21587 53.0365 7.54413 53.0389 8.00567C53.0414 8.42279 53.4556 8.87939 53.8896 8.96331C54.0707 8.99786 54.2592 8.99046 54.4179 8.99786V8.9954ZM50.5092 22.58C50.5365 22.6171 50.5638 22.6516 50.591 22.6886C51.2904 22.2666 51.9898 21.847 52.7562 21.3855C52.2999 21.109 51.9303 20.8869 51.598 20.687C51.2334 21.3213 50.8713 21.9507 50.5092 22.58Z" fill="white"/>
<path d="M0.663549 95.8024C0.812357 93.8254 1.75481 92.1816 2.88575 90.6267C6.29346 85.9347 10.2369 81.7167 14.6019 77.9083C18.3196 74.6652 22.1589 71.5652 25.9113 68.3616C26.4768 67.8778 27.01 67.7791 27.697 67.8531C30.8071 68.1814 33.9222 68.1296 37.0248 67.7717C46.0302 66.7351 54.8074 64.6964 63.3391 61.6581C68.7656 59.7255 73.7408 56.9538 78.0636 53.106C78.1207 53.0542 78.1901 53.0147 78.3241 53.0171C78.1628 53.3577 77.9892 53.6909 77.8379 54.0365C77.2973 55.2878 76.8335 56.5762 76.2159 57.7881C74.6807 60.8066 72.2899 63.0797 69.5816 65.0493C65.9556 67.6878 61.9279 69.5389 57.6943 70.963C55.8689 71.5751 54.0014 72.0613 52.1884 72.7006C51.1294 73.0732 50.115 73.594 49.1279 74.1345C48.1185 74.6874 47.5753 75.65 47.1735 76.6989C46.7718 77.7504 46.3477 78.7944 45.9484 79.8483C45.9012 79.9692 45.926 80.142 45.9732 80.2703C46.4245 81.4995 46.9082 82.7163 47.3447 83.9503C47.6745 84.8858 48.1284 85.6904 48.8848 86.3889C49.3982 86.8627 49.7182 87.6007 49.9711 88.2795C50.3134 89.1927 50.5267 90.1552 50.301 91.1524C50.1869 91.6534 49.9414 92.0261 49.3933 92.1075C48.8179 92.1939 48.4136 91.9619 48.1482 91.3844C47.9721 91.0018 47.7936 90.6168 47.6696 90.217C47.3025 89.0174 45.2911 88.8002 44.6339 89.7455C44.1875 90.3873 43.8402 91.1055 43.5005 91.8138C43.1235 92.6012 42.8333 93.4305 42.4588 94.2203C42.2232 94.7164 41.8413 95.1039 41.2733 95.252C40.6855 95.4074 40.2862 95.2446 40.0159 94.7016C39.6314 93.9266 39.6513 93.0948 39.7579 92.2754C39.8299 91.7126 39.9985 91.1573 40.1548 90.6069C40.6111 89.0051 41.4965 87.7735 43.1036 87.1022C44.0188 86.7196 44.8844 86.2161 45.8591 85.7225C45.2837 84.3625 44.7529 82.9656 44.0982 81.6303C43.8353 81.0922 43.3641 80.6011 42.8779 80.2309C41.0129 78.8117 40.559 77.0741 41.4444 74.9219C41.6776 74.3542 41.7569 73.7199 41.8933 73.1152C41.9231 72.9795 41.8983 72.8289 41.8983 72.6858C41.8537 72.6611 41.8115 72.6339 41.7668 72.6092C40.9906 73.4805 40.1696 74.3197 39.4454 75.2329C37.4688 77.7282 35.8716 80.4678 34.376 83.2642C32.0794 87.5588 29.8225 91.8706 27.5532 96.18C26.886 97.4461 26.2809 98.7444 25.5641 99.9809C25.2417 100.536 24.763 101.03 24.2695 101.452C23.518 102.091 22.769 102.089 21.9258 101.583C21.8117 101.514 21.6951 101.447 21.5091 101.336C21.3454 101.598 21.1743 101.837 21.0379 102.099C20.7576 102.637 20.5195 103.197 20.2244 103.723C19.6788 104.693 18.7388 105.125 17.6078 104.897C23.5502 94.9903 29.4753 85.1178 35.4003 75.2427C35.3383 75.1835 35.2788 75.1267 35.2168 75.0675C34.9316 75.2452 34.5819 75.3686 34.3711 75.613C33.9023 76.1584 33.441 76.7286 33.0814 77.3481C30.5666 81.7117 28.1559 86.1371 25.5616 90.4539C23.3146 94.1956 20.8717 97.8188 18.5081 101.491C17.8782 102.469 17.278 103.468 16.5835 104.399C15.1996 106.252 12.6848 106.312 11.1719 105.537C9.27458 104.562 8.2106 102.18 8.84056 100.218C9.03153 99.623 9.37131 99.0381 9.77309 98.5568C11.6208 96.3379 13.5156 94.161 15.3881 91.9644C18.2031 88.6645 21.0974 85.4263 23.8057 82.0425C25.8469 79.4904 27.6846 76.773 29.5398 74.0802C30.0482 73.3398 30.2987 72.4241 30.6682 71.5899C30.6112 71.5455 30.5541 71.4986 30.4971 71.4542C30.3309 71.5331 30.13 71.5751 30.0085 71.6985C29.5596 72.1526 29.076 72.587 28.7164 73.1078C27.0869 75.4673 25.5592 77.896 23.8776 80.216C22.0051 82.7953 20.088 85.3498 18.0394 87.7883C16.2041 89.9701 14.1332 91.9521 12.2235 94.0722C10.9809 95.4494 9.84501 96.9204 8.65207 98.3445C7.91299 99.2281 7.13174 100.067 6.09257 100.618C3.49338 101.992 0.973566 100.652 0.67595 97.73C0.666029 97.6362 0.656108 95.8567 0.658589 95.8098L0.663549 95.8024Z" fill="white"/>
<path d="M52.6721 46.4494C52.6647 46.4099 52.6994 46.3778 52.7391 46.3902C53.3914 46.5975 54.004 46.7382 54.5595 46.9949C55.564 47.4589 56.3898 48.1919 56.9553 49.1224C58.0292 50.8921 59.0188 52.7111 60.0282 54.5178C60.6284 55.5914 61.1988 56.6799 61.7841 57.7609C61.7841 57.7609 61.7841 57.7634 61.7841 57.7658C61.923 58.025 61.7494 58.3409 61.4568 58.3656C61.2633 58.3829 61.0798 58.3952 60.8987 58.4002C58.0342 58.489 55.3283 57.8325 52.7465 56.6428C50.3086 55.5198 47.8929 54.3499 45.4574 53.2245C42.3448 51.788 39.0686 51.1562 35.641 51.3511C33.1584 51.4918 30.7279 51.8349 28.5379 53.148C27.1962 53.9526 25.7775 57.134 25.4477 56.9637C24.6292 56.5416 25.0335 55.4063 25.1376 54.7152C25.2294 54.1155 25.4923 53.6095 25.9759 53.2812C27.0771 52.5359 28.1609 51.7386 29.3464 51.1488C32.6326 49.5074 36.1048 48.3252 39.6291 47.3059C42.5482 46.4618 45.4872 45.6868 48.4187 44.8846C48.5725 44.8427 49.071 44.7291 48.9271 44.8525C47.8483 45.7806 47.1985 46.2298 47.0323 47.4095C46.9281 48.1549 47.1017 48.8559 47.506 49.4852C48.193 50.5515 49.6464 50.8995 51.003 50.3441C52.4142 49.7666 53.0466 48.3672 52.6672 46.4494H52.6721Z" stroke="white" stroke-width="0.5" stroke-miterlimit="10"/>
<path d="M53.4977 44.6205C53.4283 44.5983 53.4407 44.4971 53.5126 44.4897C61.0001 43.7912 75.8785 45.5239 75.8388 45.5782C75.7619 45.6868 71.4266 46.5778 69.5715 47.5058C68.133 48.2265 66.9673 49.2409 66.5308 50.8452C66.3498 51.514 66.258 52.2446 66.3126 52.9308C66.4316 54.4462 67.8577 55.3446 69.5144 55.0435C70.9554 54.7819 71.7887 53.8662 71.7639 52.6148C71.7515 52.0521 71.5159 51.6473 71.0496 51.3635C70.5487 51.0574 68.9812 51.63 68.9515 50.934C68.9366 50.6132 69.8964 50.0628 70.1171 49.9344C71.7218 49.0089 73.4802 48.5054 75.2907 48.2462C76.7912 48.0315 78.3214 48.0118 79.8392 47.9106C79.9335 47.9032 80.2534 48.0611 80.3477 48.2487C80.5957 48.7423 79.7524 49.7666 79.6036 49.9764C77.6195 51.9509 76.4935 52.0348 74.5268 53.3627C72.9321 54.4413 71.3547 55.547 69.4946 56.1591C68.3041 56.5515 67.0889 56.7514 65.8488 56.5565C64.0953 56.28 62.7858 55.3002 61.9376 53.7823C61.3002 52.6395 60.824 51.4079 60.2487 50.2281C59.1574 47.9969 57.6346 46.1804 55.2537 45.2252C54.6807 44.9957 54.0905 44.813 53.5027 44.6181L53.4977 44.6205Z" stroke="white" stroke-width="0.5" stroke-miterlimit="10"/>
<path d="M50.2685 58.3903C49.522 59.0024 48.7631 59.6416 47.9868 60.2587C46.2334 61.6532 44.3212 62.7367 42.0766 63.1217C41.4045 63.2377 39.8867 63.1217 39.9165 63.06C40.1645 62.5664 42.8926 62.5664 41.9006 59.8514C41.5732 58.953 40.5166 57.7807 39.4204 57.756C36.722 57.6967 34.7478 60.4561 35.6829 62.986C36.0127 63.877 36.6328 64.4817 37.5281 64.8074C37.7141 64.8741 38.2969 65.0345 38.0811 65.0617C32.476 65.775 28.3293 65.4887 23.3392 64.9086C23.2549 64.8988 23.2127 64.8025 23.2599 64.7334C23.4062 64.531 23.5104 64.3657 23.6492 64.2348C24.1626 63.7462 24.6884 63.2698 25.2241 62.8033C25.5168 62.5491 25.6805 62.1813 25.6706 61.7938C25.6582 61.3027 25.6706 60.8066 25.6978 60.3154C25.735 59.6416 25.9062 59.533 26.5138 59.7922C26.9652 59.9847 27.4042 60.1994 27.8531 60.3969C29.4652 61.1077 30.9681 60.8189 32.1065 59.5799C33.1754 58.4174 33.359 56.6996 32.5628 55.2582C32.4289 55.0139 32.2727 54.7819 32.0792 54.4758C32.0271 54.3919 32.0743 54.2808 32.1735 54.2611C33.0936 54.0809 33.9294 53.881 34.7776 53.7823C37.7935 53.4343 40.6233 54.1969 43.3614 55.352C45.6604 56.322 47.9298 57.3586 50.2661 58.3903H50.2685Z" stroke="white" stroke-width="0.5" stroke-miterlimit="10"/>
<path d="M25.0135 67.9864C24.887 68.0407 24.7431 68.0703 24.639 68.1518C16.8141 74.3468 9.54485 81.1219 3.06178 88.7114C2.60047 89.2519 2.52111 89.2371 2.22845 88.6003C1.98044 88.0623 2.0226 87.5193 2.19621 86.9763C2.55335 85.8656 3.27507 84.9894 4.09351 84.207C6.09746 82.2942 8.13862 80.4209 10.1599 78.5254C12.1812 76.6298 14.1604 74.6899 16.2214 72.8413C17.4639 71.7281 18.8528 70.7754 20.1301 69.6993C20.7179 69.2032 21.1965 68.5763 21.7322 68.016C21.8414 67.9025 21.9902 67.7495 22.1241 67.7445C23.0318 67.7199 23.9396 67.7322 24.8473 67.7322C24.9019 67.8161 24.9564 67.9025 25.0135 67.9864Z" fill="white"/>
<path d="M46.6654 63.5833C46.5761 63.5882 46.5364 63.4722 46.6108 63.4228C48.5007 62.1443 50.4178 60.8091 52.392 59.5627C52.7888 59.3109 53.4262 59.3677 53.9446 59.3948C54.3364 59.4146 54.7283 59.5898 55.1028 59.7404C56.008 60.0982 56.9034 60.4783 57.888 60.6091C58.0913 60.6363 58.131 60.9127 57.9425 60.9892C55.7526 61.9 49.1356 63.4327 46.6629 63.5857L46.6654 63.5833Z" stroke="white" stroke-width="0.5" stroke-miterlimit="10"/>
</svg>
