<svg width="47" height="69" viewBox="0 0 47 69" fill="none" xmlns="http://www.w3.org/2000/svg">
<path d="M17.483 22.4339C17.2899 22.4339 17.1875 22.208 17.3016 22.052C17.7932 21.3772 19.2535 20.8933 19.8988 21.1177C21.8083 21.7809 21.8815 22.9485 21.561 25.4103C21.3357 27.1434 19.9149 28.2832 17.9922 28.5106C15.9115 28.7555 13.9903 28.4581 12.394 26.6522C10.423 24.4206 11.4092 19.3045 13.7079 17.5408C17.5182 14.6198 21.3679 14.8457 25.2747 17.5102C28.5991 19.7768 30.5467 23.1365 30.4091 27.362C30.2906 31.022 28.6942 34.064 25.8673 36.2635C16.9124 43.2337 6.5689 38.7239 2.84793 30.6154C-1.19202 21.8115 1.1506 13.3211 8.16527 6.91063C12.4364 3.00721 17.5811 0.879135 23.4413 0.992827C29.6892 1.11526 35.1748 3.3891 39.443 7.9324C45.4583 14.3356 47.6195 21.7941 44.9155 30.4128C43.006 36.4996 39.5747 41.6668 35.5333 46.4929C33.8609 48.4898 32.8863 49.0757 31.1276 50.9939C29.8648 52.3713 28.5728 55.3856 28.4528 57.1755C28.2216 60.6344 28.0299 64.0961 27.8938 67.5594C27.8631 68.3406 27.7007 68.7458 26.8594 68.7458C23.3242 68.7458 19.7891 68.7706 16.2525 68.7765C14.3269 68.7794 14.122 68.5155 14.542 66.6484C15.6409 61.7523 17.6528 57.2586 20.7402 53.2998C23.3447 49.9605 26.1351 46.7669 28.7893 43.4655C31.9909 39.4833 35.4675 35.7169 37.5701 30.9317C39.5601 26.4015 39.8937 21.8815 37.8335 17.4125C35.4821 12.311 30.1618 7.99216 23.9197 7.82891C16.6563 7.63942 11.3492 10.9073 8.53692 17.347C5.66316 23.9294 7.5712 31.5613 15.7872 33.6049C20.4519 34.7651 25.7693 31.3456 25.7868 25.8578C25.7985 22.1045 21.1601 17.2755 16.5042 19.8977C15.3541 20.5464 14.4015 22.3392 14.5376 23.7166C14.6385 24.7457 15.597 25.6654 16.8304 26.005C17.5972 26.2164 19.4262 25.8593 19.89 24.9381C20.1344 24.4512 20.1871 23.8667 20.0612 23.3187C19.8535 22.4208 19.2843 22.0346 18.004 22.3188C17.8108 22.3625 17.6557 22.4325 17.483 22.4325V22.4339Z" fill="white"/>
</svg>
