<svg width="141" height="69" viewBox="0 0 141 69" fill="none" xmlns="http://www.w3.org/2000/svg">
<path d="M115.679 41.9413C108.496 41.9231 103.079 43.2308 97.7062 44.8731C90.6893 47.0141 83.5219 48.4617 76.1824 49.0213C70.2715 49.4714 64.5664 48.6533 59.0027 46.6248C54.9074 45.1316 50.7753 43.7356 46.634 42.3823C43.5495 41.3726 40.3299 41.105 37.101 40.959C36.8675 40.9468 36.6187 40.9803 36.4036 40.9164C36.2346 40.8647 36.1025 40.6944 35.9551 40.5788C36.0964 40.4237 36.2224 40.1683 36.3883 40.1348C37.0211 40.0192 37.6632 39.9554 38.3053 39.9067C41.5434 39.6695 44.6801 40.2534 47.74 41.2144C51.7861 42.4887 55.8414 43.7539 59.826 45.2046C65.0764 47.1175 70.465 47.6406 75.9981 47.3152C84.0441 46.8438 91.783 44.9096 99.4573 42.6134C104.64 41.0624 109.921 39.9979 115.381 40.2717C120.92 40.5515 126.351 41.3331 131.307 44.0519C134.453 45.7794 137.23 47.9082 139.092 51.0377C141.049 54.3253 141.086 57.625 139.159 60.9461C136.625 65.3194 132.929 68.0322 127.826 68.7226C124.591 69.1605 121.169 67.4087 119.629 64.5621C118.987 63.376 118.963 62.1018 119.172 60.8275C119.964 56.001 125.076 52.2785 129.992 52.9202C133.451 53.3703 135.255 55.8307 134.56 59.2156C134.084 61.533 132.729 63.2057 130.557 64.1911C128.453 65.146 125.602 64.0329 124.692 61.9314C124.6 61.7216 124.539 61.4935 124.493 61.2654C124.207 59.8299 125.251 58.2302 127.175 57.1506C128.413 56.4542 129.503 56.5363 130.502 57.4C131.485 58.2515 131.823 59.8603 131.15 60.9674C130.963 61.2776 130.49 61.4236 130.145 61.6425C129.946 61.2989 129.669 60.9734 129.568 60.5994C129.491 60.3165 129.654 59.9759 129.675 59.6596C129.734 58.7807 128.935 58.2698 128.142 58.6803C127.937 58.7868 127.746 58.9267 127.559 59.0666C126.376 59.9577 126.047 60.6176 126.425 61.3354C126.972 62.3724 128.367 62.9807 129.503 62.6735C131.918 62.0196 133.553 58.7746 132.612 56.4846C132.152 55.3593 131.193 54.9092 130.072 54.7267C125.746 54.0272 121.359 57.3513 120.901 61.6608C120.778 62.8317 121.132 63.8414 121.946 64.6868C124.004 66.8187 126.493 67.4939 129.328 66.6393C133.064 65.5171 135.875 63.2149 137.749 59.8208C139.381 56.8678 139.061 54.009 137.172 51.2931C135.03 48.2124 132.053 46.1291 128.659 44.6298C124.05 42.5952 119.135 42.0782 115.679 41.9413Z" fill="white"/>
<path d="M16.7665 37.0875C17.3042 36.9172 17.8326 36.7195 18.3764 36.5765C26.0661 34.545 33.7466 34.7913 41.4178 36.6739C46.5914 37.9451 51.7496 39.2833 56.9386 40.4815C62.1951 41.695 67.5161 42.8385 72.9324 42.507C83.851 41.8409 94.1859 39.3441 102.871 32.2032C107.614 28.3043 111.578 23.8398 113.719 18.0188C114.785 15.1144 115.206 12.1097 114.585 9.03498C114.167 6.96693 113.052 5.28512 111.473 3.90743C110.493 3.05284 109.326 2.63619 108.011 2.62402C102.942 2.57536 98.9232 7.32275 100.091 11.9911C100.776 14.7373 103 15.9052 105.67 14.9046C107.974 14.0409 109.27 12.3743 109.504 9.95343C109.682 8.09827 108.346 6.63239 106.453 6.51074C104.668 6.39821 102.905 7.88234 102.819 9.59153C102.806 9.84395 102.834 10.1298 102.939 10.3549C103.218 10.9601 103.63 11.4832 104.392 11.3707C105.049 11.2764 105.495 10.367 105.329 9.62802C105.323 9.60065 105.307 9.57328 105.301 9.54591C105.163 9.02585 104.806 8.38415 105.544 8.11652C106.281 7.84889 106.641 8.51492 106.939 9.03498C107.424 9.88653 107.098 11.246 106.25 12.1614C105.359 13.1194 104.401 13.3718 103.332 12.9339C101.461 12.1614 100.693 10.1633 101.482 8.11652C102.367 5.81733 105.077 4.39099 107.488 4.9597C109.977 5.54666 111.522 7.78502 111.24 10.3944C110.859 13.9253 107.639 16.8784 104.131 16.9179C101.704 16.9453 99.9831 15.8474 98.96 13.6942C98.1029 11.8877 98.0169 10.0051 98.5361 8.08611C99.8694 3.15624 105.172 -0.0309892 110.035 1.295C111.092 1.58391 112.161 2.19216 112.972 2.92511C115.968 5.63486 116.877 9.13838 116.573 13.0433C116.158 18.3686 113.872 22.9 110.53 26.9723C103.393 35.6672 94.2073 40.9194 83.0768 42.8476C80.364 43.316 77.6452 43.7995 74.9078 44.0519C70.1982 44.4899 65.5223 43.9181 60.9386 42.9115C54.192 41.4304 47.4854 39.7607 40.785 38.0789C33.8848 36.3484 26.9632 36.02 19.9647 37.3733C19.1936 37.5224 18.3917 37.5193 17.6022 37.5589C17.338 37.571 17.0707 37.4859 16.8034 37.4463C16.788 37.3247 16.7727 37.203 16.7573 37.0814L16.7665 37.0875Z" fill="white"/>
<path d="M45.6451 34.469C43.0184 34.1618 38.2196 33.6265 33.427 33.0274C27.2887 32.258 21.172 31.9113 15.089 33.444C10.788 34.5267 6.93236 36.464 3.5468 39.3167C2.83405 39.9189 2.10594 40.5058 1.35326 41.0563C1.1167 41.2297 0.772612 41.2601 0.474609 41.3543C0.603642 41.0593 0.67123 40.7126 0.870922 40.4815C3.55295 37.3946 6.8064 35.0681 10.5852 33.4714C15.2211 31.5129 20.0752 30.8286 25.0921 30.932C30.3548 31.0415 35.5314 31.8626 40.7326 32.4982C47.2211 33.292 53.6604 33.2372 59.9185 31.0323C63.6912 29.7033 66.963 27.6048 69.516 24.521C71.8233 21.7322 72.9231 18.5176 72.1366 14.9441C70.7541 8.67915 63.6666 5.89641 58.023 9.93823C56.1274 11.2946 55.5806 13.3019 56.0752 15.525C56.5514 17.66 57.6604 19.3387 59.9462 19.9348C62.7787 20.6708 66.0291 18.7943 66.7941 16.0116C67.0153 15.2118 66.9139 14.4636 66.41 13.7793C65.0583 11.9424 62.4561 11.5623 60.6497 12.9582C60.4008 13.1498 60.1643 13.3931 60.0199 13.6668C59.6697 14.3298 59.7403 15.0232 60.3271 15.4855C60.96 15.9812 61.5744 15.598 62.026 15.1084C62.3117 14.8012 62.4101 14.3298 62.6681 13.9892C62.8555 13.7428 63.215 13.3992 63.4116 13.4448C63.7034 13.5147 63.9216 13.8888 64.1551 14.1473C64.2011 14.199 64.1827 14.3146 64.1889 14.4028C64.2534 15.5128 63.2856 16.7293 61.9431 17.2342C60.7326 17.6873 59.6359 17.4136 58.8586 16.4617C57.7956 15.157 57.9124 13.1954 59.1228 12.0215C61.8417 9.38776 66.2841 10.0082 68.1704 13.2806C68.7418 14.272 68.7818 15.3243 68.5053 16.3978C67.685 19.5972 64.4746 21.8843 60.9723 21.7809C57.7127 21.6866 55.0429 19.2657 54.3824 15.8109C53.7157 12.3165 55.1873 9.32694 58.3824 7.69987C65.1412 4.25413 72.7418 7.8124 73.9769 15.0992C74.6589 19.1289 73.2334 22.6659 70.7111 25.7649C68.0998 28.9734 64.5944 30.9472 60.7756 32.41C56.6128 34.0036 52.2626 34.4842 45.6359 34.4629L45.6451 34.469Z" fill="white"/>
<path d="M57.0794 36.9689C57.3559 37.0844 57.6324 37.197 57.9058 37.3186C62.4189 39.3532 67.1562 40.737 72.1055 40.3903C79.7645 39.855 86.9166 37.7322 92.6094 32.2093C94.4865 30.3876 96.0256 28.3135 97.2084 25.9869C97.8689 24.6913 98.213 23.3319 98.0103 21.866C97.7891 20.2846 96.7906 19.3022 95.1931 19.1137C92.2468 18.767 89.3344 20.8442 88.7445 23.7242C88.5571 24.6336 88.6708 25.479 89.4849 26.069C90.3206 26.6742 91.2115 26.5769 92.0502 26.0903C93.1685 25.4425 93.8966 24.4784 94.0625 23.1859C94.0963 22.9305 93.869 22.6446 93.7614 22.3709C93.488 22.4834 93.1101 22.5199 92.9596 22.7206C92.5817 23.2315 92.3236 23.8276 91.9795 24.3659C91.8689 24.5393 91.5955 24.7887 91.4941 24.7491C91.2822 24.67 91.0456 24.4511 90.978 24.2382C90.4465 22.5929 92.3881 20.4458 94.1024 20.756C94.9811 20.9141 95.5648 21.5923 95.6908 22.602C96.0379 25.3513 93.0886 28.3195 90.3144 28.0093C88.5633 27.8147 87.3129 26.4036 87.2422 24.5393C87.0978 20.8806 90.7107 17.4775 94.7138 17.4988C97.6508 17.514 99.6078 19.4543 99.66 22.3587C99.6908 24.153 99.2023 25.8075 98.2991 27.3342C96.0686 31.0932 93.2054 34.2834 89.4481 36.607C84.0994 39.9158 78.1393 41.5003 71.9396 41.7193C67.2392 41.8835 62.6217 40.7948 58.4066 38.5108C57.8352 38.2006 57.3528 37.7353 56.8306 37.3399C56.9135 37.2122 56.9995 37.0875 57.0825 36.9597L57.0794 36.9689Z" fill="white"/>
</svg>
