<svg width="77" height="124" viewBox="0 0 77 124" fill="none" xmlns="http://www.w3.org/2000/svg">
<path d="M51.1433 0.775827C51.739 1.28686 52.0115 3.63614 53.7286 7.25452C54.428 8.63018 56.3139 11.4299 56.6612 11.832C57.609 12.9291 58.2722 13.6799 59.2513 14.748C60.8068 16.4434 62.3816 18.1218 63.9444 19.8099C65.3648 21.3429 66.6044 23.0189 67.8488 24.6949C69.4863 26.9013 71.1166 29.1125 72.5684 31.4473C74.2349 34.1284 75.5565 36.9693 76.2896 40.0621C76.8853 42.5737 77.0589 45.1167 76.8515 47.6864C76.6538 50.1422 76.116 52.5158 75.0669 54.7536C73.9551 57.1247 72.4551 59.2294 70.6753 61.1403C68.2058 63.7923 65.196 65.6136 61.8486 66.9045C59.6468 67.7522 57.3389 68.2971 54.9947 68.5466C52.7447 68.7888 50.4898 68.8154 48.2397 68.5805C43.4525 68.0816 39.0513 66.5194 35.1565 63.647C32.7762 61.8935 30.8951 59.6629 29.3034 57.1804C27.7382 54.7415 26.8242 52.0701 26.4022 49.2098C26.132 47.3764 26.0501 45.5333 26.1658 43.6878C26.3346 40.9461 26.952 38.3062 28.0131 35.7705C28.6571 34.2325 29.3444 32.7164 30.0992 31.2293C30.8854 29.6817 31.9104 28.2867 32.8726 26.848C34.6693 24.1621 36.8277 21.7789 39.0272 19.432C40.7491 17.5962 42.471 15.7628 44.1857 13.9197C45.0442 12.9994 46.0403 11.4978 46.7637 10.4636C46.9591 10.1826 48.2759 7.85032 48.4278 7.54273C49.7855 5.46228 50.55 0.26722 51.1457 0.778249L51.1433 0.775827ZM60.9129 53.579C61.0142 53.4918 61.1276 53.4143 61.212 53.3126C62.2393 52.0604 63.1292 50.7162 63.8841 49.2825C65.7218 45.7924 66.4139 42.1087 65.7579 38.1972C65.5288 36.824 65.0996 35.504 64.6076 34.2083C63.778 32.0237 62.6783 29.9747 61.4748 27.9791C59.4997 24.6998 57.5559 21.4035 55.3999 18.238C54.4617 16.8624 53.5477 15.4697 52.6627 14.0578C52.2334 13.3723 51.7318 12.0233 51.4472 11.2435C51.3869 11.0788 51.1505 11.086 51.1047 11.2556C50.866 12.142 50.415 12.8904 49.9278 13.6242C49.8917 13.6775 49.8579 13.7308 49.8217 13.7816C47.181 17.6471 44.6849 21.6045 42.2925 25.6298C41.5184 26.9304 40.7611 28.2406 40.0593 29.5824C38.8656 31.8639 38.2361 34.3173 38.0022 36.8797C37.8527 38.5169 38.0263 40.0791 38.8198 41.5444C39.2804 42.3945 39.7169 43.2688 40.3994 43.9639C42.9389 46.5408 45.9824 47.5677 49.5516 46.8775C51.1047 46.5772 52.5252 45.9523 53.7672 44.9496C54.2447 44.5645 54.6716 44.1261 54.9634 43.5788C55.5687 42.4356 56.0173 41.2465 56.1427 39.9386C56.3284 37.989 55.875 36.2476 54.5847 34.7581C53.596 33.6173 52.3274 32.9901 50.8346 32.8932C48.9969 32.7745 47.4294 34.1986 47.263 36.032C47.111 37.7201 48.2783 39.3961 50.0605 39.7085C50.3402 39.757 50.6272 39.7691 50.989 39.8054C50.837 39.9095 50.743 39.9871 50.6393 40.0428C49.2815 40.779 47.9358 40.7597 46.6432 39.9047C44.4124 38.4297 43.7371 36.0272 44.3111 33.845C44.8754 31.6992 46.2477 30.1879 48.2421 29.2506C49.2719 28.7686 50.374 28.6306 51.5002 28.5967C54.5027 28.5046 57.1435 29.4468 59.3984 31.4279C62.3527 34.0242 63.8407 37.4174 64.4388 41.2295C64.6799 42.7674 64.5304 44.3296 64.2386 45.8651C63.7297 48.5438 62.659 50.9851 61.1276 53.2278C61.0504 53.3416 60.9925 53.4652 60.925 53.5862C60.8695 53.642 60.8165 53.7001 60.761 53.7558C60.7803 53.7703 60.7996 53.7848 60.8213 53.7994L60.9177 53.579H60.9129Z" fill="white"/>
<path d="M44.5667 79.7698C44.955 80.1016 45.131 81.625 46.2452 83.9743C46.6986 84.8656 47.9237 86.6845 48.148 86.946C48.763 87.6581 49.1947 88.1449 49.8289 88.8376C50.8394 89.9371 51.8596 91.027 52.8749 92.1241C53.7961 93.1196 54.6016 94.207 55.4095 95.2945C56.4731 96.7258 57.5318 98.162 58.4747 99.6782C59.5576 101.417 60.4137 103.263 60.8888 105.27C61.2747 106.9 61.388 108.552 61.2529 110.218C61.1251 111.812 60.7754 113.352 60.0954 114.806C59.3743 116.346 58.4 117.712 57.2448 118.952C55.641 120.674 53.6876 121.856 51.5147 122.694C50.087 123.246 48.5869 123.597 47.0652 123.76C45.6037 123.917 44.1399 123.934 42.6808 123.781C39.5722 123.457 36.7168 122.442 34.187 120.58C32.6411 119.441 31.4208 117.993 30.3862 116.382C29.3709 114.798 28.7776 113.064 28.5027 111.209C28.3266 110.017 28.2736 108.823 28.3483 107.625C28.4593 105.844 28.8596 104.132 29.5469 102.485C29.9642 101.487 30.4127 100.502 30.9023 99.5377C31.4136 98.5326 32.0792 97.6268 32.7014 96.6943C33.8686 94.9505 35.2698 93.4029 36.6975 91.8795C37.8141 90.6879 38.9331 89.4963 40.0473 88.3023C40.6044 87.7041 41.2507 86.7305 41.721 86.0572C41.8488 85.8755 42.7025 84.3594 42.8014 84.1608C43.6816 82.8094 44.1784 79.438 44.5643 79.7698H44.5667ZM50.9094 114.05C50.9745 113.992 51.0492 113.943 51.1023 113.878C51.7703 113.067 52.3467 112.192 52.8363 111.262C54.03 108.998 54.4786 106.605 54.0518 104.067C53.9022 103.175 53.6249 102.318 53.3041 101.475C52.7663 100.056 52.0525 98.7264 51.2711 97.4306C49.9881 95.3017 48.7268 93.1607 47.3257 91.1069C46.7179 90.2132 46.1222 89.3098 45.5483 88.3919C45.2685 87.9463 44.9429 87.072 44.7597 86.5658C44.7211 86.4592 44.5667 86.4641 44.5378 86.5731C44.3834 87.1471 44.0892 87.6339 43.7733 88.111C43.7516 88.1449 43.7275 88.1788 43.7033 88.2127C41.9887 90.7218 40.368 93.2915 38.8149 95.9048C38.3133 96.75 37.8213 97.6001 37.3655 98.4696C36.5914 99.9519 36.1814 101.543 36.0295 103.207C35.933 104.27 36.0463 105.285 36.56 106.234C36.8591 106.787 37.1412 107.353 37.585 107.804C39.2321 109.477 41.2097 110.143 43.5273 109.695C44.5354 109.499 45.459 109.095 46.2645 108.443C46.5756 108.194 46.8506 107.908 47.0411 107.552C47.4342 106.811 47.726 106.038 47.8056 105.188C47.9262 103.924 47.6319 102.79 46.7927 101.824C46.1512 101.083 45.3264 100.676 44.3569 100.613C43.1631 100.536 42.1454 101.461 42.0393 102.65C41.9404 103.747 42.6977 104.834 43.8553 105.038C44.0362 105.069 44.2243 105.077 44.4582 105.101C44.3593 105.169 44.299 105.217 44.2315 105.256C43.3488 105.733 42.4758 105.721 41.6366 105.166C40.1872 104.21 39.7506 102.65 40.122 101.233C40.4886 99.8404 41.3785 98.8571 42.6736 98.2517C43.3416 97.9392 44.0579 97.8496 44.7886 97.8254C46.7372 97.7648 48.4519 98.3776 49.9158 99.6636C51.833 101.349 52.8001 103.551 53.1884 106.029C53.3451 107.029 53.2487 108.041 53.0582 109.039C52.7278 110.778 52.0332 112.362 51.0396 113.82C50.989 113.893 50.9504 113.975 50.907 114.052C50.8708 114.089 50.837 114.125 50.8008 114.164C50.8129 114.173 50.8274 114.183 50.8394 114.193L50.9021 114.05H50.9094Z" fill="white"/>
<path d="M12.9233 57.0157C13.2296 57.2772 13.3671 58.481 14.2473 60.3337C14.6043 61.0385 15.5713 62.4723 15.7474 62.6782C16.2321 63.2401 16.5722 63.6252 17.0738 64.1701C17.8696 65.0371 18.6775 65.8969 19.4758 66.7616C20.2017 67.5463 20.8384 68.4061 21.4751 69.2634C22.3143 70.3921 23.1488 71.5255 23.8915 72.722C24.7453 74.0952 25.4205 75.5508 25.7967 77.1347C26.1006 78.4208 26.1898 79.7238 26.0837 81.0389C25.9824 82.2959 25.7075 83.5117 25.1697 84.6573C24.6006 85.8707 23.8313 86.9484 22.9196 87.9269C21.6535 89.2856 20.1125 90.2181 18.4002 90.8793C17.274 91.3128 16.0898 91.5913 14.8913 91.7197C13.7385 91.8432 12.5857 91.8577 11.4329 91.7366C8.9827 91.4823 6.7278 90.6807 4.73337 89.2105C3.51307 88.312 2.55082 87.1713 1.73568 85.8997C0.935011 84.65 0.46715 83.2816 0.250101 81.8188C0.110226 80.8791 0.0692274 79.9369 0.129519 78.9899C0.216338 77.5852 0.532265 76.2338 1.07489 74.9356C1.40528 74.1485 1.75738 73.371 2.14325 72.6106C2.546 71.8186 3.07174 71.1041 3.56371 70.3678C4.48497 68.9922 5.5895 67.7715 6.71574 66.5702C7.59841 65.6305 8.47866 64.6908 9.35651 63.7487C9.79543 63.2764 10.3067 62.5086 10.6757 61.9782C10.777 61.8353 11.4498 60.6389 11.527 60.4839C12.2216 59.4182 12.6122 56.759 12.9185 57.0205L12.9233 57.0157ZM17.9275 84.0567C17.9782 84.0106 18.0385 83.9719 18.0795 83.921C18.6052 83.2792 19.061 82.5914 19.4493 81.8575C20.3898 80.0701 20.7443 78.1834 20.4091 76.1805C20.2909 75.4781 20.0715 74.8024 19.8207 74.1364C19.3962 73.0174 18.8319 71.9687 18.2169 70.9467C17.2064 69.2683 16.2104 67.5802 15.1059 65.9575C14.626 65.2527 14.1581 64.5382 13.7047 63.8165C13.4853 63.4653 13.2272 62.7751 13.0825 62.3754C13.0512 62.2907 12.9306 62.2955 12.9065 62.3827C12.7835 62.8356 12.5519 63.2207 12.3035 63.5961C12.2867 63.6227 12.2674 63.6494 12.2481 63.6784C10.8951 65.6572 9.61696 67.6843 8.39184 69.7454C7.99633 70.4114 7.60806 71.0823 7.24872 71.7701C6.63857 72.9399 6.31541 74.1945 6.19483 75.5072C6.11765 76.3452 6.20689 77.1469 6.61446 77.8952C6.8508 78.3312 7.07267 78.7792 7.42477 79.1328C8.72465 80.4528 10.285 80.9784 12.1106 80.6248C12.9065 80.4698 13.6348 80.1525 14.269 79.639C14.5126 79.4404 14.7321 79.2176 14.8816 78.9367C15.1927 78.3506 15.4218 77.7427 15.4845 77.0718C15.5786 76.0739 15.3471 75.1802 14.6863 74.4197C14.1798 73.8361 13.5311 73.5139 12.7666 73.4655C11.826 73.405 11.023 74.134 10.9385 75.0737C10.8614 75.9383 11.4571 76.7957 12.3711 76.9579C12.5158 76.9822 12.6605 76.9894 12.8462 77.0064C12.769 77.0597 12.7208 77.0984 12.6677 77.1275C11.9731 77.5053 11.2834 77.4956 10.6202 77.0572C9.47709 76.3016 9.13222 75.0712 9.42644 73.9547C9.71584 72.8552 10.4176 72.0826 11.4402 71.603C11.9659 71.356 12.5327 71.2858 13.109 71.2688C14.6477 71.2228 16.0006 71.7048 17.1534 72.7171C18.6655 74.0468 19.4276 75.7833 19.7339 77.7378C19.8568 78.5249 19.7821 79.3266 19.6326 80.1113C19.3721 81.4846 18.8247 82.7319 18.0385 83.8823C17.9999 83.9404 17.9685 84.0034 17.9348 84.0663C17.9058 84.0954 17.8793 84.1245 17.8504 84.1535C17.86 84.1608 17.8696 84.1681 17.8817 84.1753L17.9323 84.0615L17.9275 84.0567Z" fill="white"/>
</svg>
