<svg width="65" height="43" viewBox="0 0 65 43" fill="none" xmlns="http://www.w3.org/2000/svg">
<g clip-path="url(#clip0_133_827)">
<path d="M16.0603 42.3424C16.1199 41.932 16.2092 41.524 16.234 41.1124C16.3022 40.0204 15.9946 39.0097 15.5133 38.041C14.5173 36.0382 13.5288 34.0317 12.5253 32.0326C11.8506 30.688 11.1548 29.3532 10.4688 28.0135C10.3634 27.8064 10.2629 27.5969 10.1637 27.3886C10.1451 27.3492 10.1364 27.3036 10.1104 27.221C10.2654 27.2543 10.3845 27.2789 10.5023 27.3073C11.7948 27.608 13.0227 28.0603 14.0931 28.8639C14.7059 29.3236 15.1685 29.8955 15.3236 30.6683C15.3967 31.0306 15.398 31.3893 15.2702 31.7417C15.1015 32.2089 14.5893 32.5084 14.113 32.4196C13.6813 32.3395 13.4023 31.9316 13.5263 31.5618C13.6007 31.3387 13.6689 31.2956 13.9542 31.2919C13.943 31.4004 13.922 31.5088 13.9244 31.6173C13.9294 31.7947 14.0299 31.9032 14.2072 31.934C14.3809 31.9648 14.5111 31.8933 14.6004 31.7479C14.789 31.4386 14.6649 30.9936 14.3424 30.8186C13.6962 30.4661 12.9843 30.9 12.9148 31.6259C12.8243 32.5724 13.9046 33.2503 14.7952 32.9336C15.5381 32.6698 15.9474 32.0856 15.9909 31.2611C16.0504 30.1247 15.584 29.2287 14.7456 28.5015C13.9294 27.7941 12.9706 27.3455 11.9449 27.0238C11.2713 26.8118 10.5966 26.6072 9.88588 26.5554C9.83626 26.5517 9.76308 26.5111 9.74696 26.4692C9.4592 25.726 9.1578 24.9816 9.16772 24.1669C9.17764 23.4052 9.31036 22.6645 9.66262 21.9768C10.0112 21.2977 10.5482 20.8416 11.3222 20.7603C12.1656 20.6715 12.9644 20.8207 13.4457 21.6058C13.8426 22.2528 14.0063 22.9677 13.762 23.7257C13.6937 23.9364 13.5734 24.1114 13.375 24.2211C13.0612 24.3924 12.7151 24.2014 12.7126 23.8464C12.7114 23.6394 12.735 23.4311 12.7647 23.2253C12.8515 22.6189 12.5489 22.0359 12.0528 21.8671C11.4673 21.6674 10.8285 21.9213 10.5197 22.4796C10.2121 23.0342 10.1625 23.632 10.2443 24.2458C10.3994 25.4068 11.4016 26.4926 12.5601 26.7144C13.463 26.8882 14.2668 26.638 14.9564 26.0353C15.7043 25.3821 16.0715 24.528 16.1992 23.5716C16.3506 22.4352 16.1608 21.3445 15.6522 20.3129C14.4231 17.822 13.1951 15.3299 11.956 12.8428C11.3805 11.6879 10.7814 10.543 10.1935 9.39429C10.1674 9.34253 10.1451 9.2883 10.1129 9.21681C10.1687 9.21311 10.2096 9.19956 10.2443 9.20818C11.5566 9.51261 12.8267 9.91933 13.9418 10.7032C14.459 11.0655 14.8882 11.5092 15.1586 12.0836C15.398 12.5914 15.4637 13.1189 15.2677 13.6587C15.0718 14.1985 14.5086 14.4968 13.9914 14.3366C13.6665 14.2355 13.4419 13.904 13.4928 13.6008C13.535 13.3481 13.6875 13.2384 13.9703 13.2618C13.9455 13.3346 13.9083 13.4036 13.8996 13.4751C13.8761 13.6747 13.9852 13.8497 14.1403 13.8818C14.371 13.9286 14.588 13.8078 14.6513 13.5971C14.7766 13.1768 14.5434 12.7824 14.1117 12.6863C13.4903 12.547 12.9979 12.9303 12.9185 13.5441C12.8069 14.4056 13.7198 15.2277 14.748 14.9023C15.4389 14.6841 15.8569 14.1603 15.9549 13.4356C16.1285 12.1514 15.5753 11.1851 14.6451 10.3803C13.8959 9.73322 13.0016 9.33883 12.0738 9.03194C11.4686 8.83228 10.8409 8.7041 10.222 8.54264C10.1984 8.53648 10.1736 8.52539 10.1513 8.53032C9.80774 8.5981 9.72091 8.37133 9.62293 8.11127C9.324 7.32494 9.10074 6.52629 9.1888 5.67588C9.2595 5.00294 9.41579 4.34849 9.79409 3.77168C10.3064 2.99152 11.1411 2.65382 12.0639 2.81774C13.0339 2.98905 13.5734 3.45863 13.8302 4.67879C13.9096 5.05593 13.8786 5.42445 13.7545 5.78557C13.6813 6.00002 13.5635 6.1812 13.3526 6.28965C13.0686 6.43509 12.7337 6.27733 12.7139 5.96058C12.6977 5.71408 12.7263 5.46266 12.761 5.21739C12.8354 4.69482 12.637 4.22277 12.2301 4.00955C11.7662 3.76429 11.1572 3.84933 10.7802 4.21291C10.4502 4.53089 10.3138 4.93762 10.2419 5.37392C10.0422 6.60024 10.6437 7.83889 11.729 8.4613C12.8218 9.08863 14.1849 8.81749 15.0197 8.03116C15.713 7.37794 16.0851 6.56203 16.2005 5.62904C16.3431 4.47174 16.1434 3.36866 15.625 2.32228C15.5381 2.1485 15.4575 1.97102 15.367 1.77998H16.4101C16.4138 1.84284 16.42 1.90077 16.42 1.95869C16.4151 8.5525 16.4076 15.1475 16.4051 21.7413C16.4027 27.3837 16.4051 33.0248 16.4039 38.6671C16.4039 39.8749 16.4039 41.0828 16.4039 42.2906C16.4039 42.3079 16.4126 42.3251 16.4175 42.3424H16.0578H16.0603Z" fill="white"/>
<path d="M0.0301856 42.3424C0.027705 38.8014 0.027705 35.2605 0.0239839 31.7196C0.0215032 29.172 0.0103401 26.6244 0.0103401 24.0769C0.0103401 20.9106 0.0202629 17.7456 0.0227436 14.5794C0.0227436 11.8839 0.0190225 9.18722 0.0165418 6.49177C0.0165418 5.6771 0.0475505 4.85996 0.00413839 4.04652C-0.0181878 3.62377 0.133134 3.29593 0.340272 2.96932C0.443221 2.80663 0.573457 2.65997 0.722299 2.52316C0.688809 2.60327 0.652839 2.68339 0.621831 2.76473C0.267092 3.71991 0.0587136 4.69604 0.247246 5.71777C0.438259 6.75059 0.858737 7.65401 1.75055 8.28381C2.91275 9.10588 4.45326 8.94196 5.41577 7.89188C5.92183 7.33849 6.21579 6.70622 6.18354 5.93715C6.16493 5.49099 6.18354 5.04606 5.96648 4.63195C5.67624 4.07733 5.10816 3.77783 4.54504 3.88999C4.05635 3.98859 3.69541 4.4101 3.66688 4.9524C3.65572 5.16931 3.69665 5.38993 3.71525 5.60808C3.72393 5.70298 3.74626 5.79788 3.74254 5.89155C3.73014 6.23665 3.4002 6.44001 3.09632 6.27362C2.96856 6.20337 2.84701 6.08135 2.77631 5.95317C2.49103 5.43307 2.54561 4.88831 2.69197 4.33985C2.87554 3.65335 3.24516 3.11476 3.95588 2.90647C5.14537 2.5589 6.24556 2.88182 6.8248 4.15744C7.28001 5.16192 7.41024 6.212 7.06791 7.28549C6.95007 7.65277 6.82232 8.01759 6.68712 8.37994C6.66603 8.43787 6.59037 8.50196 6.5296 8.51675C5.91935 8.65479 5.29793 8.75215 4.69513 8.91854C3.76859 9.1749 2.89042 9.5545 2.11273 10.1301C1.56449 10.5356 1.07828 11.0039 0.766951 11.6177C0.366319 12.4065 0.305542 13.2236 0.668964 14.0445C1.03238 14.8665 2.1487 15.2338 2.88422 14.763C3.37912 14.4462 3.62099 14.0592 3.5168 13.4368C3.45478 13.0622 3.20795 12.8206 2.86189 12.6961C2.51584 12.5716 2.18715 12.6333 1.90931 12.8859C1.6724 13.1028 1.66 13.5576 1.87954 13.7819C1.98001 13.8842 2.23056 13.9187 2.36824 13.8448C2.53816 13.7536 2.51956 13.5921 2.5208 13.4381C2.5208 13.3727 2.5208 13.3074 2.52204 13.2421C2.59398 13.2643 2.67336 13.2729 2.73538 13.3099C2.95616 13.443 2.99213 13.7906 2.81724 14.0408C2.53816 14.4413 1.87706 14.4943 1.49379 14.148C1.082 13.7745 1.03859 13.2914 1.08696 12.7849C1.15394 12.0971 1.49875 11.5561 2.00234 11.0988C2.70809 10.4567 3.53912 10.0253 4.42969 9.71226C5.01265 9.50644 5.62414 9.37826 6.22323 9.21557C6.24432 9.20941 6.26788 9.21557 6.31626 9.21557C6.17114 9.52246 6.0409 9.81332 5.89702 10.098C4.89978 12.0811 3.89634 14.0605 2.90283 16.0448C2.18591 17.4757 1.47519 18.9091 0.775633 20.3486C0.366319 21.1904 0.146778 22.0914 0.183989 23.0244C0.22616 24.1089 0.531285 25.122 1.33999 25.9022C2.14125 26.675 3.10872 26.9991 4.1903 26.6171C5.16398 26.2732 5.87469 25.6027 6.1116 24.565C6.24928 23.9598 6.24184 23.3374 6.02974 22.7347C5.83128 22.1702 5.31406 21.7783 4.76831 21.7845C4.09108 21.7931 3.60114 22.3502 3.65199 23.0663C3.66812 23.2856 3.71029 23.5026 3.74006 23.7195C3.76983 23.9364 3.68052 24.1052 3.50687 24.2248C3.36672 24.3222 3.13849 24.284 2.97229 24.1508C2.73662 23.9623 2.65104 23.6936 2.6101 23.4151C2.50716 22.715 2.67212 22.0642 3.05539 21.4776C3.35431 21.0203 3.84177 20.8552 4.35527 20.7701C5.51251 20.5766 6.45766 21.1276 6.89426 22.2454C7.3445 23.4003 7.38419 24.5613 6.94635 25.7297C6.85953 25.9638 6.78015 26.2005 6.68216 26.4297C6.65859 26.4839 6.57549 26.5382 6.51223 26.5468C5.00397 26.7502 3.59122 27.2173 2.30374 28.0332C1.6724 28.4325 1.13905 28.9354 0.794239 29.6034C0.444461 30.2812 0.335311 30.9985 0.535006 31.7479C0.729741 32.4751 1.32139 32.9582 2.07676 33.0038C2.9512 33.0568 3.63835 32.3346 3.51928 31.4903C3.42253 30.8063 2.53692 30.4464 1.98621 30.8679C1.69721 31.0885 1.64263 31.5076 1.86838 31.791C1.97381 31.9241 2.11273 31.9858 2.28141 31.9291C2.45134 31.8724 2.52452 31.7442 2.51584 31.5704C2.51212 31.4768 2.50095 31.3831 2.49227 31.2894C2.74158 31.2722 2.91151 31.4176 2.93632 31.6641C2.97229 32.019 2.66096 32.3715 2.27025 32.4184C1.70961 32.4862 1.20851 32.1041 1.10805 31.5371C0.961685 30.7015 1.20851 29.9879 1.77783 29.3717C2.17846 28.9366 2.65352 28.5964 3.17446 28.3191C4.13449 27.8076 5.15033 27.4453 6.21951 27.237C6.2406 27.2333 6.26416 27.2395 6.31626 27.2432C6.29393 27.3035 6.28153 27.3516 6.2592 27.3948C5.58569 28.7221 4.90474 30.0446 4.23992 31.3757C3.16082 33.5362 2.09288 35.7042 1.01626 37.866C0.730981 38.4378 0.491594 39.0233 0.340272 39.6457C0.120731 40.5503 0.123212 41.4463 0.389886 42.3399H0.0301856V42.3424Z" fill="white"/>
<path d="M1.10809 42.3424C0.816614 41.593 0.807931 40.8264 0.94561 40.045C1.09073 39.2205 1.42686 38.4687 1.80145 37.7279C2.35712 36.6286 2.90163 35.523 3.45359 34.4224C3.90756 33.519 4.36648 32.618 4.82169 31.7146C5.13302 31.0984 5.44062 30.4809 5.75071 29.8634C5.77924 29.8067 5.81024 29.75 5.89583 29.6786C6.03103 29.9768 6.17491 30.2714 6.30018 30.5746C6.57182 31.2327 6.73182 31.9229 6.85214 32.6193C6.98609 33.3957 7.03571 34.1808 6.86454 34.9598C6.65864 35.8977 6.0211 36.4794 5.06976 36.615C4.57982 36.6852 4.10105 36.3328 4.02787 35.8472C3.97205 35.4774 4.32183 35.1175 4.69145 35.1705C4.75471 35.1792 4.81425 35.2174 4.9296 35.2642C4.82417 35.3184 4.76959 35.3468 4.71502 35.3751C4.57734 35.4491 4.52029 35.5674 4.55005 35.7165C4.5823 35.878 4.62944 36.0296 4.83533 36.0555C5.33395 36.1171 5.67381 35.6857 5.51132 35.2013C5.23845 34.3904 4.37268 34.2868 3.7798 34.7749C3.23653 35.2223 3.23901 36.1356 3.63468 36.6631C4.09113 37.2695 4.69641 37.4198 5.41954 37.2621C6.5743 37.0106 7.36068 36.1639 7.5889 35.0091C7.76379 34.1217 7.6596 33.254 7.52688 32.3851C7.35199 31.2414 6.96501 30.1642 6.40437 29.1511C6.30266 28.9662 6.29398 28.8072 6.39321 28.6038C6.74298 27.8878 7.08532 27.1668 7.39045 26.431C7.56781 26.0045 7.66828 25.5485 7.80224 25.1048C7.8134 25.0666 7.82581 25.0272 7.87046 24.9926V41.3539L7.83077 41.3564C7.79604 41.1382 7.76627 40.9176 7.7241 40.7007C7.55293 39.8318 7.15354 39.0923 6.39569 38.5993C5.41582 37.9609 4.37517 37.9498 3.33576 38.4391C2.48984 38.8372 2.15371 39.6001 1.96641 40.4604C1.84114 41.0359 1.8523 41.593 2.07805 42.1402C2.10781 42.2105 2.14874 42.2758 2.18471 42.3436H1.10685L1.10809 42.3424Z" fill="white"/>
<path d="M14.2991 42.3424C14.3673 42.0737 14.4789 41.8062 14.4975 41.5338C14.5757 40.3889 14.3536 39.3363 13.3452 38.6239C12.214 37.8253 10.4143 37.9436 9.49769 39.022C9.01148 39.5939 8.80434 40.273 8.65054 40.9805C8.63441 41.0556 8.62077 41.1321 8.6034 41.2072C8.59844 41.2282 8.58356 41.2467 8.54883 41.312V25C8.55503 24.9963 8.56247 24.9939 8.56867 24.9902C8.60961 25.1159 8.6555 25.2391 8.69023 25.3673C8.90109 26.1635 9.21737 26.9202 9.57707 27.6597C9.747 28.0073 9.91073 28.3573 10.0844 28.7037C10.1439 28.822 10.1365 28.9218 10.0844 29.0414C9.81398 29.6428 9.51258 30.2344 9.29304 30.8543C8.84031 32.1324 8.64309 33.4598 8.81426 34.8069C8.98791 36.1738 9.84499 37.1339 11.3793 37.3163C11.9796 37.3878 12.4373 37.1388 12.7896 36.6717C13.1294 36.2206 13.1567 35.719 12.9607 35.2161C12.7548 34.6861 12.064 34.3669 11.5356 34.5173C10.9489 34.6837 10.6797 35.4478 11.0556 35.8804C11.2069 36.0554 11.4959 36.138 11.6919 36.0197C11.7886 35.9605 11.8692 35.8287 11.899 35.7153C11.9412 35.5526 11.8184 35.4404 11.6906 35.3517C11.6497 35.3233 11.6001 35.3073 11.5492 35.2827C11.7762 35.0522 12.2066 35.1656 12.3443 35.4811C12.4745 35.7806 12.4088 36.0493 12.2153 36.2995C12.0131 36.5608 11.7427 36.6433 11.4215 36.6113C10.2729 36.4979 9.70483 35.7325 9.52498 34.7305C9.37614 33.8974 9.47537 33.0716 9.64405 32.252C9.8239 31.3794 10.1253 30.5487 10.4974 29.7402C10.5061 29.7205 10.5222 29.7032 10.5557 29.6576C10.6723 29.8659 10.7852 30.0508 10.8819 30.2443C11.5505 31.5667 12.2178 32.8892 12.8801 34.2153C13.6008 35.6586 14.3375 37.0944 15.0247 38.5525C15.5109 39.5853 15.6895 40.6822 15.4848 41.8223C15.4538 41.996 15.4141 42.1686 15.3794 42.3411H14.3016L14.2991 42.3424Z" fill="white"/>
<path d="M9.19521 42.3424C9.15428 41.5265 9.28452 40.7401 9.65662 40.0093C10.1416 39.0566 11.021 38.6486 12.0852 38.8174C13.0924 38.9764 13.6022 39.5372 13.8316 40.6662C13.9098 41.0519 13.8924 41.4316 13.7436 41.8038C13.6419 42.0601 13.4422 42.208 13.2214 42.3424H13.0415C13.0204 42.3214 13.0043 42.2931 12.9795 42.282C12.76 42.176 12.6893 41.9948 12.7128 41.7656C12.7327 41.577 12.75 41.3872 12.7773 41.1986C12.8989 40.3581 12.2291 39.711 11.403 39.8823C10.8399 39.9994 10.5025 40.3827 10.3649 40.9077C10.2656 41.2886 10.2545 41.6928 10.2173 42.0885C10.2098 42.171 10.2545 42.2586 10.2743 42.3436H9.19645L9.19521 42.3424Z" fill="white"/>
<path d="M3.1932 42.3424C3.17336 42.3202 3.15723 42.2906 3.13243 42.2783C2.72187 42.07 2.61644 41.6916 2.58295 41.2824C2.54202 40.7919 2.6673 40.3297 2.85831 39.8811C3.09274 39.3302 3.51445 39.0036 4.0937 38.8692C4.60968 38.7497 5.1207 38.7386 5.62676 38.9296C6.32632 39.1934 6.6885 39.748 6.93409 40.4024C7.16727 41.0261 7.2727 41.6744 7.25534 42.3411H6.17748C6.15391 41.8974 6.15763 41.45 6.09809 41.0125C6.03856 40.5725 5.77312 40.2422 5.38738 40.013C4.87263 39.7073 3.90392 39.7948 3.70175 40.7303C3.65709 40.9398 3.65833 41.169 3.6881 41.3823C3.73772 41.7372 3.8109 42.0811 3.44624 42.3251C3.44375 42.3276 3.44624 42.3362 3.44499 42.3424H3.1932Z" fill="white"/>
<path d="M10.9204 42.3424C10.9204 42.0577 10.9067 41.773 10.9253 41.4895C10.9439 41.2048 11.0481 40.9484 11.2664 40.7475C11.4289 40.5984 11.6149 40.5195 11.8221 40.607C12.0243 40.6921 12.059 40.8942 12.0565 41.0889C12.054 41.2541 12.0255 41.4192 12.0094 41.5844C11.9821 41.8494 12.0119 42.1045 12.1421 42.3424H10.9204Z" fill="white"/>
<path d="M4.34277 42.3424C4.41471 41.9911 4.44696 41.6411 4.38371 41.2824C4.36138 41.1567 4.37006 41.0187 4.39859 40.8942C4.45937 40.6255 4.77813 40.4887 5.0076 40.644C5.21474 40.7845 5.41319 40.9595 5.44668 41.2282C5.48017 41.503 5.48513 41.7816 5.49878 42.0589C5.50374 42.1526 5.49505 42.2475 5.49257 42.3424H4.34277Z" fill="white"/>
<path d="M7.87195 6.98108V23.2647C7.85706 23.2647 7.84094 23.2672 7.82606 23.2684C7.80621 23.1267 7.79505 22.9825 7.76652 22.842C7.61396 22.0852 7.37457 21.3679 6.76184 20.8392C5.85018 20.0528 4.81822 19.8754 3.68082 20.2513C2.65257 20.5914 2.19613 21.3852 1.97038 22.3662C1.82774 22.9874 1.83519 23.5962 2.13287 24.1743C2.33132 24.5588 2.61784 24.8484 3.06685 24.9421C3.51709 25.0358 4.07153 24.7646 4.2675 24.3505C4.40766 24.056 4.45107 23.7528 4.39898 23.4298C4.37541 23.2844 4.37169 23.1328 4.38038 22.9849C4.39154 22.7964 4.43743 22.6115 4.64953 22.5425C4.85667 22.4759 5.02784 22.5659 5.16923 22.7039C5.41978 22.9455 5.50785 23.2573 5.52273 23.5938C5.56739 24.5687 5.15807 25.3131 4.3382 25.827C3.63617 26.267 2.6935 26.1536 2.00139 25.5707C1.35765 25.0284 1.02524 24.3172 0.897484 23.505C0.789574 22.8185 0.885081 22.1456 1.06617 21.4764C1.313 20.5656 1.78681 19.7558 2.19985 18.9202C2.71459 17.88 3.22933 16.8397 3.74904 15.802C4.35929 14.5831 4.9745 13.3654 5.58723 12.1489C5.67158 11.9813 5.76212 11.8149 5.87623 11.6004C6.02259 11.9209 6.16151 12.1945 6.27314 12.4792C6.55098 13.1842 6.74323 13.9163 6.86355 14.6619C6.9789 15.3743 7.04216 16.0966 6.88463 16.8089C6.66013 17.8282 6.10818 18.4506 5.00303 18.5739C4.47464 18.633 3.99215 18.193 4.02191 17.6815C4.0368 17.4338 4.17696 17.2588 4.38782 17.1454C4.56023 17.0542 4.72147 17.1084 4.88892 17.2267C4.84675 17.2588 4.81822 17.2847 4.78597 17.3032C4.54782 17.4338 4.48084 17.6063 4.58131 17.8307C4.65325 17.9909 4.90876 18.0772 5.11342 18.0118C5.40614 17.9182 5.60087 17.594 5.54258 17.2945C5.45451 16.8385 5.15683 16.5218 4.75124 16.4527C4.29975 16.3763 3.754 16.5994 3.55182 16.9692C3.26654 17.4893 3.2653 18.0229 3.57911 18.5295C3.86935 18.9991 4.29851 19.2776 4.86907 19.2714C6.16523 19.2554 7.30883 18.426 7.58295 16.9827C7.78636 15.9141 7.6338 14.8776 7.41922 13.8374C7.21581 12.8465 6.86231 11.9086 6.36245 11.0273C6.28307 10.8868 6.29919 10.7722 6.36741 10.6292C6.71967 9.88728 7.08061 9.14902 7.39566 8.39104C7.57054 7.97076 7.65985 7.51721 7.78885 7.07844C7.79877 7.04517 7.81117 7.01435 7.82233 6.98231C7.83846 6.98231 7.85458 6.98108 7.86947 6.97984L7.87195 6.98108Z" fill="white"/>
<path d="M10.5694 11.6275C10.7356 11.9394 10.8919 12.2167 11.0345 12.5014C11.6844 13.7918 12.3332 15.0834 12.9794 16.3776C13.6702 17.7629 14.3847 19.1371 15.0371 20.5397C15.5097 21.5552 15.6945 22.6411 15.4824 23.7602C15.336 24.5305 14.9602 25.1787 14.3239 25.652C13.22 26.4741 11.93 26.1006 11.2466 24.9865C10.9415 24.4898 10.8485 23.9413 10.9303 23.3732C10.9762 23.0552 11.1139 22.768 11.4215 22.6028C11.7291 22.4377 11.997 22.5609 12.0317 22.9048C12.0553 23.1328 12.0392 23.3682 12.0156 23.5975C11.9424 24.2938 12.4336 24.9187 13.1295 24.9594C13.545 24.9828 13.8811 24.7856 14.1329 24.4614C14.35 24.1829 14.4765 23.86 14.5062 23.51C14.5881 22.5499 14.3996 21.6612 13.7471 20.9119C13.3664 20.4756 12.8653 20.2525 12.3046 20.1403C11.3024 19.9407 10.4007 20.1305 9.64036 20.8342C9.19756 21.2446 8.96933 21.7832 8.79817 22.3453C8.71258 22.6263 8.65925 22.9184 8.5625 23.2006V7.01681C8.57118 7.01435 8.57986 7.01312 8.58979 7.01065C8.6208 7.10925 8.65677 7.20785 8.68281 7.30768C8.91104 8.17412 9.27198 8.99003 9.65773 9.79607C9.80905 10.1128 9.96657 10.4271 10.1092 10.7476C10.1365 10.8104 10.1291 10.9127 10.0956 10.9731C9.53989 11.9887 9.13554 13.0585 8.92592 14.1973C8.75971 15.1032 8.67537 16.0189 8.83786 16.9297C9.04127 18.0673 9.6937 18.8512 10.8348 19.1741C11.2441 19.2899 11.6646 19.3417 12.0876 19.1876C12.9049 18.8894 13.3242 17.875 12.936 17.1084C12.6916 16.6265 12.0268 16.3307 11.5158 16.486C11.1251 16.6043 10.9415 16.8952 10.8931 17.2785C10.8559 17.5706 10.965 17.8023 11.2156 17.965C11.388 18.0759 11.6472 18.0537 11.7775 17.9182C11.93 17.7592 11.9524 17.5694 11.8134 17.4067C11.7539 17.3377 11.6522 17.3044 11.5604 17.2489C11.6485 17.1368 11.7651 17.0862 11.9114 17.1133C12.1297 17.1528 12.2835 17.276 12.3567 17.4843C12.5676 18.0858 12.0293 18.6786 11.3706 18.5763C10.3263 18.4136 9.68749 17.7604 9.52253 16.7005C9.41214 15.9918 9.45803 15.2942 9.58082 14.5904C9.70734 13.8657 9.89215 13.162 10.1663 12.4804C10.2643 12.2376 10.3759 12.001 10.4826 11.7631C10.4999 11.7249 10.5297 11.6916 10.5706 11.6312L10.5694 11.6275Z" fill="white"/>
<path d="M7.88406 1.77135C7.956 2.50592 7.90886 5.04854 7.80592 5.36898C7.78731 5.17795 7.78483 5.02882 7.75878 4.88338C7.58761 3.92821 7.18574 3.11107 6.33239 2.57001C5.22848 1.86872 3.66068 1.9969 2.73786 2.88552C2.32111 3.28608 2.10529 3.80866 1.98125 4.35958C1.86714 4.87229 1.81753 5.3924 1.99986 5.90881C2.18343 6.42892 2.46623 6.84427 3.03803 6.9934C3.47587 7.10802 4.0886 6.81716 4.27465 6.40551C4.41605 6.09245 4.45326 5.77077 4.39869 5.43061C4.37264 5.26915 4.37264 5.0966 4.40117 4.93515C4.46318 4.59375 4.79684 4.47666 5.06847 4.69728C5.27189 4.8612 5.41329 5.06333 5.47034 5.33078C5.71097 6.45357 5.08212 7.55172 4.19775 7.95721C3.48207 8.28505 2.61383 8.17043 1.98994 7.62074C1.23705 6.95643 0.889748 6.10848 0.861221 5.12495C0.828972 4.03297 1.13286 3.02356 1.6538 2.07085C1.67985 2.02401 1.71582 1.97841 1.72698 1.92788C1.76419 1.76519 1.88202 1.72945 2.02466 1.73068C2.22808 1.73315 2.4315 1.74054 2.63491 1.74054C4.25729 1.74301 5.8809 1.74301 7.50327 1.74547C7.62855 1.74547 7.75258 1.76149 7.88282 1.77135H7.88406Z" fill="white"/>
<path d="M8.55277 5.28517C8.55277 5.21122 8.55277 5.13727 8.55277 5.06332C8.55277 4.02187 8.55649 2.98042 8.55029 1.9402C8.55029 1.79354 8.59743 1.75533 8.73138 1.75533C9.77948 1.75533 10.8276 1.7504 11.8744 1.7467C12.6893 1.74424 13.503 1.74793 14.3167 1.73684C14.5325 1.73438 14.6528 1.796 14.7582 2.00059C15.0993 2.66121 15.3672 3.3477 15.4875 4.07857C15.6252 4.92282 15.6215 5.76461 15.2395 6.5608C14.9319 7.20169 14.5002 7.72919 13.8143 7.99911C13.1011 8.27888 12.4462 8.1544 11.8335 7.71071C11.1153 7.1906 10.7048 6.0148 10.9975 5.20629C11.067 5.01402 11.2071 4.83038 11.3584 4.68742C11.6102 4.44955 11.9612 4.57403 12.027 4.91296C12.0567 5.06702 12.0344 5.23217 12.0381 5.39117C12.0443 5.62164 12.0282 5.85581 12.0642 6.08259C12.1473 6.60763 12.5082 6.88371 12.9969 6.99833C13.4199 7.09816 13.7535 6.8985 14.0388 6.61133C14.3092 6.33772 14.4469 5.99508 14.4928 5.62287C14.5796 4.90557 14.4915 4.20428 14.1616 3.55722C13.859 2.96193 13.3752 2.55645 12.7352 2.32597C12.0319 2.07208 11.3386 2.04989 10.6291 2.29269C9.78444 2.58109 9.24613 3.17022 8.94844 3.97997C8.80953 4.35588 8.74131 4.7589 8.64084 5.14837C8.62844 5.19643 8.60859 5.24204 8.59246 5.28887L8.55277 5.28394V5.28517Z" fill="white"/>
<path d="M64.4003 34.346C62.5274 33.7741 60.6557 33.1998 58.7816 32.6316C58.6055 32.5786 58.4157 32.5182 58.2383 32.5305C56.7685 32.6316 55.4575 32.0905 54.1439 31.5532C53.9194 31.4607 53.7061 31.3227 53.4741 31.2722C53.2806 31.2303 53.0661 31.2906 52.8602 31.2968C52.7622 31.3005 52.6592 31.2993 52.5674 31.2734C50.9699 30.81 49.484 30.1013 48.0923 29.2065C46.8792 28.4263 45.6773 27.6265 44.5002 26.7958C44.0686 26.4913 43.6134 26.1586 43.4534 25.5325C43.6444 25.583 43.8007 25.6237 44.0909 25.7001C43.8007 25.3303 43.5725 25.0395 43.3455 24.7486C42.8357 24.0954 42.3061 23.457 41.8211 22.7853C41.0521 21.7167 40.8437 20.5039 40.969 19.2147C41.4515 19.3466 41.5122 19.2764 41.4341 18.7599C41.2642 17.6409 41.3708 16.5649 42.0171 15.5986C42.925 14.2417 44.2757 13.9619 45.7567 14.2343C45.7691 14.132 45.7803 14.0297 45.7914 13.9298C47.2414 13.9409 48.4297 15.0391 49.2284 17.4104C48.7236 17.5669 48.5351 17.0271 48.034 16.8742C48.3317 17.4683 48.581 17.9662 48.8303 18.4629C48.901 18.6034 48.9915 18.7353 49.0449 18.8807C49.19 19.2838 49.345 19.6005 49.8263 19.7878C50.4998 20.0504 50.8148 20.7073 51.0579 21.3642C51.1535 21.623 51.2514 21.8794 51.378 22.2121C51.5231 22.0014 51.6173 21.8658 51.7315 21.7007C52.1916 21.8301 52.5302 22.1283 52.8416 22.4895C53.3042 23.0268 53.6912 23.6529 54.3957 23.9302C54.4366 23.9044 54.4776 23.8785 54.5185 23.8526C54.3325 23.5568 54.17 23.2425 53.9554 22.9689C53.3873 22.2442 53.3303 22.1431 53.2224 21.3137C53.1579 21.3026 53.0896 21.2816 53.0202 21.2804C52.3826 21.2619 52.1532 21.1029 52.0093 20.4842C51.9485 20.2254 51.8592 20.1342 51.5876 20.1292C51.11 20.1206 50.7293 19.8236 50.6424 19.3318C50.5469 18.7871 50.5469 18.2275 50.4973 17.5743C50.1475 17.2119 49.6849 16.7633 50.0806 16.0423C50.1041 16.0004 50.1029 15.9154 50.0744 15.8796C49.546 15.2178 49.923 14.5103 49.964 13.8201C49.9826 13.5145 50.0334 13.2051 50.0086 12.9032C49.964 12.3646 49.5075 12.1168 49.0151 12.3387C48.8861 12.3966 48.7521 12.4656 48.6504 12.5605C48.1816 12.9981 47.6718 13.0585 47.1012 12.7738C46.1077 12.2771 45.0782 12.3054 44.0364 12.5938C42.8295 12.9278 42.0481 13.7597 41.4713 14.8061C40.9454 15.7601 40.6527 16.7941 40.5113 17.8713C40.5038 17.9268 40.5014 17.9872 40.479 18.0377C40.458 18.0858 40.4145 18.1252 40.3525 18.2053C39.8353 16.8508 39.8117 15.5542 40.5125 14.2441C40.1131 14.0358 40.2843 13.7339 40.4294 13.4455C41.1017 12.1082 42.0989 11.2578 43.6878 11.2221C44.076 11.2134 44.1257 11.2874 43.8838 11.7077C45.1266 11.2948 46.0544 12.1107 47.1186 12.3251C47.2389 11.4907 46.517 11.6066 46.0631 11.3576C46.4774 10.5195 46.0928 9.7973 45.7542 9.16134C45.4107 9.24884 45.0919 9.3573 44.7644 9.4066C44.4928 9.44727 44.2708 9.38688 44.2423 9.0159C44.2311 8.86061 44.0426 8.71395 43.926 8.56974C43.7238 8.31708 43.5142 8.07059 43.2512 7.75137C43.1135 7.97569 42.9473 8.22711 42.8034 8.48963C42.5492 8.95305 42.5157 9.02083 41.9327 8.76201C41.8546 8.7275 41.7628 8.69546 41.7095 8.63507C41.258 8.11619 40.7159 8.21972 40.159 8.39843C38.6657 8.87787 37.9624 10.0278 37.6138 11.4365C37.2789 12.791 37.2554 14.1652 37.5134 15.5407C37.5382 15.675 37.5171 15.818 37.491 15.9573C36.8349 13.9385 36.7853 11.9418 37.8024 10.0191C38.3878 8.91114 39.3044 8.21479 40.6006 8.08784C40.7928 8.06935 40.9814 8.01389 41.1761 7.97569C40.8946 7.05009 40.1566 6.5041 39.4979 5.89401C39.4247 5.82623 39.3317 5.77939 39.261 5.70914C38.9224 5.37637 38.6061 5.15206 38.0703 5.41458C37.5543 5.66847 37.367 5.54029 36.9751 5.06825C36.6985 4.73424 36.3016 4.6036 35.896 4.7478C35.4321 4.91295 34.9992 5.15945 34.5527 5.36897C34.477 5.40472 34.3889 5.47497 34.3232 5.46018C33.8891 5.35665 33.4599 5.2334 33.0283 5.11631C33.0394 5.05962 33.0506 5.00293 33.0618 4.945C33.3086 4.97088 33.5554 4.99307 33.801 5.02265C34.0528 5.05223 34.3034 5.0892 34.5688 5.12371V4.59128C35.2039 5.08427 35.3056 4.25234 35.7434 4.18948C36.1701 4.7971 36.7729 4.4594 37.3397 4.452C37.3236 4.57649 37.3025 4.67139 37.3 4.76629C37.2901 5.16438 37.5655 5.33693 37.9314 5.16438C38.4796 4.90433 38.8244 4.97088 39.2474 5.35049C39.591 5.65984 39.9693 5.93099 40.3314 6.21816C40.3538 6.23541 40.391 6.24158 40.4046 6.26253C40.8177 6.87877 41.217 7.50488 41.6474 8.10879C41.7864 8.30476 41.996 8.46005 42.1994 8.59439C42.2503 8.62767 42.4611 8.53893 42.4958 8.46129C42.7055 7.99541 42.9275 7.52829 43.0652 7.04023C43.3083 6.18365 43.1284 5.84964 42.3296 5.45895C42.2416 5.41581 42.1672 5.34679 42.0679 5.27777C42.3272 4.90433 42.2689 4.59251 41.9104 4.33738C41.8769 4.31273 41.8335 4.27453 41.8298 4.23878C41.769 3.65828 41.3411 3.70388 40.9727 3.80248C40.6812 3.88013 40.5882 3.80248 40.5076 3.55722C40.3476 3.07655 39.9122 2.92742 39.5016 2.72036C38.8939 2.41347 38.4412 2.80047 37.9413 2.98411C37.6523 3.09011 37.4985 3.08887 37.3732 2.73268C37.15 2.09549 36.8461 2.024 36.2333 2.29515C35.7806 2.49481 35.3118 2.6612 34.8367 2.80294C34.6941 2.84484 34.5105 2.7524 34.3282 2.71913C34.3666 2.52686 34.4162 2.37773 34.42 2.22736C34.4224 2.11767 34.3654 2.00552 34.3344 1.89583C34.219 1.93773 34.095 1.96484 33.9896 2.02524C33.935 2.05605 33.9114 2.14232 33.8767 2.20518C33.5306 2.83252 33.5232 2.83498 32.8943 2.517C32.8063 2.47263 32.7207 2.4221 32.6289 2.38512C31.9814 2.12137 31.9752 2.12014 31.7061 2.71666C31.6006 2.95083 31.4952 3.04943 31.2161 2.92495C30.5364 2.6193 30.5414 2.64148 30.2065 3.29716C30.1519 3.40439 29.9063 3.44876 29.7451 3.45862C29.5032 3.47341 29.2576 3.4352 29.0133 3.41548C28.6362 3.3859 28.4812 3.61268 28.4092 3.84932C28.9451 4.02187 29.4511 4.20551 29.9696 4.34355C30.2301 4.4138 30.5116 4.40394 30.8279 4.43352C30.8701 5.0362 31.2955 4.96965 31.778 4.8883C32.1104 4.83161 32.4602 4.87721 32.8546 4.87721C32.1985 5.61547 30.8155 5.43799 30.5637 4.72562C30.1408 4.59621 29.7649 4.49391 29.3978 4.36573C29.022 4.23385 28.7156 4.22153 28.372 4.52226C27.5559 5.2371 26.5562 5.61794 25.5105 5.87183C24.7279 6.06287 23.9366 6.21693 23.1502 6.39687C22.5114 6.54353 21.9991 6.92314 21.6035 7.40874C20.8332 8.35159 19.9588 9.1638 18.9268 9.81579C18.7122 9.95136 18.5187 10.1461 18.3699 10.3519C18.2322 10.543 18.0933 10.7858 18.092 11.0076C18.0896 11.2011 18.2595 11.4094 18.3848 11.5906C18.6614 11.9874 18.9615 12.3683 19.2418 12.7639C19.2989 12.8452 19.3522 12.9722 19.3311 13.0597C19.1563 13.7733 19.4564 14.36 19.7839 14.959C20.3644 16.0189 21.3504 16.5291 22.3936 17.0135C24.3074 17.9021 26.1915 18.8549 28.0992 19.757C29.5392 20.4386 30.9978 21.0832 32.4466 21.7463C32.4825 21.7623 32.5111 21.798 32.5197 21.8942C31.9145 21.7241 31.3092 21.5552 30.7051 21.3839C28.79 20.8416 26.8588 20.3499 24.9648 19.7398C23.4962 19.2677 22.0686 18.6687 20.6385 18.0858C20.0443 17.843 19.4974 17.4868 18.9206 17.1984C18.8214 17.1491 18.6663 17.1355 18.5659 17.175C18.1689 17.334 17.8353 17.228 17.5463 16.9618C17.1692 16.6142 16.812 16.2469 16.4461 15.8883C16.4461 15.8303 16.4461 15.7724 16.4461 15.7145C16.5726 15.781 16.714 15.8291 16.8219 15.9178C17.3019 16.3159 17.7708 16.7251 18.3116 17.1873C18.3364 16.7904 18.4592 16.7522 18.7135 16.8668C19.9116 17.4091 21.1148 17.9379 22.3204 18.4642C23.9254 19.1642 25.5602 19.7804 27.2706 20.1773C27.6849 20.2734 28.1066 20.3338 28.5246 20.4115L28.5767 20.2513C26.9568 19.5204 25.3431 18.776 23.7158 18.0611C22.2819 17.4313 20.9101 16.7066 19.8595 15.521C19.3187 14.9109 18.7593 14.2688 19.0955 13.3345C19.1166 13.2766 19.0918 13.1842 19.0546 13.1287C18.7445 12.6653 18.4815 12.1538 18.0958 11.7619C17.7373 11.3983 17.6616 11.0791 17.9023 10.6637C18.03 10.4431 18.1392 10.1917 18.3252 10.0302C19.48 9.02453 20.6633 8.05333 21.7126 6.92807C22.2497 6.3525 22.9914 6.1134 23.8063 6.04438C25.1558 5.93222 26.4309 5.5329 27.5695 4.77985C27.7891 4.63441 27.9528 4.40763 28.1426 4.21906C28.114 4.18209 28.0855 4.14635 28.057 4.10937C27.9664 4.12909 27.8585 4.12416 27.7891 4.17346C27.1032 4.66522 26.292 4.68864 25.5019 4.78847C24.3285 4.93637 23.1675 5.14836 22.1219 5.71654C21.4435 6.08505 20.832 6.57188 20.1622 6.96012C18.933 7.67249 17.684 8.35159 16.4424 9.04425C16.4424 8.95798 16.4424 8.87047 16.4424 8.7842C16.7822 8.30353 17.2436 7.95227 17.7906 7.77849C18.7445 7.4753 19.5718 6.96135 20.3036 6.31676C21.2624 5.4725 22.4072 5.11262 23.6153 4.87475C24.6783 4.66522 25.7437 4.46433 26.8117 4.28439C27.3091 4.20058 27.696 3.95901 28.0285 3.60775C28.4464 3.16652 28.9054 2.92742 29.5305 3.18131C29.6421 3.22691 29.9101 3.16898 29.9386 3.09504C30.2115 2.37896 30.7696 2.53302 31.3303 2.62176C31.3799 2.54288 31.4431 2.46523 31.4816 2.3765C31.7135 1.84529 31.9021 1.74546 32.4664 1.9328C32.7777 2.0351 33.0705 2.19285 33.3979 2.33829C33.6708 1.9821 33.7899 1.29807 34.4882 1.54703C34.9533 1.71218 34.8032 2.14602 34.6978 2.64764C35.0252 2.49851 35.2894 2.39991 35.5288 2.26064C35.7124 2.15465 35.8575 1.9858 36.0349 1.86501C36.5099 1.54087 37.0272 1.62961 37.3273 2.12384C37.5283 2.45414 37.7094 2.55151 38.1422 2.5096C38.786 2.44675 39.4694 2.52686 40.097 2.69201C40.3761 2.76596 40.5609 3.19363 40.7891 3.46108C40.7581 3.48943 40.7271 3.51778 40.6961 3.54613C40.876 3.53134 41.0583 3.5301 41.2357 3.49806C41.604 3.43274 41.8273 3.62131 42.0406 3.88383C42.1163 3.97626 42.2937 4.06993 42.3966 4.04528C43.2115 3.85178 43.4794 3.93436 43.9892 4.59374C44.6392 4.33492 44.9393 4.43352 45.3003 5.05099C45.4069 5.23463 45.5285 5.43799 45.5459 5.64012C45.6017 6.26623 46.0159 6.47575 46.5406 6.65076C47.2699 6.89356 47.9757 7.20661 48.3912 7.90913C48.5264 8.13837 48.5909 8.40829 48.7137 8.64616C48.8092 8.83103 48.9084 9.07876 49.0722 9.15148C49.4703 9.32896 49.696 9.59517 49.7407 10.013C49.7705 10.2891 49.9032 10.4296 50.1699 10.5294C50.728 10.7377 51.0108 11.2319 51.3259 11.699C51.4623 11.9024 51.693 12.0836 51.9225 12.1748C52.5228 12.4151 53.0586 13.1669 53.0723 13.915C53.0772 14.1837 53.0103 14.4524 53.0078 14.7223C53.0065 14.8567 53.0623 14.9972 53.1132 15.1278C53.2087 15.3718 53.3166 15.6109 53.4221 15.8525C53.4493 15.9166 53.4679 16.0164 53.5151 16.0337C54.5681 16.4318 54.4689 17.3635 54.5384 18.2127C54.5818 18.7402 54.5979 19.2702 54.6301 19.7989C54.6339 19.868 54.6413 19.9518 54.681 20.0035C55.2193 20.6925 54.9861 21.5343 55.1461 22.2972C55.192 22.5153 55.2081 22.7409 55.2627 22.9566C55.3905 23.4631 54.9402 24.2396 54.4242 24.3111C54.2704 24.332 54.0571 24.226 53.9318 24.1114C53.53 23.7466 53.1517 23.3547 52.7746 22.964C52.4794 22.6595 52.1991 22.3416 51.9212 22.0384C51.6719 22.2195 51.4896 22.3526 51.2477 22.5301C51.0803 22.1542 50.9314 21.8227 50.7838 21.4924C50.4725 20.7936 50.1699 20.096 49.3425 19.8187C49.2111 19.7743 49.1305 19.5352 49.0573 19.3725C48.2436 17.562 46.9685 16.2888 44.9666 15.8254C43.4025 15.463 42.4239 16.3874 42.0605 17.7395C41.5892 19.4871 42.0332 21.0635 43.0031 22.5498C44.3254 24.5773 46.1301 26.0883 48.1245 27.4095C50.3745 28.9009 52.8205 30.0101 55.3371 30.9591C57.6256 31.8219 59.9438 32.6057 62.2533 33.4105C62.9578 33.6558 63.6785 33.8579 64.3917 34.0798V34.3398L64.4003 34.346ZM53.1368 20.478C53.262 20.6654 53.3662 20.7812 53.427 20.9168C53.6354 21.3815 53.8239 21.8547 54.0311 22.3206C54.2035 22.7076 54.4081 23.0724 54.9154 23.277C54.8757 22.9775 54.8633 22.7298 54.8075 22.4919C54.6202 21.692 54.8137 20.8133 54.2965 20.0812C54.2531 20.0196 54.258 19.916 54.2556 19.8322C54.237 19.1272 54.2345 18.4222 54.1997 17.7173C54.1749 17.2082 54.1129 16.7153 53.4655 16.5661C53.2496 16.5156 53.1293 16.3307 53.1169 16.0497C53.107 15.818 52.9284 15.5937 52.823 15.3657C52.7547 15.2178 52.5972 15.044 52.6319 14.9269C52.8726 14.1295 52.591 13.4393 52.2276 12.7676C52.1668 12.6554 51.9907 12.5199 51.884 12.5322C51.4549 12.5827 51.3556 12.3338 51.1931 12.0096C51.0059 11.6374 50.7044 11.2997 50.3894 11.0175C50.0967 10.7562 49.763 10.9176 49.4939 11.3773C49.3326 11.6534 49.3351 11.9406 49.6427 12.0712C50.1165 12.2709 50.2554 12.6493 50.2654 13.0856C50.2765 13.5552 50.2009 14.0272 50.1984 14.498C50.1971 14.8825 50.1984 15.2794 50.2927 15.6479C50.3609 15.9129 50.4638 16.136 50.3385 16.4158C50.2889 16.5255 50.3336 16.7079 50.3931 16.8286C50.5072 17.0591 50.7367 17.2539 50.7888 17.4917C50.8942 17.9687 50.8979 18.4679 50.9711 18.9535C51.0269 19.322 51.1745 19.6424 51.5516 19.7718C51.6546 19.566 51.7327 19.4119 51.8468 19.1852C52.2474 19.8396 52.2425 20.5705 52.8006 21.024C52.9123 20.8429 53.0041 20.695 53.1368 20.4793V20.478ZM45.7704 8.69669C46.6584 10.3901 46.682 10.4641 46.5419 11.1198C47.2377 11.3293 47.4858 11.9579 47.7996 12.6111C48.2448 12.298 48.6331 12.0256 49.0498 11.7335C49.0287 11.5314 49.0015 11.2886 48.9754 11.0409C49.2669 11.0409 49.5695 11.0396 49.4629 10.7044C49.3339 10.3039 49.4046 9.76156 48.8303 9.59641C48.777 9.58162 48.741 9.48918 48.7075 9.42756C48.4483 8.96661 48.1791 8.51182 47.9385 8.04101C47.5875 7.35328 47.1037 6.91821 46.2789 7.10185C46.1735 6.91082 46.0804 6.74443 45.9812 6.56572C45.8063 6.76045 45.6686 6.91328 45.4776 7.1265C45.4615 6.97367 45.4541 6.91082 45.4479 6.84673C45.3896 6.19474 45.3387 5.53659 44.8785 5.01155C44.7061 4.81436 44.5461 4.54814 44.2088 4.84887C44.1281 4.92035 43.854 4.84763 43.7151 4.76506C43.5774 4.68371 43.5179 4.47789 43.3852 4.37805C43.245 4.27329 42.9635 4.12909 42.9101 4.17839C42.729 4.34848 42.569 4.58142 42.5045 4.81805C42.4686 4.95116 42.5963 5.24326 42.7141 5.28393C43.0689 5.40595 43.2252 5.66847 43.3145 5.97166C43.41 6.29704 43.4472 6.64213 43.4943 6.97984C43.5613 7.46667 43.6208 7.97692 44.0711 8.26162C44.3216 8.41938 44.4692 8.5907 44.5312 8.86184C44.5771 9.05781 44.6987 9.13792 44.8934 9.06027C45.18 8.94689 45.4628 8.82364 45.7704 8.69546V8.69669ZM52.2487 30.6214C53.8872 31.3363 55.5071 31.9599 57.2597 32.1805C57.1766 32.0807 57.0786 32.0227 56.9744 31.9796C55.1871 31.2327 53.3972 30.4908 51.6124 29.7402C49.5075 28.8553 47.544 27.7251 45.7716 26.288C43.9396 24.8016 42.5653 22.9948 41.8744 20.7097C41.7417 20.271 41.4564 19.8778 41.2406 19.4637C41.2009 19.4834 41.1612 19.5031 41.1215 19.5216C41.1017 20.2993 41.2431 21.0487 41.5358 21.7721C42.0009 22.9184 42.8245 23.8168 43.5998 24.7511C43.9681 25.1948 44.3043 25.6668 44.654 26.1253C44.6218 26.1623 44.5895 26.198 44.5573 26.235C44.3216 26.1105 44.086 25.9848 43.8491 25.8603C45.7555 27.7053 50.7169 30.5918 52.4335 30.9234C52.3715 30.8235 52.3095 30.7237 52.2474 30.6226L52.2487 30.6214ZM46.2169 14.5325C46.2169 14.5867 46.2144 14.641 46.2144 14.6952C45.0311 14.0827 43.9074 14.1085 42.8915 14.9269C41.8732 15.7477 41.4167 16.8163 41.5681 18.1191C41.764 17.6384 41.9377 17.1466 42.1597 16.6783C42.7613 15.4113 43.8391 15.1611 45.2866 15.5653C46.1549 15.8081 46.9561 16.29 47.6334 16.5957C47.9174 16.5895 48.0923 16.5415 48.2238 16.5957C48.3875 16.6623 48.5152 16.8151 48.7472 17.0012C48.1444 15.3965 46.9834 14.2429 45.9415 14.127C46.0507 14.2885 46.1338 14.4105 46.2169 14.5338V14.5325ZM40.7643 14.0691C40.221 15.1993 40.0933 16.4996 40.4344 17.5423C40.5882 16.0916 40.9181 14.7766 41.862 13.6772C42.8134 12.5679 44.0798 12.1452 45.4702 11.9246C45.0981 11.8753 44.7309 11.8543 44.3663 11.8814C44.0153 11.9086 43.6667 11.985 43.3182 12.0404L43.2835 11.9431C43.441 11.7964 43.5985 11.6497 43.7722 11.4883C42.6558 11.2553 41.1302 12.2487 40.4369 13.9249C40.5336 13.968 40.6328 14.0112 40.7643 14.0703V14.0691Z" fill="white"/>
<path d="M64.4007 37.2054C61.8295 37.2152 59.3438 36.7 56.8966 35.9729C55.3028 35.4996 53.7102 35.0177 52.13 34.5C51.0099 34.134 49.9073 33.6989 48.9882 32.9397C48.6632 32.6723 48.3705 32.3309 48.1621 31.9661C47.7367 31.2229 47.0793 30.9184 46.2805 30.9061C45.0203 30.8876 43.94 30.354 42.8894 29.771C41.845 29.1917 40.8751 28.4904 40.0589 27.6043C39.8753 27.4046 39.7166 27.1828 39.5454 26.9708L39.6372 26.8894C39.7265 26.9646 39.827 27.0299 39.9026 27.1162C41.6813 29.1449 43.9313 30.3207 46.5931 30.72C47.5047 30.8568 48.0405 31.457 48.6049 32.0856C48.9596 32.48 49.3838 32.8436 49.8428 33.1086C51.1352 33.8542 52.5678 34.2609 53.993 34.6726C55.3834 35.0744 56.7689 35.5058 58.1779 35.8361C59.515 36.1503 60.8781 36.3562 62.2313 36.5977C62.952 36.7259 63.6776 36.8294 64.4019 36.9441V37.2041L64.4007 37.2054Z" fill="white"/>
<path d="M36.6762 41.7101C35.2746 41.0704 33.847 40.4825 32.4789 39.7788C30.8168 38.9247 29.2069 37.967 27.5684 37.0673C27.0908 36.8048 26.5848 36.5965 26.1035 36.3426C25.7723 36.1676 25.4598 35.9556 25.172 35.6783C26.5686 35.5477 27.8313 36.1368 29.2366 36.3278C28.7095 35.5649 28.1017 34.9783 27.3761 34.558C25.9485 33.7322 24.4836 32.9718 23.0349 32.1854C22.8848 32.1041 22.7385 32.0154 22.5809 31.95C22.3515 31.8564 22.1369 31.791 21.9608 32.0844C21.9074 32.1731 21.6643 32.2187 21.5378 32.1817C21.2116 32.0893 20.899 31.9451 20.5852 31.8108C20.2726 31.6777 20.1288 31.7565 20.1188 32.109C20.1002 32.7635 20.0506 32.7881 19.4118 32.5922C18.2931 32.2495 17.3603 31.616 16.5454 30.7952C17.1135 31.1255 17.6766 31.4632 18.2496 31.7824C18.7247 32.0462 19.2122 32.289 19.7591 32.5749C19.805 32.342 19.8509 32.1953 19.8621 32.0462C19.8993 31.5014 20.1424 31.3375 20.6534 31.5495C21.0417 31.7109 21.4187 31.9007 21.8132 32.0844C22.0476 31.4829 22.4842 31.7504 22.7843 31.8909C23.9515 32.4369 25.1063 33.0149 26.24 33.6287C26.9829 34.0317 27.6887 34.505 28.3969 34.9672C28.9427 35.3234 29.285 35.8459 29.5678 36.5127C28.2319 36.4967 27.0623 35.8977 25.7798 35.8447C26.1308 36.0407 26.4756 36.2477 26.8328 36.4314C29.4028 37.76 31.9728 39.0911 34.5503 40.4049C35.4508 40.8634 36.3748 41.275 37.2877 41.7089H36.6775L36.6762 41.7101Z" fill="white"/>
<path d="M30.7476 41.7101C29.9029 41.4821 29.057 41.2553 28.2123 41.0236C27.5922 40.8535 26.9807 40.6502 26.3543 40.506C25.94 40.4098 25.5084 40.3618 25.0829 40.3445C24.4144 40.3186 24.0659 40.013 23.9964 39.2833C24.1762 39.2833 24.3524 39.2772 24.5285 39.2858C24.6947 39.2944 24.8597 39.3191 25.0842 39.3425C24.5198 38.4267 23.6169 38.0853 22.7945 37.6515C22.0429 37.2547 21.2416 36.949 20.485 36.5595C20.2146 36.4203 20.0521 36.4856 19.8276 36.6125C19.6837 36.6939 19.4567 36.7506 19.3129 36.6963C18.1159 36.2502 17.2725 35.3874 16.5928 34.3423C16.759 34.4729 16.9289 34.5974 17.0914 34.733C17.7736 35.3036 18.457 35.8743 19.133 36.4523C19.3662 36.652 19.5659 36.6557 19.7606 36.4116C19.9752 36.1417 20.2059 36.2095 20.48 36.3352C21.9523 37.0069 23.4606 37.6121 24.7183 38.6708C25.0048 38.9124 25.3335 39.1058 25.6436 39.3203C25.584 39.3807 25.5245 39.4411 25.465 39.5015C25.1102 39.5224 24.7567 39.5434 24.3735 39.5668C24.4851 40.0191 24.722 40.114 25.0333 40.1374C27.3577 40.3112 29.5432 41.0828 31.7709 41.6744C31.7808 41.6768 31.7858 41.6978 31.7932 41.7101H30.7476Z" fill="white"/>
<path d="M50.6188 8.87295C50.3187 8.87295 50.0421 8.90869 49.7828 8.85939C49.634 8.83104 49.4678 8.693 49.3847 8.55743C49.2346 8.31093 49.34 8.10388 49.5893 7.96337C50.1401 7.65402 50.6188 7.90914 50.6188 8.51553C50.6188 8.64247 50.6188 8.77065 50.6188 8.87295ZM50.3534 8.72382C50.3522 8.1125 49.9763 8.22219 49.7357 8.15441C49.7121 8.14824 49.6365 8.32079 49.5856 8.41076C49.8176 8.50567 50.0495 8.59934 50.3546 8.72382H50.3534Z" fill="white"/>
<path d="M36.3202 1.03679C36.3227 1.462 36.1155 1.63208 35.5785 1.62592C35.3378 1.62345 35.065 1.64441 35.0724 1.27712C35.0811 0.850684 35.3837 0.542562 35.798 0.538865C36.1825 0.535167 36.3177 0.664578 36.3202 1.03679ZM35.3788 1.42256C35.6144 1.33505 35.8489 1.24878 36.0845 1.16127C36.0337 1.07376 36.0014 0.929563 35.9283 0.906146C35.6095 0.802617 35.4098 0.946818 35.3788 1.42256Z" fill="white"/>
<path d="M54.2977 14.9146C54.6698 14.9146 54.7938 15.1118 54.8025 15.3743C54.8112 15.6886 54.6363 15.9104 54.3125 15.9031C54.0595 15.8969 53.8276 15.7699 53.866 15.4507C53.8995 15.1648 54.0025 14.9195 54.2977 14.9146Z" fill="white"/>
<path d="M55.4326 18.0316C55.4959 17.652 55.5132 17.3426 55.8878 17.3894C56.0205 17.4055 56.2512 17.6926 56.224 17.7481C56.1222 17.9478 55.9424 18.1203 55.7576 18.2571C55.7216 18.283 55.5306 18.1006 55.4339 18.0316H55.4326Z" fill="white"/>
<path d="M51.3521 10.6933C51.0544 10.66 50.8461 10.543 50.8771 10.2053C50.9068 9.88112 51.0855 9.72829 51.4191 9.72706C51.8086 9.72582 51.9636 9.96862 51.9773 10.2891C51.9959 10.7328 51.594 10.612 51.3521 10.6921V10.6933ZM51.3645 9.73938C51.1921 9.9526 51.0979 10.0685 51.0036 10.1843C51.1537 10.2669 51.2976 10.3852 51.4576 10.416C51.5332 10.4308 51.7329 10.2361 51.7205 10.2077C51.656 10.0697 51.5394 9.9563 51.3645 9.73938Z" fill="white"/>
<path d="M39.2747 1.13538C39.261 1.54333 38.9584 1.79599 38.6421 1.69493C38.5664 1.67028 38.4523 1.5458 38.466 1.50882C38.5168 1.37448 38.5888 1.19331 38.7004 1.15017C38.8604 1.08978 39.0601 1.13415 39.2747 1.13415V1.13538Z" fill="white"/>
<path d="M56.6507 20.658C56.5217 20.4238 56.4076 20.3104 56.4138 20.2044C56.4213 20.0886 56.5403 19.9801 56.611 19.868C56.6966 19.9616 56.843 20.0504 56.8517 20.1514C56.8628 20.2735 56.7586 20.4053 56.6507 20.6592V20.658Z" fill="white"/>
<path d="M56.3768 22.0519L55.9067 21.8942C55.9514 21.7906 55.996 21.6871 56.0407 21.5836C56.1883 21.6662 56.3371 21.7475 56.4847 21.8301C56.4488 21.904 56.4128 21.978 56.3768 22.0519Z" fill="white"/>
<path d="M20.5765 26.5098C20.3544 26.2202 20.1572 25.9638 19.9612 25.7075C20.1895 25.6249 20.4177 25.5423 20.6571 25.4561C19.8781 24.7733 18.7631 24.406 18.1689 23.282C18.871 23.5457 19.4887 23.7823 20.1088 24.0116C21.6977 24.5982 23.2606 25.2786 24.8867 25.7371C26.1568 26.0957 27.505 26.1845 28.821 26.3829C29.5392 26.4913 30.2611 26.5702 30.9792 26.6725C31.4456 26.7391 31.9132 26.8044 32.3721 26.9092C32.5309 26.9449 32.7951 27.1199 32.7815 27.1889C32.7467 27.3738 32.6227 27.5796 32.4701 27.6943C32.2977 27.8249 32.0571 27.8668 31.8413 28.0357C32.4788 28.1429 33.1126 28.2735 33.7526 28.3536C35.0277 28.5126 36.309 28.6285 37.5828 28.7961C37.8855 28.8355 38.1894 28.9785 38.4573 29.1338C38.848 29.3618 38.8195 29.7981 38.3829 29.8918C37.888 29.9978 37.3509 30.0064 36.8448 29.9472C35.2113 29.7562 33.5815 29.5344 31.9554 29.2842C31.0264 29.1412 30.111 28.9157 29.1882 28.7345C28.826 28.6642 28.4589 28.6162 27.9999 28.5434C28.3038 29.0451 28.6846 29.3137 29.1448 29.474C29.7935 29.7007 30.4595 29.8807 31.0933 30.1407C31.4183 30.2751 31.6887 30.5401 31.9852 30.7459C31.9616 30.8124 31.9393 30.879 31.9157 30.9456C31.1442 30.8667 30.3603 30.8445 29.6025 30.6978C27.985 30.3848 26.4817 29.7279 24.9859 29.0635C23.557 28.4288 22.1405 27.767 20.7228 27.1101C20.2614 26.8956 20.254 26.8019 20.5765 26.5086V26.5098ZM31.8363 27.5957C31.5039 27.253 31.0834 27.0682 30.6146 26.9856C29.9572 26.8685 29.2924 26.7834 28.6362 26.659C27.6142 26.4655 26.5847 26.2942 25.58 26.0316C24.1214 25.6508 22.6726 25.2293 21.24 24.7646C20.4413 24.5058 19.6834 24.1237 18.7879 23.7466C18.9727 23.9684 19.057 24.1274 19.1898 24.2162C19.4998 24.4257 19.8322 24.5995 20.1547 24.7905C20.5206 25.0074 20.9262 25.1849 21.0639 25.6767C20.8233 25.6964 20.605 25.7149 20.4251 25.7297C20.3346 26.2362 21.4348 26.1463 20.8692 26.8192C24.2901 28.4843 27.737 30.0619 31.5523 30.6498C31.3005 30.4624 31.0276 30.3207 30.7423 30.2122C29.9535 29.914 29.1522 29.6477 28.372 29.331C27.9342 29.1535 27.6526 28.7986 27.4653 28.2871C27.8585 28.3413 28.1798 28.3832 28.501 28.4313C31.1988 28.8392 33.8668 29.4555 36.6042 29.5787C37.0718 29.5997 37.5419 29.5812 38.0108 29.5812C38.017 29.5208 38.0232 29.4616 38.0294 29.4013C37.7788 29.3088 37.5345 29.1658 37.2752 29.1326C36.0411 28.9723 34.8045 28.8318 33.5666 28.7024C32.8125 28.6236 31.4989 28.3771 31.1008 27.8865C31.3476 27.7879 31.5758 27.6967 31.8388 27.592L31.8363 27.5957Z" fill="white"/>
<path d="M23.5857 22.7717C22.0948 22.9492 20.8383 22.3231 19.6302 21.5922C18.7719 21.0733 17.9533 20.4879 17.1235 19.9222C16.9994 19.8384 16.9089 19.7053 16.7725 19.5635C17.3393 19.322 17.823 19.4391 18.2906 19.6806C18.5722 19.8261 18.85 19.9838 19.1167 20.1539C19.9812 20.7036 20.9499 20.78 21.9174 20.6752C23.2136 20.5347 24.3832 20.8737 25.5442 21.3704C26.2648 21.6785 27.0066 21.9361 27.7408 22.2134C27.8202 22.243 27.9269 22.2898 27.9914 22.2615C28.7269 21.941 29.3893 22.2984 30.0851 22.4377C30.487 22.5178 30.926 22.3946 31.3378 22.4488C32.4145 22.5905 33.3323 23.1341 34.2675 23.6431C35.1333 24.1151 36.0276 24.5379 36.9293 24.9359C37.4726 25.1763 37.7256 25.3661 37.9241 25.933C37.5433 26.3089 37.1067 26.0883 36.7023 26.0156C35.9308 25.8776 35.1643 25.7075 34.4015 25.53C34.1522 25.4721 33.8669 25.4043 33.6871 25.2428C32.9143 24.5489 31.958 24.5021 31.0116 24.459C30.069 24.4158 29.1238 24.4479 28.1799 24.4491C26.8428 24.4504 25.5851 24.2051 24.5048 23.3473C24.2207 23.1217 23.8858 22.9603 23.5733 22.7692C24.2393 22.7766 24.826 22.9763 25.3296 23.4335C25.5268 23.6135 25.7861 23.8132 26.0329 23.8366C27.05 23.9339 28.0782 23.9339 29.0953 24.035C30.3183 24.1558 31.5487 24.2716 32.7481 24.5243C33.6945 24.7227 34.5206 25.3353 35.529 25.4203C36.1355 25.4708 36.7321 25.6323 37.3324 25.7445C37.1551 25.4967 36.9504 25.3131 36.7123 25.196C35.8018 24.7511 34.8331 24.4417 33.9761 23.8637C33.3658 23.452 32.6588 23.171 31.9692 22.895C31.6492 22.7668 31.2523 22.7064 30.9186 22.7692C30.5118 22.8457 30.1608 22.8161 29.7961 22.6534C29.3173 22.4402 28.8385 22.2738 28.3064 22.5338C28.1588 22.6053 27.9405 22.5486 27.757 22.5289C26.7287 22.4143 25.8369 21.9225 24.9215 21.4998C24.2679 21.199 23.6204 20.8996 22.87 20.9057C22.1469 20.9119 21.4188 20.9119 20.7006 20.8429C20.2107 20.796 19.7133 20.6728 19.2532 20.4965C18.855 20.3437 18.5176 20.0405 18.1269 19.8593C17.8416 19.7275 17.5576 19.4563 17.1421 19.6363C17.6581 19.9641 18.122 20.2513 18.5784 20.5508C19.6575 21.2582 20.7329 21.9743 21.9782 22.3674C22.5053 22.5338 23.0511 22.6398 23.5894 22.7729L23.5857 22.7717Z" fill="white"/>
<path d="M29.0679 33.779C29.9398 33.5079 30.7349 33.7224 31.5349 33.8481C32.2394 33.9578 32.9526 34.1463 33.6497 33.8111C33.7973 33.7396 33.9313 33.6398 34.0863 33.5436C33.9226 33.36 33.7911 33.2121 33.6609 33.0642C33.682 33.026 33.703 32.9866 33.7241 32.9483C34.322 33.0457 34.9198 33.1419 35.5177 33.2392C35.5301 33.1887 35.5412 33.1394 35.5536 33.0889C34.8516 32.4825 33.7328 32.6057 33.0419 31.7307C35.5822 31.8712 37.8731 32.3802 39.8688 33.9294C39.5327 34.3139 39.1296 34.2622 38.7562 34.3152C38.0033 34.4199 37.2517 34.5358 36.5013 34.6566C36.4107 34.6714 36.3301 34.7465 36.1602 34.8415C36.8572 35.1323 37.47 35.4084 38.0963 35.6463C39.4285 36.1528 40.7743 36.6286 41.9551 37.4543C42.5455 37.8672 43.0863 38.322 43.4261 39.022C41.6127 38.8815 40.2285 37.5961 38.4697 37.4235C38.456 37.5283 38.4412 37.6392 38.4213 37.7908C35.313 36.4572 32.227 35.1336 29.0691 33.779H29.0679ZM35.7856 34.9684C36.7816 34.1808 37.9698 34.272 38.9398 33.7606C38.1422 32.9101 35.2373 31.9451 34.023 32.167C34.2612 32.2532 34.3976 32.3038 34.5353 32.3518C34.9508 32.4948 35.3788 32.6131 35.7781 32.7931C35.9084 32.8522 36.0175 33.0691 36.0287 33.222C36.0349 33.2971 35.7967 33.4623 35.6677 33.4635C35.3329 33.466 34.9831 33.4487 34.668 33.3489C34.3654 33.254 34.2724 33.3415 34.162 33.5979C34.0962 33.7507 33.9201 33.9454 33.7762 33.9615C33.0965 34.0366 32.4106 34.081 31.7259 34.0884C31.3414 34.0921 30.9569 34.0021 30.5724 33.9553C30.5699 33.9836 30.5662 34.0108 30.5637 34.0391C33.0891 35.173 35.6157 36.3069 38.115 37.4297C38.1112 37.4038 38.0939 37.2892 38.0715 37.1363C39.7696 37.1893 41.1451 38.1051 42.6918 38.5648C42.4909 38.2961 42.2825 38.0126 42.0022 37.8758C40.6167 37.2017 39.2127 36.5657 37.816 35.9162C37.1686 35.6155 36.5211 35.3123 35.7843 34.9684H35.7856Z" fill="white"/>
<path d="M40.0761 30.9419C39.7945 30.2467 38.9412 29.9978 38.8779 29.119C39.0578 29.193 39.2265 29.225 39.348 29.3174C40.2125 29.9793 41.1031 30.6116 41.9168 31.3313C43.368 32.6144 44.9469 33.6718 46.7504 34.4064C48.3405 35.0547 49.9083 35.7597 51.486 36.4388C51.4798 36.4782 51.4749 36.5189 51.4687 36.5583C50.9279 36.5891 50.3871 36.6569 49.8475 36.6446C48.4422 36.6138 47.0667 36.4055 45.7346 35.9236C43.8356 35.2371 42.2021 34.1685 40.8674 32.6587C40.5846 32.3383 40.3415 31.9796 40.0352 31.6838C39.7375 31.3967 39.771 31.176 40.0761 30.9406V30.9419ZM40.0463 31.372C42.6052 34.4803 45.6651 36.4659 49.86 36.1319C48.5588 35.528 47.2465 34.945 45.9169 34.4052C44.5401 33.8468 43.3221 33.058 42.2368 32.0585C41.6501 31.5174 41.0808 30.9579 40.4904 30.4205C40.3453 30.2886 40.1505 30.211 39.8863 30.0532C40.0252 30.5832 40.7025 30.879 40.0463 31.3708V31.372Z" fill="white"/>
<path d="M36.1602 22.996C35.5127 22.6472 34.8591 22.3071 34.2178 21.9472C32.877 21.1941 31.5139 20.4756 30.2115 19.6597C28.9501 18.8709 27.7234 18.0192 26.5401 17.1195C25.5639 16.3763 24.6486 15.5456 23.753 14.7063C22.8959 13.9027 22.2621 12.9426 22.0674 11.7533C22.0314 11.5302 22.0289 11.3009 22.0761 11.0631C22.1865 11.3786 22.282 11.6978 22.4085 12.0072C23.0225 13.5133 24.0061 14.7507 25.2898 15.7367C26.6182 16.7572 27.9442 17.7863 29.3433 18.7045C31.0202 19.8051 32.7741 20.7874 34.4907 21.8289C35.0712 22.1813 35.638 22.5536 36.2123 22.9171C36.1949 22.943 36.1788 22.9701 36.1614 22.996H36.1602Z" fill="white"/>
<path d="M43.2178 25.832C42.5406 25.9306 42.1896 25.5682 41.8435 25.2712C41.3771 24.8719 40.979 24.4282 40.3414 24.231C40.05 24.141 39.8515 23.701 39.6468 23.3966C38.9361 22.3416 38.44 21.1954 38.2465 19.9321C38.1845 19.529 38.1274 19.126 38.0518 18.6145C38.3122 18.7291 38.4586 18.7932 38.7005 18.8992C38.6819 18.6429 38.6868 18.4297 38.6484 18.2238C38.3804 16.7892 38.4636 15.3916 39.1842 14.0284C39.2524 14.5362 39.3554 15.044 39.3814 15.5543C39.4335 16.629 39.4248 17.7062 39.4844 18.7797C39.5067 19.1802 39.653 19.5734 39.7597 20.0405C39.9073 19.9062 39.9817 19.8372 40.1256 19.7065C40.1926 19.9616 40.2521 20.1564 40.2943 20.3536C40.6118 21.8289 41.3089 23.1082 42.2602 24.2766C42.6237 24.7227 42.8717 25.2601 43.219 25.8332L43.2178 25.832ZM38.2465 18.9042C38.3519 19.3602 38.4673 19.7398 38.5256 20.128C38.7364 21.5491 39.4087 22.7569 40.2559 23.8846C40.3278 23.9808 40.4642 24.104 40.5597 24.0954C40.9889 24.056 41.1638 24.3628 41.3833 24.6241C41.5309 24.8004 41.6736 24.9963 41.8609 25.1196C42.0444 25.2404 42.4016 25.4055 42.4736 25.3365C42.7415 25.0789 42.4054 24.8904 42.2727 24.703C41.4739 23.5704 40.7259 22.4143 40.3204 21.0746C40.2348 20.7936 40.1554 20.5126 40.0698 20.2192C39.7907 20.4411 39.6803 20.324 39.6357 20.0763C39.4943 19.2862 39.2933 18.4999 39.2338 17.7037C39.1532 16.6117 39.1817 15.5136 39.1643 14.4167C38.6608 15.5851 38.6186 16.7732 38.8257 17.9884C38.8927 18.3804 38.8357 18.7945 38.8357 19.2936C38.6136 19.147 38.476 19.0558 38.2465 18.9042Z" fill="white"/>
<path d="M26.7016 7.58377C26.7326 8.2222 26.75 8.86062 26.7971 9.49782C26.8753 10.5565 27.3206 11.4932 27.8452 12.3917C28.7705 13.9767 30.0853 15.2215 31.4522 16.4182C31.5129 16.4712 31.5588 16.5403 31.6568 16.6536C30.9039 16.2555 29.454 14.9417 28.8834 14.3144C28.2012 13.5638 27.6406 12.7479 27.2064 11.8395C26.5553 10.4776 26.4089 9.05536 26.7016 7.58253V7.58377Z" fill="white"/>
<path d="M34.657 15.4692C33.2393 13.3247 34.1473 8.84953 36.0165 7.21278C34.2973 9.79854 33.6796 12.4792 34.657 15.4692Z" fill="white"/>
<path d="M33.8979 8.84953C34.1882 7.52584 35.1457 6.60764 36.2782 5.81761C35.4707 6.84674 34.6632 7.87463 33.8979 8.84953Z" fill="white"/>
<path d="M25.1472 13.6377C24.8533 13.1645 24.5606 12.6912 24.2666 12.2179L24.3559 12.1624C24.6523 12.6308 24.9476 13.0991 25.244 13.5675C25.2117 13.5909 25.1795 13.6155 25.1472 13.639V13.6377Z" fill="white"/>
</g>
<defs>
<clipPath id="clip0_133_827">
<rect width="64.4" height="41.8035" fill="white" transform="translate(0.000488281 0.538864)"/>
</clipPath>
</defs>
</svg>
