<svg width="84" height="39" viewBox="0 0 84 39" fill="none" xmlns="http://www.w3.org/2000/svg">
<path d="M40.3169 38.0569C36.6776 37.949 33.7866 37.713 30.9743 36.8717C29.6453 36.4738 28.3622 35.9629 27.2022 35.1671C25.8961 34.2702 25.0068 33.0495 24.4867 31.5338C24.3292 31.0752 24.1815 30.6115 23.983 30.1715C23.8649 29.9101 23.6877 29.6623 23.4891 29.46C22.06 27.9965 21.1035 26.265 20.6129 24.257C20.1026 22.1663 20.1436 20.0824 20.7277 18.0187C20.9016 17.4033 21.2052 16.8284 21.4136 16.2214C21.5563 15.8084 21.6908 15.3784 21.7401 14.9468C21.9714 12.8831 22.7409 11.0639 23.9961 9.44199C26.0815 6.74606 28.8676 5.17302 31.9834 4.1024C33.4141 3.61009 34.8728 3.24422 36.3692 3.05708C37.9246 2.8615 39.4768 2.83621 40.9682 3.46172C41.5425 3.70282 42.0922 3.98269 42.5565 4.42106C42.6451 4.50536 42.819 4.55088 42.9404 4.53233C45.4935 4.12601 48.0383 3.64381 50.6012 3.31166C52.8162 3.02504 55.0493 2.83621 57.2808 2.73673C58.9445 2.66255 60.6197 2.75191 62.2851 2.85475C63.8783 2.95254 65.4633 3.16667 66.981 3.72474C67.5782 3.94392 68.1131 4.2592 68.5545 4.75151C68.835 5.06511 69.2009 5.28261 69.4077 5.68894C69.621 6.10538 69.6718 6.40718 69.3273 6.74438C68.9958 7.06809 68.6201 7.37157 68.2148 7.5857C66.3673 8.55852 64.3984 9.1402 62.3425 9.44368C60.6 9.69995 58.8674 10.022 57.1265 10.2884C55.5284 10.5328 53.9237 10.747 52.3224 10.9678C50.8112 11.1752 49.3001 11.3758 47.7889 11.5782C46.1646 11.7973 44.5386 11.9946 42.9191 12.2408C41.3719 12.4768 39.8263 12.7365 38.2889 13.0349C37.1567 13.2541 36.0476 13.5896 34.9138 13.8003C34.2755 13.9183 33.9901 14.2926 33.8079 14.8676C33.5946 15.5403 33.3616 16.2079 33.1057 16.8638C32.7546 17.7608 32.1343 18.4301 31.2598 18.769C29.8274 19.3254 28.9283 20.3842 28.3474 21.7853C28.2621 21.9893 28.1604 22.1865 28.0882 22.3956C28.0259 22.5743 28.0587 22.694 28.2769 22.7699C30.5428 23.5691 32.8579 24.1676 35.2223 24.5385C36.8302 24.7914 38.448 25.0106 40.0691 25.132C43.029 25.3529 45.9956 25.4759 48.9571 25.6648C51.1886 25.8081 53.4217 25.9531 55.6482 26.1689C57.1052 26.3088 58.5458 26.5921 59.865 27.3086C60.5623 27.688 61.171 28.1736 61.4959 28.9356C61.9537 30.0113 61.6977 31.0094 61.0972 31.9384C60.2227 33.2923 58.9412 34.1302 57.5433 34.7996C55.932 35.5701 54.2371 36.0826 52.516 36.526C50.1729 37.1296 47.7955 37.5309 45.395 37.7535C43.4671 37.9322 41.5294 37.9946 40.3201 38.0654L40.3169 38.0569ZM25.9995 33.6868C25.9601 33.4946 25.924 33.3007 25.8797 33.1085C25.7288 32.4526 25.5762 31.7985 25.4236 31.1426C25.3711 30.9184 25.2726 30.7397 24.9543 30.6486C25.0708 31.3062 24.9051 31.9502 25.2398 32.5235C25.4728 32.923 25.7452 33.299 25.9995 33.6851C26.3457 34.0459 26.6443 34.4624 27.1267 34.7068C26.9003 33.7492 26.6837 32.8354 26.4671 31.9232C26.3867 31.586 26.1898 31.377 25.8338 31.3045C25.8338 31.4006 25.8256 31.4714 25.8338 31.5405C25.9109 32.1053 26.0011 32.6685 26.0651 33.2366C26.0815 33.3816 26.0225 33.5367 25.9995 33.6868ZM27.3515 22.8542C27.2153 22.7412 27.0693 22.6384 26.9446 22.5136C26.728 22.2961 26.5869 22.4125 26.4458 22.603C26.1734 22.9722 25.9142 23.3533 25.6139 23.6989C25.4334 23.9063 25.4777 24.0277 25.6451 24.1929C25.8436 24.3885 25.9437 24.2688 26.0897 24.1153C26.5016 23.6803 26.9347 23.2656 27.3597 22.8441C27.299 22.9402 27.2449 23.043 27.1759 23.1324C26.8658 23.5286 26.5557 23.9231 26.2374 24.3126C26.0766 24.5099 26.1701 24.6228 26.3277 24.7526C26.477 24.8757 26.5787 24.9297 26.7346 24.7442C27.0775 24.3362 27.4434 23.9484 27.8044 23.5556C27.9094 23.4409 28.0291 23.3381 28.1407 23.2285C28.1588 23.2453 28.1784 23.2639 28.1965 23.2808C28.1341 23.3701 28.0751 23.4628 28.0094 23.5488C27.6829 23.972 27.3515 24.3918 27.0283 24.8167C26.9331 24.9432 26.7772 25.078 26.9823 25.2433C27.1595 25.3866 27.3023 25.4068 27.4762 25.2011C27.9012 24.697 28.3524 24.2165 28.7937 23.7275C28.8577 23.6567 28.9332 23.596 29.0038 23.5303C29.03 23.5556 29.0563 23.5792 29.0825 23.6045C28.5788 24.2468 28.0751 24.8892 27.573 25.5316C27.8716 25.9362 28.0587 25.9463 28.3556 25.6074C28.8594 25.0325 29.3696 24.466 29.8799 23.8978C29.9095 23.8641 29.957 23.8489 29.9964 23.8253C30.021 23.8473 30.044 23.8692 30.0686 23.8911C29.514 24.6076 28.9595 25.3225 28.4065 26.0357C28.7823 26.3746 28.8922 26.3661 29.2006 26.0408C29.6174 25.6007 30.0424 25.1691 30.4706 24.7408C30.6855 24.525 30.9136 24.321 31.1351 24.1103C31.1646 24.1389 31.1925 24.1676 31.2221 24.1946C30.5773 24.955 29.9308 25.7137 29.2827 26.4757C29.8077 26.8163 29.8061 26.8129 30.2393 26.4032C30.633 26.0306 31.0301 25.6597 31.4288 25.2922C31.7783 24.9718 32.1311 24.6565 32.5216 24.3042C31.9457 24.1625 31.4222 24.0597 30.9152 23.9029C29.9521 23.6045 29.0021 23.269 28.0406 22.9655C27.8208 22.8963 27.6157 22.6603 27.3499 22.8508L27.3515 22.8542ZM36.5529 25.1202C36.4988 25.0814 36.4496 25.0173 36.3921 25.0072C35.3929 24.8302 34.3838 24.6987 33.3977 24.4694C32.8481 24.3413 32.4953 24.4036 32.1229 24.8858C31.6126 25.5451 30.9858 26.1099 30.4181 26.7219C30.3656 26.7775 30.3229 26.9225 30.3541 26.9681C30.5067 27.1822 31.0121 27.1872 31.2089 27.0068C31.9982 26.2785 32.7906 25.5552 33.5831 24.8302C33.6258 24.7914 33.6865 24.7712 33.739 24.7425L33.7997 24.8184C33.0122 25.6547 32.2246 26.4926 31.4337 27.3322C31.9932 27.6559 32.0014 27.6559 32.4346 27.2564C33.1008 26.641 33.7653 26.0222 34.4347 25.4102C34.6168 25.2433 34.817 25.0949 35.009 24.9398C35.0336 24.9684 35.0598 24.9988 35.0844 25.0275C34.246 25.9194 33.4059 26.8113 32.5609 27.7082C32.9744 27.978 33.3059 27.8718 33.6521 27.5716C34.6119 26.7404 35.5898 25.9312 36.5611 25.1118C36.5086 25.2095 36.4742 25.3276 36.4003 25.4034C35.6686 26.147 34.9302 26.8871 34.1902 27.6222C34.0557 27.7571 33.9047 27.8751 33.7275 28.0286C34.1787 28.2039 34.5331 28.3219 34.9236 27.9729C35.7703 27.2159 36.6497 26.4977 37.5177 25.7676C37.6785 25.6327 37.8508 25.513 38.0181 25.3866L38.1035 25.4894C37.1256 26.4403 36.1493 27.3929 35.1566 28.359C35.452 28.4703 35.7506 28.6119 36.0558 28.3877C36.3823 28.1483 36.7055 27.9038 37.0156 27.6408C37.7326 27.0355 38.4382 26.4184 39.1519 25.8115C39.2635 25.7154 39.3947 25.6412 39.5162 25.5586C39.5424 25.5923 39.5703 25.626 39.5966 25.6597C38.576 26.6427 37.5554 27.6256 36.5398 28.6052C36.8794 28.8176 37.1436 28.826 37.4488 28.5765C38.576 27.6543 39.6966 26.7236 40.8189 25.7929C40.8862 25.7373 40.9403 25.6614 41.0372 25.5535C40.896 25.5316 40.8091 25.5147 40.7221 25.5063C39.608 25.395 38.494 25.2854 37.3799 25.1775C37.1059 25.1505 36.8319 25.1387 36.5562 25.1185L36.5529 25.1202ZM57.2922 3.10091C57.2857 3.06719 57.2791 3.03516 57.2709 3.00144C56.6901 3.04696 56.1093 3.10766 55.5284 3.13295C52.7325 3.25097 49.9761 3.70113 47.2212 4.1631C45.2917 4.48681 43.3638 4.8139 41.4375 5.16459C40.0609 5.41412 38.6843 5.67039 37.3208 5.98062C34.7661 6.56397 32.2754 7.3564 29.9226 8.55347C27.9373 9.56339 26.1357 10.8228 24.7312 12.6134C23.7434 13.8728 22.9444 15.2334 22.7196 16.8689C22.5769 17.9041 22.5949 18.9174 23.2824 19.7975C24.0109 20.7281 24.9789 21.3216 25.988 21.8645C26.0159 21.8797 26.0635 21.8611 26.1012 21.8578C26.1144 21.8139 26.1324 21.7853 26.1324 21.7566C26.1111 20.2527 26.5787 18.9494 27.5664 17.8231C28.7708 16.449 30.2081 15.4172 31.8357 14.6568C33.4535 13.9015 35.155 13.4041 36.8844 13.0012C40.202 12.2273 43.5672 11.7383 46.9357 11.2814C48.6602 11.0471 50.3912 10.8515 52.1173 10.6205C54.2109 10.3389 56.3012 10.0388 58.3932 9.7421C58.7476 9.69152 59.0971 9.61734 59.4499 9.55496C59.1332 9.42345 58.8214 9.36949 58.5113 9.30543C57.1282 9.02049 55.9156 8.41184 54.9968 7.28727C54.4094 6.56903 54.3832 5.64847 54.8787 4.86954C55.3102 4.19176 55.914 3.73317 56.6212 3.40102C56.8427 3.29649 57.0691 3.20039 57.2939 3.10091H57.2922ZM21.8303 16.3175C21.7926 16.3091 21.7532 16.3024 21.7155 16.2939C21.6498 16.4136 21.5711 16.53 21.5186 16.6547C20.7392 18.5093 20.4586 20.4449 20.6309 22.4546C20.8459 24.9432 21.763 27.1181 23.412 28.9508C24.4966 30.1563 25.7485 31.1612 27.1923 31.8693C28.2096 32.3683 29.2466 32.8421 30.3147 33.2029C31.373 33.5604 32.4756 33.793 33.57 34.0223C34.4856 34.2145 35.4142 34.3427 36.3429 34.4624C37.201 34.572 38.0641 34.6714 38.9271 34.7018C39.8591 34.7355 40.796 34.6967 41.7296 34.663C42.5319 34.6343 43.3408 34.6175 44.1349 34.5113C45.5296 34.3241 46.9226 34.11 48.3025 33.8335C49.6233 33.5688 50.931 33.2383 52.2321 32.8876C53.0345 32.6701 53.8171 32.37 54.603 32.0901C55.2725 31.8524 55.9485 31.6198 56.5966 31.3298C56.969 31.1628 57.3103 30.9083 57.6352 30.6554C57.9207 30.4328 57.878 30.1664 57.5449 30.0265C57.2709 29.9118 56.9772 29.7854 56.6901 29.7803C55.1658 29.7483 53.6415 29.7415 52.1173 29.75C51.1902 29.755 50.2632 29.841 49.3362 29.8292C47.2967 29.8039 45.2539 29.7989 43.2177 29.6758C41.2554 29.5578 39.293 29.3656 37.3454 29.0907C35.0795 28.7704 32.8579 28.214 30.7036 27.403C29.1202 26.8079 27.6009 26.0762 26.262 25.0106C24.8477 23.8827 23.6926 22.5204 22.8345 20.89C22.2307 19.7435 21.827 18.5549 21.827 17.2398C21.827 16.9312 21.827 16.6244 21.827 16.3159L21.8303 16.3175ZM68.374 4.89145C68.2805 4.79029 68.2165 4.70936 68.1426 4.64024C67.6865 4.21705 67.1254 4.00967 66.5495 3.83601C64.5051 3.2223 62.4065 3.01661 60.2883 3.02167C59.5204 3.02336 58.7443 3.09585 57.9879 3.22905C57.0297 3.39765 56.1536 3.79723 55.4874 4.56605C55.0477 5.07523 54.8573 5.67208 54.9755 6.35491C55.1018 7.08664 55.5612 7.57558 56.1224 7.97854C57.3382 8.8502 58.7279 9.20932 60.1767 9.21438C61.2416 9.21775 62.3146 9.08456 63.368 8.91596C65.035 8.64788 66.6266 8.10161 68.123 7.29402C68.5085 7.08495 68.8564 6.7899 69.1927 6.50159C69.3699 6.34985 69.4553 6.12393 69.2288 5.88957C69.0303 6.04131 68.8547 6.20485 68.6529 6.32456C67.4748 7.03269 66.2049 7.47779 64.8595 7.68517C64.7036 7.70878 64.464 7.63459 64.3771 7.51657C64.3115 7.42721 64.4099 7.18948 64.4673 7.031C64.5001 6.93827 64.5953 6.86746 64.6675 6.79327C65.2615 6.18294 65.9949 5.79684 66.7578 5.47144C67.2681 5.25395 67.7997 5.09209 68.374 4.88808V4.89145ZM30.5805 5.24214C30.6002 5.21517 30.6183 5.18651 30.638 5.15953C30.9776 5.38714 31.3238 5.60464 31.6536 5.84574C32.1064 6.17619 32.5462 6.52688 32.9925 6.86746C33.1943 7.02088 33.3945 6.95682 33.5388 6.79159C33.5667 6.75955 33.4371 6.52688 33.337 6.44427C32.7677 5.97219 32.1852 5.51865 31.6077 5.05837C31.5355 5.00104 31.4715 4.93023 31.4042 4.86616C31.5207 4.85605 31.5962 4.88808 31.6618 4.9336C32.3706 5.44109 33.0811 5.9469 33.785 6.46281C33.9966 6.61793 34.1935 6.73258 34.4675 6.48473C33.6783 5.84574 32.9203 5.23034 32.1606 4.61663C32.2689 4.59472 32.3444 4.62169 32.4083 4.66721C33.1172 5.17302 33.8309 5.67545 34.5315 6.19474C34.8613 6.4409 34.9991 6.46787 35.3502 6.1998C34.5807 5.57429 33.8243 4.95889 33.0679 4.3435C33.1549 4.31147 33.2123 4.32327 33.2583 4.3553C34.0032 4.88471 34.7645 5.3922 35.4815 5.95701C35.7818 6.19305 36.0082 6.14247 36.3446 5.96881C35.5521 5.32139 34.7907 4.69925 34.0294 4.0788C34.0458 4.05519 34.0622 4.0299 34.0803 4.0063C34.1837 4.06868 34.2903 4.12263 34.3871 4.19345C35.1091 4.71948 35.8294 5.24889 36.548 5.77829C36.7925 5.9587 36.9927 5.93509 37.2191 5.69062C36.4578 5.07354 35.6964 4.45478 34.9351 3.8377L34.9778 3.76857C35.1419 3.86467 35.3142 3.94897 35.4667 4.06194C36.1116 4.53571 36.7531 5.01453 37.393 5.49505C37.6752 5.7058 37.9164 5.70411 38.1297 5.46301C37.3897 4.85605 36.6497 4.24908 35.9097 3.64044C35.9376 3.60334 35.9639 3.56794 35.9918 3.53084C36.7712 4.11083 37.5489 4.69082 38.3266 5.27249C38.4185 5.33993 38.4989 5.45964 38.5957 5.47313C38.7204 5.48999 38.8582 5.42423 38.9895 5.39557C38.9468 5.29104 38.9304 5.15784 38.8549 5.0904C38.5842 4.84593 38.2938 4.62506 38.0116 4.39577C37.6703 4.11758 37.3274 3.83938 36.9861 3.56119C37.0041 3.53422 37.0205 3.50724 37.0386 3.48026C37.3651 3.68764 37.7015 3.88153 38.0149 4.10577C38.5038 4.45646 38.9796 4.82907 39.4604 5.19156C39.6327 5.32139 39.8017 5.35005 40.0117 5.19156C39.3701 4.53908 38.5662 4.13106 38.0165 3.42294C38.7516 3.88996 39.4555 4.39408 40.1429 4.92517C40.3973 5.12075 40.627 5.16965 40.9403 4.97407C40.814 4.86785 40.7123 4.77175 40.6007 4.69082C40.1052 4.32833 39.5523 4.02822 39.1306 3.59154C38.8287 3.27963 38.5202 3.25265 38.1724 3.23579C37.9098 3.2223 37.644 3.24085 37.3832 3.26783C36.8319 3.32515 36.2789 3.37067 35.7342 3.46846C34.9745 3.60334 34.2116 3.73654 33.4716 3.94729C32.1475 4.32327 30.8349 4.74477 29.6059 5.38883C28.8397 5.79178 28.0537 6.17619 27.3466 6.67188C26.5967 7.19791 25.9207 7.8386 25.2283 8.44725C24.956 8.68666 24.6951 8.95305 24.4851 9.24979C24.0273 9.89384 23.5761 10.5463 23.1725 11.2275C22.6655 12.0823 22.3767 13.0332 22.206 14.0128C22.0961 14.6416 22.0617 15.284 21.9681 15.918C21.8845 16.4845 21.9567 16.6244 22.4981 16.7677C22.7721 16.3277 22.2192 16.2602 22.124 15.9635C22.3258 16.0343 22.4965 16.0933 22.6589 16.1506C22.9493 15.5841 22.4161 15.4678 22.211 15.1694C22.3636 15.2048 22.4899 15.2621 22.6097 15.3346C22.846 15.4779 22.9428 15.3734 22.9969 15.1356C23.0396 14.9434 22.9772 14.822 22.8263 14.7057C22.6458 14.5675 22.4883 14.4005 22.3209 14.2454C22.339 14.2235 22.357 14.2016 22.375 14.1797C22.5326 14.291 22.6884 14.4073 22.8509 14.5135C22.9706 14.5927 23.0986 14.7698 23.2299 14.5439C23.33 14.3702 23.4744 14.1915 23.2053 14.0043C22.9592 13.834 22.7475 13.6115 22.5211 13.4125C22.5408 13.3873 22.5605 13.362 22.5801 13.3367C22.8804 13.5441 23.1807 13.7514 23.4744 13.9538C23.7828 13.6469 23.7795 13.5171 23.4858 13.2743C23.2529 13.0821 23.0248 12.8865 22.7934 12.6909L22.8574 12.6066C23.1429 12.8056 23.4268 13.0079 23.7139 13.2035C23.901 13.3316 24.0732 13.2709 24.088 13.0534C24.0946 12.9674 24.006 12.8528 23.9321 12.7853C23.6335 12.5173 23.3218 12.2627 23.0149 12.0047C23.0363 11.9794 23.0576 11.9525 23.0789 11.9272C23.4071 12.1598 23.7435 12.3807 24.0601 12.6285C24.2324 12.7634 24.3407 12.7483 24.472 12.5847C24.618 12.4043 24.5523 12.288 24.3981 12.17C24.234 12.0435 24.0765 11.9069 23.9174 11.7704C23.7533 11.6304 23.5925 11.4871 23.4317 11.3455C23.453 11.3202 23.4727 11.2949 23.4941 11.2696C23.8714 11.536 24.2455 11.8108 24.6327 12.0637C24.6967 12.1042 24.846 12.0823 24.9051 12.0283C24.956 11.9828 24.9642 11.8395 24.9346 11.7619C24.9051 11.6827 24.8083 11.6271 24.7378 11.5664C24.3899 11.2764 24.0404 10.9897 23.6926 10.7014C23.8107 10.6795 23.8911 10.7149 23.9633 10.7638C24.3161 11.0032 24.6688 11.241 25.015 11.4888C25.1611 11.5933 25.2923 11.6911 25.4285 11.4888C25.5663 11.2865 25.3908 11.1988 25.2809 11.1061C24.9478 10.8228 24.6032 10.5531 24.2652 10.2749C24.2111 10.2294 24.1717 10.1653 24.1274 10.1097C24.6426 10.3811 25.1168 10.6913 25.5713 11.0302C25.7419 11.1583 25.8502 11.1145 25.9683 10.9914C26.1127 10.8414 25.988 10.7352 25.8896 10.6509C25.5401 10.3541 25.184 10.0675 24.828 9.77751C24.741 9.7067 24.6508 9.63926 24.5622 9.57013C24.5917 9.53809 24.6229 9.50437 24.6524 9.47234C25.1414 9.81966 25.6402 10.1552 26.1144 10.5227C26.3227 10.6846 26.4491 10.5548 26.5672 10.4469C26.7296 10.2985 26.5935 10.1956 26.4737 10.0978C26.0848 9.78425 25.6992 9.46728 25.3153 9.14694C25.2398 9.08287 25.1791 9.00026 25.1119 8.92607C25.1972 8.89741 25.2333 8.91259 25.2644 8.93619C25.7649 9.29025 26.2571 9.65612 26.7723 9.98826C26.8757 10.054 27.0627 9.9832 27.212 9.97477C27.1612 9.85844 27.1398 9.70501 27.0545 9.63083C26.6476 9.27508 26.221 8.94125 25.8043 8.59562C25.7337 8.53661 25.6779 8.45905 25.6156 8.39161C25.6369 8.368 25.6599 8.34271 25.6812 8.31911C26.2505 8.7305 26.8265 9.13514 27.3892 9.55664C27.5828 9.70164 27.7125 9.7185 27.8322 9.44199C27.235 8.95811 26.6345 8.47085 26.0356 7.98528L26.0799 7.91278C26.2112 7.98359 26.349 8.0426 26.4704 8.1269C26.9741 8.47591 27.4664 8.84177 27.9766 9.17898C28.0767 9.24473 28.2375 9.21438 28.3704 9.22787C28.3212 9.0913 28.2818 8.95305 28.2211 8.82323C28.1965 8.77265 28.1276 8.7423 28.0784 8.70352C27.6632 8.37306 27.2465 8.0426 26.8347 7.71046C26.769 7.6582 26.7165 7.58738 26.6591 7.525C26.7657 7.50814 26.8429 7.53006 26.9052 7.57558C27.4647 7.97348 28.0259 8.36632 28.5739 8.77939C28.7839 8.93788 28.9398 8.92439 29.1399 8.6934C28.4771 8.14882 27.824 7.61099 27.1694 7.07315C27.1891 7.04617 27.2104 7.0192 27.2301 6.99222C27.3154 7.04449 27.404 7.09001 27.4844 7.14902C28.0833 7.57895 28.6822 8.01226 29.2794 8.44556C29.4386 8.56021 29.5879 8.61585 29.7684 8.35452C29.0891 7.80488 28.4131 7.25524 27.7354 6.7056C27.7502 6.682 27.765 6.65839 27.7797 6.63479C27.911 6.7056 28.0505 6.76292 28.1719 6.84891C28.7215 7.24006 29.2663 7.64133 29.8143 8.03586C29.9685 8.14714 30.1654 8.34946 30.3147 8.12016C30.4526 7.90941 30.1884 7.80319 30.0538 7.6936C29.6978 7.40529 29.327 7.13553 28.9726 6.84722C28.7642 6.67862 28.5722 6.4881 28.3721 6.3077C28.4508 6.26555 28.4935 6.26892 28.523 6.29084C29.181 6.76461 29.8504 7.2232 30.487 7.72395C30.7167 7.90435 30.8906 7.92458 31.1745 7.7543C31.0744 7.64133 31.0022 7.53512 30.907 7.45587C30.5034 7.12542 30.0932 6.80676 29.688 6.47967C29.4927 6.32119 29.3024 6.15596 29.1104 5.9941C29.1268 5.9705 29.1432 5.9469 29.158 5.92329C29.2532 5.97556 29.3549 6.01602 29.4418 6.08009C30.0407 6.51171 30.6347 6.94838 31.2319 7.38169C31.3238 7.44744 31.4206 7.54523 31.5191 7.55198C31.6355 7.55872 31.7586 7.48116 31.8784 7.4407C31.8275 7.34122 31.8013 7.21309 31.7241 7.14902C31.1564 6.67525 30.5789 6.21328 30.0046 5.74795C29.939 5.69568 29.8816 5.6333 29.8209 5.57429C29.9111 5.54394 29.9669 5.5608 30.0112 5.59283C30.6626 6.05817 31.3107 6.5252 31.9621 6.99222C32.0802 7.07652 32.1934 7.18274 32.3247 7.22826C32.4231 7.26367 32.5495 7.21815 32.6643 7.20972C32.6331 7.10013 32.6331 6.95681 32.5642 6.88769C32.3739 6.69717 32.154 6.537 31.944 6.36503C31.4912 5.99242 31.0383 5.61981 30.5855 5.24889L30.5805 5.24214ZM52.7752 32.8809C53.2773 33.1068 53.7433 33.3024 54.1961 33.5233C54.9394 33.8857 55.6777 34.2634 56.4144 34.6394C56.5785 34.722 56.6917 34.8771 56.9296 34.7743C58.1258 34.2584 59.2316 33.5958 60.1587 32.6617C60.7904 32.0261 61.2678 31.2775 61.4171 30.3485C61.573 29.3841 61.0217 28.3523 60.0537 27.7419C58.9461 27.0439 57.7024 26.8214 56.4587 26.5836C56.0912 26.5128 55.8533 26.5803 55.558 26.8703C54.7179 27.6947 53.8089 28.4467 52.9229 29.2222C52.8392 29.2947 52.7211 29.3234 52.6177 29.3723C52.6538 29.4246 52.6899 29.4768 52.726 29.5291C52.8425 29.5358 52.9705 29.578 53.0722 29.5426C53.4003 29.4279 53.7482 29.3335 54.037 29.1447C54.941 28.5563 55.8205 27.9257 56.7131 27.3187C56.928 27.1721 57.1561 27.049 57.3792 26.9141L57.4432 27.0119C56.4144 27.8229 55.3873 28.6321 54.311 29.4802C54.7031 29.5814 55.0378 29.5595 55.3381 29.3909C56.1601 28.9306 56.969 28.4467 57.7845 27.9746C58.1471 27.7655 58.5113 27.5615 58.8739 27.3542C58.8986 27.3946 58.9232 27.4334 58.9478 27.4739C57.9748 28.1449 57.0018 28.8159 56.0305 29.487C56.0502 29.5342 56.0682 29.5814 56.0879 29.6303C56.4653 29.5291 56.8509 29.4566 57.2151 29.3217C58.1061 28.993 58.9855 28.6321 59.8732 28.2916C60.0159 28.2376 60.1702 28.2174 60.3195 28.1803C60.3309 28.2157 60.3424 28.2494 60.3539 28.2848C59.3498 28.7552 58.3456 29.2239 57.3185 29.7061C57.6516 29.986 57.96 30.0703 58.3292 29.9219C58.6163 29.8073 58.9215 29.7415 59.2201 29.6623C59.8551 29.4937 60.4901 29.3285 61.1251 29.1632C61.1366 29.1953 61.148 29.2256 61.1595 29.2577C61.0857 29.2998 61.0184 29.3538 60.9397 29.3807C60.0241 29.6977 59.1053 30.0062 58.1897 30.33C58.0634 30.3755 57.96 30.4868 57.8452 30.5677L57.8862 30.6655C58.9937 30.6031 60.0996 30.5424 61.2071 30.48C61.2104 30.5154 61.2137 30.5525 61.2186 30.5879C61.1037 30.6132 60.9889 30.6469 60.8724 30.6621C59.7583 30.8054 58.6442 30.9403 57.5302 31.092C57.3431 31.1173 57.1626 31.2033 56.9789 31.2606C56.9871 31.3146 56.9936 31.3685 57.0018 31.4225C57.4104 31.4225 57.8206 31.409 58.2291 31.4259C58.641 31.4444 59.0528 31.4815 59.4597 31.5355C59.8502 31.5877 60.262 31.5557 60.664 31.7698C60.5951 31.8069 60.5787 31.8254 60.5607 31.8254C59.1397 31.7934 57.7188 31.758 56.2963 31.731C56.1552 31.7277 56.0124 31.7681 55.8713 31.7884C55.8697 31.8238 55.8681 31.8575 55.8664 31.8929C57.0839 32.1896 58.2865 32.5285 59.4449 33.0208C59.3366 33.0562 59.2382 33.0529 59.143 33.0309C58.0273 32.7831 56.9116 32.5268 55.7942 32.2824C55.2856 32.1711 54.772 32.0783 54.2158 32.4021C54.9295 32.6634 55.5875 32.8944 56.2389 33.149C56.8738 33.3968 57.5252 33.6177 58.1061 33.997C57.6926 33.9346 57.2955 33.8352 56.9034 33.7171C55.9649 33.4356 55.0345 33.127 54.0911 32.864C53.6776 32.7494 53.2412 32.5757 52.7703 32.8792L52.7752 32.8809ZM27.4434 22.1983C27.4303 22.2304 27.4171 22.2624 27.404 22.2944C27.0233 22.2472 26.6755 21.878 26.262 22.1494C26.2391 22.1646 26.1833 22.1309 26.1472 22.114C25.8125 21.9572 25.4581 21.8308 25.1479 21.6335C24.636 21.3081 24.1241 20.9692 23.6631 20.573C23.307 20.2679 23.0281 19.8666 22.718 19.5041C22.6819 19.4619 22.6376 19.381 22.654 19.3439C22.782 19.0539 22.608 18.8887 22.503 18.801C22.503 18.5869 22.5178 18.4588 22.4981 18.3357C22.4784 18.2143 22.3537 18.0491 22.3947 17.9884C22.59 17.6984 22.4177 17.5686 22.2372 17.4758C22.3275 17.4101 22.462 17.3645 22.4883 17.2836C22.5588 17.0678 22.3504 16.8284 21.9222 16.6362C21.9534 16.9043 21.9944 17.1353 22.0026 17.3679C22.0403 18.4419 22.3849 19.4265 22.841 20.3758C22.9116 20.5224 23.0215 20.6489 23.0986 20.7939C23.161 20.9119 23.1692 21.0889 23.2594 21.1496C23.3218 21.1935 23.4826 21.0856 23.6007 21.0451C23.412 21.4885 23.4432 21.6605 23.7697 21.8965C23.8501 21.8055 23.9272 21.7077 24.0125 21.62C24.0897 21.5408 24.1766 21.4734 24.2587 21.4009C23.8255 22.2 23.8255 22.2287 24.2652 22.5659C24.4621 22.3197 24.659 22.0719 24.8575 21.8257C24.8805 21.8443 24.9018 21.8628 24.9248 21.8814C24.8083 22.0651 24.6918 22.2489 24.5753 22.4344C24.3276 22.8255 24.3505 22.925 24.7542 23.188C25.0675 22.8508 25.3842 22.5102 25.6992 22.1697C25.7173 22.1882 25.737 22.2051 25.755 22.2236C25.7189 22.286 25.691 22.3551 25.6484 22.4108C25.4367 22.6839 25.2251 22.957 25.0068 23.2251C24.851 23.419 24.9839 23.5488 25.1102 23.6466C25.1709 23.6921 25.3399 23.6837 25.3875 23.6314C25.7501 23.2302 26.0881 22.8053 26.4491 22.4023C26.5262 22.3164 26.6903 22.2236 26.7772 22.2523C27.0069 22.3298 27.2301 22.4512 27.4286 22.5962C27.5976 22.7193 27.6649 22.6586 27.7289 22.5069C27.8322 22.2641 27.9323 22.0213 28.0341 21.7785C28.6543 20.2982 29.5551 19.1129 31.0925 18.5212C31.8488 18.2295 32.4116 17.6596 32.7316 16.8807C33.0909 16.0056 33.4305 15.1222 33.7784 14.2404C33.7915 14.2067 33.7833 14.1645 33.7866 14.124C33.2041 14.1493 32.9482 14.3398 32.8054 14.849C32.707 15.2048 32.6216 15.5656 32.515 15.918C32.3378 16.5047 32.1475 17.0864 31.9637 17.6714C31.9194 17.6596 31.8767 17.6478 31.8324 17.636C32.0343 16.6362 32.2344 15.6381 32.4444 14.5995C32.2262 14.6956 32.031 14.7479 31.8767 14.8591C31.7652 14.9401 31.652 15.0952 31.6405 15.2284C31.5683 15.9972 31.5273 16.7677 31.4698 17.5365C31.4567 17.7102 31.4239 17.8838 31.4009 18.0575C31.3599 18.0541 31.3189 18.0508 31.2762 18.0457V15.2081C30.7889 15.3144 30.6462 15.4543 30.6905 15.7477C30.7741 16.3007 30.8709 16.852 30.953 17.405C30.9924 17.6765 31.0104 17.9513 31.0383 18.2244C30.9431 18.1873 30.9021 18.1401 30.8906 18.0845C30.7348 17.4168 30.5871 16.7475 30.4279 16.0815C30.4033 15.977 30.3393 15.8842 30.2918 15.7864C30.1474 15.8589 29.9899 15.9146 29.8668 16.0141C29.8159 16.0562 29.8143 16.2063 29.8405 16.2906C30.0079 16.8014 30.1917 17.3055 30.3656 17.813C30.4345 18.0153 30.487 18.2244 30.5461 18.4301C30.5198 18.4419 30.4936 18.452 30.4673 18.4638C30.4099 18.3593 30.3459 18.2598 30.2983 18.1519C30.0735 17.6293 29.857 17.1049 29.6338 16.5822C29.5747 16.444 29.5025 16.2855 29.3171 16.3799C29.1383 16.471 29.0677 16.6176 29.1777 16.825C29.35 17.1504 29.514 17.4792 29.6732 17.8097C29.811 18.098 29.9374 18.3913 30.0686 18.683C30.044 18.6999 30.0194 18.7167 29.9948 18.7319C29.9456 18.6779 29.8865 18.6307 29.8504 18.57C29.5583 18.0727 29.2696 17.5736 28.9841 17.0712C28.9053 16.9329 28.8249 16.7761 28.6658 16.9346C28.5411 17.0577 28.267 17.1538 28.4836 17.4354C28.7642 17.8012 29.0316 18.1772 29.2958 18.5549C29.3975 18.6999 29.4763 18.8617 29.5665 19.0152C29.5403 19.0337 29.5124 19.0522 29.4861 19.0691C29.0431 18.5481 28.6001 18.0255 28.1588 17.5062C27.7404 17.7119 27.7108 17.8636 28.0177 18.1823C28.162 18.3323 28.3097 18.4824 28.4443 18.6409C28.6756 18.914 28.8971 19.1956 29.1235 19.4721C29.1022 19.494 29.0809 19.5159 29.0595 19.5378C28.9808 19.4771 28.8971 19.4232 28.8249 19.3557C28.4689 19.0185 28.1161 18.6779 27.7633 18.3374C27.5714 18.1502 27.4368 18.1806 27.3154 18.4217C27.217 18.6156 27.3597 18.6881 27.4631 18.7825C27.8815 19.1585 28.3015 19.5311 28.7199 19.9054C28.7002 19.9307 28.6805 19.9576 28.6608 19.9829C28.5607 19.9205 28.4541 19.8649 28.3589 19.7941C28.016 19.5412 27.6698 19.2917 27.3384 19.0236C27.1612 18.8803 27.0201 18.8938 26.8921 19.0708C26.7739 19.236 26.8379 19.3642 26.9889 19.4704C27.0988 19.5479 27.2038 19.6339 27.3088 19.7182C27.6337 19.9779 27.9569 20.2392 28.2802 20.4988C28.2638 20.5241 28.2474 20.5494 28.231 20.5747C28.1374 20.5241 28.0406 20.4786 27.9504 20.4213C27.6091 20.2055 27.2744 19.9762 26.9249 19.7739C26.8412 19.725 26.6509 19.7199 26.6132 19.7722C26.5131 19.9138 26.4442 20.1009 26.6345 20.2493C26.6837 20.2881 26.7379 20.3184 26.7887 20.3538C27.1021 20.5764 27.4138 20.8023 27.7305 21.0181C27.8126 21.0738 27.9159 21.0957 28.0078 21.1328C27.9651 21.1783 27.9225 21.2255 27.8815 21.271C27.4024 21.0114 26.9233 20.7501 26.4343 20.4837C26.3113 20.8276 26.4081 21.0063 26.664 21.1311C26.9429 21.2677 27.212 21.4245 27.4811 21.5796C27.5681 21.6301 27.6403 21.706 27.719 21.7701C27.7043 21.792 27.6911 21.8122 27.6764 21.8342C27.2383 21.6538 26.8002 21.4734 26.349 21.2862C26.2653 21.5779 26.3359 21.7077 26.5705 21.7954C26.8675 21.905 27.1497 22.0601 27.4385 22.195L27.4434 22.1983ZM42.2644 29.3807C42.6763 29.4499 43.0881 29.5274 43.4638 29.2189C43.6411 29.0739 43.8445 28.9643 44.0201 28.8193C44.9504 28.0488 45.8741 27.2715 46.8012 26.4977C46.9849 26.3442 47.1753 26.2009 47.364 26.0526C47.3902 26.0863 47.4165 26.12 47.4443 26.1537C46.3401 27.285 45.2556 28.4366 43.9282 29.4212C44.0709 29.4667 44.1595 29.5038 44.2514 29.5224C44.7305 29.6151 45.0882 29.347 45.4262 29.0705C46.5879 28.1247 47.7397 27.1636 48.8932 26.2077C48.944 26.1655 48.9801 26.1014 49.0408 26.0256C48.9555 26.0037 48.8964 25.9801 48.839 25.9767C48.2122 25.9463 47.5871 25.9177 46.9603 25.8907C46.2532 25.8603 45.546 25.8485 44.8405 25.7997C44.4598 25.7744 44.1923 25.8283 43.8839 26.152C42.9404 27.1383 41.9166 28.0454 40.919 28.9778C40.855 29.0385 40.7451 29.0469 40.6565 29.0806C40.791 29.2206 40.814 29.2425 40.8403 29.2526C41.2045 29.3976 41.5294 29.3099 41.8231 29.0688C42.8765 28.2039 43.9282 27.3373 44.9816 26.4724C45.2031 26.2903 45.4344 26.1217 45.6608 25.9463C45.692 25.9868 45.7232 26.0256 45.756 26.066C44.5976 27.1636 43.4409 28.2612 42.2661 29.3774L42.2644 29.3807ZM49.1245 29.546C49.5462 29.6606 49.8825 29.5392 50.1828 29.3167C51.2985 28.4855 52.4093 27.6441 53.5218 26.8062C53.7072 26.6663 53.8844 26.5145 54.1403 26.3071C53.6891 26.2768 53.3347 26.2549 52.9819 26.2313C52.3765 26.1891 51.7727 26.1352 51.1673 26.1099C51.0409 26.1048 50.8785 26.1689 50.7866 26.2582C50.209 26.8315 49.6594 27.4334 49.0769 27.9999C48.5273 28.536 47.9481 29.0402 47.3344 29.6016C47.7594 29.6606 48.1286 29.6825 48.4551 29.4145C49.6807 28.4146 50.9031 27.4132 52.1287 26.4134C52.1763 26.3746 52.2354 26.351 52.2895 26.3206L52.3699 26.4201C51.2969 27.4536 50.2238 28.4871 49.1245 29.546ZM39.1946 29.0874C39.5719 29.1447 39.9099 29.2189 40.2365 28.9508C40.8403 28.4568 41.4703 27.9982 42.0758 27.5076C42.6812 27.0169 43.2719 26.5044 43.8658 25.9986C43.9216 25.9514 43.9594 25.8806 44.0381 25.7777C43.2423 25.7204 42.504 25.6951 41.7739 25.6007C41.3571 25.5467 41.1044 25.6496 40.8042 25.9733C39.9953 26.845 39.1191 27.6509 38.2643 28.477C38.1346 28.6018 37.9837 28.703 37.8229 28.8294C38.1543 29.0048 38.4283 29.0064 38.7007 28.7957C38.9468 28.6052 39.2175 28.445 39.4571 28.246C40.3054 27.5396 41.1438 26.8214 41.9872 26.1099C42.1233 25.9952 42.2759 25.8974 42.4203 25.7929C42.4482 25.8266 42.4745 25.8587 42.5024 25.8924C41.4096 26.9478 40.3169 28.0016 39.1929 29.0857L39.1946 29.0874ZM49.8071 33.6548C49.7972 33.6986 49.7874 33.7424 49.7775 33.7863C49.8612 33.8335 49.9416 33.8858 50.0269 33.9262C50.4076 34.1117 50.7981 34.2786 51.1705 34.4809C51.8892 34.8704 52.6177 35.248 53.3052 35.6915C53.5825 35.8702 53.7908 35.9157 54.0895 35.8061C54.7261 35.5701 55.3758 35.3728 56.0174 35.1519C56.2028 35.0879 56.3767 34.9968 56.59 34.9024C56.5145 34.8417 56.4932 34.8164 56.4669 34.8046C55.1904 34.3022 53.9139 33.7964 52.6341 33.3024C52.1484 33.1152 51.6611 33.0916 51.1689 33.3563C52.4766 33.9869 53.7646 34.609 55.0526 35.2295C55.0345 35.2733 55.0165 35.3172 55.0001 35.361C54.6457 35.2346 54.2896 35.1165 53.9402 34.98C52.8047 34.5416 51.6759 34.083 50.5339 33.6649C50.319 33.5856 50.0515 33.6531 49.8087 33.6531L49.8071 33.6548ZM30.7545 36.3119C30.7266 36.317 30.6987 36.322 30.6724 36.3271C30.6363 36.2327 30.5904 36.1399 30.5658 36.0422C30.382 35.2835 30.1572 34.5315 30.0391 33.7627C29.962 33.2636 29.688 33.0933 29.2892 32.9753C29.0842 32.9146 29.0169 32.9753 29.0595 33.1877C29.1137 33.4558 29.1678 33.7256 29.2121 33.9953C29.3007 34.5484 29.4435 35.1014 29.4468 35.6561C29.45 36.0118 29.5862 36.1096 29.8487 36.1922C30.2901 36.3321 30.7266 36.4873 31.1679 36.6221C31.5273 36.7317 31.8899 36.8228 32.2787 36.929C31.9588 35.9646 31.6585 35.0457 31.3484 34.1302C31.1532 33.5536 31.0055 33.4541 30.3607 33.4322C30.4755 34.3966 30.72 35.3408 30.7577 36.3102L30.7545 36.3119ZM29.3647 35.9545C29.1383 34.9901 28.9184 34.0881 28.715 33.1827C28.61 32.7173 28.4557 32.5589 27.9356 32.4813C28.0784 33.4288 28.2178 34.3663 28.3589 35.3054C28.3343 35.3138 28.3081 35.3222 28.2835 35.3307C28.2342 35.211 28.1702 35.0963 28.1407 34.9715C27.9455 34.1825 27.7535 33.3934 27.5714 32.6027C27.4746 32.1846 27.3384 32.0396 26.8675 31.9418C26.8675 32.0379 26.856 32.1272 26.8691 32.2132C26.9036 32.4324 26.9544 32.6482 26.9905 32.8674C27.0775 33.3985 27.2301 33.933 27.2186 34.4641C27.212 34.8282 27.3892 34.9513 27.6042 35.0778C28.0849 35.361 28.5804 35.619 29.0743 35.8803C29.1498 35.9208 29.2449 35.9258 29.3647 35.9545ZM45.5706 29.5645C45.989 29.6589 46.3171 29.6842 46.6043 29.4735C47.2589 28.9963 47.9153 28.5209 48.5453 28.0117C49.2426 27.4503 49.9121 26.8534 50.5913 26.27C50.6373 26.2296 50.6652 26.1672 50.7193 26.0863C50.3748 26.0677 50.0778 26.0559 49.7808 26.034C49.4576 26.0104 49.2197 26.034 48.9358 26.3291C47.9628 27.3457 46.9127 28.2848 45.8905 29.2526C45.8036 29.3352 45.7166 29.4212 45.569 29.5645H45.5706ZM47.8578 37.1347C47.6839 37.0217 47.5805 36.9425 47.4673 36.8818C47.1753 36.725 46.8799 36.5766 46.5862 36.4249C45.5476 35.8904 44.5107 35.3509 43.4688 34.8249C43.1406 34.6596 42.8075 34.749 42.4745 34.8485C42.5877 34.9749 42.7091 35.0491 42.8239 35.1334C43.7296 35.796 44.6403 36.4485 45.5329 37.1296C45.7445 37.2915 45.9217 37.3943 46.1974 37.3488C46.6437 37.2763 47.0982 37.2527 47.5494 37.2055C47.6248 37.1971 47.7003 37.1718 47.8562 37.1364L47.8578 37.1347ZM43.5639 37.5882C43.5721 37.5562 43.5787 37.5242 43.5869 37.4904C43.3785 37.3421 43.1669 37.1954 42.9601 37.042C42.0429 36.3591 41.1323 35.6679 40.2102 34.9935C39.8509 34.7304 39.4423 34.8114 38.9862 34.8434C39.0617 34.9412 39.0879 34.9833 39.1224 35.0187C39.9378 35.8702 40.7533 36.7199 41.572 37.568C41.6131 37.6101 41.6754 37.6557 41.7279 37.654C42.3399 37.6371 42.9519 37.6101 43.5656 37.5865L43.5639 37.5882ZM41.4309 37.7062C41.4473 37.6776 41.4638 37.6489 41.4802 37.6219C41.2144 37.3994 40.9453 37.1802 40.6844 36.9509C39.9493 36.3052 39.2143 35.6611 38.489 35.0053C38.1576 34.7052 37.7835 34.7439 37.3832 34.7608C37.3979 34.8299 37.3946 34.8653 37.4111 34.8872C38.0542 35.7876 38.6991 36.6896 39.3504 37.5849C39.3964 37.6489 39.503 37.6995 39.5818 37.7012C40.1987 37.7113 40.814 37.7062 41.4309 37.7062ZM55.7023 26.5735C55.6958 26.5432 55.6876 26.5145 55.681 26.4842C55.2364 26.4353 54.7917 26.383 54.3454 26.3442C54.288 26.3392 54.2158 26.3948 54.1666 26.4403C53.1263 27.3676 52.0894 28.2966 51.0524 29.2256C50.9802 29.2897 50.9097 29.3571 50.8391 29.4229C51.2887 29.519 51.7235 29.6134 52.1025 29.3318C52.9015 28.7384 53.6908 28.128 54.4816 27.5211C54.8918 27.2075 55.2971 26.8888 55.7056 26.5718L55.7023 26.5735ZM49.6627 36.8396C49.6627 36.8025 49.6627 36.7638 49.6643 36.7267C49.597 36.6845 49.5331 36.6339 49.4625 36.5985C49.0671 36.3979 48.6667 36.204 48.2729 36C47.3935 35.5431 46.519 35.071 45.6346 34.6225C45.2113 34.4084 44.783 34.6074 44.3466 34.6546C44.4286 34.754 44.5205 34.8131 44.6124 34.8704C45.5427 35.4554 46.4943 36.0051 47.3918 36.639C47.8545 36.9661 48.2746 37.1617 48.8308 36.9914C49.0982 36.9088 49.3854 36.8902 49.6627 36.8413V36.8396ZM46.3303 34.2887C46.3237 34.3342 46.3171 34.3814 46.3122 34.427C46.3779 34.4742 46.4418 34.5247 46.5108 34.5686C47.6035 35.2784 48.6963 35.9865 49.7907 36.693C49.8481 36.73 49.9301 36.7587 49.9941 36.7469C50.5946 36.6424 51.1935 36.5277 51.7924 36.4164C51.7054 36.29 51.6135 36.231 51.5151 36.1872C51.0147 35.968 50.5126 35.7505 50.0089 35.5364C49.0884 35.1469 48.1729 34.7406 47.2409 34.3831C46.9652 34.2769 46.6355 34.3157 46.3319 34.287L46.3303 34.2887ZM39.229 37.6388C39.2225 37.6253 39.2126 37.5832 39.1864 37.5528C38.4382 36.666 37.6933 35.7775 36.9385 34.8974C36.6054 34.5079 36.146 34.6158 35.6718 34.5483C35.7309 34.6664 35.7539 34.722 35.7834 34.7743C36.3085 35.6797 36.8319 36.5867 37.3668 37.4871C37.4111 37.5612 37.5292 37.6304 37.6129 37.6337C38.1461 37.6472 38.6777 37.6405 39.2274 37.6405L39.229 37.6388ZM68.8383 5.27924C68.8219 5.23877 68.8072 5.19831 68.7907 5.15784C68.6316 5.16796 68.4692 5.15784 68.3149 5.19156C67.4027 5.39388 66.5298 5.71254 65.7241 6.19474C65.3566 6.41561 65.0285 6.71403 64.7085 7.0074C64.615 7.09338 64.6133 7.28559 64.5707 7.43058C64.7151 7.45082 64.8742 7.52331 65.0022 7.48454C65.7996 7.24344 66.6052 7.01583 67.378 6.70729C67.9195 6.49148 68.4166 6.15933 68.9236 5.86091C68.9942 5.81876 69.009 5.67713 69.05 5.58272C68.9483 5.57766 68.8301 5.53382 68.7464 5.5726C68.1722 5.83225 67.6094 6.11718 67.0351 6.37683C66.5429 6.59938 66.0408 6.79833 65.5437 7.00908C65.629 6.88263 65.7406 6.81013 65.8587 6.75281C66.6807 6.36165 67.5044 5.97724 68.3248 5.58272C68.5036 5.49673 68.6677 5.3804 68.8383 5.27755V5.27924ZM45.5854 37.4567C45.5919 37.4264 45.6001 37.3977 45.6067 37.3674C45.5197 37.305 45.4361 37.2392 45.3442 37.1836C44.9307 36.9273 44.5139 36.6761 44.1005 36.4215C43.2981 35.9292 42.4991 35.4301 41.6935 34.9446C41.4244 34.7827 41.134 34.7372 40.8107 34.8957C40.8731 34.9547 40.9092 34.9918 40.9469 35.0255C41.8559 35.8432 42.7665 36.6609 43.6788 37.4753C43.7214 37.5124 43.792 37.536 43.8478 37.5343C44.427 37.5124 45.0062 37.4837 45.587 37.4567H45.5854ZM53.4381 35.9949C53.4381 35.9612 53.4381 35.9292 53.4364 35.8955C53.3462 35.8483 53.2609 35.7943 53.1674 35.7555C52.5422 35.4875 51.9187 35.2177 51.292 34.9564C50.5224 34.636 49.7546 34.3106 48.9768 34.0122C48.6421 33.8841 48.3058 33.9869 47.93 34.11C48.0121 34.169 48.0416 34.196 48.076 34.2145C49.3608 34.8974 50.6455 35.5785 51.9319 36.258C51.9844 36.2849 52.0516 36.3187 52.1041 36.3069C52.5504 36.2091 52.9951 36.1012 53.4397 35.9949H53.4381ZM35.7276 37.4938C35.6013 37.2999 35.5291 37.1988 35.4667 37.0925C34.9597 36.2226 34.4577 35.3509 33.9474 34.4826C33.7817 34.201 33.2419 34.0105 32.935 34.1083C32.935 34.1285 32.9252 34.1521 32.9318 34.169C33.2976 35.1536 33.6635 36.1399 34.036 37.1212C34.0573 37.1785 34.1262 37.246 34.1804 37.2544C34.666 37.3353 35.1517 37.4061 35.7276 37.4921V37.4938ZM33.9441 37.2426C33.4502 36.177 32.9892 35.1772 32.5199 34.1825C32.3854 33.8959 32.0425 33.7441 31.6782 33.793C31.6782 33.8621 31.6634 33.9363 31.6798 34.0021C31.9063 34.9226 32.1343 35.8432 32.3706 36.7604C32.3919 36.8396 32.4625 36.9509 32.5281 36.9661C32.9859 37.0672 33.4486 37.1482 33.9425 37.2409L33.9441 37.2426ZM34.3641 34.4067C34.3986 34.4978 34.4216 34.5669 34.4511 34.6327C34.8793 35.5549 35.3076 36.4755 35.7408 37.396C35.7604 37.4365 35.808 37.4854 35.8458 37.4888C36.3085 37.5393 36.7728 37.5815 37.2896 37.6321C37.2207 37.4888 37.1895 37.3994 37.1387 37.3269C36.5349 36.4586 35.9262 35.5937 35.3207 34.7271C35.1304 34.4556 34.7268 34.3106 34.3625 34.4067H34.3641ZM41.7082 4.96395C41.7181 4.92517 41.7296 4.88808 41.7394 4.8493C41.6738 4.78524 41.6147 4.71442 41.5425 4.66047C41.0634 4.29629 40.5843 3.9338 40.1019 3.57468C39.7902 3.34201 39.4407 3.31672 39.0649 3.37742C39.0814 3.44486 39.1191 3.4634 39.1535 3.48532C39.8542 3.9456 40.5498 4.41431 41.2587 4.86111C41.3817 4.93866 41.5556 4.93023 41.7066 4.96227L41.7082 4.96395ZM40.4924 3.65392C40.8829 4.09566 42.1939 4.81896 42.4187 4.71442C42.1857 4.35699 40.837 3.61514 40.4924 3.65392ZM24.385 30.0973C24.3456 30.1141 24.3062 30.131 24.2685 30.1479C24.4309 30.6166 24.5934 31.0853 24.7558 31.554L24.8526 31.5169C24.7607 31.0195 24.8575 30.4547 24.385 30.0956V30.0973Z" fill="white"/>
<path d="M54.0307 6.55723C53.5942 6.76966 53.4629 7.07146 53.4301 7.43901C53.3842 7.95661 53.5072 8.12184 54.07 8.17917C53.8994 8.3073 53.7845 8.41521 53.6516 8.49276C52.7049 9.05083 51.6663 9.25315 50.5949 9.22618C49.6071 9.20089 48.9164 8.5973 48.3848 7.79813C48.2191 7.55029 48.1026 7.26029 48.0008 6.97704C47.9106 6.72245 47.9943 6.48641 48.2305 6.35153C48.4159 6.24531 48.6161 6.13404 48.8212 6.10032C50.1716 5.87776 51.5252 5.8373 52.869 6.14415C53.2332 6.22677 53.5778 6.39537 54.029 6.55891L54.0307 6.55723ZM48.6916 6.6567C50.2946 6.35828 51.9026 6.49822 53.5909 6.55723C53.038 6.27398 52.5343 6.20822 52.0174 6.19979C51.6876 6.19473 51.3578 6.1509 51.0297 6.16607C50.2799 6.20148 49.5284 6.23857 48.7835 6.32456C48.2748 6.38357 48.1272 6.69379 48.3602 7.15745C48.5423 7.51994 48.7441 7.8858 49.0001 8.19265C49.4989 8.7895 50.1305 9.16885 50.9263 9.04746C51.6138 8.94124 52.2947 8.77096 52.9724 8.60573C53.143 8.56358 53.2923 8.43375 53.3858 8.38149C53.271 8.09318 53.1758 7.84871 53.0774 7.60761C53.0446 7.52668 53.0085 7.39349 52.9559 7.38337C52.5654 7.30581 52.1717 7.21308 51.7762 7.20128C50.9952 7.17768 50.2126 7.19622 49.4316 7.20971C49.2298 7.21308 49.0296 7.25692 48.8278 7.28221C48.8885 7.20128 48.9607 7.16588 49.0362 7.16082C49.6203 7.11867 50.206 7.07315 50.7901 7.04785C51.4579 7.01751 52.1274 7.00739 52.7968 6.9821C52.8936 6.97873 52.9871 6.92815 53.0823 6.90117C53.0757 6.87082 53.0708 6.84048 53.0642 6.80844C51.6056 6.73088 50.1584 6.3802 48.69 6.66176L48.6916 6.6567Z" fill="white"/>
<path d="M65.0976 3.9692C65.4946 3.9692 65.8573 4.34518 65.8605 4.76162C65.8622 5.12243 65.4405 5.48829 65.0188 5.48661C64.6267 5.48661 64.3395 5.15784 64.3379 4.70599C64.3363 4.21536 64.5889 3.9692 65.0976 3.96751V3.9692ZM65.5521 4.52727L65.5471 4.40419C65.4471 4.35192 65.3388 4.24402 65.2502 4.26088C65.1501 4.27774 65.068 4.40588 64.9778 4.48512C65.0746 4.56605 65.1648 4.69756 65.2715 4.71273C65.3552 4.72453 65.4585 4.59471 65.5521 4.52727Z" fill="white"/>
<path d="M51.7743 7.53511C50.9211 7.62615 50.0695 7.71551 49.2163 7.80655C50.058 7.5958 50.8997 7.39348 51.7743 7.53511Z" fill="white"/>
<path d="M49.9204 8.29719C50.5669 8.1876 51.2133 8.07633 51.8598 7.96674C51.8647 7.99877 51.8696 8.0308 51.8762 8.06284C51.2297 8.16737 50.5816 8.27359 49.9352 8.37812C49.9303 8.35115 49.927 8.32417 49.9221 8.29719H49.9204Z" fill="white"/>
<path d="M51.9106 8.40847C52.2913 8.31405 52.6703 8.22132 53.051 8.12691C53.0608 8.17243 53.0707 8.21627 53.0805 8.26179C52.6917 8.3326 52.3011 8.40173 51.9123 8.47254C51.9123 8.45062 51.9123 8.43039 51.9123 8.40847H51.9106Z" fill="white"/>
<path d="M11.8758 9.64094C9.94137 15.0699 6.04127 7.73744 10.683 9.59711C6.78617 2.65749 -1.32415 19.2259 13.5708 16.1658C14.2927 16.0174 14.4371 16.0174 14.8341 15.8353C15.0507 15.7359 15.1639 15.7831 15.136 16.0225C15.2345 18.3087 14.5815 18.243 12.1416 18.4099C8.92081 18.6307 5.33081 17.5112 4.14782 14.1544C4.04281 19.1264 10.5009 20.2308 14.2402 19.4805C15.0212 18.9663 15.2345 22.3349 14.465 22.0938C10.3237 22.2152 6.11018 20.3471 3.63098 17.2314C5.69834 24.2047 10.4681 30.8948 17.7924 32.3515C19.7745 34.4489 21.8386 36.6002 24.2439 38.3166C14.2746 39.1461 2.46111 31.3736 0.943396 20.7113C-0.420082 15.7055 1.57345 8.9227 6.27589 6.48979C8.58774 5.57092 11.9546 6.6938 11.8758 9.64263V9.64094Z" fill="white"/>
<path d="M67.0382 32.8708C71.5799 29.1919 71.1467 37.7703 68.0588 33.5705C67.8275 41.8032 83.6199 31.7951 68.9793 26.2228C68.2688 25.9531 68.1425 25.8722 67.6995 25.8115C67.4583 25.7777 67.3828 25.6749 67.5338 25.481C68.6478 23.4258 69.1844 23.8456 71.4076 25.0511C74.3429 26.6427 76.8976 29.61 76.1708 33.2046C78.8715 28.9103 73.7999 24.3665 70.1327 22.9503C69.1811 22.9672 70.7595 19.902 71.3075 20.5393C74.996 22.7261 77.7032 26.6966 78.2381 30.797C80.0873 23.5488 79.4244 15.0513 73.7785 9.7185C73.1435 6.78316 72.4659 3.75846 71.2616 0.922592C80.4187 5.72097 86.6799 19.0691 82.4122 29.2425C80.9799 34.3781 75.6753 39.2119 70.282 38.7347C67.7766 38.2576 65.4188 35.4099 67.035 32.8725L67.0382 32.8708Z" fill="white"/>
</svg>
